<svg xmlns="http://www.w3.org/2000/svg" width="398.147" height="345.378" viewBox="0 0 398.147 345.378">
  <g id="Grupo_1161564" data-name="Grupo 1161564" transform="translate(-7007.528 -885.175)">
    <path id="Trazado_995986" data-name="Trazado 995986" d="M464.5,214.289c-8.525,52.723-57.4,96.879-111.575,95.133-46.246-1.374-87.627-36.85-134.75-26.367-24.693,5.716-48.336,21.513-74.548,16.36-24.545-5.154-38.155-29.262-44.471-51.888C78.547,200.579,94.3,145,123.587,105.277,220.7-36.468,489,29.753,464.5,214.289Z" transform="translate(6917.736 856.365)" fill="#f2cfad"/>
    <g id="Grupo_1161525" data-name="Grupo 1161525" transform="translate(7056.976 890.461)">
      <g id="Grupo_1161517" data-name="Grupo 1161517" transform="translate(3.977 3.977)">
        <path id="Trazado_995987" data-name="Trazado 995987" d="M446.309,102.731l-87.481,273.48a8.187,8.187,0,0,1-10.277,5.3L216.3,339.2a8.174,8.174,0,0,1-5.3-10.277l87.481-273.48a8.174,8.174,0,0,1,10.276-5.3l132.25,42.3A8.187,8.187,0,0,1,446.309,102.731Z" transform="translate(-210.615 -49.759)" fill="#471c31"/>
      </g>
      <g id="Grupo_1161518" data-name="Grupo 1161518">
        <path id="Trazado_995988" data-name="Trazado 995988" d="M445.08,98.925,357.6,372.405a12.164,12.164,0,0,1-15.278,7.872l-132.25-42.3A12.165,12.165,0,0,1,202.2,322.7L289.68,49.216a12.164,12.164,0,0,1,15.277-7.872l132.25,42.3A12.164,12.164,0,0,1,445.08,98.925ZM353.81,371.193l15.641-48.9,71.84-224.585A8.188,8.188,0,0,0,436,87.436L417.2,81.424,303.746,45.132a8.175,8.175,0,0,0-10.277,5.3L211.145,307.786l-5.157,16.122a8.175,8.175,0,0,0,5.3,10.277l85.742,27.427,46.508,14.877A8.187,8.187,0,0,0,353.81,371.193Z" transform="translate(-201.62 -40.764)" fill="#a8a5d9"/>
      </g>
      <g id="Grupo_1161519" data-name="Grupo 1161519" transform="translate(14.451 188.046)">
        <path id="Trazado_995989" data-name="Trazado 995989" d="M383.2,556.571l-10.926,34.156L322.9,574.936l-88.6-28.342,25.767-80.551.682.218C312.127,476.493,358.226,510.535,383.2,556.571Z" transform="translate(-234.301 -466.042)" fill="#bebefc"/>
      </g>
      <g id="Grupo_1161520" data-name="Grupo 1161520" transform="translate(40.218 100.726)">
        <path id="Trazado_995990" data-name="Trazado 995990" d="M472.6,268.563l-56.89,177.849c-24.972-46.036-71.072-80.079-122.448-90.311l-.682-.218,10.181-31.827.568.182C364.2,331.329,427.783,310.4,472.6,268.563Z" transform="translate(-292.575 -268.563)" fill="#d2d2fc"/>
      </g>
      <g id="Grupo_1161521" data-name="Grupo 1161521" transform="translate(50.398 19.176)">
        <path id="Trazado_995991" data-name="Trazado 995991" d="M497.407,128.268l-11.968,37.415c-44.812,41.84-108.391,62.767-169.272,55.676l-.568-.182L359.435,84.133l116.318,37.208Z" transform="translate(-315.598 -84.133)" fill="#bebefc"/>
      </g>
      <g id="Grupo_1161522" data-name="Grupo 1161522" transform="translate(209.41 45.514)">
        <path id="Trazado_995992" data-name="Trazado 995992" d="M679.781,143.865a3.5,3.5,0,1,1-4.4,2.267A3.505,3.505,0,0,1,679.781,143.865Z" transform="translate(-675.213 -143.698)" fill="#d2d2fc"/>
      </g>
      <g id="Grupo_1161523" data-name="Grupo 1161523" transform="translate(127.135 19.833)">
        <path id="Trazado_995993" data-name="Trazado 995993" d="M563.618,108.282a3.133,3.133,0,1,1-1.909,5.968l-70.4-22.519a3.133,3.133,0,0,1,1.909-5.968Z" transform="translate(-489.143 -85.617)" fill="#653951"/>
      </g>
      <g id="Grupo_1161524" data-name="Grupo 1161524" transform="translate(52.46 287.983)">
        <path id="Trazado_995994" data-name="Trazado 995994" d="M369.588,704.972a7.737,7.737,0,0,1-4.714,14.739L325.64,707.16a7.737,7.737,0,0,1,4.715-14.738Z" transform="translate(-320.262 -692.057)" fill="#653951"/>
      </g>
    </g>
    <g id="Grupo_1161539" data-name="Grupo 1161539" transform="translate(7031.753 909.09)">
      <g id="Grupo_1161531" data-name="Grupo 1161531" transform="translate(0)">
        <g id="Grupo_1161526" data-name="Grupo 1161526" transform="translate(0.765 22.892)">
          <path id="Trazado_995995" data-name="Trazado 995995" d="M261.395,134.667l79.932,150.557-68.954,29.467-3.546,1.515-68.955,29.466-53.56-161.827Z" transform="translate(-146.311 -134.667)" fill="#e69643"/>
        </g>
        <g id="Grupo_1161527" data-name="Grupo 1161527" transform="translate(0.765 20.671)">
          <path id="Trazado_995996" data-name="Trazado 995996" d="M261.395,131.866,146.311,181.044l7.019-10.551,46.021-19.666,3.546-1.515,46.021-19.666Z" transform="translate(-146.311 -129.645)" fill="#e17826"/>
        </g>
        <g id="Grupo_1161528" data-name="Grupo 1161528" transform="translate(19.462)">
          <path id="Trazado_995997" data-name="Trazado 995997" d="M260.176,116.417l-1.556.6c-.09-.229-9.162-23.073-26.317-30.277-7.334-3.08-15.162-2.887-23.264.575s-13.652,8.986-16.5,16.415c-6.65,17.377,3.588,39.723,3.691,39.946l-1.512.706c-.438-.938-10.642-23.2-3.741-41.242,3.01-7.872,8.865-13.713,17.4-17.36s16.8-3.842,24.572-.576C250.767,92.692,259.8,115.452,260.176,116.417Z" transform="translate(-188.594 -82.896)" fill="#471c31"/>
        </g>
        <g id="Grupo_1161529" data-name="Grupo 1161529" transform="translate(0 71.733)">
          <rect id="Rect치ngulo_413022" data-name="Rect치ngulo 413022" width="1.669" height="166.621" transform="matrix(0.916, -0.401, 0.401, 0.916, 0, 0.669)" fill="#471c31"/>
        </g>
        <g id="Grupo_1161530" data-name="Grupo 1161530" transform="translate(115.118 22.542)">
          <rect id="Rect치ngulo_413023" data-name="Rect치ngulo 413023" width="1.67" height="165.7" transform="translate(0 0.635) rotate(-22.359)" fill="#471c31"/>
        </g>
      </g>
      <g id="Grupo_1161538" data-name="Grupo 1161538" transform="translate(41.343 57.398)">
        <g id="Grupo_1161533" data-name="Grupo 1161533" transform="translate(0 26.96)">
          <g id="Grupo_1161532" data-name="Grupo 1161532">
            <path id="Trazado_995998" data-name="Trazado 995998" d="M242.959,291.531l86.578,62.386a7.9,7.9,0,0,0,8,1.126c4.37-2.051,5.356-7.915,3.119-12.682a11.728,11.728,0,0,0-3.715-4.515l-86.606-62.4a7.853,7.853,0,0,0-7.986-1.134C236.382,277.115,236.747,287.019,242.959,291.531Z" transform="translate(-238.08 -273.676)" fill="#dd505d"/>
          </g>
        </g>
        <g id="Grupo_1161535" data-name="Grupo 1161535" transform="translate(44.192 0)">
          <g id="Grupo_1161534" data-name="Grupo 1161534">
            <path id="Trazado_995999" data-name="Trazado 995999" d="M373.709,265.919c11.271-5.289,15.456-18.472,7.746-34.9-7.65-16.3-20.525-21.632-31.8-16.343l-.189.089c-11.118,5.347-15.15,18.588-7.539,34.8,7.57,16.13,20.056,21.437,31.149,16.62A6.786,6.786,0,0,0,373.709,265.919Zm-6.662-14.194a3.2,3.2,0,0,1-.44.18c-2.328.677-5.711-1.163-9.586-9.42-4.135-8.81-3.023-12.526-.7-13.616,2.34-1.1,5.909.421,10.043,9.231S369.387,250.626,367.047,251.725Z" transform="translate(-338.023 -212.705)" fill="#dd505d"/>
          </g>
        </g>
        <g id="Grupo_1161537" data-name="Grupo 1161537" transform="translate(8.829 80.443)">
          <g id="Grupo_1161536" data-name="Grupo 1161536">
            <path id="Trazado_996000" data-name="Trazado 996000" d="M261.95,431.49c7.57,16.13,20.056,21.437,31.149,16.62a6.606,6.606,0,0,0,.629-.269l.189-.089a6.576,6.576,0,0,0,.61-.312c10.675-5.529,14.478-18.454,6.947-34.5-7.5-15.982-20.055-21.437-31.166-16.612a6.658,6.658,0,0,0-.629.269l-.189.089a6.536,6.536,0,0,0-.609.312C258.233,402.541,254.49,415.594,261.95,431.49Zm15.091-7.082c-3.865-8.235-3.129-12.035-1.12-13.393a4.865,4.865,0,0,1,.86-.4c2.345-.685,5.739,1.176,9.6,9.412,3.875,8.257,3.128,12.035,1.1,13.4a4.777,4.777,0,0,1-.86.4C284.3,434.505,280.916,432.665,277.041,424.408Z" transform="translate(-258.048 -394.633)" fill="#dd505d"/>
          </g>
        </g>
      </g>
    </g>
    <path id="Trazado_996001" data-name="Trazado 996001" d="M491.59,468.922H705.055L699.37,565.07l-205.392,6.143Z" transform="translate(6693.603 610.858)" fill="#dd505d"/>
    <g id="Grupo_1161540" data-name="Grupo 1161540" transform="translate(7217.407 1081.062)">
      <text id="SUPER" transform="translate(4.399 43)" fill="#f2cfad" font-size="44" font-family="Montserrat-SemiBold, Montserrat" font-weight="600"><tspan x="0" y="0">SUPER</tspan></text>
      <text id="OFERTA" transform="translate(0 80.633)" fill="#f2cfad" font-size="37" font-family="Montserrat-SemiBold, Montserrat" font-weight="600"><tspan x="0" y="0">OFERTA</tspan></text>
    </g>
    <g id="Grupo_1161555" data-name="Grupo 1161555" transform="translate(7184.098 1019.724)">
      <g id="Grupo_1161542" data-name="Grupo 1161542" transform="translate(2.874 2.874)">
        <g id="Grupo_1161541" data-name="Grupo 1161541">
          <path id="Trazado_996002" data-name="Trazado 996002" d="M714.318,360.163a20.627,20.627,0,0,1-20.563,20.577H516.178a20.57,20.57,0,0,1,0-41.14H693.755A20.625,20.625,0,0,1,714.318,360.163Z" transform="translate(-495.615 -339.6)" fill="#dd505d"/>
        </g>
      </g>
      <g id="Grupo_1161544" data-name="Grupo 1161544">
        <g id="Grupo_1161543" data-name="Grupo 1161543">
          <path id="Trazado_996003" data-name="Trazado 996003" d="M707.818,353.664a20.627,20.627,0,0,1-20.563,20.577H509.678a20.57,20.57,0,0,1,0-41.14H687.255A20.624,20.624,0,0,1,707.818,353.664Z" transform="translate(-489.115 -333.101)" fill="#fff"/>
        </g>
      </g>
      <g id="Grupo_1161546" data-name="Grupo 1161546" transform="translate(13.181 6.454)">
        <g id="Grupo_1161545" data-name="Grupo 1161545">
          <path id="Trazado_996004" data-name="Trazado 996004" d="M533.767,347.7l4.587,9.293,10.256,1.491-7.421,7.233,1.752,10.215-9.173-4.823-9.173,4.823,1.752-10.215-7.421-7.233,10.256-1.491Z" transform="translate(-518.925 -347.697)" fill="#e69643"/>
        </g>
      </g>
      <g id="Grupo_1161548" data-name="Grupo 1161548" transform="translate(53.793 6.454)">
        <g id="Grupo_1161547" data-name="Grupo 1161547">
          <path id="Trazado_996005" data-name="Trazado 996005" d="M625.613,347.7l4.587,9.293,10.256,1.491-7.421,7.233,1.752,10.215-9.173-4.823-9.173,4.823,1.752-10.215-7.421-7.233,10.256-1.491Z" transform="translate(-610.771 -347.697)" fill="#e69643"/>
        </g>
      </g>
      <g id="Grupo_1161550" data-name="Grupo 1161550" transform="translate(94.738 6.454)">
        <g id="Grupo_1161549" data-name="Grupo 1161549">
          <path id="Trazado_996006" data-name="Trazado 996006" d="M718.212,347.7l4.586,9.293,10.256,1.491-7.421,7.233,1.752,10.215-9.173-4.823-9.173,4.823,1.752-10.215-7.421-7.233,10.256-1.491Z" transform="translate(-703.37 -347.697)" fill="#e69643"/>
        </g>
      </g>
      <g id="Grupo_1161552" data-name="Grupo 1161552" transform="translate(135.349 6.454)">
        <g id="Grupo_1161551" data-name="Grupo 1161551">
          <path id="Trazado_996007" data-name="Trazado 996007" d="M810.058,347.7l4.586,9.293,10.256,1.491-7.421,7.233,1.752,10.215-9.173-4.823-9.173,4.823,1.752-10.215-7.421-7.233,10.256-1.491Z" transform="translate(-795.216 -347.697)" fill="#e69643"/>
        </g>
      </g>
      <g id="Grupo_1161554" data-name="Grupo 1161554" transform="translate(175.495 6.454)">
        <g id="Grupo_1161553" data-name="Grupo 1161553">
          <path id="Trazado_996008" data-name="Trazado 996008" d="M900.85,347.7l4.586,9.293,10.256,1.491-7.421,7.233,1.752,10.215-9.173-4.823-9.173,4.823,1.752-10.215-7.421-7.233,10.256-1.491Z" transform="translate(-886.008 -347.697)" fill="#e69643"/>
        </g>
      </g>
    </g>
    <g id="Grupo_1161562" data-name="Grupo 1161562" transform="translate(7313.818 933.611)">
      <path id="Trazado_996011" data-name="Trazado 996011" d="M892.733,252.977l-5.577,14.929-5.577-14.929,5.577-14.926Z" transform="translate(-837.763 -193.967)" fill="#f7e3d3"/>
      <path id="Trazado_996012" data-name="Trazado 996012" d="M837.149,178.032c-4.52,0-4.528,7.025,0,7.025S841.677,178.032,837.149,178.032Z" transform="translate(-811.086 -160.487)" fill="#f7e3d3"/>
      <path id="Trazado_996013" data-name="Trazado 996013" d="M844.822,228.915c-4.52,0-4.528,7.025,0,7.025S849.35,228.915,844.822,228.915Z" transform="translate(-815.367 -188.871)" fill="#f7e3d3"/>
      <path id="Trazado_996014" data-name="Trazado 996014" d="M935.039,224.149c-2.712,0-2.717,4.215,0,4.215S937.756,224.149,935.039,224.149Z" transform="translate(-866.449 -186.212)" fill="#f7e3d3"/>
      <path id="Trazado_996015" data-name="Trazado 996015" d="M906.942,193.76c-2.712,0-2.717,4.215,0,4.215S909.658,193.76,906.942,193.76Z" transform="translate(-850.775 -169.26)" fill="#f7e3d3"/>
      <path id="Trazado_996016" data-name="Trazado 996016" d="M811.2,242.693c-2.712,0-2.717,4.215,0,4.215S813.918,242.693,811.2,242.693Z" transform="translate(-797.369 -196.556)" fill="#f7e3d3"/>
      <path id="Trazado_996017" data-name="Trazado 996017" d="M790.484,149.053l-4,10.7-4-10.7,4-10.7Z" transform="translate(-782.487 -138.352)" fill="#f7e3d3"/>
    </g>
    <g id="Grupo_1161563" data-name="Grupo 1161563" transform="translate(7017.393 1074.219)">
      <path id="Trazado_996018" data-name="Trazado 996018" d="M155.126,597.046c-4.52,0-4.528,7.025,0,7.025S159.654,597.046,155.126,597.046Z" transform="translate(-134.209 -534.832)" fill="#f7e3d3"/>
      <path id="Trazado_996019" data-name="Trazado 996019" d="M172.73,493.844c-2.712,0-2.717,4.215,0,4.215S175.446,493.844,172.73,493.844Z" transform="translate(-144.786 -477.263)" fill="#f7e3d3"/>
      <path id="Trazado_996020" data-name="Trazado 996020" d="M117.719,566.678c-2.712,0-2.717,4.215,0,4.215S120.435,566.678,117.719,566.678Z" transform="translate(-114.099 -517.892)" fill="#f7e3d3"/>
      <path id="Trazado_996021" data-name="Trazado 996021" d="M184.63,540.093c-2.712,0-2.717,4.215,0,4.215S187.346,540.093,184.63,540.093Z" transform="translate(-151.424 -503.062)" fill="#f7e3d3"/>
      <path id="Trazado_996022" data-name="Trazado 996022" d="M119.341,466.033l-3.62,9.691-3.62-9.691,3.62-9.688Z" transform="translate(-112.101 -456.345)" fill="#f7e3d3"/>
      <path id="Trazado_996023" data-name="Trazado 996023" d="M152.2,530.449l-2.856,7.645-2.856-7.645,2.856-7.643Z" transform="translate(-131.284 -493.419)" fill="#f7e3d3"/>
    </g>
  </g>
</svg>
