<svg xmlns="http://www.w3.org/2000/svg" xmlns:xlink="http://www.w3.org/1999/xlink" width="108" height="108" viewBox="0 0 108 108">
  <defs>
    <filter id="Trazado_982547" x="0" y="0" width="108" height="108" filterUnits="userSpaceOnUse">
      <feOffset dy="3" input="SourceAlpha"/>
      <feGaussianBlur stdDeviation="3" result="blur"/>
      <feFlood flood-opacity="0.161"/>
      <feComposite operator="in" in2="blur"/>
      <feComposite in="SourceGraphic"/>
    </filter>
  </defs>
  <g id="Grupo_1160998" data-name="Grupo 1160998" transform="translate(-327 -3268)">
    <g id="Grupo_1160770" data-name="Grupo 1160770" transform="translate(336 3274)">
      <g id="Grupo_1149835" data-name="Grupo 1149835">
        <g id="Grupo_1149673" data-name="Grupo 1149673">
          <g id="Grupo_1148532" data-name="Grupo 1148532">
            <g id="Grupo_1147065" data-name="Grupo 1147065">
              <g transform="matrix(1, 0, 0, 1, -9, -6)" filter="url(#Trazado_982547)">
                <g id="Trazado_982547-2" data-name="Trazado 982547" transform="translate(9 6)" fill="#f6edfd">
                  <path d="M 45 88.5 C 39.12687683105469 88.5 33.43022537231445 87.35007476806641 28.06830024719238 85.08217620849609 C 22.88852500915527 82.89131164550781 18.23629951477051 79.75458526611328 14.2408504486084 75.75914764404297 C 10.24541282653809 71.76370239257812 7.108687400817871 67.11147308349609 4.917825222015381 61.93170166015625 C 2.649924993515015 56.56977462768555 1.5 50.87312316894531 1.5 45 C 1.5 39.12687683105469 2.649924993515015 33.43022537231445 4.917825222015381 28.06830024719238 C 7.108687400817871 22.88852500915527 10.24541282653809 18.23629951477051 14.2408504486084 14.2408504486084 C 18.23629951477051 10.24541282653809 22.88852500915527 7.108687400817871 28.06830024719238 4.917825222015381 C 33.43022537231445 2.649924993515015 39.12687683105469 1.5 45 1.5 C 50.87312316894531 1.5 56.56977462768555 2.649924993515015 61.93170166015625 4.917825222015381 C 67.11147308349609 7.108687400817871 71.76370239257812 10.24541282653809 75.75914764404297 14.2408504486084 C 79.75458526611328 18.23629951477051 82.89131164550781 22.88852500915527 85.08217620849609 28.06830024719238 C 87.35007476806641 33.43022537231445 88.5 39.12687683105469 88.5 45 C 88.5 50.87312316894531 87.35007476806641 56.56977462768555 85.08217620849609 61.93170166015625 C 82.89131164550781 67.11147308349609 79.75458526611328 71.76370239257812 75.75914764404297 75.75914764404297 C 71.76370239257812 79.75458526611328 67.11147308349609 82.89131164550781 61.93170166015625 85.08217620849609 C 56.56977462768555 87.35007476806641 50.87312316894531 88.5 45 88.5 Z" stroke="none"/>
                  <path d="M 45 3 C 39.32871246337891 3 33.82865524291992 4.110054016113281 28.65262985229492 6.299339294433594 C 23.65165710449219 8.414573669433594 19.15968322753906 11.44334411621094 15.301513671875 15.301513671875 C 11.44334411621094 19.15968322753906 8.414573669433594 23.65165710449219 6.299339294433594 28.65262985229492 C 4.110054016113281 33.82865524291992 3 39.32871246337891 3 45 C 3 50.67128753662109 4.110054016113281 56.17134475708008 6.299339294433594 61.34737396240234 C 8.414573669433594 66.34834289550781 11.44334411621094 70.84031677246094 15.301513671875 74.698486328125 C 19.15968322753906 78.55665588378906 23.65165710449219 81.58542633056641 28.65262985229492 83.70066070556641 C 33.82865524291992 85.88994598388672 39.32871246337891 87 45 87 C 50.67128753662109 87 56.17134475708008 85.88994598388672 61.34737396240234 83.70066070556641 C 66.34834289550781 81.58542633056641 70.84031677246094 78.55665588378906 74.698486328125 74.698486328125 C 78.55665588378906 70.84031677246094 81.58542633056641 66.34834289550781 83.70066070556641 61.34737396240234 C 85.88994598388672 56.17134475708008 87 50.67128753662109 87 45 C 87 39.32871246337891 85.88994598388672 33.82865524291992 83.70066070556641 28.65262985229492 C 81.58542633056641 23.65165710449219 78.55665588378906 19.15968322753906 74.698486328125 15.301513671875 C 70.84031677246094 11.44334411621094 66.34834289550781 8.414573669433594 61.34737396240234 6.299339294433594 C 56.17134475708008 4.110054016113281 50.67128753662109 3 45 3 M 45 0 C 69.85281372070312 0 90 20.14718627929688 90 45 C 90 69.85281372070312 69.85281372070312 90 45 90 C 20.14718627929688 90 0 69.85281372070312 0 45 C 0 20.14718627929688 20.14718627929688 0 45 0 Z" stroke="none" fill="#ac59f1"/>
                </g>
              </g>
            </g>
          </g>
        </g>
      </g>
    </g>
    <g id="innovador" transform="translate(352 3291)">
      <g id="Grupo_1160996" data-name="Grupo 1160996" transform="translate(0.916 0.916)">
        <g id="Grupo_1160979" data-name="Grupo 1160979" transform="translate(25.657 49.481)">
          <path id="Trazado_995533" data-name="Trazado 995533" d="M31.749,55l.916,5.5H29l.916-5.5Z" transform="translate(-29 -55)" fill="#ffeaa7"/>
        </g>
        <g id="Grupo_1160980" data-name="Grupo 1160980" transform="translate(25.657 45.815)">
          <path id="Trazado_995534" data-name="Trazado 995534" d="M32.665,52.833l-.916,1.833H29.916L29,52.833,30.833,51Z" transform="translate(-29 -51)" fill="#fcd770"/>
        </g>
        <g id="Grupo_1160981" data-name="Grupo 1160981" transform="translate(28.406 41.234)">
          <path id="Trazado_995535" data-name="Trazado 995535" d="M34.749,54.247l.559-5.544a3.655,3.655,0,0,0,.852-.238L48.494,46l.916,4.582L39.33,53.33v6.414H32.916L32,54.247l.916-1.833Z" transform="translate(-32 -46)" fill="#ff826e"/>
        </g>
        <g id="Grupo_1160982" data-name="Grupo 1160982" transform="translate(9.163 41.234)">
          <path id="Trazado_995536" data-name="Trazado 995536" d="M11.916,46,24.25,48.465a3.656,3.656,0,0,0,.852.238l.559,5.544,1.833-1.833.916,1.833-.916,5.5H21.079V53.33L11,50.582Z" transform="translate(-11 -46)" fill="#ff826e"/>
        </g>
        <g id="Grupo_1160983" data-name="Grupo 1160983" transform="translate(23.265 43.937)">
          <path id="Trazado_995537" data-name="Trazado 995537" d="M34.838,48.95l-.559,5.544-1.833-1.833-1.833-1.833-1.833,1.833-1.833,1.833L26.39,48.95a3.73,3.73,0,0,0,.559.046h7.33A3.73,3.73,0,0,0,34.838,48.95Z" transform="translate(-26.39 -48.95)" fill="#fc6e51"/>
        </g>
        <g id="Grupo_1160984" data-name="Grupo 1160984" transform="translate(48.564 32.987)">
          <path id="Trazado_995538" data-name="Trazado 995538" d="M57.665,37.916v7.578a1.829,1.829,0,0,0-.916,1.585v1.833a1.829,1.829,0,0,0,.916,1.585v3a1.838,1.838,0,0,1-1.833,1.833A1.846,1.846,0,0,1,54,53.494V47.079l.348-.348a1.947,1.947,0,0,0,0-2.749A2.094,2.094,0,0,0,54,43.707V37.916A.919.919,0,0,1,54.916,37h1.833A.919.919,0,0,1,57.665,37.916Z" transform="translate(-54 -37)" fill="#969faa"/>
        </g>
        <g id="Grupo_1160985" data-name="Grupo 1160985" transform="translate(48.564 27.489)">
          <path id="Trazado_995539" data-name="Trazado 995539" d="M55.833,31c1.008,0,1.833,2.657,1.833,3.665a1.833,1.833,0,0,1-3.665,0C54,33.657,54.825,31,55.833,31Z" transform="translate(-54 -31)" fill="#cf9e76"/>
        </g>
        <g id="Grupo_1160986" data-name="Grupo 1160986" transform="translate(2.749 32.987)">
          <path id="Trazado_995540" data-name="Trazado 995540" d="M4.916,47.079A1.829,1.829,0,0,0,4,45.494V37H7.665v6.707a2.094,2.094,0,0,0-.348.275,1.947,1.947,0,0,0,0,2.749l.348.348v6.414a1.846,1.846,0,0,1-1.833,1.833A1.838,1.838,0,0,1,4,53.494v-3a1.829,1.829,0,0,0,.916-1.585Z" transform="translate(-4 -37)" fill="#b4dd7f"/>
        </g>
        <g id="Grupo_1160987" data-name="Grupo 1160987" transform="translate(2.749 27.489)">
          <path id="Trazado_995541" data-name="Trazado 995541" d="M6.9,31.907l.77,4.591H4l.77-4.591a1.076,1.076,0,0,1,2.126,0Z" transform="translate(-4 -31)" fill="#aab2bd"/>
        </g>
        <g id="Grupo_1160988" data-name="Grupo 1160988" transform="translate(51.313 41.234)">
          <path id="Trazado_995542" data-name="Trazado 995542" d="M60.665,49.665a1.833,1.833,0,0,1-3.665,0V47.833A1.837,1.837,0,0,1,58.833,46a1.846,1.846,0,0,1,1.833,1.833Z" transform="translate(-57 -46)" fill="#f0d0b4"/>
        </g>
        <g id="Grupo_1160989" data-name="Grupo 1160989" transform="translate(44.899 39.401)">
          <path id="Trazado_995543" data-name="Trazado 995543" d="M53.665,47.665V51.33h-.541a3.129,3.129,0,0,1-2.208-.916L50,45.833l1.265-1.265A1.942,1.942,0,0,1,52.639,44a1.97,1.97,0,0,1,1.026.293,2.094,2.094,0,0,1,.348.275,1.947,1.947,0,0,1,0,2.749Z" transform="translate(-50 -44)" fill="#f0d0b4"/>
        </g>
        <g id="Grupo_1160990" data-name="Grupo 1160990" transform="translate(5.498 39.401)">
          <path id="Trazado_995544" data-name="Trazado 995544" d="M10.665,50.414a3.129,3.129,0,0,1-2.208.916H7.916V47.665l-.348-.348a1.947,1.947,0,0,1,0-2.749,2.094,2.094,0,0,1,.348-.275A1.97,1.97,0,0,1,8.943,44a1.942,1.942,0,0,1,1.374.568l1.265,1.265Z" transform="translate(-7 -44)" fill="#f0d0b4"/>
        </g>
        <g id="Grupo_1160991" data-name="Grupo 1160991" transform="translate(0 41.234)">
          <path id="Trazado_995545" data-name="Trazado 995545" d="M4.665,47.833v1.833a1.833,1.833,0,1,1-3.665,0V47.833a1.792,1.792,0,0,1,.541-1.292A1.792,1.792,0,0,1,2.833,46a1.837,1.837,0,0,1,1.833,1.833Z" transform="translate(-1 -46)" fill="#f0d0b4"/>
        </g>
        <g id="Grupo_1160992" data-name="Grupo 1160992" transform="translate(20.159 40.318)">
          <path id="Trazado_995546" data-name="Trazado 995546" d="M37.661,45a3.658,3.658,0,0,1-3.106,3.619,3.73,3.73,0,0,1-.559.046h-7.33a3.73,3.73,0,0,1-.559-.046A3.658,3.658,0,0,1,23,45Z" transform="translate(-23 -45)" fill="#aab2bd"/>
        </g>
        <g id="Grupo_1160993" data-name="Grupo 1160993" transform="translate(18.326 34.82)">
          <path id="Trazado_995547" data-name="Trazado 995547" d="M39.326,40.833v1.833A1.838,1.838,0,0,1,37.494,44.5H22.833A1.838,1.838,0,0,1,21,42.665V40.833A1.838,1.838,0,0,1,22.833,39H37.494A1.838,1.838,0,0,1,39.326,40.833Z" transform="translate(-21 -39)" fill="#ccd1d9"/>
        </g>
        <g id="Grupo_1160994" data-name="Grupo 1160994" transform="translate(10.996)">
          <path id="Trazado_995548" data-name="Trazado 995548" d="M31.326,35.82H22.163v-.953a5.232,5.232,0,0,0-2.227-4.27A16.27,16.27,0,0,1,29.274,1h.44a16.271,16.271,0,0,1,9.337,29.6,5.341,5.341,0,0,0-1.64,1.869,5.279,5.279,0,0,0-.586,2.4v.953Z" transform="translate(-13 -1)" fill="#ffeaa7"/>
        </g>
        <g id="Grupo_1160995" data-name="Grupo 1160995" transform="translate(21.991 5.498)">
          <path id="Trazado_995549" data-name="Trazado 995549" d="M36,12.5,29.838,24.813a.935.935,0,0,1-1.732-.687L30.5,16.163H25L28.665,7h4.582l-1.833,5.5Z" transform="translate(-25 -7)" fill="#fcd770"/>
        </g>
      </g>
      <g id="Grupo_1160997" data-name="Grupo 1160997" transform="translate(0 0)">
        <path id="Trazado_995550" data-name="Trazado 995550" d="M54.062,41.234V34.82a1.817,1.817,0,0,0-.47-1.213,2.732,2.732,0,0,0,.47-1.536c0-1.067-.858-4.582-2.749-4.582S48.564,31,48.564,32.071a2.732,2.732,0,0,0,.47,1.536,1.817,1.817,0,0,0-.47,1.213v4.593c-.038,0-.073-.011-.111-.011a2.879,2.879,0,0,0-2.022.838l-1.067,1.067-9.137,1.827a4.5,4.5,0,0,0,.346-1.128,2.743,2.743,0,0,0,1.911-2.6V37.569a2.745,2.745,0,0,0-1.833-2.58v-.2a4.3,4.3,0,0,1,1.833-3.52A17.186,17.186,0,0,0,28.629,0h-.447a17.186,17.186,0,0,0-9.856,31.265,4.3,4.3,0,0,1,1.833,3.52v.2a2.745,2.745,0,0,0-1.833,2.58V39.4a2.743,2.743,0,0,0,1.91,2.6,4.554,4.554,0,0,0,.346,1.128l-9.136-1.827-1.067-1.067A2.875,2.875,0,0,0,8.358,39.4c-.038,0-.073.01-.111.011V33.9l-.779-4.745a2,2,0,0,0-3.94,0l-.766,4.594-.011,7.481h0A2.752,2.752,0,0,0,0,43.983v1.833a2.752,2.752,0,0,0,2.749,2.749V50.4a2.749,2.749,0,0,0,5.5,0V48.528a3.977,3.977,0,0,0,2.043-.789l8.952,2.442v6.63H37.569v-6.63l8.952-2.442a3.985,3.985,0,0,0,2.043.789V50.4a2.749,2.749,0,0,0,5.5,0V48.564a2.752,2.752,0,0,0,2.749-2.749V43.983a2.752,2.752,0,0,0-2.749-2.749ZM51.313,29.4a5.673,5.673,0,0,1,.916,2.671.916.916,0,1,1-1.833,0A5.673,5.673,0,0,1,51.313,29.4ZM24.74,43.983a2.745,2.745,0,0,1-2.58-1.833H34.65a2.745,2.745,0,0,1-2.58,1.833Zm3.286,1.833L25.46,48.382,25.2,45.815Zm.239,5.5h.28l.611,3.665h-1.5Zm.49-1.833h-.7l-.367-.736.717-.717.717.717Zm.029-3.665h2.823l-.257,2.567ZM19.376,29.763A15.353,15.353,0,0,1,28.182,1.833h.447a15.354,15.354,0,0,1,8.806,27.932,6.129,6.129,0,0,0-2.615,5.02v.035H31.154V30.728l2.341-1.56-1.016-1.525-3.158,2.1V34.82H27.489V29.748l-3.157-2.1-1.016,1.525,2.34,1.56V34.82H21.991v-.035A6.132,6.132,0,0,0,19.376,29.763Zm.783,7.805a.917.917,0,0,1,.916-.916H35.736a.917.917,0,0,1,.916.916V39.4a.917.917,0,0,1-.916.916H21.075a.917.917,0,0,1-.916-.916Zm-14.5-8.109.587,3.528h-1.5l.588-3.528A.171.171,0,0,1,5.661,29.459ZM1.833,45.815V43.983a.916.916,0,1,1,1.833,0v1.833a.916.916,0,1,1-1.833,0ZM6.414,50.4a.916.916,0,1,1-1.833,0V47.85A2.735,2.735,0,0,0,5.5,45.815V43.983a2.735,2.735,0,0,0-.916-2.034V34.82H6.414v5.356A2.845,2.845,0,0,0,5.5,42.261a2.879,2.879,0,0,0,.838,2.022l.079.079Zm1.217-7.409a1.028,1.028,0,0,1,1.453-1.453l.916.916-.758,3.787a2.166,2.166,0,0,1-1,.457V43.6Zm11.611,3.744v1.549l-8.1-2.208.568-2.844,11.433,2.286v0c.061.023.126.038.19.059l.684,6.839,2.3-2.3.214.43L25.8,54.978H21.075V46.732Zm18.326,1.549V46.732H35.736v8.247H31.014l-.739-4.438.214-.43,2.3,2.3.684-6.839c.063-.02.128-.036.19-.059v0L45.1,43.23l.568,2.844ZM49.18,42.988l-.616.616V46.7a2.174,2.174,0,0,1-1-.456l-.758-3.787.916-.916a1.027,1.027,0,0,1,1.453,1.452ZM52.23,50.4a.916.916,0,1,1-1.833,0V44.362l.079-.079a2.879,2.879,0,0,0,.838-2.022,2.845,2.845,0,0,0-.916-2.086V34.82H52.23v7.129a2.733,2.733,0,0,0-.916,2.034v1.833a2.735,2.735,0,0,0,.916,2.034Zm2.749-4.582a.916.916,0,1,1-1.833,0V43.983a.916.916,0,1,1,1.833,0Z" transform="translate(0 0)"/>
        <path id="Trazado_995551" data-name="Trazado 995551" d="M27.109,23.776a1.85,1.85,0,0,0,3.428,1.358L37.355,11.5H32.562L34.4,6H27.922l-4.4,11h5.62Zm-.879-8.613,2.932-7.33h2.69l-1.833,5.5H34.39L28.9,24.316l-.032-.015,2.741-9.138Z" transform="translate(-1.969 -0.502)"/>
        <path id="Trazado_995552" data-name="Trazado 995552" d="M58.247,20.661H54.582a.916.916,0,0,1,0-1.833h1.833a2.749,2.749,0,0,0,0-5.5H53.665a.916.916,0,0,1,0-1.833h4.582a2.749,2.749,0,0,0,0-5.5H50V7.833h8.247a.916.916,0,0,1,0,1.833H53.665a2.749,2.749,0,0,0,0,5.5h2.749a.916.916,0,1,1,0,1.833H54.582a2.749,2.749,0,0,0,0,5.5h3.665a.916.916,0,0,1,0,1.833h-7.33v1.833h7.33a2.749,2.749,0,0,0,0-5.5Z" transform="translate(-4.185 -0.502)"/>
        <path id="Trazado_995553" data-name="Trazado 995553" d="M6.414,20.661H2.749a2.749,2.749,0,1,0,0,5.5h7.33V24.326H2.749a.916.916,0,1,1,0-1.833H6.414a2.749,2.749,0,0,0,0-5.5H4.582a.916.916,0,0,1,0-1.833H7.33a2.749,2.749,0,0,0,0-5.5H2.749a.916.916,0,1,1,0-1.833H11V6H2.749a2.749,2.749,0,0,0,0,5.5H7.33a.916.916,0,1,1,0,1.833H4.582a2.749,2.749,0,1,0,0,5.5H6.414a.916.916,0,0,1,0,1.833Z" transform="translate(0 -0.502)"/>
      </g>
    </g>
  </g>
</svg>
