<svg xmlns="http://www.w3.org/2000/svg" xmlns:xlink="http://www.w3.org/1999/xlink" width="108" height="108" viewBox="0 0 108 108">
  <defs>
    <filter id="Trazado_982547" x="0" y="0" width="108" height="108" filterUnits="userSpaceOnUse">
      <feOffset dy="3" input="SourceAlpha"/>
      <feGaussianBlur stdDeviation="3" result="blur"/>
      <feFlood flood-opacity="0.161"/>
      <feComposite operator="in" in2="blur"/>
      <feComposite in="SourceGraphic"/>
    </filter>
  </defs>
  <g id="Grupo_1161068" data-name="Grupo 1161068" transform="translate(-717 -4833)">
    <g id="Grupo_1160773" data-name="Grupo 1160773" transform="translate(556 -4387)">
      <g id="Grupo_1155843" data-name="Grupo 1155843">
        <g id="Grupo_1154880" data-name="Grupo 1154880" transform="translate(0 7768)">
          <g id="Grupo_1153117" data-name="Grupo 1153117" transform="translate(-93 939)">
            <g id="Grupo_1149598" data-name="Grupo 1149598" transform="translate(80 315)">
              <g id="Grupo_1148770" data-name="Grupo 1148770" transform="translate(-27 -2583)">
                <g id="Grupo_1146954" data-name="Grupo 1146954" transform="translate(-415 -1202)">
                  <g transform="matrix(1, 0, 0, 1, 616, 3983)" filter="url(#Trazado_982547)">
                    <g id="Trazado_982547-2" data-name="Trazado 982547" transform="translate(9 6)" fill="#fbeaee">
                      <path d="M 45 88.5 C 39.12687683105469 88.5 33.43022537231445 87.35007476806641 28.06830024719238 85.08217620849609 C 22.88852500915527 82.89131164550781 18.23629951477051 79.75458526611328 14.2408504486084 75.75914764404297 C 10.24541282653809 71.76370239257812 7.108687400817871 67.11147308349609 4.917825222015381 61.93170166015625 C 2.649924993515015 56.56977462768555 1.5 50.87312316894531 1.5 45 C 1.5 39.12687683105469 2.649924993515015 33.43022537231445 4.917825222015381 28.06830024719238 C 7.108687400817871 22.88852500915527 10.24541282653809 18.23629951477051 14.2408504486084 14.2408504486084 C 18.23629951477051 10.24541282653809 22.88852500915527 7.108687400817871 28.06830024719238 4.917825222015381 C 33.43022537231445 2.649924993515015 39.12687683105469 1.5 45 1.5 C 50.87312316894531 1.5 56.56977462768555 2.649924993515015 61.93170166015625 4.917825222015381 C 67.11147308349609 7.108687400817871 71.76370239257812 10.24541282653809 75.75914764404297 14.2408504486084 C 79.75458526611328 18.23629951477051 82.89131164550781 22.88852500915527 85.08217620849609 28.06830024719238 C 87.35007476806641 33.43022537231445 88.5 39.12687683105469 88.5 45 C 88.5 50.87312316894531 87.35007476806641 56.56977462768555 85.08217620849609 61.93170166015625 C 82.89131164550781 67.11147308349609 79.75458526611328 71.76370239257812 75.75914764404297 75.75914764404297 C 71.76370239257812 79.75458526611328 67.11147308349609 82.89131164550781 61.93170166015625 85.08217620849609 C 56.56977462768555 87.35007476806641 50.87312316894531 88.5 45 88.5 Z" stroke="none"/>
                      <path d="M 45 3 C 39.32871246337891 3 33.82865524291992 4.110054016113281 28.65262985229492 6.299339294433594 C 23.65165710449219 8.414573669433594 19.15968322753906 11.44334411621094 15.301513671875 15.301513671875 C 11.44334411621094 19.15968322753906 8.414573669433594 23.65165710449219 6.299339294433594 28.65262985229492 C 4.110054016113281 33.82865524291992 3 39.32871246337891 3 45 C 3 50.67128753662109 4.110054016113281 56.17134475708008 6.299339294433594 61.34737396240234 C 8.414573669433594 66.34834289550781 11.44334411621094 70.84031677246094 15.301513671875 74.698486328125 C 19.15968322753906 78.55665588378906 23.65165710449219 81.58542633056641 28.65262985229492 83.70066070556641 C 33.82865524291992 85.88994598388672 39.32871246337891 87 45 87 C 50.67128753662109 87 56.17134475708008 85.88994598388672 61.34737396240234 83.70066070556641 C 66.34834289550781 81.58542633056641 70.84031677246094 78.55665588378906 74.698486328125 74.698486328125 C 78.55665588378906 70.84031677246094 81.58542633056641 66.34834289550781 83.70066070556641 61.34737396240234 C 85.88994598388672 56.17134475708008 87 50.67128753662109 87 45 C 87 39.32871246337891 85.88994598388672 33.82865524291992 83.70066070556641 28.65262985229492 C 81.58542633056641 23.65165710449219 78.55665588378906 19.15968322753906 74.698486328125 15.301513671875 C 70.84031677246094 11.44334411621094 66.34834289550781 8.414573669433594 61.34737396240234 6.299339294433594 C 56.17134475708008 4.110054016113281 50.67128753662109 3 45 3 M 45 0 C 69.85281372070312 0 90 20.14718627929688 90 45 C 90 69.85281372070312 69.85281372070312 90 45 90 C 20.14718627929688 90 0 69.85281372070312 0 45 C 0 20.14718627929688 20.14718627929688 0 45 0 Z" stroke="none" fill="#e23e64"/>
                    </g>
                  </g>
                </g>
              </g>
            </g>
          </g>
        </g>
      </g>
    </g>
    <g id="gestion-de-contenido_1_" data-name="gestion-de-contenido (1)" transform="translate(743 4856)">
      <g id="Grupo_1161066" data-name="Grupo 1161066" transform="translate(0.834 0.834)">
        <path id="Trazado_995585" data-name="Trazado 995585" d="M143.316,100.949h4.24a.921.921,0,0,0,.921-.921V85.751a.921.921,0,0,0-.921-.921h-4.24V81.145h4.24a.921.921,0,0,0,.921-.921V65.947a.921.921,0,0,0-.921-.921h-4.24V61.342h7a1.842,1.842,0,0,1,1.842,1.842v17.04a.921.921,0,0,0,.921.921h5.161V84.83h-5.161a.921.921,0,0,0-.921.921v17.04a1.842,1.842,0,0,1-1.842,1.842h-7Z" transform="translate(-128.214 -55.355)" fill="#8ac9fe"/>
        <g id="Grupo_1161062" data-name="Grupo 1161062" transform="translate(29.475 11.053)">
          <path id="Trazado_995586" data-name="Trazado 995586" d="M272.567,143.718V167.73a1.779,1.779,0,0,0,1.779,1.779h22.232a1.779,1.779,0,0,0,1.779-1.779V143.718l-12.435-3.684Z" transform="translate(-272.567 -136.35)" fill="#f8f6f6"/>
          <path id="Trazado_995587" data-name="Trazado 995587" d="M467.279,191.121A1.779,1.779,0,0,1,465.5,192.9h2.558a1.779,1.779,0,0,0,1.779-1.779V167.11l-2.557-.758Z" transform="translate(-444.046 -159.741)" fill="#e2e2e2"/>
          <path id="Trazado_995588" data-name="Trazado 995588" d="M296.578,106.9H274.346a1.779,1.779,0,0,0-1.779,1.779v5.59h25.79v-5.59A1.779,1.779,0,0,0,296.578,106.9Z" transform="translate(-272.567 -106.9)" fill="#8ac9fe"/>
          <path id="Trazado_995589" data-name="Trazado 995589" d="M468.057,106.9H465.5a1.779,1.779,0,0,1,1.779,1.779v5.59h2.557v-5.59A1.779,1.779,0,0,0,468.057,106.9Z" transform="translate(-444.046 -106.9)" fill="#60b7ff"/>
          <g id="Grupo_1161061" data-name="Grupo 1161061" transform="translate(2.36 9.71)">
            <circle id="Elipse_12180" data-name="Elipse 12180" cx="9.211" cy="9.211" r="9.211" transform="translate(0 18.201) rotate(-81.027)" fill="#a2e62e"/>
            <g id="Grupo_1161059" data-name="Grupo 1161059" transform="translate(5.011 6.418)">
              <path id="Trazado_995590" data-name="Trazado 995590" d="M343.141,260.1l-3.961-3.358a.921.921,0,0,1-.085-1.324l1.27-1.389a.921.921,0,0,1,1.241-.109l1.567,1.24a.46.46,0,0,0,.585-.019l3.386-2.975a.921.921,0,0,1,1.295.078l1.23,1.376a.921.921,0,0,1-.077,1.3l-5.848,5.17a.461.461,0,0,1-.6.007Z" transform="translate(-338.854 -251.939)" fill="#f8f6f6"/>
            </g>
            <path id="Trazado_995591" data-name="Trazado 995591" d="M378.306,206.3a9.286,9.286,0,0,0-1.28.09,9.209,9.209,0,0,1,0,18.241,9.21,9.21,0,1,0,1.28-18.331Z" transform="translate(-367.77 -204.957)" fill="#32db1f"/>
            <g id="Grupo_1161060" data-name="Grupo 1161060" transform="translate(8.296 6.418)">
              <path id="Trazado_995592" data-name="Trazado 995592" d="M375.922,253.622l-1.23-1.376a.921.921,0,0,0-1.295-.078l-.747.656.713.8a.921.921,0,0,1-.077,1.3l-4.894,4.326,1,.85a.461.461,0,0,0,.6-.007l5.848-5.17A.921.921,0,0,0,375.922,253.622Z" transform="translate(-368.393 -251.939)" fill="#e2e2e2"/>
            </g>
          </g>
        </g>
        <g id="Grupo_1161063" data-name="Grupo 1161063" transform="translate(0)">
          <path id="Trazado_995593" data-name="Trazado 995593" d="M21.38,23.159H9.28A1.779,1.779,0,0,1,7.5,21.38V9.28A1.779,1.779,0,0,1,9.28,7.5h12.1A1.779,1.779,0,0,1,23.159,9.28v12.1a1.779,1.779,0,0,1-1.779,1.779Z" transform="translate(-7.501 -7.501)" fill="#d83131"/>
          <path id="Trazado_995594" data-name="Trazado 995594" d="M48.933,51.056V44.43a.461.461,0,0,1,.667-.412l6.626,3.313a.461.461,0,0,1,0,.824L49.6,51.468A.461.461,0,0,1,48.933,51.056Z" transform="translate(-44.326 -39.914)" fill="#f8f6f6"/>
          <path id="Trazado_995595" data-name="Trazado 995595" d="M111.874,7.5h-2.558A1.779,1.779,0,0,1,111.1,9.28v12.1a1.779,1.779,0,0,1-1.779,1.779h2.558a1.779,1.779,0,0,0,1.779-1.779V9.28A1.779,1.779,0,0,0,111.874,7.5Z" transform="translate(-97.994 -7.501)" fill="#c41926"/>
          <path id="Trazado_995596" data-name="Trazado 995596" d="M56.225,47.331,49.6,44.019a.461.461,0,0,0-.667.412v.534l4.735,2.367a.461.461,0,0,1,0,.824l-4.735,2.367v.534a.461.461,0,0,0,.667.412l6.626-3.313A.461.461,0,0,0,56.225,47.331Z" transform="translate(-44.326 -39.914)" fill="#e2e2e2"/>
        </g>
        <g id="Grupo_1161064" data-name="Grupo 1161064" transform="translate(0 19.803)">
          <path id="Trazado_995597" data-name="Trazado 995597" d="M23.158,187.371a1.779,1.779,0,0,0-1.779-1.779H9.279A1.779,1.779,0,0,0,7.5,187.371v9.965l15.658-2.072Z" transform="translate(-7.5 -185.592)" fill="#daebfe"/>
          <path id="Trazado_995598" data-name="Trazado 995598" d="M111.1,187.371V195.6l2.558-.338v-7.892a1.779,1.779,0,0,0-1.779-1.779h-2.558A1.779,1.779,0,0,1,111.1,187.371Z" transform="translate(-97.994 -185.592)" fill="#bdd6ff"/>
          <path id="Trazado_995599" data-name="Trazado 995599" d="M89.827,249.305v-3.684l-3.962-3.169a.921.921,0,0,0-1.227.068l-2.129,2.129v3.9Z" transform="translate(-74.169 -235.949)" fill="#32db1f"/>
          <path id="Trazado_995600" data-name="Trazado 995600" d="M9.279,258.264h12.1a1.779,1.779,0,0,0,1.779-1.779v-.524l-9.552-6.079a.921.921,0,0,0-1.1.082L7.5,254.35v2.135a1.779,1.779,0,0,0,1.779,1.779Z" transform="translate(-7.5 -242.606)" fill="#a2e62e"/>
          <path id="Trazado_995601" data-name="Trazado 995601" d="M127.874,259.9v-3.684l-2.558-2.046v5.467Z" transform="translate(-112.215 -246.542)" fill="#16c748"/>
          <path id="Trazado_995602" data-name="Trazado 995602" d="M9.279,258.264h12.1a1.779,1.779,0,0,0,1.779-1.779v-.524l-9.552-6.079a.921.921,0,0,0-1.1.082L7.5,254.35v2.135a1.779,1.779,0,0,0,1.779,1.779Z" transform="translate(-7.5 -242.606)" fill="#a2e62e"/>
          <path id="Trazado_995603" data-name="Trazado 995603" d="M113.653,293.215v-.523l-2.558-1.627v2.151a1.779,1.779,0,0,1-1.779,1.779h2.558A1.779,1.779,0,0,0,113.653,293.215Z" transform="translate(-97.994 -279.336)" fill="#32db1f"/>
        </g>
        <g id="Grupo_1161065" data-name="Grupo 1161065" transform="translate(0 39.607)">
          <path id="Trazado_995604" data-name="Trazado 995604" d="M21.38,379.343H9.28A1.779,1.779,0,0,1,7.5,377.564v-12.1a1.779,1.779,0,0,1,1.779-1.779h12.1a1.779,1.779,0,0,1,1.779,1.779v12.1a1.779,1.779,0,0,1-1.779,1.779Z" transform="translate(-7.501 -363.685)" fill="#f8f6f6"/>
          <path id="Trazado_995605" data-name="Trazado 995605" d="M111.874,363.685h-2.558a1.779,1.779,0,0,1,1.779,1.779v12.1a1.779,1.779,0,0,1-1.779,1.779h2.558a1.779,1.779,0,0,0,1.779-1.779v-12.1A1.779,1.779,0,0,0,111.874,363.685Z" transform="translate(-97.994 -363.685)" fill="#e2e2e2"/>
        </g>
      </g>
      <g id="Grupo_1161067" data-name="Grupo 1161067" transform="translate(0 0)">
        <path id="Trazado_995606" data-name="Trazado 995606" d="M344.064,247.689a1.743,1.743,0,0,0-.443-1.273l-1.23-1.376a1.76,1.76,0,0,0-2.467-.149l-3.152,2.769-1.317-1.043-.009-.007a1.745,1.745,0,0,0-2.365.207l-1.27,1.389a1.755,1.755,0,0,0,.161,2.523l3.961,3.358h0a1.3,1.3,0,0,0,1.694-.018l5.848-5.17A1.741,1.741,0,0,0,344.064,247.689Zm-1.694-.038-5.606,4.956-3.715-3.149a.087.087,0,0,1-.008-.125l1.27-1.389a.088.088,0,0,1,.115-.012l1.56,1.235.009.007a1.3,1.3,0,0,0,1.643-.054l3.386-2.975a.087.087,0,0,1,.123.007l1.23,1.376a.087.087,0,0,1-.007.123Z" transform="translate(-294.505 -217.274)"/>
        <path id="Trazado_995607" data-name="Trazado 995607" d="M318.29,208.845a10.045,10.045,0,1,0-10.045,10.045A10.056,10.056,0,0,0,318.29,208.845Zm-18.422,0a8.377,8.377,0,1,1,8.377,8.377A8.386,8.386,0,0,1,299.868,208.845Z" transform="translate(-265.041 -176.694)"/>
        <path id="Trazado_995608" data-name="Trazado 995608" d="M54.32,11.053H32.088a2.616,2.616,0,0,0-2.613,2.613V25.79H25.7a.087.087,0,0,1-.087-.087V8.663A2.679,2.679,0,0,0,22.94,5.987H17.326V2.613A2.616,2.616,0,0,0,14.713,0H2.613A2.616,2.616,0,0,0,0,2.613v12.1a2.616,2.616,0,0,0,2.613,2.613h12.1a2.616,2.616,0,0,0,2.613-2.613V11.339h2.85a.087.087,0,0,1,.087.087v4.979a.834.834,0,1,0,1.668,0V11.426a1.757,1.757,0,0,0-1.755-1.755h-2.85V7.655H22.94a1.009,1.009,0,0,1,1.008,1.008V25.7A1.757,1.757,0,0,0,25.7,27.458h3.771v2.016H25.7a1.757,1.757,0,0,0-1.755,1.755V48.27a1.009,1.009,0,0,1-1.008,1.008H17.326V47.262h2.85a1.757,1.757,0,0,0,1.755-1.755V31.23a1.757,1.757,0,0,0-1.755-1.755h-2.85V27.458h2.85A1.757,1.757,0,0,0,21.932,25.7V20.281a.834.834,0,1,0-1.668,0V25.7a.087.087,0,0,1-.087.087h-2.85V22.417A2.616,2.616,0,0,0,14.713,19.8H2.613A2.616,2.616,0,0,0,0,22.417v12.1A2.616,2.616,0,0,0,2.613,37.13h12.1a2.616,2.616,0,0,0,2.613-2.613V31.143h2.85a.087.087,0,0,1,.087.087V45.507a.087.087,0,0,1-.087.087h-2.85V42.22a2.616,2.616,0,0,0-2.613-2.613H2.613A2.616,2.616,0,0,0,0,42.22v12.1a2.616,2.616,0,0,0,2.613,2.613h12.1a2.616,2.616,0,0,0,2.613-2.613V50.946H22.94a2.679,2.679,0,0,0,2.676-2.676V31.23a.087.087,0,0,1,.087-.087h3.771V43.267a2.616,2.616,0,0,0,2.613,2.613h1.8a.834.834,0,1,0,0-1.668h-1.8a.946.946,0,0,1-.945-.945V20.09H55.265V43.267a.946.946,0,0,1-.945.945H37.781a.834.834,0,0,0,0,1.668H54.32a2.616,2.616,0,0,0,2.613-2.613v-29.6a2.616,2.616,0,0,0-2.613-2.613Zm-38.662,3.66a.946.946,0,0,1-.945.945H2.613a.946.946,0,0,1-.945-.945V2.613a.946.946,0,0,1,.945-.945h12.1a.946.946,0,0,1,.945.945Zm0,17.761L10.5,29.191,11.894,27.8a.087.087,0,0,1,.116-.007l3.649,2.919Zm-13.045-11h12.1a.946.946,0,0,1,.945.945v6.157l-2.607-2.085a1.754,1.754,0,0,0-2.337.129L9.058,28.274l-1.67-1.063a1.767,1.767,0,0,0-2.1.158L1.668,30.542V22.417a.946.946,0,0,1,.945-.945Zm12.1,13.99H2.613a.946.946,0,0,1-.945-.945V32.759l4.721-4.134a.087.087,0,0,1,.1-.008l2.223,1.415,0,0,6.941,4.417v.066a.946.946,0,0,1-.945.945Zm.945,18.858a.946.946,0,0,1-.945.945H2.613a.946.946,0,0,1-.945-.945V42.22a.946.946,0,0,1,.945-.945h12.1a.946.946,0,0,1,.945.945Zm15.484-35.9V13.666a.946.946,0,0,1,.945-.945H54.32a.946.946,0,0,1,.945.945v4.756Z" transform="translate(0 0)"/>
        <path id="Trazado_995609" data-name="Trazado 995609" d="M299.955,132.533h-.921a.834.834,0,1,0,0,1.668h.921a.834.834,0,0,0,0-1.668Z" transform="translate(-265.041 -117.796)"/>
        <path id="Trazado_995610" data-name="Trazado 995610" d="M341.372,132.533h-.921a.834.834,0,0,0,0,1.668h.921a.834.834,0,1,0,0-1.668Z" transform="translate(-301.852 -117.796)"/>
        <path id="Trazado_995611" data-name="Trazado 995611" d="M382.788,132.533h-.921a.834.834,0,1,0,0,1.668h.921a.834.834,0,1,0,0-1.668Z" transform="translate(-338.663 -117.796)"/>
        <path id="Trazado_995612" data-name="Trazado 995612" d="M49.931,39.914,43.306,36.6a1.295,1.295,0,0,0-1.874,1.158v6.626a1.293,1.293,0,0,0,1.873,1.158l6.626-3.313a1.295,1.295,0,0,0,0-2.316ZM43.1,43.781V38.363l5.417,2.709Z" transform="translate(-36.825 -32.409)"/>
        <path id="Trazado_995613" data-name="Trazado 995613" d="M42.257,393.458h-8.29a.834.834,0,0,0,0,1.668h8.29a.834.834,0,0,0,0-1.668Z" transform="translate(-29.449 -349.706)"/>
        <path id="Trazado_995614" data-name="Trazado 995614" d="M42.257,426.592h-8.29a.834.834,0,1,0,0,1.668h8.29a.834.834,0,1,0,0-1.668Z" transform="translate(-29.449 -379.156)"/>
        <path id="Trazado_995615" data-name="Trazado 995615" d="M55.139,459.725H50.534a.834.834,0,0,0,0,1.668h4.605a.834.834,0,0,0,0-1.668Z" transform="translate(-44.173 -408.605)"/>
      </g>
    </g>
  </g>
</svg>
