<svg xmlns="http://www.w3.org/2000/svg" xmlns:xlink="http://www.w3.org/1999/xlink" width="505" height="308" viewBox="0 0 505 308">
  <defs>
    <clipPath id="clip-path">
      <rect id="Rect치ngulo_413010" data-name="Rect치ngulo 413010" width="505" height="308" transform="translate(285 3875)" fill="#fff" stroke="#707070" stroke-width="1"/>
    </clipPath>
    <clipPath id="clip-path-2">
      <rect id="Rect치ngulo_413008" data-name="Rect치ngulo 413008" width="804.293" height="387.427"/>
    </clipPath>
  </defs>
  <g id="Enmascarar_grupo_1098782" data-name="Enmascarar grupo 1098782" transform="translate(-285 -3875)" clip-path="url(#clip-path)">
    <g id="Grupo_1161289" data-name="Grupo 1161289" transform="translate(2675.22 -1290.947)">
      <path id="Trazado_995706" data-name="Trazado 995706" d="M411.993,220.431c-31.626,63.055-90.008,130.68-166.867,126.228-32.375-2.339-63.47-22.128-75.786-52.7-22.86-74.62-85.7-35.961-133.354-70.079-33.269-29.6-6.093-78.7,14.944-107.324C186.468-67.875,490.929,40.6,411.993,220.431Z" transform="translate(-2379.613 5153.352)" fill="#f2cfad"/>
      <g id="Grupo_1161088" data-name="Grupo 1161088" transform="translate(-2375 5465.089)">
        <g id="Grupo_1161087" data-name="Grupo 1161087" transform="translate(0 0)">
          <path id="Trazado_995709" data-name="Trazado 995709" d="M377.819,465.049a.519.519,0,0,1-.388-.174,102.173,102.173,0,0,0-7.234-7.35.519.519,0,1,1,.7-.764,103.276,103.276,0,0,1,7.307,7.425.518.518,0,0,1-.388.863Zm-202.735-9.625q-.833,0-1.666-.014a.518.518,0,0,1,.008-1.037h.008q5.034.086,10.3-.345a.524.524,0,0,1,.559.475.519.519,0,0,1-.475.559C180.859,455.3,177.918,455.424,175.084,455.424Zm-11.994-.758a.48.48,0,0,1-.067,0q-1.255-.164-2.512-.363c-2.545-.4-5.144-.939-7.727-1.587a.519.519,0,1,1,.252-1.006c2.553.641,5.123,1.168,7.638,1.569q1.242.2,2.482.359a.519.519,0,0,1-.066,1.033Zm30.973-.868a.519.519,0,0,1-.083-1.031c3.258-.529,6.574-1.177,10.138-1.982a.519.519,0,1,1,.229,1.012c-3.586.809-6.923,1.462-10.2,1.994A.611.611,0,0,1,194.063,453.8Zm168.513-2.762a.52.52,0,0,1-.311-.1c-2.735-2.054-5.608-4-8.539-5.789a.519.519,0,0,1,.54-.885c2.96,1.8,5.861,3.771,8.623,5.845a.519.519,0,0,1-.313.933ZM143,449.686a.5.5,0,0,1-.176-.031c-3.119-1.128-6.359-2.458-9.63-3.952a.518.518,0,1,1,.43-.943c3.246,1.482,6.459,2.8,9.551,3.919a.519.519,0,0,1-.176,1.006Zm71.283-.394a.519.519,0,0,1-.135-1.019c3.038-.827,6.293-1.764,9.949-2.866a.518.518,0,1,1,.3.992c-3.666,1.105-6.929,2.045-9.976,2.875A.5.5,0,0,1,214.286,449.292Zm19.873-5.931a.519.519,0,0,1-.155-1.014l2.279-.716q3.808-1.2,7.623-2.381a.518.518,0,0,1,.306.991q-3.812,1.179-7.618,2.38l-2.28.716A.525.525,0,0,1,234.159,443.361Zm-110.037-2.219a.527.527,0,0,1-.243-.06c-2.85-1.517-5.814-3.181-9.062-5.087a.519.519,0,1,1,.525-.895c3.235,1.9,6.188,3.555,9.024,5.065a.519.519,0,0,1-.245.977Zm220.774-.889a.524.524,0,0,1-.226-.052c-3.089-1.5-6.281-2.862-9.487-4.054a.519.519,0,0,1,.361-.973c3.237,1.2,6.46,2.581,9.578,4.094a.519.519,0,0,1-.227.985Zm-90.9-2.972a.519.519,0,0,1-.144-1.017c3.616-1.044,6.9-1.935,10.03-2.722a.518.518,0,0,1,.253,1.005c-3.122.785-6.391,1.673-10,2.714A.545.545,0,0,1,253.994,437.28Zm71.491-4.239a.524.524,0,0,1-.133-.017c-3.329-.881-6.723-1.6-10.089-2.146a.518.518,0,1,1,.165-1.024c3.4.548,6.827,1.277,10.189,2.168a.518.518,0,0,1-.132,1.019Zm-51.363-.767a.519.519,0,0,1-.1-1.028c3.53-.7,6.984-1.268,10.266-1.69a.518.518,0,1,1,.133,1.028c-3.259.419-6.69.984-10.2,1.678A.464.464,0,0,1,274.122,432.275ZM106.2,430.7a.512.512,0,0,1-.272-.077q-3.469-2.143-6.924-4.311l-1.88-1.175a.518.518,0,1,1,.549-.879l1.881,1.175q3.454,2.16,6.919,4.309a.518.518,0,0,1-.272.959Zm198.84-.946h-.03c-1.9-.111-3.822-.166-5.712-.166l-.648,0c-1.3.008-2.625.042-3.953.1a.507.507,0,0,1-.54-.5.518.518,0,0,1,.5-.54c1.339-.058,2.683-.091,3.99-.1l.655,0c1.91,0,3.851.056,5.771.168a.519.519,0,0,1-.029,1.037ZM88.578,419.766a.518.518,0,0,1-.269-.075q-2.781-1.69-5.578-3.326-1.658-.966-3.35-1.911a.518.518,0,1,1,.506-.9q1.7.948,3.367,1.921,2.806,1.638,5.594,3.335a.518.518,0,0,1-.271.961Zm-18.145-10.04a.52.52,0,0,1-.225-.052c-3.18-1.538-6.359-2.947-9.448-4.189a.519.519,0,0,1,.387-.963c3.111,1.25,6.311,2.669,9.513,4.217a.519.519,0,0,1-.226.986ZM.519,402.939a.518.518,0,0,1-.216-.99,56.283,56.283,0,0,1,9.871-3.434.518.518,0,1,1,.248,1.007,55.245,55.245,0,0,0-9.689,3.37A.527.527,0,0,1,.519,402.939Zm50.668-.9a.528.528,0,0,1-.153-.023c-3.385-1.046-6.745-1.91-9.988-2.568a.519.519,0,0,1,.207-1.017c3.276.665,6.67,1.537,10.088,2.594a.518.518,0,0,1-.154,1.014Zm-20.3-4.035-.041,0c-1.9-.149-3.795-.224-5.633-.224h-.022c-1.552,0-3.108.054-4.624.161a.527.527,0,0,1-.553-.481.518.518,0,0,1,.481-.553c1.541-.108,3.122-.163,4.7-.163h.022c1.865,0,3.788.076,5.714.227a.519.519,0,0,1-.04,1.035Z" transform="translate(0 -396.745)" fill="#fff"/>
        </g>
      </g>
      <g id="Grupo_1161103" data-name="Grupo 1161103" transform="translate(-2296.362 5181.581)">
        <g id="Grupo_1161090" data-name="Grupo 1161090" transform="translate(2.816 7.306)">
          <g id="Grupo_1161089" data-name="Grupo 1161089">
            <path id="Trazado_995710" data-name="Trazado 995710" d="M303.992,57.084a18.8,18.8,0,0,1-17.213,20.158L125.466,89.9a18.743,18.743,0,0,1-2.933-37.372L283.847,39.871A18.793,18.793,0,0,1,303.992,57.084Z" transform="translate(-105.261 -39.813)" fill="#dd505d"/>
          </g>
        </g>
        <g id="Grupo_1161092" data-name="Grupo 1161092" transform="translate(0 4.9)">
          <g id="Grupo_1161091" data-name="Grupo 1161091">
            <path id="Trazado_995711" data-name="Trazado 995711" d="M300.353,53.975A18.8,18.8,0,0,1,283.14,74.133L121.827,86.791a18.743,18.743,0,0,1-2.933-37.372L280.208,36.761A18.793,18.793,0,0,1,300.353,53.975Z" transform="translate(-101.622 -36.704)" fill="#fff"/>
          </g>
        </g>
        <g id="Grupo_1161094" data-name="Grupo 1161094" transform="translate(11.795 22.946)">
          <g id="Grupo_1161093" data-name="Grupo 1161093">
            <path id="Trazado_995712" data-name="Trazado 995712" d="M129.579,60.025l4.829,8.115,9.422.623-6.225,7.1,2.319,9.154-8.676-3.727-7.99,5.035.864-9.4-7.257-6.043,9.21-2.085Z" transform="translate(-116.865 -60.025)" fill="#e69643"/>
          </g>
        </g>
        <g id="Grupo_1161096" data-name="Grupo 1161096" transform="translate(48.687 20.051)">
          <g id="Grupo_1161095" data-name="Grupo 1161095">
            <path id="Trazado_995713" data-name="Trazado 995713" d="M177.254,56.284l4.829,8.115,9.422.623-6.225,7.1,2.319,9.154-8.676-3.727-7.99,5.035.864-9.4-7.257-6.043,9.21-2.085Z" transform="translate(-164.54 -56.284)" fill="#e69643"/>
          </g>
        </g>
        <g id="Grupo_1161098" data-name="Grupo 1161098" transform="translate(85.882 17.133)">
          <g id="Grupo_1161097" data-name="Grupo 1161097">
            <path id="Trazado_995714" data-name="Trazado 995714" d="M225.32,52.512l4.829,8.116,9.423.622-6.225,7.1,2.319,9.154-8.677-3.728L219,78.812l.864-9.4-7.257-6.042,9.21-2.085Z" transform="translate(-212.606 -52.512)" fill="#e69643"/>
          </g>
        </g>
        <g id="Grupo_1161100" data-name="Grupo 1161100" transform="translate(122.774 14.238)">
          <g id="Grupo_1161099" data-name="Grupo 1161099">
            <path id="Trazado_995715" data-name="Trazado 995715" d="M272.995,48.771l4.829,8.116,9.422.622-6.225,7.1,2.319,9.154-8.677-3.728-7.989,5.035.864-9.4-7.257-6.042,9.21-2.085Z" transform="translate(-260.281 -48.771)" fill="#e69643"/>
          </g>
        </g>
        <g id="Grupo_1161102" data-name="Grupo 1161102" transform="translate(153.82 0)">
          <g id="Grupo_1161101" data-name="Grupo 1161101">
            <path id="Trazado_995716" data-name="Trazado 995716" d="M319.788,30.372l7.363,12.374,14.368.949-9.493,10.827,3.536,13.958L322.333,62.8,310.15,70.475l1.316-14.339L300.4,46.923l14.044-3.179Z" transform="translate(-300.401 -30.372)" fill="#e69643"/>
          </g>
        </g>
      </g>
      <g id="Grupo_1161109" data-name="Grupo 1161109" transform="translate(-2278.945 5248.943)">
        <g id="Grupo_1161104" data-name="Grupo 1161104" transform="translate(0 0)">
          <path id="Trazado_995717" data-name="Trazado 995717" d="M164.09,147.374l-8.436.3a18.086,18.086,0,1,1,3.885-6.832Z" transform="translate(-124.13 -117.424)" fill="#fff"/>
        </g>
        <g id="Grupo_1161108" data-name="Grupo 1161108" transform="translate(4.84 6.866)">
          <g id="Grupo_1161105" data-name="Grupo 1161105" transform="translate(5.43 0.301)">
            <path id="Trazado_995718" data-name="Trazado 995718" d="M152.687,129.956l-11.461,16.784a2.094,2.094,0,0,1-3.823-1.184,2.06,2.06,0,0,1,.369-1.169L149.237,127.6a2.089,2.089,0,1,1,3.45,2.358Z" transform="translate(-137.402 -126.686)" fill="#e17826"/>
          </g>
          <g id="Grupo_1161106" data-name="Grupo 1161106">
            <path id="Trazado_995719" data-name="Trazado 995719" d="M136.135,137.976c3.086-.073,5.4-2.159,5.4-5.837,0-3.7-2.368-5.818-5.517-5.842h-.053c-3.178,0-5.575,2.126-5.575,5.842,0,3.746,2.4,5.842,5.575,5.842C136.018,137.981,136.077,137.981,136.135,137.976Zm-1.5-5.838c0-2.009.66-2.605,1.32-2.605s1.315.6,1.315,2.605c0,1.883-.582,2.523-1.194,2.6a1.057,1.057,0,0,1-.121,0C135.3,134.745,134.64,134.147,134.64,132.139Z" transform="translate(-130.385 -126.297)" fill="#e17826"/>
          </g>
          <g id="Grupo_1161107" data-name="Grupo 1161107" transform="translate(15.367 9.884)">
            <path id="Trazado_995720" data-name="Trazado 995720" d="M156.047,139.075c-.058,0-.116,0-.175,0h-.053c-.058,0-.116,0-.175,0-3.091.073-5.4,2.193-5.4,5.837s2.28,5.74,5.347,5.837c.058,0,.117,0,.175,0h.053c.058,0,.116,0,.175,0,3.086-.073,5.4-2.159,5.4-5.837C161.389,141.287,159.109,139.177,156.047,139.075Zm-.107,8.438a1.6,1.6,0,0,1-.243,0c-.616-.077-1.2-.718-1.2-2.6s.583-2.523,1.2-2.6a1.593,1.593,0,0,1,.243,0c.611.077,1.193.723,1.193,2.6S156.551,147.435,155.94,147.512Z" transform="translate(-150.243 -139.07)" fill="#e17826"/>
          </g>
        </g>
      </g>
      <g id="Grupo_1161114" data-name="Grupo 1161114" transform="translate(-2170.165 5271.074)">
        <g id="Grupo_1161110" data-name="Grupo 1161110" transform="translate(0 0)">
          <path id="Trazado_995721" data-name="Trazado 995721" d="M305.834,164.541a16.765,16.765,0,0,1-30.156,8.235l-10.974.976,8.15-6.967a16.775,16.775,0,1,1,32.98-2.244Z" transform="translate(-264.704 -146.023)" fill="#fff"/>
        </g>
        <g id="Grupo_1161113" data-name="Grupo 1161113" transform="translate(10.641 6.674)">
          <g id="Grupo_1161112" data-name="Grupo 1161112">
            <g id="Grupo_1161111" data-name="Grupo 1161111">
              <path id="Trazado_995722" data-name="Trazado 995722" d="M290.812,176l-12.357-8.128,3.721-5.657,7.581,4.987,11.7-12.554,4.953,4.617Z" transform="translate(-278.455 -154.647)" fill="#dd505d"/>
            </g>
          </g>
        </g>
      </g>
      <g id="Grupo_1161118" data-name="Grupo 1161118" transform="translate(-2306.271 5295.066)">
        <g id="Grupo_1161115" data-name="Grupo 1161115" transform="translate(0 0)">
          <path id="Trazado_995723" data-name="Trazado 995723" d="M137.993,195.82,126.4,199.091a18.869,18.869,0,1,1-.244-7.514Z" transform="translate(-88.817 -177.028)" fill="#fff"/>
        </g>
        <g id="Grupo_1161117" data-name="Grupo 1161117" transform="translate(6.275 5.538)">
          <g id="Grupo_1161116" data-name="Grupo 1161116">
            <path id="Trazado_995724" data-name="Trazado 995724" d="M111.8,184.185l2.547,8.959,8.824,2.981-7.733,5.191-.108,9.313L108,204.878l-8.891,2.775,3.205-8.745-5.387-7.6,9.308.346Z" transform="translate(-96.926 -184.185)" fill="#e69643"/>
          </g>
        </g>
      </g>
      <g id="Grupo_1161288" data-name="Grupo 1161288" transform="translate(-2374.513 5157.564)">
        <g id="Grupo_1161221" data-name="Grupo 1161221" transform="translate(0 0)" clip-path="url(#clip-path-2)">
          <g id="Grupo_1161141" data-name="Grupo 1161141" transform="translate(115.145 109.035)">
            <g id="Grupo_1161127" data-name="Grupo 1161127">
              <g id="Grupo_1161119" data-name="Grupo 1161119">
                <path id="Trazado_995725" data-name="Trazado 995725" d="M222.844,149.069a36.942,36.942,0,0,0-7.355-4.418,28.509,28.509,0,0,0-9.66-3.913,24.061,24.061,0,0,0-15.214,1.8c-.139.064-.279.15-.418.225a13.885,13.885,0,0,0-7.741,5.726c-3.034,4.514-3.731,10.025-4.739,15.268a41.61,41.61,0,0,1-5.35,6.572c-4.911,5.007-10.646,9.167-15.278,14.464-4.246,4.846-7.419,10.615-7.645,17.166a23.052,23.052,0,0,0,14.55,22.505,34.518,34.518,0,0,0,19.524,7.248c11.172.6,22.28-3.56,30.986-10.432a50.544,50.544,0,0,0,16.78-24.017c3.345-6.261,5.575-13.037,5.458-20.286A36.269,36.269,0,0,0,222.844,149.069ZM174.9,172.979a19.7,19.7,0,0,1-5.222,6.218c-4,3.281-8.652,5.736-11.783,9.972-5.961,8.084-5.8,19.556-.536,27.92a29.121,29.121,0,0,0,3.667,4.685,21.914,21.914,0,0,1-3.5-2.638,22.356,22.356,0,0,1-7.022-16.544c.1-14.185,13.359-22.2,22.28-31.157a47.345,47.345,0,0,0,4.353-5A28.568,28.568,0,0,1,174.9,172.979Zm57.791,18.849a50.838,50.838,0,0,0-3.088-30.053,40.468,40.468,0,0,0-8.642-12.748,34.5,34.5,0,0,1,10.067,11.012,35.5,35.5,0,0,1,4.567,15.268,36.862,36.862,0,0,1-2.659,15.932C232.859,191.442,232.773,191.635,232.687,191.828Z" transform="translate(-149.429 -140.24)" fill="#471c31"/>
              </g>
              <g id="Grupo_1161120" data-name="Grupo 1161120" transform="translate(42.134 43.02)">
                <path id="Trazado_995726" data-name="Trazado 995726" d="M208.112,218.864l-4.235-23.031a17.847,17.847,0,0,0,3.109,6.068s5.822,16.886,26.676,8.8l1.565,2.509,1.212,1.941a40.345,40.345,0,0,1-13.477,6.712,21.841,21.841,0,0,1-14.464-.922Z" transform="translate(-203.877 -195.833)" fill="#df8888"/>
              </g>
              <g id="Grupo_1161121" data-name="Grupo 1161121" transform="translate(45.243 49.089)">
                <path id="Trazado_995727" data-name="Trazado 995727" d="M230.969,206.7l3.6,5.779c-20.854,8.084-26.676-8.8-26.676-8.8,5.522,6.916,14.861,6.562,18.142,5.64A14.163,14.163,0,0,0,230.969,206.7Z" transform="translate(-207.895 -203.676)" fill="#d3495f"/>
              </g>
              <g id="Grupo_1161122" data-name="Grupo 1161122" transform="translate(34.112 4.673)">
                <path id="Trazado_995728" data-name="Trazado 995728" d="M212.308,150.091c-.847,13.831-17.316,22.2-17.316,22.2a17.079,17.079,0,0,1-.783-2.219,18.741,18.741,0,0,1,34.771-13.509C220.714,147.742,212.308,150.091,212.308,150.091Z" transform="translate(-193.511 -146.278)" fill="#471c31"/>
              </g>
              <g id="Grupo_1161123" data-name="Grupo 1161123" transform="translate(31.286 8.202)">
                <path id="Trazado_995729" data-name="Trazado 995729" d="M194.167,173.327s16.469-8.374,17.316-22.2c0,0,8.406-2.348,16.672,6.476a18.434,18.434,0,0,1,1.319,3.4,21.2,21.2,0,0,1,.5,2.284s.011.086.022.258c.033.161.043.332.064.5a1.461,1.461,0,0,0,.033.214,14.187,14.187,0,0,0,1.791,5.329,17.2,17.2,0,0,1,1.383,16.383,21.79,21.79,0,0,1-6.379,8.781,14.142,14.142,0,0,1-4.932,2.616c-3.281.922-12.62,1.276-18.142-5.64a17.854,17.854,0,0,1-3.109-6.068,8.187,8.187,0,0,1-10.615-5.64,6.547,6.547,0,0,1,.033-3.581,4.626,4.626,0,0,1,2.263-2.734A3.522,3.522,0,0,1,194.167,173.327Z" transform="translate(-189.858 -150.839)" fill="#df8888"/>
              </g>
              <g id="Grupo_1161124" data-name="Grupo 1161124" transform="translate(29.215 1.128)">
                <path id="Trazado_995730" data-name="Trazado 995730" d="M205.286,142.207A27.3,27.3,0,0,1,193.4,161.12a25.8,25.8,0,0,1-5.847,2.914c-.648.225-.369,1.261.285,1.034a28.456,28.456,0,0,0,16.831-16.26,26.867,26.867,0,0,0,1.692-6.6C206.445,141.525,205.372,141.531,205.286,142.207Z" transform="translate(-187.183 -141.697)" fill="#6d3855"/>
              </g>
              <g id="Grupo_1161125" data-name="Grupo 1161125" transform="translate(3.174 44.372)">
                <path id="Trazado_995731" data-name="Trazado 995731" d="M187.838,197.753A54.783,54.783,0,0,1,162.53,213.67a53.447,53.447,0,0,1-8.49,1.755c-.676.083-.684,1.156,0,1.073A55.969,55.969,0,0,0,182.2,204.577a54.209,54.209,0,0,0,6.394-6.065C189.056,198,188.3,197.237,187.838,197.753Z" transform="translate(-153.53 -197.581)" fill="#6d3855"/>
              </g>
              <g id="Grupo_1161126" data-name="Grupo 1161126" transform="translate(15.816 47.398)">
                <path id="Trazado_995732" data-name="Trazado 995732" d="M195.953,201.868a66.516,66.516,0,0,1-18.1,29.68,64.858,64.858,0,0,1-7.749,6.29c-.564.39-.028,1.319.541.925a67.558,67.558,0,0,0,22.834-27.2,66.69,66.69,0,0,0,3.5-9.414A.537.537,0,0,0,195.953,201.868Z" transform="translate(-169.868 -201.491)" fill="#6d3855"/>
              </g>
            </g>
            <g id="Grupo_1161128" data-name="Grupo 1161128" transform="translate(45.502 24.862)">
              <path id="Trazado_995733" data-name="Trazado 995733" d="M212.993,174.532a2.442,2.442,0,1,1-3.087-2.087A2.654,2.654,0,0,1,212.993,174.532Z" transform="translate(-208.229 -172.368)" fill="#471c31"/>
            </g>
            <g id="Grupo_1161129" data-name="Grupo 1161129" transform="translate(62.89 19.987)">
              <path id="Trazado_995734" data-name="Trazado 995734" d="M235.465,168.233a2.442,2.442,0,1,1-3.088-2.087A2.654,2.654,0,0,1,235.465,168.233Z" transform="translate(-230.7 -166.069)" fill="#471c31"/>
            </g>
            <g id="Grupo_1161130" data-name="Grupo 1161130" transform="translate(42.856 20.48)">
              <path id="Trazado_995735" data-name="Trazado 995735" d="M210.927,167.2a1.469,1.469,0,0,0-1.034-.5,7.012,7.012,0,0,0-2.6.55,7.29,7.29,0,0,0-1.981,1.186,1.521,1.521,0,0,0,2.045,2.253c.054-.044.111-.084.166-.126a4.715,4.715,0,0,1,2.467-.847l-.2.015a1.6,1.6,0,0,0,1.033-.385,1.521,1.521,0,0,0,.1-2.149Z" transform="translate(-204.811 -166.705)" fill="#471c31"/>
            </g>
            <g id="Grupo_1161131" data-name="Grupo 1161131" transform="translate(60.229 15.868)">
              <path id="Trazado_995736" data-name="Trazado 995736" d="M227.294,162.69a1.471,1.471,0,0,1,.625-.961,8.585,8.585,0,0,1,1.243-.572,8.694,8.694,0,0,1,1.267-.311,7.287,7.287,0,0,1,2.308-.017,1.521,1.521,0,1,1-.576,2.988c-.069-.009-.139-.015-.207-.022a4.708,4.708,0,0,0-2.547.558l.176-.09a1.6,1.6,0,0,1-1.083.209,1.521,1.521,0,0,1-1.206-1.782Z" transform="translate(-227.261 -160.745)" fill="#471c31"/>
            </g>
            <g id="Grupo_1161132" data-name="Grupo 1161132" transform="translate(42.295 33.231)">
              <path id="Trazado_995737" data-name="Trazado 995737" d="M211.651,186a3.853,3.853,0,1,1-4.751-2.67A3.854,3.854,0,0,1,211.651,186Z" transform="translate(-204.086 -183.183)" fill="#d3495f"/>
            </g>
            <g id="Grupo_1161134" data-name="Grupo 1161134" transform="translate(56.396 26.977)">
              <g id="Grupo_1161133" data-name="Grupo 1161133">
                <path id="Trazado_995738" data-name="Trazado 995738" d="M227.574,178.4a2.866,2.866,0,0,1-.5,2.635c-.481.829-1.255,1.7-2.321,1.442a2.007,2.007,0,0,1-1.065-.735,3.125,3.125,0,0,1-.536-.632,5.505,5.505,0,0,1-.848-2.921,4.989,4.989,0,0,1,.63-2.593.969.969,0,0,1,1.268-.4,6.432,6.432,0,0,1,1.157.909A7.075,7.075,0,0,1,227.574,178.4Z" transform="translate(-222.308 -175.102)" fill="#d95d79"/>
              </g>
            </g>
            <g id="Grupo_1161136" data-name="Grupo 1161136" transform="translate(54.331 36.915)">
              <g id="Grupo_1161135" data-name="Grupo 1161135">
                <path id="Trazado_995739" data-name="Trazado 995739" d="M227.025,193.358c-.659,2.377-2.8,3.858-4.788,3.308s-3.062-2.923-2.4-5.3,2.8-3.858,4.788-3.308S227.682,190.98,227.025,193.358Z" transform="translate(-219.64 -187.944)" fill="#d3495f"/>
              </g>
            </g>
            <g id="Grupo_1161137" data-name="Grupo 1161137" transform="translate(52.997 37.95)">
              <path id="Trazado_995740" data-name="Trazado 995740" d="M228.422,192.2a4.445,4.445,0,0,1-.994,1.506,6.669,6.669,0,0,1-7.38,1.455,4.033,4.033,0,0,1-1.751-1.366,2.217,2.217,0,0,1-.179-2.153,2.372,2.372,0,0,1,1.582-1.089,5.563,5.563,0,0,1,1.107-.091c.549-.06,1.116-.061,1.669-.106a9.477,9.477,0,0,0,2.783-.623,3.687,3.687,0,0,1,1.815-.43,1.8,1.8,0,0,1,1.347,1.1A2.539,2.539,0,0,1,228.422,192.2Z" transform="translate(-217.915 -189.282)" fill="#fff"/>
            </g>
            <g id="Grupo_1161139" data-name="Grupo 1161139" transform="translate(56.396 21.61)">
              <g id="Grupo_1161138" data-name="Grupo 1161138">
                <path id="Trazado_995741" data-name="Trazado 995741" d="M224.147,182.325a.537.537,0,0,1-.187-1.039,6.27,6.27,0,0,0,3.479-3.292,1.216,1.216,0,0,0-.3-1.383,15.794,15.794,0,0,1-4.809-7.771.536.536,0,0,1,1.037-.272,14.727,14.727,0,0,0,4.48,7.238,2.281,2.281,0,0,1,.573,2.63,7.349,7.349,0,0,1-4.081,3.855A.554.554,0,0,1,224.147,182.325Z" transform="translate(-222.308 -168.166)" fill="#471c31"/>
              </g>
            </g>
            <g id="Grupo_1161140" data-name="Grupo 1161140" transform="translate(33.456 34.156)">
              <path id="Trazado_995742" data-name="Trazado 995742" d="M198.585,190.575a19.457,19.457,0,0,0-5.007-6.046.553.553,0,0,0-.758,0,.54.54,0,0,0,0,.758,18.69,18.69,0,0,1,4.84,5.828C197.983,191.726,198.909,191.185,198.585,190.575Z" transform="translate(-192.664 -184.378)" fill="#471c31"/>
            </g>
          </g>
          <g id="Grupo_1161144" data-name="Grupo 1161144" transform="translate(144.788 279.193)">
            <g id="Grupo_1161142" data-name="Grupo 1161142" transform="translate(52.955)">
              <path id="Trazado_995743" data-name="Trazado 995743" d="M305.563,479.154H272.014l-15.847-108.5a88.585,88.585,0,0,0,35.307-10.518C302.3,408.766,305.563,479.154,305.563,479.154Z" transform="translate(-256.167 -360.132)" fill="#471c31"/>
            </g>
            <g id="Grupo_1161143" data-name="Grupo 1161143" transform="translate(0 6.616)">
              <path id="Trazado_995744" data-name="Trazado 995744" d="M238.063,372.788,221.8,481.089H187.735L198.9,368.682A120.437,120.437,0,0,0,238.063,372.788Z" transform="translate(-187.735 -368.682)" fill="#471c31"/>
            </g>
          </g>
          <g id="Grupo_1161162" data-name="Grupo 1161162" transform="translate(58.482 169.434)">
            <g id="Grupo_1161145" data-name="Grupo 1161145" transform="translate(0 31.975)">
              <path id="Trazado_995745" data-name="Trazado 995745" d="M176.172,284.919l-.022.172-12.437,22.4a13.518,13.518,0,0,1-20.843,3.5l-31-29.721-2.562-2.562-7.859,3.806a20.793,20.793,0,0,1-6.261,1.329,9.961,9.961,0,0,1-1.512-.1,3.972,3.972,0,0,1-3.646-3.388c-7.152-1.737-6.369-4.717-6.369-4.717-3.228-1-2.734-2.23-2.734-2.23-3.635-1.158-1.651-3.806-1.651-3.806a7.622,7.622,0,0,1-2.155-.987,2.112,2.112,0,0,1,1.029-3.849,27.022,27.022,0,0,0,5.479-1.051c.011,0,.021-.011.032-.011a3.07,3.07,0,0,1,.493-.139,47.693,47.693,0,0,0,4.964-1.908c9.317-4.224,19.61-.579,19.61-.579l9.435,7.387,29.2,17.594,5.993-13.466C158.01,276.888,166.695,283.685,176.172,284.919Z" transform="translate(-76.204 -259.612)" fill="#df8888"/>
            </g>
            <g id="Grupo_1161146" data-name="Grupo 1161146" transform="translate(13.297 46.395)">
              <path id="Trazado_995746" data-name="Trazado 995746" d="M99.025,285.852a.537.537,0,0,1-.533-.484l-.275-2.814a.537.537,0,0,1,.174-.45.529.529,0,0,1,.465-.128,3.08,3.08,0,0,0,1.926-.26c.03-.05.033-.368-.269-.85a3.328,3.328,0,0,0-3.085-1.527c-1.979.21-2.817,3.891-2.972,5.291a.536.536,0,1,1-1.066-.119c.027-.24.692-5.893,3.924-6.239a4.32,4.32,0,0,1,4.426,2.678,1.332,1.332,0,0,1-.388,1.673,3.656,3.656,0,0,1-2,.474l.212,2.165a.538.538,0,0,1-.481.587Z" transform="translate(-93.387 -278.248)" fill="#471c31"/>
            </g>
            <g id="Grupo_1161147" data-name="Grupo 1161147" transform="translate(6.924 41.982)">
              <path id="Trazado_995747" data-name="Trazado 995747" d="M85.687,279.1a.536.536,0,0,1-.437-.845c.155-.219,3.814-5.36,6.751-5.687a3.207,3.207,0,0,1,2.628.816,5.617,5.617,0,0,1,1.415,4.155.527.527,0,0,1-.559.511.535.535,0,0,1-.511-.559,4.562,4.562,0,0,0-1.076-3.324,2.107,2.107,0,0,0-1.777-.533c-2.041.228-5.018,3.858-5.993,5.239A.531.531,0,0,1,85.687,279.1Z" transform="translate(-85.152 -272.544)" fill="#471c31"/>
            </g>
            <g id="Grupo_1161148" data-name="Grupo 1161148" transform="translate(4.194 38.833)">
              <path id="Trazado_995748" data-name="Trazado 995748" d="M82.159,275.946h-.023a.535.535,0,0,1-.512-.557c0-.057.3-5.788,5.428-6.767,1.751-.336,3.058-.094,3.886.717a3.594,3.594,0,0,1,.854,2.934.536.536,0,0,1-1.058-.176,2.536,2.536,0,0,0-.549-2c-.563-.546-1.548-.69-2.931-.425-4.289.819-4.549,5.558-4.558,5.759A.537.537,0,0,1,82.159,275.946Z" transform="translate(-81.623 -268.475)" fill="#471c31"/>
            </g>
            <g id="Grupo_1161149" data-name="Grupo 1161149" transform="translate(2.538 35.332)">
              <path id="Trazado_995749" data-name="Trazado 995749" d="M80.021,271.116a.48.48,0,0,1-.109-.012.535.535,0,0,1-.417-.632c.043-.205,1.074-5.024,4.735-6.292a2.841,2.841,0,0,1,2.674.211c1.462,1.027,1.511,3.487,1.513,3.591a.536.536,0,0,1-.529.543.544.544,0,0,1-.544-.528,3.849,3.849,0,0,0-1.059-2.729,1.818,1.818,0,0,0-1.706-.074c-3.091,1.07-4.027,5.45-4.036,5.494A.536.536,0,0,1,80.021,271.116Z" transform="translate(-79.484 -263.951)" fill="#471c31"/>
            </g>
            <g id="Grupo_1161150" data-name="Grupo 1161150" transform="translate(71.265 58.298)">
              <path id="Trazado_995750" data-name="Trazado 995750" d="M176.429,299.663l-7.217-5.883a.553.553,0,0,0-.758,0,.54.54,0,0,0,0,.758l7.217,5.883a.553.553,0,0,0,.758,0A.539.539,0,0,0,176.429,299.663Z" transform="translate(-168.298 -293.629)" fill="#471c31"/>
            </g>
            <g id="Grupo_1161151" data-name="Grupo 1161151" transform="translate(150.76 0.808)">
              <path id="Trazado_995751" data-name="Trazado 995751" d="M349.65,231.385c-.268,2.177-2.766,2.423-2.766,2.423-.525,2.1-2.97,2.337-2.97,2.337a4.052,4.052,0,0,1-3.067,1.64,9.8,9.8,0,0,1-4.224,2.027c-1.458.2-4.182-1.1-5.865-2.016l-15.172,41.043a13.059,13.059,0,0,1-20.468,3.752l-21.733-19.836c-.793-1.93-1.576-3.774-2.359-5.5,8.245-4.278,13.424-12.512,15.654-16.737l13.509,14.464,21.293-28.048c1.641-2.659,5.383-7.527,10.69-7.377a121.266,121.266,0,0,1,14.013,1.522,2.192,2.192,0,0,1,2.369-1.737S349.918,229.208,349.65,231.385Z" transform="translate(-271.028 -219.336)" fill="#df8888"/>
            </g>
            <g id="Grupo_1161152" data-name="Grupo 1161152" transform="translate(71.134)">
              <path id="Trazado_995752" data-name="Trazado 995752" d="M265.516,244.057c-2.23,4.224-7.409,12.459-15.654,16.736.782,1.726,1.565,3.57,2.359,5.5,9.767,24.092,19.342,61.758,19.342,61.758a88.587,88.587,0,0,1-35.307,10.518c-.879.086-1.758.15-2.627.2a120.4,120.4,0,0,1-39.166-4.107c-1.8-.515-2.788-.857-2.788-.857,1-35.768,9.521-54.981,9.521-54.981l-1.833-4.246-3.013,5.929c-.622-.032-1.244-.086-1.866-.172-9.478-1.233-18.162-8.031-22.816-12.33a49.664,49.664,0,0,1-3.538-3.549L181.1,237.227a18.469,18.469,0,0,1,9.146-8.921l9.778-4.364.386,2.08a21.847,21.847,0,0,0,14.464.922,40.344,40.344,0,0,0,13.477-6.712l-1.212-1.941h9.328a14.535,14.535,0,0,1,9.982,3.967l20.339,19.16S266.373,242.449,265.516,244.057Z" transform="translate(-168.129 -218.292)" fill="#e69643"/>
            </g>
            <g id="Grupo_1161153" data-name="Grupo 1161153" transform="translate(101.817 45.268)">
              <path id="Trazado_995753" data-name="Trazado 995753" d="M212.68,277.059l-4.836,9.283c-.318.611.607,1.154.926.541q2.418-4.641,4.836-9.282C213.924,276.99,213,276.446,212.68,277.059Z" transform="translate(-207.779 -276.79)" fill="#471c31"/>
            </g>
            <g id="Grupo_1161154" data-name="Grupo 1161154" transform="translate(103.761 50.848)">
              <path id="Trazado_995754" data-name="Trazado 995754" d="M215.07,284.16l-4.62,4.62a.537.537,0,0,0,.758.758l4.62-4.62A.537.537,0,0,0,215.07,284.16Z" transform="translate(-210.292 -284.002)" fill="#471c31"/>
            </g>
            <g id="Grupo_1161155" data-name="Grupo 1161155" transform="translate(140.975 19.637)">
              <path id="Trazado_995755" data-name="Trazado 995755" d="M263.6,247.614a26.822,26.822,0,0,0-4.436-3.85c-.568-.395-1.1.535-.541.926A26.612,26.612,0,0,1,269.873,266.3a.536.536,0,0,0,1.072,0A27.782,27.782,0,0,0,263.6,247.614Z" transform="translate(-258.382 -243.668)" fill="#471c31"/>
            </g>
            <g id="Grupo_1161156" data-name="Grupo 1161156" transform="translate(124.52 47.247)">
              <path id="Trazado_995756" data-name="Trazado 995756" d="M261.627,279.386l-24.148,9.226c-.638.244-.361,1.281.285,1.034l24.148-9.226C262.551,280.176,262.273,279.139,261.627,279.386Z" transform="translate(-237.118 -279.348)" fill="#471c31"/>
            </g>
            <g id="Grupo_1161157" data-name="Grupo 1161157" transform="translate(212.867 5.359)">
              <path id="Trazado_995757" data-name="Trazado 995757" d="M358.993,239.658a.536.536,0,0,1-.534-.5l-.573-7.641c-.769-2.257-1.98-4.84-2.619-5.118a1.686,1.686,0,0,0-1.366.075,2.814,2.814,0,0,0-1.477,1.688c-.363,1.125.886,2.681,1.4,3.185a.54.54,0,0,1,.159.386l-.053,6.364a.536.536,0,0,1-.536.532h0a.537.537,0,0,1-.532-.54l.052-6.147c-.518-.564-2.049-2.421-1.505-4.109a3.9,3.9,0,0,1,2.057-2.336,2.726,2.726,0,0,1,2.236-.08c1.374.6,2.818,4.607,3.228,5.821a.507.507,0,0,1,.026.132l.577,7.708a.537.537,0,0,1-.495.575A.213.213,0,0,1,358.993,239.658Z" transform="translate(-351.287 -225.217)" fill="#471c31"/>
            </g>
            <g id="Grupo_1161158" data-name="Grupo 1161158" transform="translate(215.315 4.031)">
              <path id="Trazado_995758" data-name="Trazado 995758" d="M362.782,237.627a.537.537,0,0,1-.4-.889c.046-.071.649-1.115-.143-5.086-.727-3.639-1.155-5.426-1.3-6.008-.975-.5-3.2-1.405-4.519-.943a1.51,1.51,0,0,0-.933.911.536.536,0,1,1-.992-.4,2.556,2.556,0,0,1,1.57-1.518c2.169-.766,5.457,1.046,5.6,1.124a.533.533,0,0,1,.257.329c.018.066.453,1.688,1.373,6.3.913,4.575.133,5.771-.127,6.029A.529.529,0,0,1,362.782,237.627Z" transform="translate(-354.45 -223.501)" fill="#471c31"/>
            </g>
            <g id="Grupo_1161159" data-name="Grupo 1161159" transform="translate(221.634 2.023)">
              <path id="Trazado_995759" data-name="Trazado 995759" d="M367.591,234.7a.536.536,0,0,1-.507-.711,15.636,15.636,0,0,0,.455-7.073c-.5-2.719-.877-4.264-1.05-4.926a3.719,3.719,0,0,0-2.466.953,1.805,1.805,0,0,0-.258,1.632.536.536,0,0,1-1.045.238,2.84,2.84,0,0,1,.475-2.552c1.151-1.406,3.605-1.355,3.715-1.356a.537.537,0,0,1,.5.381c.019.062.468,1.562,1.186,5.435a16.428,16.428,0,0,1-.5,7.618A.541.541,0,0,1,367.591,234.7Z" transform="translate(-362.616 -220.907)" fill="#471c31"/>
            </g>
            <g id="Grupo_1161160" data-name="Grupo 1161160" transform="translate(172.518 36.567)">
              <path id="Trazado_995760" data-name="Trazado 995760" d="M305.63,265.723a35.668,35.668,0,0,0-6.451,11.1c-.234.65.8.93,1.034.285a34.249,34.249,0,0,1,6.174-10.626C306.835,265.96,306.079,265.2,305.63,265.723Z" transform="translate(-299.145 -265.546)" fill="#471c31"/>
            </g>
            <g id="Grupo_1161161" data-name="Grupo 1161161" transform="translate(96.293 81.261)">
              <path id="Trazado_995761" data-name="Trazado 995761" d="M273.648,336.375a29.021,29.021,0,0,0-8.564-12.933c-.518-.451-1.28.3-.758.758a28.111,28.111,0,0,1,7.895,11.332c.864,2.317,1.716,5.011,1.277,7.5-.372,2.113-1.973,4.223-4.316,4.081-2.208-.133-3.981-2.11-5.165-3.795-.029-.043-.056-.087-.087-.13a25.651,25.651,0,0,0-.208-9.373c-.273-1.5-.557-3.013-.946-4.487a5.438,5.438,0,0,0-1.863-3.168,3.194,3.194,0,0,0-2.911-.471,2.647,2.647,0,0,0-1.573,2.54,11.745,11.745,0,0,0,.847,3.751c.45,1.377.966,2.732,1.537,4.063a44.413,44.413,0,0,0,3.966,7.345,10.936,10.936,0,0,1-3.056,5.512,7.922,7.922,0,0,1-6.07,2.166,7.775,7.775,0,0,1-5.51-3.717,30.7,30.7,0,0,0,.719-5.571,37.356,37.356,0,0,0-.664-9.166c-.346-1.748-.936-5.652-3.493-5.421-2.585.233-2.109,4.11-1.989,5.818a37.073,37.073,0,0,0,1.8,9.112,23.509,23.509,0,0,0,2.486,5.4,12.756,12.756,0,0,1-1.052,2.757,6.658,6.658,0,0,1-5.2,3.8c-4.224.241-7.148-3.994-8.795-7.559a40.011,40.011,0,0,0,1.588-5.324,40.8,40.8,0,0,0,.987-9.1c-.009-1.854.11-5.069-2.006-5.961-2.465-1.039-3.334,2.345-3.65,4.022a27.507,27.507,0,0,0-.292,8.251,28.082,28.082,0,0,0,2.1,7.9c.039.089.086.176.125.264-.36.908-.746,1.8-1.185,2.666a11.061,11.061,0,0,1-4.8,5.217,6.066,6.066,0,0,1-6.263-.477,11.484,11.484,0,0,1-3.657-4.958,21.972,21.972,0,0,1-1.043-3.149c.412-.787.781-1.595,1.118-2.386a33.893,33.893,0,0,0,2.4-8.576,21.2,21.2,0,0,0,.318-4.277,2.955,2.955,0,0,0-1.15-2.453,1.908,1.908,0,0,0-2.506.75,10.644,10.644,0,0,0-1.333,3.706,28.125,28.125,0,0,0,0,13.1,9.216,9.216,0,0,1-3.433,3.831,4.314,4.314,0,0,1-5.8-1.144,11.308,11.308,0,0,1-1.7-5.841,26.192,26.192,0,0,1,3.122-14.36c.329-.607-.6-1.148-.926-.541a27.182,27.182,0,0,0-3.091,16.6c.3,2.151,1.062,4.517,2.818,5.927a5.573,5.573,0,0,0,6.665-.057,10.139,10.139,0,0,0,2.749-2.978,23.754,23.754,0,0,0,.864,2.382,12.187,12.187,0,0,0,4.272,5.5,7.105,7.105,0,0,0,6.916.413,12.056,12.056,0,0,0,5.487-5.9c.276-.559.528-1.131.772-1.707a16.641,16.641,0,0,0,3.685,5,7.714,7.714,0,0,0,6.574,2.166,8.132,8.132,0,0,0,5.445-4.732,14.437,14.437,0,0,0,.647-1.682c.056.071.1.151.159.221a8.569,8.569,0,0,0,5.909,3.318,9.053,9.053,0,0,0,6.63-2.5,11.139,11.139,0,0,0,3.109-5.118c1.28,1.668,2.964,3.255,5.071,3.587a5.158,5.158,0,0,0,5.429-3.344C275.234,342.116,274.507,339.02,273.648,336.375Zm-60.511,5.3a27.057,27.057,0,0,1,.359-7.591,23.21,23.21,0,0,1,.98-3.663c.263-.708,1.21-2.144,1.872-.935a5.8,5.8,0,0,1,.218,3.092,32.3,32.3,0,0,1-.542,3.968,32.85,32.85,0,0,1-2.41,7.4c-.037.08-.077.161-.115.241C213.343,343.35,213.214,342.511,213.137,341.676ZM229.8,331.11a10.614,10.614,0,0,1,.794-3.121c.436-.85,1.337-1.319,2.034-.452a4.545,4.545,0,0,1,.778,2.58,38.793,38.793,0,0,1,.021,3.958,39.482,39.482,0,0,1-2.064,11.037A26.8,26.8,0,0,1,229.8,331.11Zm15.754,10.731a35.894,35.894,0,0,1-1.69-7.951c-.083-.873-.833-6.169,1.253-5.6.966.265,1.359,1.693,1.574,2.523a35.835,35.835,0,0,1,1.037,11.974c-.085,1.064-.2,2.157-.4,3.237A25.6,25.6,0,0,1,245.551,341.84Zm12.16-12.138c-.234-.908-.491-2.327.48-2.913a2.2,2.2,0,0,1,2.7.852,8.4,8.4,0,0,1,1.152,3.293c.29,1.349.577,2.7.8,4.063a23.067,23.067,0,0,1,.228,6.9,45.451,45.451,0,0,1-2.743-5.073A41.49,41.49,0,0,1,257.711,329.7Z" transform="translate(-200.641 -323.304)" fill="#e17826"/>
            </g>
          </g>
          <g id="Grupo_1161176" data-name="Grupo 1161176" transform="translate(8.404 207.174)">
            <g id="Grupo_1161166" data-name="Grupo 1161166" transform="translate(68.581 26.656)">
              <g id="Grupo_1161165" data-name="Grupo 1161165">
                <g id="Grupo_1161164" data-name="Grupo 1161164">
                  <g id="Grupo_1161163" data-name="Grupo 1161163">
                    <path id="Trazado_995762" data-name="Trazado 995762" d="M100.878,301.731l-.762-.2.009-.019.764.18A.369.369,0,0,0,100.878,301.731Z" transform="translate(-100.116 -301.51)" fill="#3a446a"/>
                  </g>
                </g>
              </g>
            </g>
            <g id="Grupo_1161169" data-name="Grupo 1161169" transform="translate(0 16.155)">
              <g id="Grupo_1161168" data-name="Grupo 1161168">
                <g id="Grupo_1161167" data-name="Grupo 1161167">
                  <path id="Trazado_995763" data-name="Trazado 995763" d="M83.945,373.431,12.491,356.414c-2.264-1.029-.234-3.364,1.63-4.992a11.206,11.206,0,0,0,2.953-5l18.907-58.488,13,3.094,31.1,7.406.759.183,13.374,3.184-9.856,60.635a11.3,11.3,0,0,0,.385,5.794C85.678,370.533,86.432,373.534,83.945,373.431Z" transform="translate(-11.49 -287.939)" fill="#c0354f"/>
                </g>
              </g>
            </g>
            <g id="Grupo_1161172" data-name="Grupo 1161172" transform="translate(36.031)">
              <g id="Grupo_1161171" data-name="Grupo 1161171">
                <g id="Grupo_1161170" data-name="Grupo 1161170">
                  <path id="Trazado_995764" data-name="Trazado 995764" d="M90.453,297.942a.476.476,0,0,1-.118-.015.47.47,0,0,1-.337-.572l.922-3.574c.3-1.172,2.8-11.674-1.606-19.024a13.648,13.648,0,0,0-8.939-6.3,13.4,13.4,0,0,0-10.767,1.609c-7.242,4.676-9.61,16.215-9.633,16.332l-1,3.9a.469.469,0,1,1-.909-.234l.994-3.871c.091-.464,2.46-12.018,10.039-16.911a14.291,14.291,0,0,1,11.494-1.734,14.555,14.555,0,0,1,9.527,6.726c4.6,7.676,2.019,18.528,1.71,19.74l-.922,3.575A.472.472,0,0,1,90.453,297.942Z" transform="translate(-58.052 -267.063)" fill="#471c31"/>
                </g>
              </g>
            </g>
            <g id="Grupo_1161175" data-name="Grupo 1161175" transform="translate(8.704 79.676)">
              <g id="Grupo_1161174" data-name="Grupo 1161174">
                <g id="Grupo_1161173" data-name="Grupo 1161173">
                  <path id="Trazado_995765" data-name="Trazado 995765" d="M82.953,379.9a.428.428,0,0,1-.07-.005l-59.745-8.932a.47.47,0,0,1-.4-.534.477.477,0,0,1,.534-.4l59.745,8.932a.47.47,0,0,1-.069.935Z" transform="translate(-22.738 -370.026)" fill="#471c31"/>
                </g>
              </g>
            </g>
          </g>
          <g id="Grupo_1161190" data-name="Grupo 1161190" transform="translate(43.429 207.173)">
            <g id="Grupo_1161179" data-name="Grupo 1161179" transform="translate(0 5.715)">
              <g id="Grupo_1161178" data-name="Grupo 1161178">
                <g id="Grupo_1161177" data-name="Grupo 1161177">
                  <path id="Trazado_995766" data-name="Trazado 995766" d="M143.945,323.677a11.381,11.381,0,0,0,4.437,3.748c2.3.925,4.981,2.475,3.174,4.186l-7.29,4.662-.775.493-11.969,7.645-.762.491-12.955,8.279-.77.485-8.017,5.134-.77.485L98.042,365.8l-.762.491-7.616,4.869c-2.311.906-2.582-2.176-2.459-4.643a11.218,11.218,0,0,0-1.534-5.6L56.751,306.68l4.2-2.684.775-.493,6.29-4.025,3.276-2.094.775-.493,8.794-5.614.762-.491,11.011-7.036.769-.486,1.555-.994.656-.42,6.57-4.2.77-.485,4.244-2.719Z" transform="translate(-56.751 -274.448)" fill="#e07080"/>
                </g>
              </g>
            </g>
            <g id="Grupo_1161183" data-name="Grupo 1161183" transform="translate(38.203 13.115)">
              <g id="Grupo_1161182" data-name="Grupo 1161182">
                <g id="Grupo_1161181" data-name="Grupo 1161181">
                  <g id="Grupo_1161180" data-name="Grupo 1161180">
                    <path id="Trazado_995767" data-name="Trazado 995767" d="M106.8,284.047l-.676.407-.008-.019.661-.424C106.789,284.03,106.8,284.04,106.8,284.047Z" transform="translate(-106.12 -284.011)" fill="#3a446a"/>
                  </g>
                </g>
              </g>
            </g>
            <g id="Grupo_1161186" data-name="Grupo 1161186" transform="translate(5.392)">
              <g id="Grupo_1161185" data-name="Grupo 1161185">
                <g id="Grupo_1161184" data-name="Grupo 1161184">
                  <path id="Trazado_995768" data-name="Trazado 995768" d="M99.575,283.438a.469.469,0,0,1-.856.132l-1.928-3.146C96.157,279.394,90.348,270.3,82,268.356a13.647,13.647,0,0,0-10.738,2.051,13.38,13.38,0,0,0-6.327,8.86c-1.672,8.457,4.98,18.18,5.047,18.277l2.107,3.426a.469.469,0,1,1-.8.491l-2.092-3.4c-.27-.388-6.933-10.121-5.182-18.972a14.316,14.316,0,0,1,6.742-9.47A14.557,14.557,0,0,1,82.21,267.44c8.723,2.031,14.726,11.426,15.382,12.49l1.929,3.147A.479.479,0,0,1,99.575,283.438Z" transform="translate(-63.719 -267.062)" fill="#471c31"/>
                </g>
              </g>
            </g>
            <g id="Grupo_1161189" data-name="Grupo 1161189" transform="translate(34.901 56.216)">
              <g id="Grupo_1161188" data-name="Grupo 1161188">
                <g id="Grupo_1161187" data-name="Grupo 1161187">
                  <path id="Trazado_995769" data-name="Trazado 995769" d="M150.722,340.292a.469.469,0,0,1-.169.258L102.607,377.3a.469.469,0,1,1-.571-.744l47.945-36.75a.469.469,0,0,1,.741.486Z" transform="translate(-101.853 -339.709)" fill="#471c31"/>
                </g>
              </g>
            </g>
          </g>
          <g id="Grupo_1161205" data-name="Grupo 1161205" transform="translate(255.545 177.888)">
            <g id="Grupo_1161194" data-name="Grupo 1161194" transform="translate(46.237 21.273)">
              <g id="Grupo_1161193" data-name="Grupo 1161193">
                <g id="Grupo_1161192" data-name="Grupo 1161192">
                  <g id="Grupo_1161191" data-name="Grupo 1161191">
                    <path id="Trazado_995770" data-name="Trazado 995770" d="M391.4,256.749l-.786.06s0-.007,0-.02l.781-.08A.274.274,0,0,0,391.4,256.749Z" transform="translate(-390.616 -256.708)" fill="#3a446a"/>
                  </g>
                </g>
              </g>
            </g>
            <g id="Grupo_1161197" data-name="Grupo 1161197" transform="translate(0 19.886)">
              <g id="Grupo_1161196" data-name="Grupo 1161196">
                <g id="Grupo_1161195" data-name="Grupo 1161195">
                  <path id="Trazado_995771" data-name="Trazado 995771" d="M405.408,325.934l-73.077,7.419c-2.477-.228-1.326-3.1-.1-5.25a11.2,11.2,0,0,0,1.147-5.688L332,260.961l13.3-1.352,31.806-3.229.778-.076,13.677-1.389,10.625,60.5a11.306,11.306,0,0,0,2.268,5.345C406.091,322.627,407.79,325.214,405.408,325.934Z" transform="translate(-330.865 -254.915)" fill="#c0354f"/>
                </g>
              </g>
            </g>
            <g id="Grupo_1161201" data-name="Grupo 1161201" transform="translate(13.717)">
              <g id="Grupo_1161200" data-name="Grupo 1161200">
                <g id="Grupo_1161198" data-name="Grupo 1161198" transform="translate(18.494)">
                  <path id="Trazado_995772" data-name="Trazado 995772" d="M387.767,250.449c-.106-1.247-1.239-12.342-8.1-18.081a13.951,13.951,0,0,0-7.172-3.152,9.275,9.275,0,0,1,.149.966,13.03,13.03,0,0,1,6.421,2.907c6.574,5.494,7.668,16.233,7.771,17.438l.3,3.678a.469.469,0,1,0,.935-.077Z" transform="translate(-372.491 -229.217)" fill="#471c31"/>
                </g>
                <g id="Grupo_1161199" data-name="Grupo 1161199" transform="translate(0 6.095)">
                  <path id="Trazado_995773" data-name="Trazado 995773" d="M352.291,238.767c-.039-.4-.083-.792-.085-1.189,0-.162.008-.323.014-.484-4.9,7.154-3.442,18.072-3.378,18.525l.334,3.983a.469.469,0,0,0,.936-.078l-.337-4.008C349.759,255.407,348.459,245.636,352.291,238.767Z" transform="translate(-348.591 -237.094)" fill="#471c31"/>
                </g>
              </g>
            </g>
            <g id="Grupo_1161204" data-name="Grupo 1161204" transform="translate(7.24 79.727)">
              <g id="Grupo_1161203" data-name="Grupo 1161203">
                <g id="Grupo_1161202" data-name="Grupo 1161202">
                  <path id="Trazado_995774" data-name="Trazado 995774" d="M400.207,333.159a.475.475,0,0,1-.067.018l-59.361,11.206a.469.469,0,0,1-.549-.374.477.477,0,0,1,.374-.549l59.361-11.206a.47.47,0,0,1,.242.9Z" transform="translate(-340.222 -332.246)" fill="#471c31"/>
                </g>
              </g>
            </g>
          </g>
          <g id="Grupo_1161220" data-name="Grupo 1161220" transform="translate(270.501 173.916)">
            <g id="Grupo_1161208" data-name="Grupo 1161208" transform="translate(3.298)">
              <g id="Grupo_1161207" data-name="Grupo 1161207">
                <g id="Grupo_1161206" data-name="Grupo 1161206">
                  <path id="Trazado_995775" data-name="Trazado 995775" d="M442.387,258.5a11.381,11.381,0,0,0,5.423,2.081c2.479.117,5.517.7,4.374,2.91l-5.353,6.8-.57.72-8.79,11.155-.559.714L427.4,294.954l-.567.711-5.883,7.484-.567.712-7.5,9.511-.559.714-5.592,7.1c-1.885,1.616-3.154-1.206-3.849-3.577a11.21,11.21,0,0,0-3.29-4.786l-45.143-41.716,3.082-3.916.57-.72,4.617-5.87,2.405-3.055.57-.72,6.459-8.193.559-.714,8.086-10.264.567-.711,1.142-1.449.481-.613,4.824-6.124.567-.711,3.115-3.964Z" transform="translate(-354.453 -224.084)" fill="#e07080"/>
                </g>
              </g>
            </g>
            <g id="Grupo_1161212" data-name="Grupo 1161212" transform="translate(31.351 10.794)">
              <g id="Grupo_1161211" data-name="Grupo 1161211">
                <g id="Grupo_1161210" data-name="Grupo 1161210">
                  <g id="Grupo_1161209" data-name="Grupo 1161209">
                    <path id="Trazado_995776" data-name="Trazado 995776" d="M391.224,238.059l-.5.607-.014-.015.485-.618A.212.212,0,0,0,391.224,238.059Z" transform="translate(-390.706 -238.033)" fill="#3a446a"/>
                  </g>
                </g>
              </g>
            </g>
            <g id="Grupo_1161216" data-name="Grupo 1161216" transform="translate(0 3.729)">
              <g id="Grupo_1161215" data-name="Grupo 1161215">
                <g id="Grupo_1161213" data-name="Grupo 1161213" transform="translate(17.212)">
                  <path id="Trazado_995777" data-name="Trazado 995777" d="M390.212,237.943l-2.857-2.339c-.833-.679-7.428-5.863-14.921-6.7a8.6,8.6,0,0,1,.173.967c7.1.9,13.356,5.812,14.154,6.462l2.855,2.338a.47.47,0,0,0,.765-.405A.475.475,0,0,0,390.212,237.943Z" transform="translate(-372.434 -228.903)" fill="#471c31"/>
                </g>
                <g id="Grupo_1161214" data-name="Grupo 1161214" transform="translate(0 7.177)">
                  <path id="Trazado_995778" data-name="Trazado 995778" d="M362.037,263.415c-.1-.07-9.574-7.065-10.775-15.6a12.776,12.776,0,0,1,1.475-8.037,13.986,13.986,0,0,1-.143-1.6,13.94,13.94,0,0,0-2.261,9.766c1.257,8.934,10.749,15.935,11.132,16.213l3.1,2.527a.469.469,0,0,0,.594-.727Z" transform="translate(-350.191 -238.178)" fill="#471c31"/>
                </g>
              </g>
            </g>
            <g id="Grupo_1161219" data-name="Grupo 1161219" transform="translate(54.472 36.861)">
              <g id="Grupo_1161218" data-name="Grupo 1161218">
                <g id="Grupo_1161217" data-name="Grupo 1161217">
                  <path id="Trazado_995779" data-name="Trazado 995779" d="M454.719,272.145a.471.471,0,0,1-.075.3l-33.2,50.469a.469.469,0,1,1-.784-.516l33.2-50.469a.469.469,0,0,1,.859.216Z" transform="translate(-420.584 -271.718)" fill="#471c31"/>
                </g>
              </g>
            </g>
          </g>
        </g>
        <g id="Grupo_1161287" data-name="Grupo 1161287" transform="translate(0 0)" clip-path="url(#clip-path-2)">
          <g id="Grupo_1161236" data-name="Grupo 1161236" transform="translate(401.517 280.051)">
            <g id="Grupo_1161225" data-name="Grupo 1161225" transform="translate(38.989 13.712)">
              <g id="Grupo_1161224" data-name="Grupo 1161224">
                <g id="Grupo_1161223" data-name="Grupo 1161223">
                  <g id="Grupo_1161222" data-name="Grupo 1161222">
                    <path id="Trazado_995780" data-name="Trazado 995780" d="M570.582,379l-.689.385-.007-.019.675-.4A.2.2,0,0,0,570.582,379Z" transform="translate(-569.886 -378.96)" fill="#3a446a"/>
                  </g>
                </g>
              </g>
            </g>
            <g id="Grupo_1161228" data-name="Grupo 1161228" transform="translate(0 6.701)">
              <g id="Grupo_1161227" data-name="Grupo 1161227">
                <g id="Grupo_1161226" data-name="Grupo 1161226">
                  <path id="Trazado_995781" data-name="Trazado 995781" d="M613.426,428.5,550.25,465.976c-2.343.836-2.508-2.254-2.3-4.72a11.2,11.2,0,0,0-1.353-5.643l-27.1-55.175,11.494-6.82,27.5-16.309.673-.4,11.824-7.014L606.08,420.32a11.307,11.307,0,0,0,4.306,3.9C612.655,425.218,615.285,426.85,613.426,428.5Z" transform="translate(-519.501 -369.899)" fill="#c0354f"/>
                </g>
              </g>
            </g>
            <g id="Grupo_1161232" data-name="Grupo 1161232" transform="translate(6.134)">
              <g id="Grupo_1161231" data-name="Grupo 1161231">
                <g id="Grupo_1161229" data-name="Grupo 1161229" transform="translate(11.146)">
                  <path id="Trazado_995782" data-name="Trazado 995782" d="M564.623,374.719c-.621-1.086-6.316-10.676-14.958-12.994a13.947,13.947,0,0,0-7.833.158,9.06,9.06,0,0,1,.541.813,13.024,13.024,0,0,1,7.048-.064c8.275,2.219,13.785,11.5,14.385,12.551l1.822,3.209a.471.471,0,0,0,.641.176.494.494,0,0,0,.1-.071.47.47,0,0,0,.081-.569Z" transform="translate(-541.832 -361.24)" fill="#471c31"/>
                </g>
                <g id="Grupo_1161230" data-name="Grupo 1161230" transform="translate(0 12.426)">
                  <path id="Trazado_995783" data-name="Trazado 995783" d="M528.422,378.786c-.2-.343-.409-.683-.578-1.044-.069-.146-.128-.3-.191-.444-1.435,8.551,4.48,17.843,4.728,18.227L534.359,399a.469.469,0,1,0,.816-.464l-1.992-3.495C533.124,394.947,527.835,386.63,528.422,378.786Z" transform="translate(-527.428 -377.298)" fill="#471c31"/>
                </g>
              </g>
            </g>
            <g id="Grupo_1161235" data-name="Grupo 1161235" transform="translate(33.035 58.266)">
              <g id="Grupo_1161234" data-name="Grupo 1161234">
                <g id="Grupo_1161233" data-name="Grupo 1161233">
                  <path id="Trazado_995784" data-name="Trazado 995784" d="M612.125,437.341a.507.507,0,0,1-.053.045l-49.14,35.136a.469.469,0,0,1-.655-.108.477.477,0,0,1,.108-.655l49.14-35.136a.469.469,0,0,1,.6.718Z" transform="translate(-562.192 -436.536)" fill="#471c31"/>
                </g>
              </g>
            </g>
          </g>
          <g id="Grupo_1161248" data-name="Grupo 1161248" transform="translate(246.734 50.52)">
            <g id="Grupo_1161237" data-name="Grupo 1161237" transform="translate(4.817)">
              <path id="Trazado_995785" data-name="Trazado 995785" d="M326.991,64.714c3.334-1.362,8.61,13.027,9.842,16.522a1.579,1.579,0,0,1,.053.183,1.707,1.707,0,0,0,.1.279.641.641,0,0,1,.043.108.7.7,0,0,0,.064.193s1.062,3.292,2.777,3.935l.247,3.1c-.408-1.822-4.814-7.291-6.068-8.309s-3.431.15-3.431.15C328.824,72.2,323.195,66.257,326.991,64.714Z" transform="translate(-325.703 -64.623)" fill="#e89f9f"/>
            </g>
            <g id="Grupo_1161238" data-name="Grupo 1161238" transform="translate(155.179 220.905)">
              <path id="Trazado_995786" data-name="Trazado 995786" d="M541.4,373.457c-.515,5.372-1.458,4.578-3.152,4.986a2.361,2.361,0,0,1-2.541-1.244,3.287,3.287,0,0,1-3.324,3.3,3.443,3.443,0,0,1-3.5-3.27s-.868,1.972-3.667,1.49-1.544-5.093-1.544-5.093a1.958,1.958,0,0,1-1.1.59,1.22,1.22,0,0,1-1.447-1.244c.064-3.666-1.447-11.977-1.051-13.96.375-1.9,4.707-7.205,6.144-8.921,4.063.976,11.772,2.219,19.01.053l1.919,6.379s.429,2.53-.161,10.582-.954,7.291-2.917,7.6A2.437,2.437,0,0,1,541.4,373.457Z" transform="translate(-520.012 -350.094)" fill="#e89f9f"/>
            </g>
            <g id="Grupo_1161239" data-name="Grupo 1161239" transform="translate(0 13.025)">
              <path id="Trazado_995787" data-name="Trazado 995787" d="M332.112,102.926h.011c1.276,2.016,3.86,1.3,4.375-.965a5.576,5.576,0,0,0-.225-2.219c4.364-.45,2.831-5.082,2.434-6.9l-.247-3.1c-1.716-.643-2.777-3.935-2.777-3.935a.674.674,0,0,1-.064-.193.822.822,0,0,0-.043-.108,2.857,2.857,0,0,0-.1-.279,1.878,1.878,0,0,0-.053-.183,3.03,3.03,0,0,1,.718-3.227,1.364,1.364,0,0,1,2.069.268,12.51,12.51,0,0,0,5.361,4.213l3.045,9.607a18.93,18.93,0,0,1-.354,6.615,60.107,60.107,0,0,1-3,7.848l.59,2.616c-3.71-.214-10.711.161-16.372,4.846l-.343-2.209a80.72,80.72,0,0,1-5.007-7.9c-2.208-4.053-2.959-7.987-2.541-10.464s4.428-3.3,4.428-3.3c3.248-1.941,7.28,4.332,7.28,4.332A11.229,11.229,0,0,1,332.112,102.926Z" transform="translate(-319.478 -81.455)" fill="#e89f9f"/>
            </g>
            <g id="Grupo_1161240" data-name="Grupo 1161240" transform="translate(7.676 15.682)">
              <path id="Trazado_995788" data-name="Trazado 995788" d="M340.95,93.614c.4,1.822,1.93,6.454-2.434,6.9-.912-3.688-3.86-9.939-5.361-10.357a4.806,4.806,0,0,0-3.506.472c-1.1-2.659,1.8-5.178,1.8-5.178s2.166-1.168,3.431-.15S340.543,91.791,340.95,93.614Z" transform="translate(-329.398 -84.888)" fill="#e89f9f"/>
            </g>
            <g id="Grupo_1161241" data-name="Grupo 1161241" transform="translate(4.51 20.801)">
              <path id="Trazado_995789" data-name="Trazado 995789" d="M337.591,102.015a5.576,5.576,0,0,1,.225,2.219c-.515,2.263-3.1,2.981-4.374.965h-.011a11.239,11.239,0,0,0-.815-4.643s-4.032-6.272-7.28-4.332c-.4-2.981,3.388-4.1,3.388-4.1a4.806,4.806,0,0,1,3.506-.472C333.731,92.076,336.679,98.327,337.591,102.015Z" transform="translate(-325.306 -91.503)" fill="#e89f9f"/>
            </g>
            <g id="Grupo_1161242" data-name="Grupo 1161242" transform="translate(6.245 44.506)">
              <path id="Trazado_995790" data-name="Trazado 995790" d="M501.7,298.59c-7.238,2.166-17.937,1.21-22,.234.289-.343-.29-9.444-.29-9.444l-2.23-48.462-14.217-31.383-.515,15.193.407,27.941c-33.377,8.524-59.914,1.469-67.537-1-1.458-.472-2.219-.772-2.219-.772l3.12-29.785-.043-29.581-34.9,8.556a17.307,17.307,0,0,1-21.2-13.96L327.548,128.68a21.053,21.053,0,0,1,1.758-1.651c5.661-4.686,12.662-5.061,16.372-4.846a20.721,20.721,0,0,1,2.595.279L362.1,171.8l32.98-14.132a17.358,17.358,0,0,1,5.768-1.1l18.977-.172h.011l-.183,1.093-.429,2.573s2.08,3.077,14.442,3.077,14.013-5.854,14.013-5.854l-.086-.686,15.976,2.648A17.318,17.318,0,0,1,476.923,169l25.142,62.787a6.345,6.345,0,0,1,.547,2.423l1.48,63.516A23.575,23.575,0,0,1,501.7,298.59Z" transform="translate(-327.548 -122.137)" fill="#fff"/>
            </g>
            <g id="Grupo_1161243" data-name="Grupo 1161243" transform="translate(73.466 95.328)">
              <path id="Trazado_995791" data-name="Trazado 995791" d="M415.49,188.331a.537.537,0,0,0-1.073,0q.222,8.644.444,17.289a.537.537,0,0,0,1.073,0Q415.712,196.974,415.49,188.331Z" transform="translate(-414.417 -187.813)" fill="#471c31"/>
            </g>
            <g id="Grupo_1161244" data-name="Grupo 1161244" transform="translate(67.414 102.417)">
              <path id="Trazado_995792" data-name="Trazado 995792" d="M411.752,205.991q-2.087-4.371-4.173-8.743c-.3-.622-1.222-.079-.925.541l4.173,8.743C411.123,207.155,412.047,206.611,411.752,205.991Z" transform="translate(-406.595 -196.974)" fill="#471c31"/>
            </g>
            <g id="Grupo_1161245" data-name="Grupo 1161245" transform="translate(129.17 113.268)">
              <path id="Trazado_995793" data-name="Trazado 995793" d="M498.766,228.778l-11.35-17.534c-.374-.577-1.3-.04-.926.541l11.35,17.535C498.214,229.9,499.142,229.359,498.766,228.778Z" transform="translate(-486.402 -210.996)" fill="#471c31"/>
            </g>
            <g id="Grupo_1161246" data-name="Grupo 1161246" transform="translate(5.514 16.199)">
              <path id="Trazado_995794" data-name="Trazado 995794" d="M341.22,91.532a10.321,10.321,0,0,1-3.3-5.308.536.536,0,0,0-1.034.285,11.313,11.313,0,0,0,3.2,5.429,14.779,14.779,0,0,0-1.049,1.263,11.318,11.318,0,0,0-7.455-7.618c-.662-.2-.944.833-.285,1.034a10.232,10.232,0,0,1,6.94,7.765,15.131,15.131,0,0,0-.908,1.76,10.337,10.337,0,0,0-7.226-5.377c-.675-.121-.964.912-.285,1.034a9.284,9.284,0,0,1,6.965,5.735c-.118.359-.2.729-.294,1.1-.741-1.266-2.416-2.022-3.669-2.552a15.908,15.908,0,0,0-5.7-1.237c-.69-.022-.69,1.05,0,1.073a14.891,14.891,0,0,1,4.678.908,14.184,14.184,0,0,1,2.147,1,3.769,3.769,0,0,1,1.73,1.52c.734,1.687-1.572,1.839-2.639,1.9a25.189,25.189,0,0,1-5.32-.269.543.543,0,0,0-.659.659L328.2,106a.536.536,0,0,0,1.034-.285q-.47-1.8-.939-3.6a25.11,25.11,0,0,0,5.554.137,4.082,4.082,0,0,0,2.49-.985.574.574,0,0,0,.835-.447A13.426,13.426,0,0,1,337.747,98a.441.441,0,0,0,.163-.505,13.806,13.806,0,0,1,3.311-5.2A.541.541,0,0,0,341.22,91.532Z" transform="translate(-326.603 -85.556)" fill="#471c31"/>
            </g>
            <g id="Grupo_1161247" data-name="Grupo 1161247" transform="translate(158.738 234.14)">
              <path id="Trazado_995795" data-name="Trazado 995795" d="M526.554,367.57a44.107,44.107,0,0,0-1.94,9.757c-.058.687,1.014.684,1.072,0a42.806,42.806,0,0,1,1.9-9.472C527.8,367.2,526.765,366.915,526.554,367.57Z" transform="translate(-524.612 -367.198)" fill="#471c31"/>
            </g>
          </g>
          <g id="Grupo_1161253" data-name="Grupo 1161253" transform="translate(300.058 224.561)">
            <g id="Grupo_1161249" data-name="Grupo 1161249">
              <path id="Trazado_995796" data-name="Trazado 995796" d="M496.58,458.207H457.5L443.068,342.53,428.626,458.207H388.387c5.511-58.573,20.693-168.675,20.693-168.675,7.623,2.466,34.16,9.521,67.537,1C482.738,336.118,496.58,458.207,496.58,458.207Z" transform="translate(-388.387 -289.532)" fill="#e69643"/>
            </g>
            <g id="Grupo_1161250" data-name="Grupo 1161250" transform="translate(24.063 32.782)">
              <path id="Trazado_995797" data-name="Trazado 995797" d="M447.717,348.642l-27.438-16.665a.536.536,0,0,0-.541.925l27.437,16.665A.536.536,0,0,0,447.717,348.642Z" transform="translate(-419.483 -331.896)" fill="#471c31"/>
            </g>
            <g id="Grupo_1161251" data-name="Grupo 1161251" transform="translate(28.126 48.181)">
              <path id="Trazado_995798" data-name="Trazado 995798" d="M443.892,355.345l-18.487-3.538c-.674-.129-.963.9-.285,1.034l18.487,3.538C444.282,356.508,444.57,355.475,443.892,355.345Z" transform="translate(-424.734 -351.796)" fill="#471c31"/>
            </g>
            <g id="Grupo_1161252" data-name="Grupo 1161252" transform="translate(85.167 4.359)">
              <path id="Trazado_995799" data-name="Trazado 995799" d="M510.48,393.989q-3.034-31.492-6.669-62.921-2.048-17.708-4.287-35.393c-.085-.676-1.158-.684-1.073,0q3.992,31.547,7.38,63.165,3.37,31.457,6.138,62.975,1.56,17.757,2.928,35.531c.053.683,1.125.689,1.072,0Q513.529,425.643,510.48,393.989Z" transform="translate(-498.447 -295.165)" fill="#471c31"/>
            </g>
          </g>
          <g id="Grupo_1161271" data-name="Grupo 1161271" transform="translate(323.736 48.227)">
            <g id="Grupo_1161260" data-name="Grupo 1161260">
              <g id="Grupo_1161254" data-name="Grupo 1161254" transform="translate(9.375 29.103)">
                <path id="Trazado_995800" data-name="Trazado 995800" d="M473.325,111.416a4.9,4.9,0,0,1,2.509,1.973,6.913,6.913,0,0,1,1.062,3.635,8.661,8.661,0,0,1-9.2,8.781,17.338,17.338,0,0,1-2.831,9.307c-4.878,7.452-14.625,10.293-17.937,10.293a8.832,8.832,0,0,1-2.637-.418c-3.023-.912-6.69-3.549-9.65-9.564-2.488-5.039-4.235-14.121-3.27-17.08a14.944,14.944,0,0,0,.3-5.94,1.4,1.4,0,0,0-.032-.225,4.536,4.536,0,0,1-.075-.536c-.032-.172-.053-.268-.053-.268a20.811,20.811,0,0,1-.139-2.466,19.6,19.6,0,0,1,.987-6.176,15.638,15.638,0,0,0,5.693-.161,37.594,37.594,0,0,0,7.377-2.563,2.718,2.718,0,0,0-.075,3.871,5.532,5.532,0,0,0,3.967,1.512,12.51,12.51,0,0,0,10.915-6.122,17.6,17.6,0,0,0,10.6,12.127,3.647,3.647,0,0,1,1.919-.128A3.3,3.3,0,0,1,473.325,111.416Z" transform="translate(-431.101 -99.268)" fill="#e89f9f"/>
              </g>
              <g id="Grupo_1161255" data-name="Grupo 1161255" transform="translate(20.924 55.639)">
                <path id="Trazado_995801" data-name="Trazado 995801" d="M474.4,159.185l.086.686s-1.641,5.854-14.013,5.854-14.442-3.077-14.442-3.077l.429-2.573.375.064c21.733,2.316,21.411-17.273,21.411-17.273a17.337,17.337,0,0,0,2.831-9.307Z" transform="translate(-446.026 -133.56)" fill="#e89f9f"/>
              </g>
              <g id="Grupo_1161256" data-name="Grupo 1161256" transform="translate(2.944 5.091)">
                <path id="Trazado_995802" data-name="Trazado 995802" d="M472.278,96.337q-.4,4.021-.837,8.063a3.443,3.443,0,0,0-.568-.15,3.654,3.654,0,0,0-1.919.128,17.6,17.6,0,0,1-10.6-12.127,12.51,12.51,0,0,1-10.915,6.122,5.523,5.523,0,0,1-3.967-1.512,2.718,2.718,0,0,1,.075-3.871,37.576,37.576,0,0,1-7.377,2.563,15.655,15.655,0,0,1-5.693.161,11.868,11.868,0,0,1-2.016-.547,8.707,8.707,0,0,1-5.35-5.329c-1.062-3.388.643-7.258,3.549-9.285a12.823,12.823,0,0,1,10.218-1.587A6.269,6.269,0,0,1,438.9,68.758c2.391-.987,5.136-.418,7.57.461a31.952,31.952,0,0,1,15.675,12.394,6.206,6.206,0,0,1,6.711.579,10.031,10.031,0,0,1,3.549,6.54A30.117,30.117,0,0,1,472.278,96.337Z" transform="translate(-422.79 -68.239)" fill="#471c31"/>
              </g>
              <g id="Grupo_1161257" data-name="Grupo 1161257" transform="translate(21.353 64.946)">
                <path id="Trazado_995803" data-name="Trazado 995803" d="M468.366,145.587s.322,19.589-21.411,17.273l-.375-.064.183-1.093,1.029-6.24a8.83,8.83,0,0,0,2.637.418C453.742,155.88,463.488,153.038,468.366,145.587Z" transform="translate(-446.58 -145.587)" fill="#e06e7b"/>
              </g>
              <g id="Grupo_1161258" data-name="Grupo 1161258">
                <path id="Trazado_995804" data-name="Trazado 995804" d="M461.784,80.842a32.714,32.714,0,0,0-12.948-16.258A16.416,16.416,0,0,0,438.2,61.753a10.147,10.147,0,0,0-7.9,5.213,7.789,7.789,0,0,0,.618,8.082c-4.642-.656-9.605,1.134-11.406,5.822a7.459,7.459,0,0,0,.687,6.84,10.3,10.3,0,0,0,5.927,4.012c3.465.927,7.112.328,10.584-.236.679-.111.391-1.144-.285-1.034-4.86.789-10.766,1.6-14.546-2.355-3.368-3.52-1.613-9,2.448-11.094a11.093,11.093,0,0,1,8.011-.573c.481.134.96-.551.521-.9a6.519,6.519,0,0,1-1.719-7.854,9.072,9.072,0,0,1,7.295-4.884c6.713-.725,12.914,4.159,16.958,9.028a31.831,31.831,0,0,1,5.359,9.3C460.986,81.769,462.023,81.491,461.784,80.842Z" transform="translate(-418.986 -61.659)" fill="#471c31"/>
              </g>
              <g id="Grupo_1161259" data-name="Grupo 1161259" transform="translate(16.624 10.265)">
                <path id="Trazado_995805" data-name="Trazado 995805" d="M465.8,85.707c-.609,3.3-3.833,6.059-7.272,5.628a3.2,3.2,0,0,1-2.893-3.711,4.972,4.972,0,0,1,1.264-2.66,16,16,0,0,0,2.15-1.853c.408-.423-.13-1.2-.65-.842a12.129,12.129,0,0,0-2.155,1.825,15.405,15.405,0,0,1-9.917,2.885c-1.82-.118-5.135-.6-4.762-3.137a6.541,6.541,0,0,1,1.741-3.124,13.6,13.6,0,0,1,2.408-2.186,13.929,13.929,0,0,1,7-2.535c.684-.05.689-1.122,0-1.072a14.978,14.978,0,0,0-7.12,2.392c-2.018,1.322-4.18,3.323-4.935,5.685a3.329,3.329,0,0,0,.632,3.342,5.4,5.4,0,0,0,2.861,1.417,15.9,15.9,0,0,0,7.635-.313,16.51,16.51,0,0,0,3.107-1.244,4.847,4.847,0,0,0,.452,4.544c2.073,2.826,6.458,1.736,8.75-.158a7.886,7.886,0,0,0,2.735-4.6C466.954,85.318,465.921,85.029,465.8,85.707Z" transform="translate(-440.469 -74.924)" fill="#6d3855"/>
              </g>
            </g>
            <g id="Grupo_1161261" data-name="Grupo 1161261" transform="translate(18.536 56.072)">
              <path id="Trazado_995806" data-name="Trazado 995806" d="M443.469,138.288a4.7,4.7,0,0,0,1.442,1.25,7.05,7.05,0,0,0,7.929-.624,4.267,4.267,0,0,0,1.394-1.89,2.344,2.344,0,0,0-.433-2.243,2.509,2.509,0,0,0-1.922-.657,5.843,5.843,0,0,0-1.154.224c-.576.1-1.153.256-1.73.368a10.013,10.013,0,0,1-3.012.16,3.885,3.885,0,0,0-1.97.08,1.905,1.905,0,0,0-1.057,1.506A2.683,2.683,0,0,0,443.469,138.288Z" transform="translate(-442.94 -134.12)" fill="#fff"/>
            </g>
            <g id="Grupo_1161262" data-name="Grupo 1161262" transform="translate(28.595 39.368)">
              <path id="Trazado_995807" data-name="Trazado 995807" d="M455.938,115.539a2.582,2.582,0,1,0,2.547-3.006A2.805,2.805,0,0,0,455.938,115.539Z" transform="translate(-455.938 -112.533)" fill="#471c31"/>
            </g>
            <g id="Grupo_1161263" data-name="Grupo 1161263" transform="translate(9.499 39.368)">
              <path id="Trazado_995808" data-name="Trazado 995808" d="M431.261,115.539a2.582,2.582,0,1,0,2.547-3.006A2.805,2.805,0,0,0,431.261,115.539Z" transform="translate(-431.261 -112.533)" fill="#471c31"/>
            </g>
            <g id="Grupo_1161264" data-name="Grupo 1161264" transform="translate(28.018 34.807)">
              <path id="Trazado_995809" data-name="Trazado 995809" d="M455.359,107.678a1.557,1.557,0,0,1,.911-.8,9.119,9.119,0,0,1,1.429-.228,9.223,9.223,0,0,1,1.379.045,7.71,7.71,0,0,1,2.356.642,1.609,1.609,0,0,1-1.439,2.877c-.067-.029-.137-.054-.205-.081a6.576,6.576,0,0,0-1.286-.269,6.481,6.481,0,0,0-1.467.11l.205-.041a1.689,1.689,0,0,1-1.161-.1,1.61,1.61,0,0,1-.72-2.159Z" transform="translate(-455.193 -106.64)" fill="#471c31"/>
            </g>
            <g id="Grupo_1161265" data-name="Grupo 1161265" transform="translate(8.829 34.807)">
              <path id="Trazado_995810" data-name="Trazado 995810" d="M437.354,107.678a1.557,1.557,0,0,0-.911-.8,9.119,9.119,0,0,0-1.428-.228,9.223,9.223,0,0,0-1.379.045,7.709,7.709,0,0,0-2.356.642,1.609,1.609,0,1,0,1.439,2.877c.067-.029.137-.054.205-.081a6.576,6.576,0,0,1,1.286-.269,6.481,6.481,0,0,1,1.467.11l-.205-.041a1.689,1.689,0,0,0,1.161-.1,1.61,1.61,0,0,0,.72-2.159Z" transform="translate(-430.395 -106.64)" fill="#471c31"/>
            </g>
            <g id="Grupo_1161266" data-name="Grupo 1161266" transform="translate(31.581 47.366)">
              <path id="Trazado_995811" data-name="Trazado 995811" d="M459.8,126.943a4.074,4.074,0,1,0,4.074-4.074A4.074,4.074,0,0,0,459.8,126.943Z" transform="translate(-459.797 -122.869)" fill="#e06e7b"/>
            </g>
            <g id="Grupo_1161267" data-name="Grupo 1161267" transform="translate(17.737 41.255)">
              <path id="Trazado_995812" data-name="Trazado 995812" d="M446.741,122.8c-.022,1.083-.207,4.032-1.716,3.485-6.551-1.706-.741-6.954-.771-10.979C446.218,113.245,447.206,121.414,446.741,122.8Z" transform="translate(-441.907 -114.972)" fill="#e27d8a"/>
            </g>
            <g id="Grupo_1161269" data-name="Grupo 1161269" transform="translate(16.999 38.772)">
              <g id="Grupo_1161268" data-name="Grupo 1161268">
                <path id="Trazado_995813" data-name="Trazado 995813" d="M446.777,126.531l-.046,0a7.738,7.738,0,0,1-5.234-2.749,2.378,2.378,0,0,1-.164-2.8,15.607,15.607,0,0,0,2.5-8.668.537.537,0,0,1,.527-.545h.009a.536.536,0,0,1,.536.528,16.7,16.7,0,0,1-2.673,9.269,1.315,1.315,0,0,0,.087,1.531,6.658,6.658,0,0,0,4.5,2.369.536.536,0,0,1-.044,1.07Z" transform="translate(-440.953 -111.764)" fill="#471c31"/>
              </g>
            </g>
            <g id="Grupo_1161270" data-name="Grupo 1161270" transform="translate(47.067 43.119)">
              <path id="Trazado_995814" data-name="Trazado 995814" d="M484.478,117.533a17.8,17.8,0,0,0-4.641,7.49c-.208.659.827.942,1.034.285a16.678,16.678,0,0,1,4.366-7.017C485.735,117.813,484.977,117.055,484.478,117.533Z" transform="translate(-479.809 -117.381)" fill="#471c31"/>
            </g>
          </g>
          <g id="Grupo_1161277" data-name="Grupo 1161277" transform="translate(349.031 288.622)">
            <g id="Grupo_1161272" data-name="Grupo 1161272" transform="translate(14.567 15.447)">
              <path id="Trazado_995815" data-name="Trazado 995815" d="M504.919,392.279l4.089,4.971,7.754.335L499.78,462.422,470.5,450.992Z" transform="translate(-470.498 -392.279)" fill="#e07080"/>
            </g>
            <g id="Grupo_1161273" data-name="Grupo 1161273" transform="translate(0 6.439)">
              <path id="Trazado_995816" data-name="Trazado 995816" d="M466.241,448.359l-14.567-20.2,40.836-47.522,8.151,9.009Z" transform="translate(-451.674 -380.637)" fill="#c0354f"/>
            </g>
            <g id="Grupo_1161274" data-name="Grupo 1161274" transform="translate(43.808)">
              <path id="Trazado_995817" data-name="Trazado 995817" d="M508.891,383.024a.475.475,0,0,0,.279-.212c.032-.054,3.386-5.467,12.7-9.589a.476.476,0,0,0,.242-.628.486.486,0,0,0-.628-.243c-9.609,4.255-12.987,9.738-13.126,9.97a.475.475,0,0,0,.162.652A.482.482,0,0,0,508.891,383.024Z" transform="translate(-508.286 -372.317)" fill="#471c31"/>
            </g>
            <g id="Grupo_1161275" data-name="Grupo 1161275" transform="translate(14.09 19.942)">
              <path id="Trazado_995818" data-name="Trazado 995818" d="M490.2,448.233a.476.476,0,0,0,.317-.289l18.792-49.21a.476.476,0,1,0-.889-.34l-18.7,48.973-19.469,4.474a.468.468,0,0,0-.358.57.476.476,0,0,0,.57.357l19.717-4.531Z" transform="translate(-469.882 -398.088)" fill="#471c31"/>
            </g>
            <g id="Grupo_1161276" data-name="Grupo 1161276" transform="translate(33.808 69.154)">
              <path id="Trazado_995819" data-name="Trazado 995819" d="M505.532,478.577a.5.5,0,0,0,.117-.05.476.476,0,0,0,.163-.653l-9.564-15.961a.476.476,0,0,0-.816.49L505,478.364A.476.476,0,0,0,505.532,478.577Z" transform="translate(-495.363 -461.683)" fill="#471c31"/>
            </g>
          </g>
          <g id="Grupo_1161286" data-name="Grupo 1161286" transform="translate(384.173 288.831)">
            <g id="Grupo_1161278" data-name="Grupo 1161278" transform="translate(21.793 23.276)">
              <path id="Trazado_995820" data-name="Trazado 995820" d="M525.249,404.3l6.078,2.118,6.8-3.749,19.237,64.2-30.953,5.477Z" transform="translate(-525.249 -402.666)" fill="#e07080"/>
            </g>
            <g id="Grupo_1161279" data-name="Grupo 1161279" transform="translate(0 21.456)">
              <path id="Trazado_995821" data-name="Trazado 995821" d="M520.038,471.815l-22.951-9.67,10.144-61.831,11.648,3.451Z" transform="translate(-497.087 -400.314)" fill="#c0354f"/>
            </g>
            <g id="Grupo_1161280" data-name="Grupo 1161280" transform="translate(22.475 75.1)">
              <path id="Trazado_995822" data-name="Trazado 995822" d="M557.688,482.475a.476.476,0,0,0,.135-.854l-17.908-11.9a.475.475,0,0,0-.644.111l-13.044,17.382a.476.476,0,0,0,.761.57l12.774-17.021L557.3,482.413A.476.476,0,0,0,557.688,482.475Z" transform="translate(-526.131 -469.637)" fill="#471c31"/>
            </g>
            <g id="Grupo_1161281" data-name="Grupo 1161281" transform="translate(27.395 26.549)">
              <path id="Trazado_995823" data-name="Trazado 995823" d="M541.219,456.38a.476.476,0,0,0,.34-.536l-8.124-48.551a.476.476,0,1,0-.939.157L540.62,456a.476.476,0,0,0,.548.391Z" transform="translate(-532.489 -406.895)" fill="#471c31"/>
            </g>
            <g id="Grupo_1161282" data-name="Grupo 1161282" transform="translate(11.158)">
              <path id="Trazado_995824" data-name="Trazado 995824" d="M512.11,394.943a.475.475,0,0,0,.34-.375c.031-.18,3.239-17.929,11.127-21.058a.475.475,0,0,0,.267-.618.463.463,0,0,0-.617-.267c-8.38,3.325-11.581,21.026-11.713,21.778a.475.475,0,0,0,.6.54Z" transform="translate(-511.507 -372.586)" fill="#471c31"/>
            </g>
            <g id="Grupo_1161283" data-name="Grupo 1161283" transform="translate(28.154 11.858)">
              <path id="Trazado_995825" data-name="Trazado 995825" d="M538.957,400.423a.466.466,0,0,0,.073-.027.475.475,0,0,0,.231-.632l-4.884-11.576a.476.476,0,0,0-.864.4l4.884,11.576A.476.476,0,0,0,538.957,400.423Z" transform="translate(-533.47 -387.911)" fill="#471c31"/>
            </g>
            <g id="Grupo_1161284" data-name="Grupo 1161284" transform="translate(25.688 9.508)">
              <path id="Trazado_995826" data-name="Trazado 995826" d="M534.867,401.595a.476.476,0,0,0,.33-.587l-3.98-15.788a.476.476,0,0,0-.916.257l3.98,15.788A.476.476,0,0,0,534.867,401.595Z" transform="translate(-530.283 -384.873)" fill="#471c31"/>
            </g>
            <g id="Grupo_1161285" data-name="Grupo 1161285" transform="translate(17.933 1.068)">
              <path id="Trazado_995827" data-name="Trazado 995827" d="M523.1,397.923a.547.547,0,0,0,.1-.043.477.477,0,0,0,.183-.648,22.812,22.812,0,0,1,1.755-22.531.476.476,0,0,0-.8-.519,23.775,23.775,0,0,0-1.788,23.514A.475.475,0,0,0,523.1,397.923Z" transform="translate(-520.262 -373.967)" fill="#471c31"/>
            </g>
          </g>
        </g>
      </g>
    </g>
  </g>
</svg>
