<svg xmlns="http://www.w3.org/2000/svg" xmlns:xlink="http://www.w3.org/1999/xlink" width="108" height="108" viewBox="0 0 108 108">
  <defs>
    <filter id="Trazado_982547" x="0" y="0" width="108" height="108" filterUnits="userSpaceOnUse">
      <feOffset dy="3" input="SourceAlpha"/>
      <feGaussianBlur stdDeviation="3" result="blur"/>
      <feFlood flood-opacity="0.161"/>
      <feComposite operator="in" in2="blur"/>
      <feComposite in="SourceGraphic"/>
    </filter>
  </defs>
  <g id="Grupo_1160913" data-name="Grupo 1160913" transform="translate(-903 -3438)">
    <g id="Grupo_1160643" data-name="Grupo 1160643" transform="translate(0 2554)">
      <g id="Grupo_1149837" data-name="Grupo 1149837" transform="translate(0 -3975)">
        <g id="Grupo_1149675" data-name="Grupo 1149675" transform="translate(157 -2821)">
          <g id="Grupo_1148534" data-name="Grupo 1148534" transform="translate(156 4253)">
            <g id="Grupo_1147066" data-name="Grupo 1147066" transform="translate(-26 -556)">
              <g transform="matrix(1, 0, 0, 1, 616, 3983)" filter="url(#Trazado_982547)">
                <g id="Trazado_982547-2" data-name="Trazado 982547" transform="translate(9 6)" fill="#f6edfd">
                  <path d="M 45 88.5 C 39.12687683105469 88.5 33.43022537231445 87.35007476806641 28.06830024719238 85.08217620849609 C 22.88852500915527 82.89131164550781 18.23629951477051 79.75458526611328 14.2408504486084 75.75914764404297 C 10.24541282653809 71.76370239257812 7.108687400817871 67.11147308349609 4.917825222015381 61.93170166015625 C 2.649924993515015 56.56977462768555 1.5 50.87312316894531 1.5 45 C 1.5 39.12687683105469 2.649924993515015 33.43022537231445 4.917825222015381 28.06830024719238 C 7.108687400817871 22.88852500915527 10.24541282653809 18.23629951477051 14.2408504486084 14.2408504486084 C 18.23629951477051 10.24541282653809 22.88852500915527 7.108687400817871 28.06830024719238 4.917825222015381 C 33.43022537231445 2.649924993515015 39.12687683105469 1.5 45 1.5 C 50.87312316894531 1.5 56.56977462768555 2.649924993515015 61.93170166015625 4.917825222015381 C 67.11147308349609 7.108687400817871 71.76370239257812 10.24541282653809 75.75914764404297 14.2408504486084 C 79.75458526611328 18.23629951477051 82.89131164550781 22.88852500915527 85.08217620849609 28.06830024719238 C 87.35007476806641 33.43022537231445 88.5 39.12687683105469 88.5 45 C 88.5 50.87312316894531 87.35007476806641 56.56977462768555 85.08217620849609 61.93170166015625 C 82.89131164550781 67.11147308349609 79.75458526611328 71.76370239257812 75.75914764404297 75.75914764404297 C 71.76370239257812 79.75458526611328 67.11147308349609 82.89131164550781 61.93170166015625 85.08217620849609 C 56.56977462768555 87.35007476806641 50.87312316894531 88.5 45 88.5 Z" stroke="none"/>
                  <path d="M 45 3 C 39.32871246337891 3 33.82865524291992 4.110054016113281 28.65262985229492 6.299339294433594 C 23.65165710449219 8.414573669433594 19.15968322753906 11.44334411621094 15.301513671875 15.301513671875 C 11.44334411621094 19.15968322753906 8.414573669433594 23.65165710449219 6.299339294433594 28.65262985229492 C 4.110054016113281 33.82865524291992 3 39.32871246337891 3 45 C 3 50.67128753662109 4.110054016113281 56.17134475708008 6.299339294433594 61.34737396240234 C 8.414573669433594 66.34834289550781 11.44334411621094 70.84031677246094 15.301513671875 74.698486328125 C 19.15968322753906 78.55665588378906 23.65165710449219 81.58542633056641 28.65262985229492 83.70066070556641 C 33.82865524291992 85.88994598388672 39.32871246337891 87 45 87 C 50.67128753662109 87 56.17134475708008 85.88994598388672 61.34737396240234 83.70066070556641 C 66.34834289550781 81.58542633056641 70.84031677246094 78.55665588378906 74.698486328125 74.698486328125 C 78.55665588378906 70.84031677246094 81.58542633056641 66.34834289550781 83.70066070556641 61.34737396240234 C 85.88994598388672 56.17134475708008 87 50.67128753662109 87 45 C 87 39.32871246337891 85.88994598388672 33.82865524291992 83.70066070556641 28.65262985229492 C 81.58542633056641 23.65165710449219 78.55665588378906 19.15968322753906 74.698486328125 15.301513671875 C 70.84031677246094 11.44334411621094 66.34834289550781 8.414573669433594 61.34737396240234 6.299339294433594 C 56.17134475708008 4.110054016113281 50.67128753662109 3 45 3 M 45 0 C 69.85281372070312 0 90 20.14718627929688 90 45 C 90 69.85281372070312 69.85281372070312 90 45 90 C 20.14718627929688 90 0 69.85281372070312 0 45 C 0 20.14718627929688 20.14718627929688 0 45 0 Z" stroke="none" fill="#ac59f1"/>
                </g>
              </g>
            </g>
          </g>
        </g>
      </g>
    </g>
    <g id="ejecucion" transform="translate(925.501 3457.5)">
      <g id="Grupo_1160912" data-name="Grupo 1160912" transform="translate(12.286 12.287)">
        <g id="Grupo_1160910" data-name="Grupo 1160910">
          <path id="Trazado_995298" data-name="Trazado 995298" d="M113,96.748H119.5v3.266a16.471,16.471,0,0,1,5.924,2.456l2.311-2.311,4.6,4.6-2.31,2.311A16.466,16.466,0,0,1,132.487,113h3.266v6.509h-3.266a16.466,16.466,0,0,1-2.455,5.924l2.31,2.31-4.6,4.6-2.31-2.31a16.464,16.464,0,0,1-5.924,2.456v3.266H113v-3.266a16.463,16.463,0,0,1-5.924-2.456l-2.31,2.31-4.6-4.6,2.31-2.31a16.469,16.469,0,0,1-2.456-5.924H96.748V113h3.266a16.469,16.469,0,0,1,2.456-5.924l-2.31-2.31,4.6-4.6,2.31,2.311A16.463,16.463,0,0,1,113,100.014Z" transform="translate(-96.748 -96.748)" fill="#fad808" fill-rule="evenodd"/>
          <path id="Trazado_995299" data-name="Trazado 995299" d="M183.328,193.472a10.141,10.141,0,1,0-10.141-10.141A10.161,10.161,0,0,0,183.328,193.472Z" transform="translate(-163.826 -163.828)" fill="#eff4f7" fill-rule="evenodd"/>
        </g>
        <g id="Grupo_1160911" data-name="Grupo 1160911" transform="translate(25.654 25.654)">
          <path id="Trazado_995300" data-name="Trazado 995300" d="M318.311,330.39a12.079,12.079,0,1,0-12.079-12.079A12.1,12.1,0,0,0,318.311,330.39Z" transform="translate(-306.232 -306.232)" fill="#62a4fb" fill-rule="evenodd"/>
          <path id="Trazado_995301" data-name="Trazado 995301" d="M351.116,356.212a1.751,1.751,0,0,1,2.476,2.476l-8.541,8.541a1.752,1.752,0,0,1-2.675-.237l-3.593-4.522a1.748,1.748,0,1,1,2.736-2.175l2.442,3.073Z" transform="translate(-334.463 -349.641)" fill="#eff4f7" fill-rule="evenodd"/>
        </g>
      </g>
      <path id="Trazado_995302" data-name="Trazado 995302" d="M56.6,45.75a.772.772,0,0,0-1.317-.546L48.13,52.36a.979.979,0,0,1-1.46-.084L44.228,49.2a.768.768,0,1,0-1.2.956l3.593,4.522.037.049a.772.772,0,0,0,1.179.105l8.541-8.54A.771.771,0,0,0,56.6,45.75Zm1.159-1.931a2.73,2.73,0,0,1,0,3.861l-8.54,8.54a2.73,2.73,0,0,1-4.151-.342l-3.578-4.5a2.727,2.727,0,1,1,4.27-3.393L47.521,50.2,53.9,43.819a2.731,2.731,0,0,1,3.861,0ZM40.95,31.79a9.161,9.161,0,1,0-9.161,9.161A9.172,9.172,0,0,0,40.95,31.79Zm1.96,0A11.121,11.121,0,1,1,31.788,20.669,11.134,11.134,0,0,1,42.909,31.79ZM61.118,50.021a11.1,11.1,0,1,1-11.1-11.1,11.112,11.112,0,0,1,11.1,11.1ZM37.506,46.283a15.426,15.426,0,0,1-2.655.782.98.98,0,0,0-.787.962v2.285H29.513V48.027a.98.98,0,0,0-.788-.962,15.426,15.426,0,0,1-5.572-2.309.98.98,0,0,0-1.237.122L20.3,46.5l-3.217-3.217L18.7,41.662a.98.98,0,0,0,.122-1.237,15.413,15.413,0,0,1-2.31-5.572.979.979,0,0,0-.96-.787H13.266V29.514h2.287a.979.979,0,0,0,.96-.787,15.434,15.434,0,0,1,2.31-5.572.979.979,0,0,0-.122-1.237L17.082,20.3,20.3,17.083,21.917,18.7a.98.98,0,0,0,1.237.123,15.427,15.427,0,0,1,5.572-2.31.978.978,0,0,0,.788-.96V13.267h4.551v2.286a.978.978,0,0,0,.787.96,15.418,15.418,0,0,1,5.572,2.31A.98.98,0,0,0,41.66,18.7l1.618-1.618L46.5,20.3l-1.618,1.618a.98.98,0,0,0-.123,1.237,15.438,15.438,0,0,1,2.31,5.572.978.978,0,0,0,.96.787h2.286v4.551H48.025a.978.978,0,0,0-.96.787,15.453,15.453,0,0,1-.783,2.655,13.113,13.113,0,0,0-8.776,8.776Zm23.508-3.3A13.053,13.053,0,0,1,42.979,61.014a31.306,31.306,0,0,1-32.422-6.245l.286,3.573a.981.981,0,0,1-.9,1.056l-.08,0a.98.98,0,0,1-.976-.9l-.5-6.186A.978.978,0,0,1,9.449,51.26l6.186.5a.98.98,0,1,1-.157,1.953l-3.485-.281a29.351,29.351,0,0,0,29.153,6.164,13.022,13.022,0,0,1-4.186-9.571,13.177,13.177,0,0,1,.087-1.5q-.509.16-1.024.288v2.481a.98.98,0,0,1-.979.98h-6.51a.98.98,0,0,1-.98-.98V48.81a17.311,17.311,0,0,1-4.806-1.992l-1.755,1.756a.98.98,0,0,1-1.385,0l-4.6-4.6a.98.98,0,0,1,0-1.385l1.756-1.755a17.33,17.33,0,0,1-1.993-4.806H12.286a.98.98,0,0,1-.98-.98v-6.51a.981.981,0,0,1,.98-.98h2.481a17.339,17.339,0,0,1,1.993-4.806L15,20.993a.98.98,0,0,1,0-1.385l4.6-4.6a.98.98,0,0,1,1.385,0l1.755,1.756a17.342,17.342,0,0,1,4.806-1.992V12.287a.981.981,0,0,1,.98-.98h6.51a.98.98,0,0,1,.979.98v2.481a17.356,17.356,0,0,1,4.807,1.992L42.585,15a.98.98,0,0,1,1.385,0l4.6,4.6a.981.981,0,0,1,0,1.385l-1.757,1.756a17.321,17.321,0,0,1,1.993,4.8h2.481a.981.981,0,0,1,.98.98v6.51a.98.98,0,0,1-.98.98H48.809q-.129.514-.288,1.024a13.165,13.165,0,0,1,1.5-.087,13.026,13.026,0,0,1,9.572,4.187,29.371,29.371,0,0,0-3.7-26.071A.98.98,0,0,1,57.5,13.959a31.325,31.325,0,0,1,3.514,29.022ZM2.459,31.79a29.174,29.174,0,0,1,7.691-19.8l-.28,3.485a.981.981,0,0,0,.9,1.056c.027,0,.053,0,.08,0a.978.978,0,0,0,.975-.9l.5-6.186A.981.981,0,0,0,11.264,8.4l-6.185.5a.98.98,0,0,0,.156,1.954l3.574-.287A31.284,31.284,0,0,0,6.076,49.62.98.98,0,1,0,7.685,48.5,29.156,29.156,0,0,1,2.459,31.79ZM13.713,7.44a.979.979,0,0,0,1.363.246A29.328,29.328,0,0,1,51.585,10.15L48.1,9.87a.98.98,0,1,0-.157,1.954l6.186.5c.026,0,.053,0,.078,0a.979.979,0,0,0,.976-1.058l-.5-6.186a.98.98,0,0,0-1.953.157l.286,3.573A31.285,31.285,0,0,0,13.958,6.077a.979.979,0,0,0-.245,1.363Z" fill-rule="evenodd"/>
    </g>
  </g>
</svg>
