<svg xmlns="http://www.w3.org/2000/svg" xmlns:xlink="http://www.w3.org/1999/xlink" width="108" height="108" viewBox="0 0 108 108">
  <defs>
    <filter id="Trazado_982547" x="0" y="0" width="108" height="108" filterUnits="userSpaceOnUse">
      <feOffset dy="3" input="SourceAlpha"/>
      <feGaussianBlur stdDeviation="3" result="blur"/>
      <feFlood flood-opacity="0.161"/>
      <feComposite operator="in" in2="blur"/>
      <feComposite in="SourceGraphic"/>
    </filter>
  </defs>
  <g id="Grupo_1160902" data-name="Grupo 1160902" transform="translate(-274 -3438)">
    <g id="Grupo_1160641" data-name="Grupo 1160641" transform="translate(0 2554)">
      <g id="Grupo_1149835" data-name="Grupo 1149835" transform="translate(0 -3975)">
        <g id="Grupo_1149673" data-name="Grupo 1149673" transform="translate(-52 -2821)">
          <g id="Grupo_1148532" data-name="Grupo 1148532" transform="translate(51 4253)">
            <g id="Grupo_1147065" data-name="Grupo 1147065" transform="translate(-341 -556)">
              <g transform="matrix(1, 0, 0, 1, 616, 3983)" filter="url(#Trazado_982547)">
                <g id="Trazado_982547-2" data-name="Trazado 982547" transform="translate(9 6)" fill="#f6edfd">
                  <path d="M 45 88.5 C 39.12687683105469 88.5 33.43022537231445 87.35007476806641 28.06830024719238 85.08217620849609 C 22.88852500915527 82.89131164550781 18.23629951477051 79.75458526611328 14.2408504486084 75.75914764404297 C 10.24541282653809 71.76370239257812 7.108687400817871 67.11147308349609 4.917825222015381 61.93170166015625 C 2.649924993515015 56.56977462768555 1.5 50.87312316894531 1.5 45 C 1.5 39.12687683105469 2.649924993515015 33.43022537231445 4.917825222015381 28.06830024719238 C 7.108687400817871 22.88852500915527 10.24541282653809 18.23629951477051 14.2408504486084 14.2408504486084 C 18.23629951477051 10.24541282653809 22.88852500915527 7.108687400817871 28.06830024719238 4.917825222015381 C 33.43022537231445 2.649924993515015 39.12687683105469 1.5 45 1.5 C 50.87312316894531 1.5 56.56977462768555 2.649924993515015 61.93170166015625 4.917825222015381 C 67.11147308349609 7.108687400817871 71.76370239257812 10.24541282653809 75.75914764404297 14.2408504486084 C 79.75458526611328 18.23629951477051 82.89131164550781 22.88852500915527 85.08217620849609 28.06830024719238 C 87.35007476806641 33.43022537231445 88.5 39.12687683105469 88.5 45 C 88.5 50.87312316894531 87.35007476806641 56.56977462768555 85.08217620849609 61.93170166015625 C 82.89131164550781 67.11147308349609 79.75458526611328 71.76370239257812 75.75914764404297 75.75914764404297 C 71.76370239257812 79.75458526611328 67.11147308349609 82.89131164550781 61.93170166015625 85.08217620849609 C 56.56977462768555 87.35007476806641 50.87312316894531 88.5 45 88.5 Z" stroke="none"/>
                  <path d="M 45 3 C 39.32871246337891 3 33.82865524291992 4.110054016113281 28.65262985229492 6.299339294433594 C 23.65165710449219 8.414573669433594 19.15968322753906 11.44334411621094 15.301513671875 15.301513671875 C 11.44334411621094 19.15968322753906 8.414573669433594 23.65165710449219 6.299339294433594 28.65262985229492 C 4.110054016113281 33.82865524291992 3 39.32871246337891 3 45 C 3 50.67128753662109 4.110054016113281 56.17134475708008 6.299339294433594 61.34737396240234 C 8.414573669433594 66.34834289550781 11.44334411621094 70.84031677246094 15.301513671875 74.698486328125 C 19.15968322753906 78.55665588378906 23.65165710449219 81.58542633056641 28.65262985229492 83.70066070556641 C 33.82865524291992 85.88994598388672 39.32871246337891 87 45 87 C 50.67128753662109 87 56.17134475708008 85.88994598388672 61.34737396240234 83.70066070556641 C 66.34834289550781 81.58542633056641 70.84031677246094 78.55665588378906 74.698486328125 74.698486328125 C 78.55665588378906 70.84031677246094 81.58542633056641 66.34834289550781 83.70066070556641 61.34737396240234 C 85.88994598388672 56.17134475708008 87 50.67128753662109 87 45 C 87 39.32871246337891 85.88994598388672 33.82865524291992 83.70066070556641 28.65262985229492 C 81.58542633056641 23.65165710449219 78.55665588378906 19.15968322753906 74.698486328125 15.301513671875 C 70.84031677246094 11.44334411621094 66.34834289550781 8.414573669433594 61.34737396240234 6.299339294433594 C 56.17134475708008 4.110054016113281 50.67128753662109 3 45 3 M 45 0 C 69.85281372070312 0 90 20.14718627929688 90 45 C 90 69.85281372070312 69.85281372070312 90 45 90 C 20.14718627929688 90 0 69.85281372070312 0 45 C 0 20.14718627929688 20.14718627929688 0 45 0 Z" stroke="none" fill="#ac59f1"/>
                </g>
              </g>
            </g>
          </g>
        </g>
      </g>
    </g>
    <g id="creativo" transform="translate(273.182 3458)">
      <path id="Trazado_995242" data-name="Trazado 995242" d="M60.639,161.555a12.143,12.143,0,0,0-1.512-3.645l.7-1.167.85-1.427a15.1,15.1,0,0,0-2.894-2.894l-1.423.853-1.171.7a12.03,12.03,0,0,0-3.641-1.508l-.334-1.321-.406-1.607a14.938,14.938,0,0,0-4.092,0l-.4,1.608-.334,1.321a12.032,12.032,0,0,0-3.641,1.508l-1.171-.7-1.423-.853a15,15,0,0,0-2.894,2.894l.85,1.427.7,1.167a12.143,12.143,0,0,0-1.513,3.645l-1.317.331-1.611.406a15.03,15.03,0,0,0,0,4.092l1.611.406,1.317.331a12.144,12.144,0,0,0,1.512,3.645l-.7,1.167-.85,1.427a15,15,0,0,0,2.894,2.894l1.423-.854,1.171-.7a12.031,12.031,0,0,0,3.641,1.508l.334,1.321.4,1.607a15.03,15.03,0,0,0,4.092,0l.406-1.607.334-1.321a12.066,12.066,0,0,0,3.641-1.508l1.171.7,1.423.853a15.189,15.189,0,0,0,2.894-2.894l-.85-1.427-.7-1.167a12.143,12.143,0,0,0,1.512-3.644l1.317-.331,1.611-.406a15.03,15.03,0,0,0,0-4.092l-1.611-.406Z" transform="translate(-6.156 -131.408)" fill="#69a7ff" fill-rule="evenodd"/>
      <path id="Trazado_995243" data-name="Trazado 995243" d="M108.293,216.006a7.874,7.874,0,1,0-7.874,7.874A7.874,7.874,0,0,0,108.293,216.006Z" transform="translate(-57.814 -183.074)" fill="#d5e3f2" fill-rule="evenodd"/>
      <path id="Trazado_995244" data-name="Trazado 995244" d="M268.643,417.465v4.86a3.08,3.08,0,0,0,6.16,0v-4.86a3.08,3.08,0,1,0-6.16,0Z" transform="translate(-212.711 -364.493)" fill="#4d6c8f" fill-rule="evenodd"/>
      <path id="Trazado_995245" data-name="Trazado 995245" d="M185.057,104.437a17.31,17.31,0,0,0-34.619,0c0,11.242,9.883,13.972,10.832,22.8a1.537,1.537,0,0,0,1.532,1.382h9.89a1.537,1.537,0,0,0,1.532-1.382C175.174,118.408,185.057,115.678,185.057,104.437Z" transform="translate(-108.737 -76.637)" fill="#ffc90d" fill-rule="evenodd"/>
      <path id="Trazado_995246" data-name="Trazado 995246" d="M245.571,431.791h-10.58a2.092,2.092,0,0,0,0,4.184h10.58a2.092,2.092,0,1,0,0-4.184Z" transform="translate(-181.271 -379.806)" fill="#3b5c82" fill-rule="evenodd"/>
      <path id="Trazado_995247" data-name="Trazado 995247" d="M414.145,127.66v34.885a3.855,3.855,0,1,0,7.709,0V127.66L418,119.951Z" transform="translate(-340.695 -105.51)" fill="#2eb851" fill-rule="evenodd"/>
      <path id="Trazado_995248" data-name="Trazado 995248" d="M414.145,469.406v.522a3.855,3.855,0,0,0,7.709,0v-.522Z" transform="translate(-340.695 -412.892)" fill="#ff3d50" fill-rule="evenodd"/>
      <path id="Trazado_995249" data-name="Trazado 995249" d="M414.145,437.035h7.709v3.9h-7.709Z" transform="translate(-340.695 -384.418)" fill="#d5e3f2"/>
      <g id="Grupo_1160901" data-name="Grupo 1160901" transform="translate(27.661 10.486)">
        <path id="Trazado_995250" data-name="Trazado 995250" d="M414.145,127.66h7.709L418,119.951Z" transform="translate(-368.356 -115.996)" fill="#e8b603" fill-rule="evenodd"/>
        <path id="Trazado_995251" data-name="Trazado 995251" d="M431.108,124.722l-2.389-4.771-2.386,4.771Z" transform="translate(-379.077 -115.996)" fill="#4d6c8f" fill-rule="evenodd"/>
        <path id="Trazado_995252" data-name="Trazado 995252" d="M236.764,397.01H223.392a2.093,2.093,0,0,0,0,4.187h13.372a2.093,2.093,0,0,0,0-4.187Z" transform="translate(-198.728 -359.698)" fill="#4d6c8f" fill-rule="evenodd"/>
        <path id="Trazado_995253" data-name="Trazado 995253" d="M156.878,115.14a17,17,0,0,1-3.826-10.73,17.389,17.389,0,0,1,.181-2.512,17.113,17.113,0,0,1,1.157-4.17,17.331,17.331,0,0,1,14.664-10.583c-.43-.031-.867-.048-1.307-.048a17.314,17.314,0,0,0-17.1,14.6,17.7,17.7,0,0,0-.208,2.71c0,5.43,2.3,8.873,4.795,11.979,1.041,1.3,2.112,2.532,3.065,3.833a16.464,16.464,0,0,1,2.341,4.232,1.938,1.938,0,0,1,.423-.044h2.177a15.811,15.811,0,0,0-1.973-3.7c-1.324-1.894-2.938-3.635-4.389-5.573Z" transform="translate(-136.398 -87.097)" fill="#e8b603" fill-rule="evenodd"/>
        <path id="Trazado_995254" data-name="Trazado 995254" d="M114.6,153.988a12.067,12.067,0,0,1,3.642-1.508l.334-1.321.406-1.607c.331-.048.666-.082,1-.1a15.145,15.145,0,0,0-3.1.1l-.4,1.607-.334,1.321a12.1,12.1,0,0,0-2.556.908Z" transform="translate(-103.986 -141.91)" fill="#4c8fed" fill-rule="evenodd"/>
        <path id="Trazado_995255" data-name="Trazado 995255" d="M38.94,177.441a14.988,14.988,0,0,1,2.014-2.17l-1.212-.723a15,15,0,0,0-2.894,2.894l.85,1.427.7,1.167a12.143,12.143,0,0,0-1.512,3.645l-1.317.331-1.611.406a15.03,15.03,0,0,0,0,4.092l1.611.406,1.317.331A12.144,12.144,0,0,0,38.4,192.89l-.7,1.167-.85,1.427a15,15,0,0,0,2.894,2.894l1.212-.723a14.981,14.981,0,0,1-2.014-2.171l.85-1.427.7-1.167a12.144,12.144,0,0,1-1.512-3.644l-1.317-.331-1.611-.406a15.551,15.551,0,0,1-.14-2.048,14.987,14.987,0,0,1,.14-2.046l1.611-.4,1.317-.331a12.143,12.143,0,0,1,1.512-3.645l-.7-1.167Z" transform="translate(-33.817 -164.018)" fill="#4c8fed" fill-rule="evenodd"/>
        <path id="Trazado_995256" data-name="Trazado 995256" d="M118.24,361.129a12.067,12.067,0,0,1-3.641-1.508l-1.007.6a12.1,12.1,0,0,0,2.556.908l.334,1.321.4,1.607a15.044,15.044,0,0,0,2.048.14c.351,0,.7-.01,1.047-.034-.338-.024-.672-.061-1-.106l-.406-1.607Z" transform="translate(-103.988 -326.811)" fill="#4c8fed" fill-rule="evenodd"/>
        <path id="Trazado_995257" data-name="Trazado 995257" d="M416.066,469.406h-1.921v.522A3.886,3.886,0,0,0,418,473.8a3.737,3.737,0,0,0,.962-.126,3.888,3.888,0,0,1-2.894-3.747Z" transform="translate(-368.356 -423.378)" fill="#e82e41" fill-rule="evenodd"/>
      </g>
      <path id="Trazado_995258" data-name="Trazado 995258" d="M414.145,437.035h1.921v3.9h-1.921Z" transform="translate(-340.695 -384.418)" fill="#b7cfe8"/>
      <path id="Trazado_995259" data-name="Trazado 995259" d="M414.145,214.452h1.921V183.986h-1.921v30.466Z" transform="translate(-340.695 -161.835)" fill="#1ca63e" fill-rule="evenodd"/>
      <path id="Trazado_995260" data-name="Trazado 995260" d="M416.07,162.5l1.464-2.925h-1.921l-.42.843-1.048,2.1h1.921Z" transform="translate(-340.695 -140.367)" fill="#d1a403" fill-rule="evenodd"/>
      <path id="Trazado_995261" data-name="Trazado 995261" d="M426.334,124.722h1.921l1.427-2.853-.962-1.918Z" transform="translate(-351.416 -105.51)" fill="#3b5c82" fill-rule="evenodd"/>
      <path id="Trazado_995262" data-name="Trazado 995262" d="M69.556,8.25l2.406-4.164a.841.841,0,1,1,1.457.842L71.013,9.092a.841.841,0,1,1-1.457-.842Zm-10.545-1.7a.841.841,0,0,0,.841-.841V.841a.841.841,0,1,0-1.683,0v4.87a.841.841,0,0,0,.841.841Zm-12,2.539a.841.841,0,1,0,1.457-.842L46.06,4.086a.841.841,0,1,0-1.457.842ZM82,22.039V56.927a4.7,4.7,0,1,1-9.392,0V39.653c-.476.609-.961,1.2-1.439,1.781a25.227,25.227,0,0,0-3.963,5.834,2.935,2.935,0,0,1-.377,5.221A2.931,2.931,0,0,1,64.3,56.9h-1.37v.821a3.921,3.921,0,1,1-7.843,0V56.9H53.721a2.931,2.931,0,0,1-2.531-4.413,2.935,2.935,0,0,1-.377-5.221,16.587,16.587,0,0,0-1.8-3.091,12.879,12.879,0,0,1-2.926,1.21l-.618,2.442a.841.841,0,0,1-.7.627,15.879,15.879,0,0,1-4.322,0,.841.841,0,0,1-.7-.627l-.615-2.443a12.834,12.834,0,0,1-2.948-1.221l-2.161,1.292a.842.842,0,0,1-.941-.052,15.834,15.834,0,0,1-3.056-3.057.841.841,0,0,1-.052-.938l1.293-2.166a12.959,12.959,0,0,1-1.223-2.95l-2.443-.615a.841.841,0,0,1-.628-.7,15.88,15.88,0,0,1,0-4.322.841.841,0,0,1,.628-.7l2.442-.615a12.88,12.88,0,0,1,1.224-2.95l-1.292-2.165a.841.841,0,0,1,.052-.939,15.8,15.8,0,0,1,3.057-3.053.841.841,0,0,1,.939-.051l2.163,1.29a12.9,12.9,0,0,1,2.947-1.222l.616-2.443a.841.841,0,0,1,.7-.627,15.768,15.768,0,0,1,3.817-.061,18.143,18.143,0,0,1,30.2,1.027l2.1-4.194a.841.841,0,0,1,1.5,0l3.857,7.71a.843.843,0,0,1,.089.376Zm-5.722-3.78H78.33L77.305,16.21Zm-.841,1.683L74.812,21.2H79.8l-.628-1.256ZM74.293,51.665h2.171V22.881H74.293V51.666ZM47.978,42.822c-.367-.462-.745-.923-1.129-1.389l-.578-.706a8.714,8.714,0,1,1-5.079-16.5,18.032,18.032,0,0,1,2.035-5.493,14.116,14.116,0,0,0-2,.053l-.6,2.365a.841.841,0,0,1-.626.615,11.244,11.244,0,0,0-3.389,1.4.841.841,0,0,1-.874.008l-2.1-1.25a14.118,14.118,0,0,0-1.941,1.938l1.252,2.094a.841.841,0,0,1-.007.877,11.206,11.206,0,0,0-1.407,3.391.841.841,0,0,1-.614.626l-2.366.6c-.044.455-.066.915-.066,1.374s.022.915.066,1.37l2.366.6a.841.841,0,0,1,.614.624A11.3,11.3,0,0,0,32.954,38.8a.842.842,0,0,1,.007.877l-1.252,2.095a14.144,14.144,0,0,0,1.941,1.941l2.1-1.252a.841.841,0,0,1,.875.009,11.161,11.161,0,0,0,3.387,1.4.841.841,0,0,1,.626.615l.595,2.365a14.252,14.252,0,0,0,2.745,0l.6-2.367a.841.841,0,0,1,.625-.613,11.19,11.19,0,0,0,2.779-1.053ZM40.859,27.688c0-.572.028-1.138.08-1.7a7.031,7.031,0,1,0,4.248,13.371,18.233,18.233,0,0,1-4.328-11.674ZM61.249,56.9H56.77v.821a2.239,2.239,0,1,0,4.478,0Zm4.3-2.933A1.252,1.252,0,0,0,64.3,52.717H53.721a1.251,1.251,0,1,0,0,2.5H64.3a1.252,1.252,0,0,0,1.251-1.251Zm1.4-4.188A1.252,1.252,0,0,0,65.7,48.529H52.325a1.253,1.253,0,1,0,0,2.505H65.7a1.254,1.254,0,0,0,1.251-1.254ZM55.771,26.671a1.783,1.783,0,1,0-3.567,0c0,.82.569,1.491,1.692,2a8.466,8.466,0,0,0,1.874.562Zm4.8,20.176V31.033a19.167,19.167,0,0,1-3.116.085V46.847ZM72.61,36.8V22.039a.841.841,0,0,1,.089-.376l.855-1.711A16.471,16.471,0,0,0,42.54,27.688c0,5.855,2.851,9.323,5.608,12.676a26.028,26.028,0,0,1,4.312,6.483h3.311V30.935a10.529,10.529,0,0,1-2.563-.733c-2.22-1-2.686-2.47-2.686-3.531a3.466,3.466,0,1,1,6.932,0v2.762c.33.02.668.031,1.013.031a17.425,17.425,0,0,0,2.1-.127V26.671a3.466,3.466,0,1,1,6.932,0c0,2.091-2.3,3.473-5.249,4.1v16.08h3.309a25.978,25.978,0,0,1,4.311-6.482c.933-1.135,1.894-2.307,2.738-3.562ZM65.818,26.671a1.783,1.783,0,0,0-3.567,0v2.367C64.356,28.534,65.818,27.642,65.818,26.671ZM80.3,57.246H74.31a3.011,3.011,0,0,0,5.993,0Zm.017-3.9H74.293v2.215H80.32Zm0-30.468H78.146V51.666H80.32Z" transform="translate(0 0)"/>
    </g>
  </g>
</svg>
