<svg xmlns="http://www.w3.org/2000/svg" xmlns:xlink="http://www.w3.org/1999/xlink" width="610" height="532" viewBox="0 0 610 532">
  <defs>
    <clipPath id="clip-path">
      <rect id="Rectángulo_413020" data-name="Rectángulo 413020" width="610" height="532" transform="translate(2911 1907)" fill="#fff" stroke="#707070" stroke-width="1" opacity="0.53"/>
    </clipPath>
    <clipPath id="clip-path-2">
      <path id="Trazado_995918" data-name="Trazado 995918" d="M948.2,252.319l.317.419-69.369,66.715a23.957,23.957,0,0,1-35.98-3.16L810.2,271.9l-28.844-38.835L752.815,237.6c-2.02-7.32-3.759-13.956-5.067-19.407-1.388-5.787-2.468-10.924-3.331-15.48,7.365.9,29.767,1.52,57.151-18.263l4.737,7.782s19.074.31,30.45,21.231c11.092,20.42,34.278,65.207,35.371,67.318-.433-1.027-3.434-12.536,60.738-48.627l.5.655Z"/>
    </clipPath>
  </defs>
  <g id="Enmascarar_grupo_1098783" data-name="Enmascarar grupo 1098783" transform="translate(-2911 -1907)" clip-path="url(#clip-path)">
    <g id="Grupo_1161516" data-name="Grupo 1161516" transform="translate(2731 5)">
      <path id="Trazado_995985" data-name="Trazado 995985" d="M525.784,278.413c-40.815,81.378-116.162,168.654-215.356,162.908-41.782-3.019-81.913-28.557-97.809-68.019-29.5-96.3-110.6-46.41-172.1-90.443C-2.422,244.652,32.651,181.292,59.8,144.348,234.727-93.671,627.658,46.322,525.784,278.413Z" transform="translate(159.605 1947.467)" fill="#f2cfad"/>
      <g id="Grupo_1161515" data-name="Grupo 1161515" transform="translate(-2609.675 346.771)">
        <g id="Grupo_1161296" data-name="Grupo 1161296" transform="translate(2391.158 1589)">
          <g id="Grupo_1161292" data-name="Grupo 1161292">
            <g id="Grupo_1161291" data-name="Grupo 1161291">
              <g id="Grupo_1161290" data-name="Grupo 1161290">
                <path id="Trazado_995828" data-name="Trazado 995828" d="M502.557,453.448a120.8,120.8,0,0,1-15.133.167.67.67,0,0,1,.07-1.338,119.251,119.251,0,0,0,14.964-.165l1.194-.1h.007a.67.67,0,0,1,.106,1.336Zm17.254-2.6a.67.67,0,0,1-.2-1.321,108.308,108.308,0,0,0,15.425-4.777.67.67,0,1,1,.491,1.247,109.629,109.629,0,0,1-15.616,4.835A.51.51,0,0,1,519.811,450.847Zm30.116-11.938a.67.67,0,0,1-.392-1.245q.99-.585,1.967-1.2a133.363,133.363,0,0,0,11.34-7.971.669.669,0,1,1,.822,1.056,133.934,133.934,0,0,1-11.452,8.05q-.99.621-1.994,1.214A.652.652,0,0,1,549.927,438.909Zm25.781-19.728a.67.67,0,0,1-.5-1.165c4.069-3.691,8.086-7.538,11.82-11.142a.67.67,0,1,1,.93.964c-3.742,3.612-7.769,7.465-11.85,11.171A.664.664,0,0,1,575.708,419.181Zm219.551-25.628-.03,0a89.3,89.3,0,0,1-16.313-1.06.67.67,0,0,1,.2-1.325,87.974,87.974,0,0,0,16.07,1.044.671.671,0,0,1,.071,1.339Zm16.067-2.247a.671.671,0,0,1-.217-1.318,73.013,73.013,0,0,0,15.014-5.742.67.67,0,0,1,.612,1.193,74.357,74.357,0,0,1-15.289,5.846A.673.673,0,0,1,811.326,391.306ZM763.2,388.978a.684.684,0,0,1-.232-.023c-4.671-1.322-9.742-2.978-15.5-5.067a.67.67,0,1,1,.456-1.26c5.73,2.076,10.771,3.725,15.411,5.037a.67.67,0,0,1-.133,1.313Zm-163.923,7.778a.67.67,0,0,1-.51-1.156c4.615-4.349,8.47-7.809,12.133-10.886a.67.67,0,1,1,.862,1.025c-3.643,3.062-7.48,6.505-12.076,10.837A.667.667,0,0,1,599.276,396.756Zm240.841-20.047a.67.67,0,0,1-.465-1.2,99.908,99.908,0,0,0,11.8-10.994.67.67,0,1,1,.987.9,101.378,101.378,0,0,1-11.963,11.142A.654.654,0,0,1,840.117,376.709Zm-107.581,1.424a.664.664,0,0,1-.293-.044l-1.588-.623c-4.45-1.744-9.052-3.548-13.578-5.234a.67.67,0,0,1,.469-1.255c4.536,1.689,9.143,3.495,13.6,5.241l1.587.622a.67.67,0,0,1-.2,1.293Zm-108.2-2.058a.67.67,0,0,1-.422-1.226,97.253,97.253,0,0,1,14.264-7.982.67.67,0,1,1,.549,1.222,95.8,95.8,0,0,0-14.068,7.875A.67.67,0,0,1,624.334,376.075Zm77.643-9.066a.681.681,0,0,1-.244-.026,141.274,141.274,0,0,0-15.7-3.881.669.669,0,1,1,.24-1.317,142.729,142.729,0,0,1,15.852,3.915.67.67,0,0,1-.144,1.309ZM862.112,352.92a.669.669,0,0,1-.6-1.048,132.254,132.254,0,0,0,8.344-13.859.67.67,0,0,1,1.188.62,133.581,133.581,0,0,1-8.429,14A.669.669,0,0,1,862.112,352.92ZM653.9,363.081a.67.67,0,0,1-.187-1.323c.427-.091.856-.177,1.288-.261a75.8,75.8,0,0,1,15.007-1.333.67.67,0,0,1,.665.675.681.681,0,0,1-.676.664,74.4,74.4,0,0,0-14.742,1.311q-.636.123-1.267.254A.529.529,0,0,1,653.9,363.081ZM877.177,324.17a.679.679,0,0,1-.29-.043.67.67,0,0,1-.384-.866c1.874-4.863,3.572-9.884,5.188-15.349a.67.67,0,1,1,1.285.379c-1.627,5.5-3.335,10.555-5.224,15.452A.667.667,0,0,1,877.177,324.17Zm9.329-31.126a.661.661,0,0,1-.2-.015.67.67,0,0,1-.5-.8c1.114-4.773,2.218-9.968,3.377-15.881a.67.67,0,1,1,1.316.256c-1.162,5.93-2.269,11.14-3.387,15.929A.671.671,0,0,1,886.506,293.044Zm6.376-31.889a.706.706,0,0,1-.171-.008.671.671,0,0,1-.539-.78l.326-1.791c.863-4.739,1.726-9.479,2.629-14.206a.67.67,0,0,1,1.317.251c-.9,4.723-1.765,9.46-2.627,14.2l-.326,1.791A.671.671,0,0,1,892.882,261.155Zm6.22-31.925a.687.687,0,0,1-.2-.014.67.67,0,0,1-.508-.8l.352-1.563c1.123-4.937,2.343-9.729,3.626-14.244a.67.67,0,1,1,1.289.366c-1.277,4.493-2.491,9.262-3.608,14.174l-.351,1.558A.671.671,0,0,1,899.1,229.23Zm8.968-31.245a.672.672,0,0,1-.679-.9c1.935-5.283,4.054-10.35,6.3-15.061a.67.67,0,1,1,1.209.577c-2.226,4.672-4.329,9.7-6.249,14.944A.667.667,0,0,1,908.07,197.985Zm14.078-29.262a.67.67,0,0,1-.617-1.025,114.945,114.945,0,0,1,9.637-13.2.67.67,0,0,1,1.022.868,113.138,113.138,0,0,0-9.524,13.044A.668.668,0,0,1,922.148,168.723Zm21.072-24.589a.67.67,0,0,1-.482-1.181c1.356-1.14,2.763-2.254,4.18-3.312a71.071,71.071,0,0,1,9.364-5.886.671.671,0,0,1,.624,1.188,69.529,69.529,0,0,0-9.186,5.773c-1.4,1.042-2.782,2.14-4.119,3.263A.668.668,0,0,1,943.22,144.134Zm76.23-12.21a.664.664,0,0,1-.333-.062,59.429,59.429,0,0,0-15.325-4.706.67.67,0,0,1,.223-1.321,60.765,60.765,0,0,1,15.671,4.814.67.67,0,0,1,.323.891A.654.654,0,0,1,1019.45,131.924Zm-47.711-2.873a.67.67,0,0,1-.229-1.314,78.627,78.627,0,0,1,15.187-2.656l.96-.065a.671.671,0,0,1,.71.627.7.7,0,0,1-.628.711l-.943.064a77.443,77.443,0,0,0-14.928,2.611A.712.712,0,0,1,971.739,129.051Z" fill="#fff"/>
              </g>
            </g>
          </g>
          <g id="Grupo_1161295" data-name="Grupo 1161295">
            <g id="Grupo_1161294" data-name="Grupo 1161294">
              <g id="Grupo_1161293" data-name="Grupo 1161293">
                <path id="Trazado_995829" data-name="Trazado 995829" d="M1038.34,147.128a.671.671,0,0,1-.587-.267,47.613,47.613,0,0,0-5.256-5.926.67.67,0,0,1,.925-.969,48.857,48.857,0,0,1,5.4,6.094.671.671,0,0,1-.135.938A.721.721,0,0,1,1038.34,147.128Z" fill="#fff"/>
              </g>
            </g>
          </g>
        </g>
        <g id="Grupo_1161309" data-name="Grupo 1161309" transform="translate(2391.158 1589)">
          <g id="Grupo_1161298" data-name="Grupo 1161298">
            <g id="Grupo_1161297" data-name="Grupo 1161297">
              <path id="Trazado_995830" data-name="Trazado 995830" d="M694.352,347.4c10.2,19.895,14,42.585,14.16,64.936.157,20.6-2.652,41.07-5.669,61.448H687.3a229.113,229.113,0,0,0-7.629-51.481c-5.878-22.952-14.33-45.146-22.769-67.274-2.417-6.349-4.833-13.52-2.038-19.712,2.364-5.238,8.23-8.412,13.991-8.452s11.286,2.678,15.532,6.558S691.726,342.283,694.352,347.4Z" fill="#e07080"/>
            </g>
          </g>
          <g id="Grupo_1161300" data-name="Grupo 1161300">
            <g id="Grupo_1161299" data-name="Grupo 1161299">
              <path id="Trazado_995831" data-name="Trazado 995831" d="M620.12,385.155c.4,3.862,2.133,7.441,4.02,10.835,9.166,16.442,22.507,30.087,34.165,44.87,7.088,8.984,13.685,18.731,18.1,29.21l14.412,2.52c-2.029-17.064-5.959-33.943-12.867-49.646-7.64-17.356-19.046-33.275-34.131-44.758a28.37,28.37,0,0,0-9.521-5.232c-3.523-.934-7.564-.58-10.4,1.708C620.868,377.091,619.719,381.306,620.12,385.155Z" fill="#dd505d"/>
            </g>
          </g>
          <g id="Grupo_1161302" data-name="Grupo 1161302">
            <g id="Grupo_1161301" data-name="Grupo 1161301">
              <path id="Trazado_995832" data-name="Trazado 995832" d="M734.045,430.081c-8.452,13.834-15.832,28.739-19.033,44.506H702.59a268.5,268.5,0,0,1,11.979-78.718c5.2-16.8,12.671-33.9,26.753-44.414A28.992,28.992,0,0,1,752.8,345.9a16,16,0,0,1,12.3,2.221c4.689,3.318,6.649,9.536,6.218,15.258s-2.887,11.091-5.552,16.185C756.54,397.188,744.417,413.112,734.045,430.081Z" fill="#dd505d"/>
            </g>
          </g>
          <g id="Grupo_1161304" data-name="Grupo 1161304">
            <g id="Grupo_1161303" data-name="Grupo 1161303">
              <path id="Trazado_995833" data-name="Trazado 995833" d="M694.7,422.534a290.231,290.231,0,0,0-10.029-48.144q-3.992-13.347-9.269-26.262c-.314-.768-1.578-.432-1.26.347a288.018,288.018,0,0,1,21.06,95.784q.624,13.766-.08,27.548c-.043.84,1.264.838,1.306,0A287.583,287.583,0,0,0,694.7,422.534Z" fill="#fff"/>
            </g>
          </g>
          <g id="Grupo_1161306" data-name="Grupo 1161306">
            <g id="Grupo_1161305" data-name="Grupo 1161305">
              <path id="Trazado_995834" data-name="Trazado 995834" d="M759,357.9a177.037,177.037,0,0,0-29.43,40.527A180.564,180.564,0,0,0,712.51,445.4a175.55,175.55,0,0,0-3.609,27.9c-.041.84,1.266.838,1.306,0a175.748,175.748,0,0,1,9.469-48.834,179.348,179.348,0,0,1,22.46-44.112,173.23,173.23,0,0,1,17.787-21.528C760.51,358.224,759.588,357.3,759,357.9Z" fill="#fff"/>
            </g>
          </g>
          <g id="Grupo_1161308" data-name="Grupo 1161308">
            <g id="Grupo_1161307" data-name="Grupo 1161307">
              <path id="Trazado_995835" data-name="Trazado 995835" d="M635.318,386.748a149.2,149.2,0,0,1,25.849,28.322,151.538,151.538,0,0,1,17.912,34.057,148.36,148.36,0,0,1,6.032,20.745c.176.822-1.127.938-1.3.125a147.948,147.948,0,0,0-12.7-35.824,150.243,150.243,0,0,0-21.337-31.467,146.193,146.193,0,0,0-15.3-14.959A.654.654,0,0,1,635.318,386.748Z" fill="#fff"/>
            </g>
          </g>
        </g>
        <g id="Grupo_1161329" data-name="Grupo 1161329" transform="translate(2391.158 1589)">
          <g id="Grupo_1161325" data-name="Grupo 1161325">
            <g id="Grupo_1161324" data-name="Grupo 1161324">
              <path id="Trazado_995844" data-name="Trazado 995844" d="M593.963,190.806l-1.018-.27s0-.008.011-.025l1.02.241A.255.255,0,0,0,593.963,190.806Z" fill="#3a446a"/>
            </g>
          </g>
          <g id="Grupo_1161326" data-name="Grupo 1161326">
            <path id="Trazado_995845" data-name="Trazado 995845" d="M598.118,290.654,502.7,267.929c-3.024-1.375-.312-4.492,2.177-6.666,2.023-1.769,3.052-4.142,3.944-6.67l25.249-78.106,17.362,4.132,41.53,9.89,1.014.245,17.86,4.253-13.162,80.972c-.34,2.66-.489,5.244.514,7.737C600.432,286.783,601.439,290.792,598.118,290.654Z" fill="#c0354f"/>
          </g>
          <g id="Grupo_1161327" data-name="Grupo 1161327">
            <path id="Trazado_995846" data-name="Trazado 995846" d="M592.745,196.151a.6.6,0,0,1-.157-.02.628.628,0,0,1-.451-.764l1.232-4.772c.4-1.565,3.734-15.589-2.144-25.4a18.225,18.225,0,0,0-11.937-8.407,17.9,17.9,0,0,0-14.379,2.149c-9.672,6.244-12.834,21.654-12.865,21.809l-1.334,5.2a.627.627,0,1,1-1.214-.312l1.327-5.169c.122-.619,3.285-16.049,13.406-22.583,4.467-2.9,9.63-3.677,15.35-2.316a19.44,19.44,0,0,1,12.722,8.982c6.139,10.251,2.7,24.742,2.283,26.36l-1.232,4.774A.63.63,0,0,1,592.745,196.151Z" fill="#471c31"/>
          </g>
          <g id="Grupo_1161328" data-name="Grupo 1161328">
            <path id="Trazado_995847" data-name="Trazado 995847" d="M593.4,274.495a.728.728,0,0,1-.093-.007L513.52,262.56a.627.627,0,0,1-.528-.712.637.637,0,0,1,.712-.528l79.784,11.928a.627.627,0,0,1-.091,1.247Z" fill="#471c31"/>
          </g>
        </g>
        <g id="Grupo_1161335" data-name="Grupo 1161335" transform="translate(2391.158 1589)">
          <g id="Grupo_1161331" data-name="Grupo 1161331">
            <g id="Grupo_1161330" data-name="Grupo 1161330">
              <path id="Trazado_995848" data-name="Trazado 995848" d="M501.9,180.291l-1.078.314s0-.01,0-.029l1.064-.342A.586.586,0,0,0,501.9,180.291Z" fill="#3a446a"/>
            </g>
          </g>
          <g id="Grupo_1161332" data-name="Grupo 1161332">
            <path id="Trazado_995849" data-name="Trazado 995849" d="M561.918,269.135l-99.605,31.8c-3.517.41-2.758-3.928-1.684-7.283.872-2.728.505-5.461-.073-8.26L440.594,200.2l18.122-5.789,43.351-13.84,1.06-.334,18.643-5.952,32.572,81.151c1.155,2.615,2.441,5.055,4.729,6.779C561.9,264.328,565.025,267.433,561.918,269.135Z" fill="#e69643"/>
          </g>
          <g id="Grupo_1161333" data-name="Grupo 1161333">
            <path id="Trazado_995850" data-name="Trazado 995850" d="M459.107,200.488a.628.628,0,0,1-.6-.447l-1.636-5.448c-.23-.634-5.834-16.443-.2-27.964,2.479-5.091,6.755-8.639,12.711-10.544a20.686,20.686,0,0,1,16.525,1.19c11.237,5.97,16.065,21.075,16.578,22.778l1.5,5.035a.627.627,0,1,1-1.2.359l-1.5-5.034c-.5-1.65-5.177-16.3-15.965-22.031a19.466,19.466,0,0,0-15.556-1.1c-5.616,1.8-9.641,5.127-11.965,9.9-5.4,11.049.206,26.863.264,27.022l1.647,5.481a.626.626,0,0,1-.6.807Z" fill="#471c31"/>
          </g>
          <g id="Grupo_1161334" data-name="Grupo 1161334">
            <path id="Trazado_995851" data-name="Trazado 995851" d="M467.732,290.085a.627.627,0,0,1-.241-1.206l79.388-33.044a.626.626,0,0,1,.481,1.157l-79.388,33.044A.593.593,0,0,1,467.732,290.085Z" fill="#471c31"/>
          </g>
        </g>
        <g id="Grupo_1161341" data-name="Grupo 1161341" transform="translate(2391.158 1589)">
          <g id="Grupo_1161336" data-name="Grupo 1161336">
            <path id="Trazado_995852" data-name="Trazado 995852" d="M585.054,338.136c-1.619,2.134-3.038,4.293-3.423,6.96-.455,3.282-1.6,7.253-4.4,5.465l-8.4-7.941-.889-.845-13.772-13.04-.882-.829-14.912-14.114-.878-.841-9.241-8.73-.878-.841-11.742-11.121-.882-.829-8.768-8.3c-1.921-2.7,1.986-4.048,5.223-4.686,2.639-.517,4.719-2.051,6.763-3.8l60.942-54.988,4.834,4.573.889.845,7.248,6.851,3.771,3.568.889.845,10.114,9.582.882.829,12.672,11.995.878.84,1.79,1.694.757.715,7.561,7.157.878.841,4.894,4.622Z" fill="#e07080"/>
          </g>
          <g id="Grupo_1161338" data-name="Grupo 1161338">
            <g id="Grupo_1161337" data-name="Grupo 1161337">
              <path id="Trazado_995853" data-name="Trazado 995853" d="M623.61,262.043l-.746-.743.022-.016.763.72A.452.452,0,0,0,623.61,262.043Z" fill="#3a446a"/>
            </g>
          </g>
          <g id="Grupo_1161339" data-name="Grupo 1161339">
            <path id="Trazado_995854" data-name="Trazado 995854" d="M620.194,266.145a.626.626,0,0,1-.447-1.066l3.454-3.515c1.129-1.154,11.035-11.617,10.859-23.067a18.225,18.225,0,0,0-6.126-13.252c-4.011-3.793-8.558-5.594-13.524-5.337-11.5.564-21.949,12.323-22.053,12.441l-3.76,3.837a.627.627,0,0,1-.895-.878l3.736-3.811c.416-.476,10.876-12.251,22.909-12.842a19.117,19.117,0,0,1,14.449,5.679,19.438,19.438,0,0,1,6.518,14.143c.185,11.958-10.05,22.771-11.217,23.965l-3.455,3.516A.629.629,0,0,1,620.194,266.145Z" fill="#471c31"/>
          </g>
          <g id="Grupo_1161340" data-name="Grupo 1161340">
            <path id="Trazado_995855" data-name="Trazado 995855" d="M581.546,334.3a.627.627,0,0,1-.39-.137l-63.1-50.258a.627.627,0,0,1,.781-.981l63.1,50.258a.627.627,0,0,1-.391,1.118Z" fill="#471c31"/>
          </g>
        </g>
        <g id="Grupo_1161356" data-name="Grupo 1161356" transform="translate(2391.158 1589)">
          <g id="Grupo_1161343" data-name="Grupo 1161343">
            <g id="Grupo_1161342" data-name="Grupo 1161342">
              <path id="Trazado_995856" data-name="Trazado 995856" d="M626.645,181.017a16.235,16.235,0,0,1-5.492,22.228l-119.678,72.2a16.19,16.19,0,0,1-16.726-27.726l119.678-72.2A16.234,16.234,0,0,1,626.645,181.017Z" fill="#dd505d"/>
            </g>
          </g>
          <g id="Grupo_1161345" data-name="Grupo 1161345">
            <g id="Grupo_1161344" data-name="Grupo 1161344">
              <path id="Trazado_995857" data-name="Trazado 995857" d="M623.54,180.249a16.235,16.235,0,0,1-5.492,22.228l-119.678,72.2a16.19,16.19,0,0,1-16.726-27.726l119.678-72.2A16.233,16.233,0,0,1,623.54,180.249Z" fill="#fff"/>
            </g>
          </g>
          <g id="Grupo_1161347" data-name="Grupo 1161347">
            <g id="Grupo_1161346" data-name="Grupo 1161346">
              <path id="Trazado_995858" data-name="Trazado 995858" d="M489.3,248.264l6.869,4.4,7.518-3.165-2.061,7.892,5.334,6.172-8.143.479-4.221,6.98-2.972-7.6-7.943-1.858,6.306-5.174Z" fill="#e69643"/>
            </g>
          </g>
          <g id="Grupo_1161349" data-name="Grupo 1161349">
            <g id="Grupo_1161348" data-name="Grupo 1161348">
              <path id="Trazado_995859" data-name="Trazado 995859" d="M516.666,231.752l6.869,4.4,7.518-3.165-2.06,7.892,5.333,6.172-8.143.479-4.221,6.979-2.972-7.6-7.943-1.858,6.306-5.174Z" fill="#e69643"/>
            </g>
          </g>
          <g id="Grupo_1161351" data-name="Grupo 1161351">
            <g id="Grupo_1161350" data-name="Grupo 1161350">
              <path id="Trazado_995860" data-name="Trazado 995860" d="M544.26,215.106l6.87,4.4,7.518-3.165-2.061,7.893,5.333,6.171-8.142.479-4.222,6.98-2.972-7.6-7.942-1.858,6.306-5.174Z" fill="#e69643"/>
            </g>
          </g>
          <g id="Grupo_1161353" data-name="Grupo 1161353">
            <g id="Grupo_1161352" data-name="Grupo 1161352">
              <path id="Trazado_995861" data-name="Trazado 995861" d="M571.63,198.6l6.87,4.4,7.518-3.165-2.061,7.892,5.334,6.172-8.143.479-4.222,6.98-2.972-7.6-7.942-1.858,6.306-5.174Z" fill="#e69643"/>
            </g>
          </g>
          <g id="Grupo_1161355" data-name="Grupo 1161355">
            <g id="Grupo_1161354" data-name="Grupo 1161354">
              <path id="Trazado_995862" data-name="Trazado 995862" d="M598.686,182.273l6.87,4.4,7.518-3.165-2.061,7.893,5.334,6.171-8.143.48-4.222,6.979-2.972-7.6-7.942-1.858,6.306-5.174Z" fill="#d3d0fc"/>
            </g>
          </g>
        </g>
        <g id="Grupo_1161363" data-name="Grupo 1161363" transform="translate(2320.158 1589)">
          <path id="Trazado_995866" data-name="Trazado 995866" d="M989.52,401.618l-5.319,14.24-5.32-14.24,5.32-14.236Z" fill="#f7e3d3"/>
          <path id="Trazado_995867" data-name="Trazado 995867" d="M961.948,362.069c-4.311,0-4.319,6.7,0,6.7S966.266,362.069,961.948,362.069Z" fill="#f7e3d3"/>
          <path id="Trazado_995868" data-name="Trazado 995868" d="M965.184,383.529c-4.312,0-4.319,6.7,0,6.7S969.5,383.529,965.184,383.529Z" fill="#f7e3d3"/>
          <path id="Trazado_995869" data-name="Trazado 995869" d="M1002.51,381.519c-2.587,0-2.591,4.02,0,4.02S1005.1,381.519,1002.51,381.519Z" fill="#f7e3d3"/>
          <path id="Trazado_995870" data-name="Trazado 995870" d="M990.661,368.7c-2.587,0-2.591,4.02,0,4.02S993.252,368.7,990.661,368.7Z" fill="#f7e3d3"/>
          <path id="Trazado_995871" data-name="Trazado 995871" d="M950.282,389.34c-2.587,0-2.591,4.02,0,4.02S952.874,389.34,950.282,389.34Z" fill="#f7e3d3"/>
          <path id="Trazado_995872" data-name="Trazado 995872" d="M944.716,355.54,940.9,365.749l-3.814-10.209,3.814-10.206Z" fill="#f7e3d3"/>
        </g>
        <g id="Grupo_1161364" data-name="Grupo 1161364" transform="translate(2580.176 1242)">
          <path id="Trazado_995873" data-name="Trazado 995873" d="M299.068,396.292c-4.312,0-4.319,6.7,0,6.7S303.387,396.292,299.068,396.292Z" fill="#f7e3d3"/>
          <path id="Trazado_995874" data-name="Trazado 995874" d="M289.382,417c-2.587,0-2.591,4.02,0,4.02S291.973,417,289.382,417Z" fill="#f7e3d3"/>
          <path id="Trazado_995875" data-name="Trazado 995875" d="M278.206,402.1c-2.587,0-2.591,4.02,0,4.02S280.8,402.1,278.206,402.1Z" fill="#f7e3d3"/>
          <path id="Trazado_995876" data-name="Trazado 995876" d="M269.264,419.24c-2.587,0-2.591,4.02,0,4.02S271.856,419.24,269.264,419.24Z" fill="#f7e3d3"/>
          <path id="Trazado_995877" data-name="Trazado 995877" d="M291.324,380.463l-3.814,10.209L283.7,380.463l3.814-10.207Z" fill="#f7e3d3"/>
        </g>
        <g id="Grupo_1161365" data-name="Grupo 1161365" transform="translate(2391.158 1589)">
          <path id="Trazado_995878" data-name="Trazado 995878" d="M602.995,131.6c-4.312,0-4.319,6.7,0,6.7S607.313,131.6,602.995,131.6Z" fill="#f7e3d3"/>
          <path id="Trazado_995879" data-name="Trazado 995879" d="M627.906,99.375c-2.587,0-2.591,4.02,0,4.02S630.5,99.375,627.906,99.375Z" fill="#f7e3d3"/>
          <path id="Trazado_995880" data-name="Trazado 995880" d="M643.6,113.086c-2.587,0-2.591,4.02,0,4.02S646.192,113.086,643.6,113.086Z" fill="#f7e3d3"/>
          <path id="Trazado_995881" data-name="Trazado 995881" d="M642.442,93.331c-2.587,0-2.591,4.02,0,4.02S645.034,93.331,642.442,93.331Z" fill="#f7e3d3"/>
          <path id="Trazado_995882" data-name="Trazado 995882" d="M631.359,134.944l-3.453,9.243-3.453-9.243,3.453-9.241Z" fill="#f7e3d3"/>
          <path id="Trazado_995883" data-name="Trazado 995883" d="M605.206,110.811l-2.724,7.291-2.724-7.291,2.724-7.29Z" fill="#f7e3d3"/>
        </g>
        <g id="Grupo_1161366" data-name="Grupo 1161366" transform="translate(2391.158 1589)">
          <path id="Trazado_995884" data-name="Trazado 995884" d="M888.641,484.078c-.095,5.4-95.319,8.106-212.689,6.047s-212.441-8.105-212.346-13.5,95.319-8.106,212.689-6.046S888.735,478.679,888.641,484.078Z" fill="#efc497"/>
        </g>
        <g id="Grupo_1161431" data-name="Grupo 1161431" transform="translate(2391.158 1589)">
          <g id="Grupo_1161384" data-name="Grupo 1161384">
            <g id="Grupo_1161375" data-name="Grupo 1161375">
              <g id="Grupo_1161368" data-name="Grupo 1161368">
                <g id="Grupo_1161367" data-name="Grupo 1161367">
                  <path id="Trazado_995885" data-name="Trazado 995885" d="M575.7,449.848,407.565,396.792a3.274,3.274,0,0,1-2.137-4.107,3.323,3.323,0,0,1,4.3-2.076l168.133,53.056a11.742,11.742,0,0,0,14.508-14.882l-17.225-53.077a3.274,3.274,0,1,1,6.227-2.022L598.6,426.763a18.288,18.288,0,0,1-22.9,23.085Z" fill="#a7a2ee"/>
                </g>
              </g>
              <g id="Grupo_1161370" data-name="Grupo 1161370">
                <g id="Grupo_1161369" data-name="Grupo 1161369">
                  <path id="Trazado_995886" data-name="Trazado 995886" d="M489.725,422.72a3.275,3.275,0,0,1-1.6-5.134L523.847,371.7a18.265,18.265,0,0,1,11.125-6.752l18.676-3.432a3.273,3.273,0,1,1,1.183,6.439l-18.676,3.432a11.735,11.735,0,0,0-7.142,4.336L493.3,421.608A3.277,3.277,0,0,1,489.725,422.72Z" fill="#a7a2ee"/>
                </g>
              </g>
              <g id="Grupo_1161372" data-name="Grupo 1161372">
                <g id="Grupo_1161371" data-name="Grupo 1161371">
                  <path id="Trazado_995887" data-name="Trazado 995887" d="M577.275,377.818c-.091-.029-.181-.062-.271-.1l-87.073-36.1a3.273,3.273,0,1,1,2.507-6.048l84.35,34.969,60.377-111.1a17.7,17.7,0,0,1,17.243-9.182l34.324,3.245a3.274,3.274,0,0,1-.617,6.519l-34.324-3.245a11.161,11.161,0,0,0-10.873,5.79L581.134,376.259A3.277,3.277,0,0,1,577.275,377.818Z" fill="#a7a2ee"/>
                </g>
              </g>
              <g id="Grupo_1161374" data-name="Grupo 1161374">
                <g id="Grupo_1161373" data-name="Grupo 1161373">
                  <path id="Trazado_995888" data-name="Trazado 995888" d="M685.15,262.48,659.028,260l.57-5.977.567-5.966,26.122,2.476a5.993,5.993,0,0,1,5.4,6.533l0,.01A5.986,5.986,0,0,1,685.15,262.48Z" fill="#dd505d"/>
                </g>
              </g>
            </g>
            <g id="Grupo_1161379" data-name="Grupo 1161379">
              <g id="Grupo_1161376" data-name="Grupo 1161376">
                <circle id="Elipse_12191" data-name="Elipse 12191" cx="17.317" cy="17.317" r="17.317" transform="translate(402.39 435.053) rotate(-70.902)" fill="#18132e"/>
              </g>
              <g id="Grupo_1161377" data-name="Grupo 1161377">
                <rect id="Rectángulo_413013" data-name="Rectángulo 413013" width="27.1" height="2.591" transform="matrix(0.954, 0.301, -0.301, 0.954, 417.203, 399.803)" fill="#a7a2ee"/>
              </g>
              <g id="Grupo_1161378" data-name="Grupo 1161378">
                <path id="Trazado_995889" data-name="Trazado 995889" d="M436.87,408.761s-7.951,16.784-13.061,15.171-1.987-19.92-1.987-19.92Z" fill="#a7a2ee"/>
              </g>
            </g>
            <g id="Grupo_1161383" data-name="Grupo 1161383">
              <g id="Grupo_1161380" data-name="Grupo 1161380">
                <circle id="Elipse_12192" data-name="Elipse 12192" cx="17.317" cy="17.317" r="17.317" transform="translate(534.091 459.696) rotate(-29.064)" fill="#18132e"/>
              </g>
              <g id="Grupo_1161381" data-name="Grupo 1161381">
                <rect id="Rectángulo_413014" data-name="Rectángulo 413014" width="27.1" height="2.591" transform="matrix(0.954, 0.301, -0.301, 0.954, 550.429, 441.839)" fill="#a7a2ee"/>
              </g>
              <g id="Grupo_1161382" data-name="Grupo 1161382">
                <path id="Trazado_995890" data-name="Trazado 995890" d="M570.1,450.8s-7.951,16.784-13.061,15.172-1.987-19.92-1.987-19.92Z" fill="#a7a2ee"/>
              </g>
            </g>
          </g>
          <g id="Grupo_1161386" data-name="Grupo 1161386">
            <g id="Grupo_1161385" data-name="Grupo 1161385">
              <path id="Trazado_995891" data-name="Trazado 995891" d="M585.928,379.4a1.777,1.777,0,0,1-.18-.066L422.965,311.853a2.181,2.181,0,0,1-1.321-2.349l12.163-78.87a2.185,2.185,0,0,1,2.572-1.81L644.65,269.1a2.184,2.184,0,0,1,1.5,3.186L588.5,378.365A2.185,2.185,0,0,1,585.928,379.4Zm-159.71-70.928L585.6,374.553l55.289-101.736L437.774,233.539Z" fill="#d3d0fc"/>
            </g>
          </g>
          <g id="Grupo_1161388" data-name="Grupo 1161388">
            <g id="Grupo_1161387" data-name="Grupo 1161387">
              <path id="Trazado_995892" data-name="Trazado 995892" d="M610.247,334.652l-.025-.008L428.814,274.982a2.183,2.183,0,0,1,1.338-4.155l.025.008L611.585,330.5a2.183,2.183,0,0,1-1.338,4.155Z" fill="#d3d0fc"/>
            </g>
          </g>
          <g id="Grupo_1161390" data-name="Grupo 1161390">
            <g id="Grupo_1161389" data-name="Grupo 1161389">
              <path id="Trazado_995893" data-name="Trazado 995893" d="M432.488,251.313a2.183,2.183,0,0,1,1.177-4.2l196.884,48.143a2.183,2.183,0,0,1-1.036,4.241L432.629,251.353C432.581,251.341,432.534,251.327,432.488,251.313Z" fill="#d3d0fc"/>
            </g>
          </g>
          <g id="Grupo_1161392" data-name="Grupo 1161392">
            <g id="Grupo_1161391" data-name="Grupo 1161391">
              <path id="Trazado_995894" data-name="Trazado 995894" d="M593.691,365.119c-.054-.017-.109-.036-.162-.058L425.256,297.12a2.183,2.183,0,1,1,1.634-4.048l168.273,67.942a2.182,2.182,0,0,1-1.472,4.105Z" fill="#d3d0fc"/>
            </g>
          </g>
          <g id="Grupo_1161411" data-name="Grupo 1161411">
            <g id="Grupo_1161394" data-name="Grupo 1161394">
              <g id="Grupo_1161393" data-name="Grupo 1161393">
                <path id="Trazado_995895" data-name="Trazado 995895" d="M586.255,378.363a1.09,1.09,0,0,1-.712-1.369l34.976-110.837a1.091,1.091,0,1,1,2.081.657L587.624,377.65A1.092,1.092,0,0,1,586.255,378.363Z" fill="#d3d0fc"/>
              </g>
            </g>
            <g id="Grupo_1161396" data-name="Grupo 1161396">
              <g id="Grupo_1161395" data-name="Grupo 1161395">
                <path id="Trazado_995896" data-name="Trazado 995896" d="M565.906,369.927a1.09,1.09,0,0,1-.712-1.369L598.807,262.04a1.091,1.091,0,1,1,2.081.657L567.275,369.215A1.091,1.091,0,0,1,565.906,369.927Z" fill="#d3d0fc"/>
              </g>
            </g>
            <g id="Grupo_1161398" data-name="Grupo 1161398">
              <g id="Grupo_1161397" data-name="Grupo 1161397">
                <path id="Trazado_995897" data-name="Trazado 995897" d="M545.559,361.491a1.09,1.09,0,0,1-.712-1.369l32.25-102.2a1.091,1.091,0,1,1,2.081.657l-32.25,102.2A1.092,1.092,0,0,1,545.559,361.491Z" fill="#d3d0fc"/>
              </g>
            </g>
            <g id="Grupo_1161400" data-name="Grupo 1161400">
              <g id="Grupo_1161399" data-name="Grupo 1161399">
                <path id="Trazado_995898" data-name="Trazado 995898" d="M525.211,353.055a1.09,1.09,0,0,1-.712-1.369L555.387,253.8a1.091,1.091,0,1,1,2.081.657L526.58,352.343A1.09,1.09,0,0,1,525.211,353.055Z" fill="#d3d0fc"/>
              </g>
            </g>
            <g id="Grupo_1161402" data-name="Grupo 1161402">
              <g id="Grupo_1161401" data-name="Grupo 1161401">
                <path id="Trazado_995899" data-name="Trazado 995899" d="M504.863,344.619a1.09,1.09,0,0,1-.712-1.369l29.525-93.563a1.091,1.091,0,1,1,2.081.657l-29.525,93.563A1.09,1.09,0,0,1,504.863,344.619Z" fill="#d3d0fc"/>
              </g>
            </g>
            <g id="Grupo_1161404" data-name="Grupo 1161404">
              <g id="Grupo_1161403" data-name="Grupo 1161403">
                <path id="Trazado_995900" data-name="Trazado 995900" d="M484.515,336.184a1.09,1.09,0,0,1-.712-1.369l28.162-89.245a1.091,1.091,0,1,1,2.081.657l-28.162,89.245A1.091,1.091,0,0,1,484.515,336.184Z" fill="#d3d0fc"/>
              </g>
            </g>
            <g id="Grupo_1161406" data-name="Grupo 1161406">
              <g id="Grupo_1161405" data-name="Grupo 1161405">
                <path id="Trazado_995901" data-name="Trazado 995901" d="M464.167,327.748a1.09,1.09,0,0,1-.712-1.369l26.8-84.927a1.091,1.091,0,1,1,2.081.657l-26.8,84.927A1.091,1.091,0,0,1,464.167,327.748Z" fill="#d3d0fc"/>
              </g>
            </g>
            <g id="Grupo_1161408" data-name="Grupo 1161408">
              <g id="Grupo_1161407" data-name="Grupo 1161407">
                <path id="Trazado_995902" data-name="Trazado 995902" d="M443.819,319.313a1.09,1.09,0,0,1-.712-1.369l25.437-80.609a1.091,1.091,0,1,1,2.081.657L445.188,318.6A1.091,1.091,0,0,1,443.819,319.313Z" fill="#d3d0fc"/>
              </g>
            </g>
            <g id="Grupo_1161410" data-name="Grupo 1161410">
              <g id="Grupo_1161409" data-name="Grupo 1161409">
                <path id="Trazado_995903" data-name="Trazado 995903" d="M423.472,310.877a1.09,1.09,0,0,1-.712-1.369l24.074-76.29a1.091,1.091,0,1,1,2.081.657l-24.074,76.291A1.091,1.091,0,0,1,423.472,310.877Z" fill="#d3d0fc"/>
              </g>
            </g>
          </g>
          <g id="Grupo_1161420" data-name="Grupo 1161420">
            <g id="Grupo_1161413" data-name="Grupo 1161413">
              <g id="Grupo_1161412" data-name="Grupo 1161412">
                <path id="Trazado_995904" data-name="Trazado 995904" d="M584.024,452.475,415.89,399.419a3.274,3.274,0,0,1-2.137-4.107,3.323,3.323,0,0,1,4.3-2.076l168.134,53.056A11.742,11.742,0,0,0,600.7,431.41L583.47,378.333a3.274,3.274,0,1,1,6.227-2.022l17.225,53.079a18.287,18.287,0,0,1-22.9,23.085Z" fill="#c2c1f1"/>
              </g>
            </g>
            <g id="Grupo_1161415" data-name="Grupo 1161415">
              <g id="Grupo_1161414" data-name="Grupo 1161414">
                <path id="Trazado_995905" data-name="Trazado 995905" d="M498.051,425.347a3.275,3.275,0,0,1-1.6-5.134l35.719-45.884a18.265,18.265,0,0,1,11.125-6.752l18.676-3.432a3.273,3.273,0,1,1,1.183,6.439l-18.676,3.432a11.735,11.735,0,0,0-7.142,4.336l-35.718,45.883A3.278,3.278,0,0,1,498.051,425.347Z" fill="#c2c1f1"/>
              </g>
            </g>
            <g id="Grupo_1161417" data-name="Grupo 1161417">
              <g id="Grupo_1161416" data-name="Grupo 1161416">
                <path id="Trazado_995906" data-name="Trazado 995906" d="M585.6,380.445c-.091-.029-.181-.062-.271-.1l-87.073-36.1a3.273,3.273,0,1,1,2.507-6.048l84.35,34.969,60.377-111.1a17.7,17.7,0,0,1,17.243-9.182l34.324,3.245a3.274,3.274,0,0,1-.617,6.519l-34.324-3.245a11.161,11.161,0,0,0-10.873,5.79L589.459,378.886A3.275,3.275,0,0,1,585.6,380.445Z" fill="#c2c1f1"/>
              </g>
            </g>
            <g id="Grupo_1161419" data-name="Grupo 1161419">
              <g id="Grupo_1161418" data-name="Grupo 1161418">
                <path id="Trazado_995907" data-name="Trazado 995907" d="M693.475,265.108l-26.121-2.476.57-5.977.567-5.966,26.121,2.476a5.993,5.993,0,0,1,5.4,6.533l0,.01A5.987,5.987,0,0,1,693.475,265.108Z" fill="#dd505d"/>
              </g>
            </g>
          </g>
          <g id="Grupo_1161425" data-name="Grupo 1161425">
            <g id="Grupo_1161421" data-name="Grupo 1161421">
              <circle id="Elipse_12193" data-name="Elipse 12193" cx="17.317" cy="17.317" r="17.317" transform="matrix(0.967, -0.255, 0.255, 0.967, 411.576, 414.671)" fill="#471c31"/>
            </g>
            <g id="Grupo_1161422" data-name="Grupo 1161422">
              <path id="Trazado_995908" data-name="Trazado 995908" d="M441.23,429.67a8.924,8.924,0,1,1-5.825-11.2A8.924,8.924,0,0,1,441.23,429.67Z" fill="#dd505d"/>
            </g>
            <g id="Grupo_1161423" data-name="Grupo 1161423">
              <rect id="Rectángulo_413015" data-name="Rectángulo 413015" width="27.1" height="2.591" transform="matrix(0.954, 0.301, -0.301, 0.954, 425.527, 402.43)" fill="#8580b3"/>
            </g>
            <g id="Grupo_1161424" data-name="Grupo 1161424">
              <path id="Trazado_995909" data-name="Trazado 995909" d="M445.2,411.388s-7.951,16.784-13.061,15.171-1.987-19.92-1.987-19.92Z" fill="#d3d0fc"/>
            </g>
          </g>
          <g id="Grupo_1161430" data-name="Grupo 1161430">
            <g id="Grupo_1161426" data-name="Grupo 1161426">
              <path id="Trazado_995910" data-name="Trazado 995910" d="M582.465,474.238a17.317,17.317,0,1,1-11.3-21.725A17.317,17.317,0,0,1,582.465,474.238Z" fill="#471c31"/>
            </g>
            <g id="Grupo_1161427" data-name="Grupo 1161427">
              <path id="Trazado_995911" data-name="Trazado 995911" d="M574.461,471.712a8.924,8.924,0,1,1-5.825-11.2A8.924,8.924,0,0,1,574.461,471.712Z" fill="#dd505d"/>
            </g>
            <g id="Grupo_1161428" data-name="Grupo 1161428">
              <rect id="Rectángulo_413016" data-name="Rectángulo 413016" width="27.1" height="2.591" transform="matrix(0.954, 0.301, -0.301, 0.954, 558.754, 444.465)" fill="#8580b3"/>
            </g>
            <g id="Grupo_1161429" data-name="Grupo 1161429">
              <path id="Trazado_995912" data-name="Trazado 995912" d="M578.427,453.43s-7.951,16.784-13.061,15.172-1.987-19.92-1.987-19.92Z" fill="#d3d0fc"/>
            </g>
          </g>
        </g>
        <g id="Grupo_1161514" data-name="Grupo 1161514" transform="translate(2391.158 1589)">
          <g id="Grupo_1161455" data-name="Grupo 1161455">
            <g id="Grupo_1161432" data-name="Grupo 1161432">
              <path id="Trazado_995913" data-name="Trazado 995913" d="M964.1,224.8l23.239,21.211c-8.63,9.446-18.976.1-18.976.1L948.2,252.32l-14.835-19.509,17.963-19.671,1.93,1.759-11.138,17.046Z" fill="#471c31"/>
            </g>
            <g id="Grupo_1161433" data-name="Grupo 1161433">
              <path id="Trazado_995914" data-name="Trazado 995914" d="M948.2,252.319l.317.419-69.369,66.715a23.957,23.957,0,0,1-35.98-3.16L810.2,271.9l-28.844-38.835L752.815,237.6c-2.02-7.32-3.759-13.956-5.067-19.407-1.388-5.787-2.468-10.924-3.331-15.48,7.365.9,29.767,1.52,57.151-18.263l4.737,7.782s19.074.31,30.45,21.231c11.092,20.42,34.278,65.207,35.371,67.318-.433-1.027-3.434-12.536,60.738-48.627l.5.655Z" fill="#dd505d"/>
            </g>
            <g id="Grupo_1161434" data-name="Grupo 1161434">
              <path id="Trazado_995915" data-name="Trazado 995915" d="M839.037,440.356l10.169,30.627-2.477.816-9.437-18.039L832.8,476.428l-29.86,9.92c-4.031-12.138,9.171-16.611,9.171-16.611l4.829-22.527C821.113,447.96,831.323,448.712,839.037,440.356Z" fill="#471c31"/>
            </g>
            <g id="Grupo_1161435" data-name="Grupo 1161435">
              <path id="Trazado_995916" data-name="Trazado 995916" d="M839.037,440.356c-7.714,8.356-17.924,7.6-22.093,6.854-1.2-.229-1.9-.438-1.9-.438l-32.375-109.94s-18.92-59.638-29.852-99.231l28.538-4.534L810.2,271.9l7.546,53.876c10.627-3.239,22.246,113.492,22.246,113.492C839.674,439.644,839.361,440.007,839.037,440.356Z" fill="#c0354f"/>
            </g>
            <g id="Grupo_1161454" data-name="Grupo 1161454">
              <g id="Grupo_1161437" data-name="Grupo 1161437" clip-path="url(#clip-path-2)">
                <g id="Grupo_1161436" data-name="Grupo 1161436">
                  <path id="Trazado_995917" data-name="Trazado 995917" d="M846,225.483A29.9,29.9,0,0,1,819.1,189.814l1.192.238a28.715,28.715,0,0,0,30.087,34.271l.081,1.214A28.817,28.817,0,0,1,846,225.483Z" fill="#fff"/>
                </g>
              </g>
              <g id="Grupo_1161439" data-name="Grupo 1161439" clip-path="url(#clip-path-2)">
                <g id="Grupo_1161438" data-name="Grupo 1161438">
                  <path id="Trazado_995919" data-name="Trazado 995919" d="M818.87,285.432l-1.018-.663a26.989,26.989,0,0,0,4.031-19.914,23.266,23.266,0,0,0-12.052-16.022,20.164,20.164,0,0,0-19.727,1.012l-.671-1.013a21.387,21.387,0,0,1,20.936-1.087,24.5,24.5,0,0,1,12.7,16.869A28.2,28.2,0,0,1,818.87,285.432Z" fill="#fff"/>
                </g>
              </g>
              <g id="Grupo_1161441" data-name="Grupo 1161441" clip-path="url(#clip-path-2)">
                <g id="Grupo_1161440" data-name="Grupo 1161440">
                  <path id="Trazado_995921" data-name="Trazado 995921" d="M857.813,275.872c-7.922-.7-15.062-7.7-15.655-15.674-.629-8.447,6.178-16.9,14.565-18.086l.17,1.205c-7.787,1.1-14.107,8.948-13.524,16.792s7.994,14.679,15.858,14.607,15.167-7,15.627-14.853l1.214.07c-.5,8.457-8.361,15.933-16.831,16Q858.523,275.934,857.813,275.872Z" fill="#fff"/>
                </g>
              </g>
              <g id="Grupo_1161443" data-name="Grupo 1161443" clip-path="url(#clip-path-2)">
                <g id="Grupo_1161442" data-name="Grupo 1161442">
                  <path id="Trazado_995923" data-name="Trazado 995923" d="M871.331,330.25l-1.108-.5A20.032,20.032,0,0,0,842,304.112c-3.009,1.727-6.149,4.946-5.935,8.806l-1.214.068c-.244-4.412,3.22-8.022,6.543-9.929a21.249,21.249,0,0,1,29.933,27.193Z" fill="#fff"/>
                </g>
              </g>
              <g id="Grupo_1161445" data-name="Grupo 1161445" clip-path="url(#clip-path-2)">
                <g id="Grupo_1161444" data-name="Grupo 1161444">
                  <path id="Trazado_995925" data-name="Trazado 995925" d="M890.77,312.144a20.143,20.143,0,0,1,31.68-23.607l-.813.9a18.928,18.928,0,0,0-29.769,22.182Z" fill="#fff"/>
                </g>
              </g>
              <g id="Grupo_1161447" data-name="Grupo 1161447" clip-path="url(#clip-path-2)">
                <g id="Grupo_1161446" data-name="Grupo 1161446">
                  <path id="Trazado_995927" data-name="Trazado 995927" d="M895.341,263.419a19.464,19.464,0,0,1-11.813-5.242l.846-.873a18.228,18.228,0,0,0,29.505-20.115l1.122-.467a20.025,20.025,0,0,1-6.989,23.558A19.484,19.484,0,0,1,895.341,263.419Z" fill="#fff"/>
                </g>
              </g>
              <g id="Grupo_1161449" data-name="Grupo 1161449" clip-path="url(#clip-path-2)">
                <g id="Grupo_1161448" data-name="Grupo 1161448">
                  <path id="Trazado_995929" data-name="Trazado 995929" d="M782.712,221.388A16.743,16.743,0,0,1,774.9,218.7c-6.194-4.131-8.908-12.648-6.18-19.391l1.128.456c-2.52,6.228-.005,14.1,5.727,17.922a16.7,16.7,0,0,0,19.1-.933,18.518,18.518,0,0,0,6.2-18.393,20.419,20.419,0,0,0-13.531-14.289l.37-1.159a21.667,21.667,0,0,1,14.344,15.165,19.5,19.5,0,0,1-6.632,19.632A18.123,18.123,0,0,1,782.712,221.388Z" fill="#fff"/>
                </g>
              </g>
              <g id="Grupo_1161451" data-name="Grupo 1161451" clip-path="url(#clip-path-2)">
                <g id="Grupo_1161450" data-name="Grupo 1161450">
                  <path id="Trazado_995931" data-name="Trazado 995931" d="M940.461,273.711a27.142,27.142,0,0,1,4.654-36.974l.773.939a25.922,25.922,0,0,0-4.446,35.316Z" fill="#fff"/>
                </g>
              </g>
              <g id="Grupo_1161453" data-name="Grupo 1161453" clip-path="url(#clip-path-2)">
                <g id="Grupo_1161452" data-name="Grupo 1161452">
                  <path id="Trazado_995933" data-name="Trazado 995933" d="M769.438,243.019a22.2,22.2,0,0,0-26.469-21.425l-.234-1.194A23.415,23.415,0,0,1,770.653,243Z" fill="#fff"/>
                </g>
              </g>
            </g>
          </g>
          <g id="Grupo_1161456" data-name="Grupo 1161456">
            <path id="Trazado_995935" data-name="Trazado 995935" d="M784.125,119.756l0-.024-.011-3.028a21.216,21.216,0,0,1,19.838,13.084l-6.025,48.662,3.639,6c-27.383,19.783-49.786,19.164-57.151,18.263a22.137,22.137,0,0,1-2.562-.424c-.783-11.2-.205-30.678-.205-30.678a36.206,36.206,0,0,1-5.014-7,37.674,37.674,0,0,1-2.907-6.545,31.5,31.5,0,0,1-1.191-4.842c-1.789-10.729,15.593-32.235,16.087-32.85l.013-.011c2.315-.5,4.045-.738,4.045-.738,0,.049-.872,9.918,7.847,12.734S782.923,130.219,784.125,119.756Z" fill="#fff"/>
          </g>
          <g id="Grupo_1161461" data-name="Grupo 1161461">
            <g id="Grupo_1161457" data-name="Grupo 1161457">
              <path id="Trazado_995936" data-name="Trazado 995936" d="M733.73,158.065a37.674,37.674,0,0,0,2.907,6.545l-3.759,1.361c-.2-.909-.434-1.845-.68-2.77-.375-1.413-.784-2.84-1.243-4.261a176.133,176.133,0,0,0-10.13-24.362c7.464-4.448,16.728-9.932,19.372-11.381a33.286,33.286,0,0,1,8.429-2.824c-.494.615-17.876,22.12-16.087,32.85A31.5,31.5,0,0,0,733.73,158.065Z" fill="#dddafd"/>
            </g>
            <g id="Grupo_1161458" data-name="Grupo 1161458">
              <path id="Trazado_995937" data-name="Trazado 995937" d="M732.2,163.2l-27.4,12.813a13.672,13.672,0,0,1-19.639-11.9L682.636,94.2l18.591-3.041,9.4,49.513s4.591-2.752,10.2-6.1a176.133,176.133,0,0,1,10.13,24.362C731.413,160.361,731.823,161.789,732.2,163.2Z" fill="#e89f9f"/>
            </g>
            <g id="Grupo_1161459" data-name="Grupo 1161459">
              <path id="Trazado_995938" data-name="Trazado 995938" d="M701.306,176.886a2.139,2.139,0,0,1-.037.277,13.744,13.744,0,0,1-15.707-10.14,10.426,10.426,0,0,1,15.744,9.863Z" fill="#e06e7b"/>
            </g>
            <g id="Grupo_1161460" data-name="Grupo 1161460">
              <path id="Trazado_995939" data-name="Trazado 995939" d="M711.212,156.978a.6.6,0,0,1-.1-.008.624.624,0,0,1-.513-.718,37.6,37.6,0,0,0-.617-15.2.624.624,0,0,1,1.21-.3,38.83,38.83,0,0,1,.638,15.7A.623.623,0,0,1,711.212,156.978Z" fill="#471c31"/>
            </g>
          </g>
          <g id="Grupo_1161485" data-name="Grupo 1161485">
            <g id="Grupo_1161462" data-name="Grupo 1161462">
              <path id="Trazado_995940" data-name="Trazado 995940" d="M793.621,80.619a4.648,4.648,0,0,1,.32.517,7.476,7.476,0,0,1,.779,3.987,9.375,9.375,0,0,1-3.951,6.934,1.828,1.828,0,0,1-.258.16,9.311,9.311,0,0,1-6.447,1.4,20.6,20.6,0,0,1-.737,3.742c-3.473,12.115-16.186,14.118-20.521,13.731a16.332,16.332,0,0,1-6.044-1.894,24.779,24.779,0,0,1-8.924-8.461,19.517,19.517,0,0,1-1.873-18.548,16.056,16.056,0,0,0,.894-6.328,1.534,1.534,0,0,0-.016-.233c-.019-.2-.027-.381-.034-.577s-.023-.295-.023-.295a23.871,23.871,0,0,1,.078-2.654c.024-.266.049-.545.084-.81a21.492,21.492,0,0,1,1.037-4.375c0-.024.015-.035.016-.047A22.3,22.3,0,0,1,758.73,56.732s4.024,19.057,30.059,21.782a4.059,4.059,0,0,1,2.058.049A5.079,5.079,0,0,1,793.621,80.619Z" fill="#e89f9f"/>
            </g>
            <g id="Grupo_1161465" data-name="Grupo 1161465">
              <g id="Grupo_1161463" data-name="Grupo 1161463">
                <path id="Trazado_995941" data-name="Trazado 995941" d="M784.083,102.714l.034,13.99.011,3.028,0,.024c-1.2,10.462-14.862,15.42-23.594,12.6s-7.852-12.686-7.847-12.734l.964-2.465c29.687,5.431,29.679-19.8,29.679-19.8a20.687,20.687,0,0,0,.737-3.742Z" fill="#e89f9f"/>
              </g>
              <g id="Grupo_1161464" data-name="Grupo 1161464">
                <path id="Trazado_995942" data-name="Trazado 995942" d="M783.327,97.362s.008,25.229-29.679,19.8l3.115-7.961a16.34,16.34,0,0,0,6.044,1.894C767.141,111.48,779.854,109.477,783.327,97.362Z" fill="#e06e7b"/>
              </g>
            </g>
            <g id="Grupo_1161475" data-name="Grupo 1161475">
              <g id="Grupo_1161466" data-name="Grupo 1161466">
                <path id="Trazado_995943" data-name="Trazado 995943" d="M790.511,92.217h0a47.861,47.861,0,0,1-6.429,10.5l-.019-9.1A9.312,9.312,0,0,0,790.511,92.217Z" fill="#471c31"/>
              </g>
              <g id="Grupo_1161467" data-name="Grupo 1161467">
                <path id="Trazado_995944" data-name="Trazado 995944" d="M861.984,99.617A31.223,31.223,0,0,1,810.4,98.165c-3.438-5.384-5.148-11.664-7.372-17.647-2.134-5.768-4.986-11.564-9.8-15.337A24.483,24.483,0,0,0,791,59.966c-.127-.219-.255-.425-.4-.633l.207-.128c2.377-4.072,7.533-5.907,12.216-5.452s8.986,2.84,12.818,5.586,7.369,5.918,11.428,8.306a35.72,35.72,0,0,0,19.094,4.876c3.732-.106,7.566-.8,11.129.3,5.047,1.573,8.521,6.68,9.064,11.952S865.078,95.316,861.984,99.617Z" fill="#471c31"/>
              </g>
              <g id="Grupo_1161468" data-name="Grupo 1161468">
                <path id="Trazado_995945" data-name="Trazado 995945" d="M793.621,80.619a5.063,5.063,0,0,0-2.771-2.053,4.048,4.048,0,0,0-2.058-.049c-26.035-2.725-30.059-21.782-30.059-21.782A22.3,22.3,0,0,0,748,66.873c0,.012-.014.023-.016.047a21.388,21.388,0,0,0-1.037,4.375h0a36.339,36.339,0,0,1-2.714-9.115c-.269-2.184-.191-4.7,1.464-6.155a7.547,7.547,0,0,1,2.84-1.321q5.723-1.76,11.431-3.5c.578-.18,1.154-.349,1.732-.529,3.912-1.164,7.908-2.175,11.95-1.924,6.919.422,13.313,4.69,16.949,10.58.14.208.268.414.4.633a24.43,24.43,0,0,1,2.232,5.215A29.739,29.739,0,0,1,793.621,80.619Z" fill="#471c31"/>
              </g>
              <g id="Grupo_1161469" data-name="Grupo 1161469">
                <path id="Trazado_995946" data-name="Trazado 995946" d="M828.922,120.213a21.232,21.232,0,0,1-7.372-1.306c-6.008-2.224-11.33-7.437-14.6-14.3-3.2-6.706-4.24-14.221-4.794-20.02l-.127-1.368a40.33,40.33,0,0,0-1.777-10.052c-1.434-3.964-4.175-6.934-7.332-7.943a.624.624,0,0,1,.38-1.188c3.575,1.143,6.538,4.316,8.126,8.707A41.242,41.242,0,0,1,803.271,83.1l.126,1.363c.544,5.7,1.568,13.072,4.679,19.6,3.133,6.575,8.2,11.557,13.907,13.669A20.208,20.208,0,0,0,849.2,98.266a.625.625,0,0,1,.608-.64h.016a.624.624,0,0,1,.624.608,21.4,21.4,0,0,1-21.525,21.979Z" fill="#471c31"/>
              </g>
              <g id="Grupo_1161470" data-name="Grupo 1161470">
                <path id="Trazado_995947" data-name="Trazado 995947" d="M854.366,82.671l-.059,0a39.487,39.487,0,0,1-25.253-12.591c-1.4-1.535-2.686-3.2-3.932-4.81a46.468,46.468,0,0,0-6.624-7.4,23.1,23.1,0,0,0-20.04-4.609,13.765,13.765,0,0,0-5.438,2.509,7.735,7.735,0,0,0-2.928,4.879.625.625,0,0,1-1.239-.161,8.987,8.987,0,0,1,3.383-5.69,14.976,14.976,0,0,1,5.921-2.749A24.371,24.371,0,0,1,819.3,56.91a47.267,47.267,0,0,1,6.811,7.594c1.232,1.591,2.505,3.236,3.868,4.734a38.223,38.223,0,0,0,24.446,12.188.624.624,0,0,1-.057,1.245Z" fill="#471c31"/>
              </g>
              <g id="Grupo_1161471" data-name="Grupo 1161471">
                <path id="Trazado_995948" data-name="Trazado 995948" d="M789.5,56.046a.633.633,0,0,1-.32-.088.624.624,0,0,1-.215-.856,25.262,25.262,0,0,1,19.644-12.056.632.632,0,0,1,.666.58.625.625,0,0,1-.58.666,23.991,23.991,0,0,0-18.659,11.451A.624.624,0,0,1,789.5,56.046Z" fill="#471c31"/>
              </g>
              <g id="Grupo_1161472" data-name="Grupo 1161472">
                <path id="Trazado_995949" data-name="Trazado 995949" d="M787.794,54.149a.646.646,0,0,1-.137-.015.623.623,0,0,1-.472-.745A27.214,27.214,0,0,1,797.96,37.262a.625.625,0,0,1,.718,1.022A25.959,25.959,0,0,0,788.4,53.663.624.624,0,0,1,787.794,54.149Z" fill="#471c31"/>
              </g>
              <g id="Grupo_1161473" data-name="Grupo 1161473">
                <path id="Trazado_995950" data-name="Trazado 995950" d="M837.3,106.242a21.542,21.542,0,0,1-9.316-2.044c-5.091-2.439-9.44-7.064-12.928-13.747a107.852,107.852,0,0,1-4.562-10.5c-.887-2.258-1.8-4.593-2.806-6.837-1.3-2.924-2.858-5.919-5.362-8.012-2.18-1.822-5.7-3.064-8.66-1.728a.625.625,0,0,1-.515-1.138c3.034-1.373,6.949-.622,9.975,1.907,2.7,2.256,4.335,5.4,5.7,8.462,1.013,2.27,1.935,4.618,2.828,6.889a106.784,106.784,0,0,0,4.507,10.375c3.36,6.439,7.519,10.88,12.361,13.2,6.747,3.232,15.471,2.338,22.226-2.278,6.074-4.151,10.608-11.215,12.439-19.382a.624.624,0,1,1,1.217.273c-1.9,8.471-6.62,15.812-12.953,20.139A25.262,25.262,0,0,1,837.3,106.242Z" fill="#6d3855"/>
              </g>
              <g id="Grupo_1161474" data-name="Grupo 1161474">
                <path id="Trazado_995951" data-name="Trazado 995951" d="M838.857,82.937a22.926,22.926,0,0,1-15.009-5.627,42.708,42.708,0,0,1-6.6-7.911L817,69.047a48.357,48.357,0,0,0-6.024-7.486,15.585,15.585,0,0,0-8.541-4.414,8.931,8.931,0,0,0-8.4,3.374.623.623,0,0,1-1.023-.713,10.184,10.184,0,0,1,9.569-3.9,16.823,16.823,0,0,1,9.253,4.748,49.363,49.363,0,0,1,6.186,7.675l.247.352a41.7,41.7,0,0,0,6.405,7.688,21.5,21.5,0,0,0,30.249-1.925.624.624,0,0,1,.935.827,22.912,22.912,0,0,1-15.583,7.619Q839.565,82.938,838.857,82.937Z" fill="#6d3855"/>
              </g>
            </g>
            <g id="Grupo_1161476" data-name="Grupo 1161476">
              <path id="Trazado_995952" data-name="Trazado 995952" d="M748.822,77.241a2.769,2.769,0,1,0,3.007-2.968A3.008,3.008,0,0,0,748.822,77.241Z" fill="#471c31"/>
            </g>
            <g id="Grupo_1161477" data-name="Grupo 1161477">
              <path id="Trazado_995953" data-name="Trazado 995953" d="M769.218,79.06a2.769,2.769,0,1,0,3.007-2.968A3.008,3.008,0,0,0,769.218,79.06Z" fill="#471c31"/>
            </g>
            <g id="Grupo_1161478" data-name="Grupo 1161478">
              <path id="Trazado_995954" data-name="Trazado 995954" d="M769.4,72.049a1.671,1.671,0,0,1,1.049-.768A9.668,9.668,0,0,1,772,71.174a9.926,9.926,0,0,1,1.468.179,8.263,8.263,0,0,1,2.454.91,1.725,1.725,0,1,1-1.812,2.935c-.069-.038-.141-.071-.211-.106a5.351,5.351,0,0,0-2.926-.432l.223-.025a1.812,1.812,0,0,1-1.232-.214,1.72,1.72,0,0,1-.561-2.372Z" fill="#471c31"/>
            </g>
            <g id="Grupo_1161479" data-name="Grupo 1161479">
              <path id="Trazado_995955" data-name="Trazado 995955" d="M756.161,70.868a1.663,1.663,0,0,0-.9-.941,9.656,9.656,0,0,0-1.5-.379,9.858,9.858,0,0,0-1.477-.083,8.27,8.27,0,0,0-2.577.461,1.725,1.725,0,0,0,1.264,3.21c.075-.025.151-.045.227-.067a7.015,7.015,0,0,1,1.4-.164,6.921,6.921,0,0,1,1.557.257l-.215-.064a1.815,1.815,0,0,0,1.25.008,1.726,1.726,0,0,0,.973-2.238Z" fill="#471c31"/>
            </g>
            <g id="Grupo_1161480" data-name="Grupo 1161480">
              <path id="Trazado_995956" data-name="Trazado 995956" d="M771.543,89.03a4.369,4.369,0,1,0,4.74-3.964A4.369,4.369,0,0,0,771.543,89.03Z" fill="#e06e7b"/>
            </g>
            <g id="Grupo_1161481" data-name="Grupo 1161481">
              <path id="Trazado_995957" data-name="Trazado 995957" d="M765.939,97.232c-.239,2.676-2.089,4.7-4.132,4.516s-3.506-2.5-3.267-5.176,2.089-4.7,4.132-4.516S766.177,94.555,765.939,97.232Z" fill="#e06e7b"/>
            </g>
            <g id="Grupo_1161482" data-name="Grupo 1161482">
              <path id="Trazado_995958" data-name="Trazado 995958" d="M757.533,97.392a4.863,4.863,0,0,0,1.372,1.421,7.3,7.3,0,0,0,8.235.085,4.422,4.422,0,0,0,1.611-1.821,2.428,2.428,0,0,0-.24-2.353,2.6,2.6,0,0,0-1.922-.854,6.124,6.124,0,0,0-1.21.125c-.6.046-1.213.158-1.818.221a10.373,10.373,0,0,1-3.121-.112,4.035,4.035,0,0,0-2.039-.1,1.974,1.974,0,0,0-1.229,1.456A2.782,2.782,0,0,0,757.533,97.392Z" fill="#fff"/>
            </g>
            <g id="Grupo_1161483" data-name="Grupo 1161483">
              <path id="Trazado_995959" data-name="Trazado 995959" d="M763.96,88.848a2.368,2.368,0,0,1-1.569.961,4.009,4.009,0,0,1-2.082-.441,6.079,6.079,0,0,1-3.179-2.44,3.331,3.331,0,0,1,.434-3.694,4.01,4.01,0,0,1,6.06.158,3.631,3.631,0,0,1,.756,1.795A4.248,4.248,0,0,1,763.96,88.848Z" fill="#e27d8a"/>
            </g>
            <g id="Grupo_1161484" data-name="Grupo 1161484">
              <path id="Trazado_995960" data-name="Trazado 995960" d="M762.04,90.489a.664.664,0,0,1-.108-.009,8.352,8.352,0,0,1-5.361-3.455,2.6,2.6,0,0,1,.094-3.069,16.7,16.7,0,0,0,3.486-8.992.624.624,0,0,1,1.244.09,17.952,17.952,0,0,1-3.748,9.672,1.36,1.36,0,0,0-.052,1.585,7.092,7.092,0,0,0,4.551,2.938.625.625,0,0,1-.106,1.24Z" fill="#471c31"/>
            </g>
            <path id="Trazado_995961" data-name="Trazado 995961" d="M792.205,81.926a16.933,16.933,0,0,0-6.709,8.448c-.274.757.932,1.083,1.2.332a15.529,15.529,0,0,1,6.135-7.7C793.507,82.569,792.882,81.488,792.205,81.926Z" fill="#471c31"/>
          </g>
          <g id="Grupo_1161493" data-name="Grupo 1161493">
            <g id="Grupo_1161486" data-name="Grupo 1161486">
              <path id="Trazado_995962" data-name="Trazado 995962" d="M693.2,263.524c10.05,5.109,12.19-8.682,12.19-8.682,4.608-2.207,6.978-10.171,6.978-10.171l-7.349-16.793s-20.631,7.239-21.986,9.436-8.973,11.527-9.223,13.371,3.413,9.918,5.506,11.179,9.043.694,9.043.694L686.7,246.88l10.993,4.183Z" fill="#e89f9f"/>
            </g>
            <g id="Grupo_1161487" data-name="Grupo 1161487">
              <path id="Trazado_995963" data-name="Trazado 995963" d="M806.406,137.207a17.31,17.31,0,0,1-.756,3.692l-7.391,22.934s-.382.039-1.079.05c-3.962.086-18-.482-28.643-11.66-.4-.426-.8-.865-1.2-1.328l5.948-20.023a16.946,16.946,0,0,1,33.121,6.335Z" fill="#dddafd"/>
            </g>
            <g id="Grupo_1161488" data-name="Grupo 1161488">
              <path id="Trazado_995964" data-name="Trazado 995964" d="M797.179,163.883l-14.286,36.33-2.827,7.205a17.079,17.079,0,0,1-7.636,8.705l-.944.453L710.957,245.34,700.9,230.553l53.265-34.636,14.37-43.7C779.182,163.4,793.216,163.969,797.179,163.883Z" fill="#e89f9f"/>
            </g>
            <g id="Grupo_1161490" data-name="Grupo 1161490">
              <g id="Grupo_1161489" data-name="Grupo 1161489">
                <path id="Trazado_995965" data-name="Trazado 995965" d="M782.892,200.213l-2.827,7.205a17.079,17.079,0,0,1-7.636,8.705l-.944.453a10.424,10.424,0,0,1,9.106-16.837A10.623,10.623,0,0,1,782.892,200.213Z" fill="#e06e7b"/>
              </g>
            </g>
            <g id="Grupo_1161491" data-name="Grupo 1161491">
              <path id="Trazado_995966" data-name="Trazado 995966" d="M764.05,201.089a.625.625,0,0,1-.258-.056l-9.21-4.185a.624.624,0,0,1,.516-1.136l9.21,4.185a.624.624,0,0,1-.258,1.192Z" fill="#471c31"/>
            </g>
            <g id="Grupo_1161492" data-name="Grupo 1161492">
              <path id="Trazado_995967" data-name="Trazado 995967" d="M701.86,254.527a9.959,9.959,0,1,1-9.035-10.805A9.959,9.959,0,0,1,701.86,254.527Z" fill="#c0354f"/>
            </g>
          </g>
          <g id="Grupo_1161496" data-name="Grupo 1161496">
            <g id="Grupo_1161494" data-name="Grupo 1161494">
              <path id="Trazado_995968" data-name="Trazado 995968" d="M700.884,89.41v.007a8.254,8.254,0,0,1-.033,6.95,13.3,13.3,0,0,1-5.9,5.882,15.377,15.377,0,0,1-6.457,1.961,10.418,10.418,0,0,1-6.46-1.687,16.093,16.093,0,0,1-4.346-5.167,80.661,80.661,0,0,1-4.746-9.074c.254.211.523.4.793.588a6.4,6.4,0,0,0,2.919,1.19,3.249,3.249,0,0,0,2.87-1.072,2.3,2.3,0,0,0,.345-2.219,3.15,3.15,0,0,0,3.69.7,3.106,3.106,0,0,0,1.1-4.22,2.759,2.759,0,0,0,4.071-.357,4.489,4.489,0,0,0,.278-4.447,13.165,13.165,0,0,0-2.813-3.71,2.681,2.681,0,0,0,3.349-.8c-.165-.343-.309-.684-.445-1.039a11.292,11.292,0,0,1-.709-4.738,8.579,8.579,0,0,1,.53-2.5,1.587,1.587,0,0,1,2.678-.488q6.031,6.879,12.049,13.764a4.019,4.019,0,0,1,1.236,2.277,4.007,4.007,0,0,1-.663,2.03C703.109,85.3,702,87.357,700.884,89.41Z" fill="#e89f9f"/>
            </g>
            <g id="Grupo_1161495" data-name="Grupo 1161495">
              <path id="Trazado_995969" data-name="Trazado 995969" d="M684.085,91.345a.612.612,0,0,1-.187-.029.624.624,0,0,1-.409-.782,23.908,23.908,0,0,1,8.463-11.468c-4.76-5.542-4.207-10.757-4.181-10.983a.631.631,0,0,1,.691-.546.624.624,0,0,1,.548.691c-.005.051-.527,5.234,4.333,10.525a.625.625,0,0,1-.121.947c-.063.041-6.333,4.159-8.543,11.207A.619.619,0,0,1,684.085,91.345Z" fill="#471c31"/>
            </g>
          </g>
          <g id="Grupo_1161508" data-name="Grupo 1161508">
            <g id="Grupo_1161497" data-name="Grupo 1161497">
              <path id="Trazado_995970" data-name="Trazado 995970" d="M704.764,73.663c.457.14,7.762,2.3,11.787.162a15.217,15.217,0,0,0,8.18-13.912c-.089-4.557-5.528-9.89-5.873-10.221.23.347,3.856,6.15-1.494,15.25S705.179,73.7,704.764,73.663Z" fill="#fff"/>
            </g>
            <g id="Grupo_1161498" data-name="Grupo 1161498">
              <path id="Trazado_995971" data-name="Trazado 995971" d="M684.023,66.2l.006-.01s10.629-2.843,15.765-11.578,2.452-19.405,2.452-19.405a132.844,132.844,0,0,1-24.09-23.419c-.855,7.2-6.116,17.94-9.859,24.305S657.715,52.3,651.83,56.539A132.881,132.881,0,0,1,684.023,66.2Z" fill="#fff"/>
            </g>
            <g id="Grupo_1161499" data-name="Grupo 1161499">
              <path id="Trazado_995972" data-name="Trazado 995972" d="M699.794,54.611c-5.136,8.735-15.765,11.578-15.765,11.578l-.006.01c.852.366,1.678.73,2.489,1.1q1.5.657,2.888,1.293c5.995,2.741,10.666,5.068,12.877,6.179.909.453,1.393.711,1.393.711a.036.036,0,0,0,.026,0c.478.038,8.344.447,14.512-10.044s1.987-17.166,1.721-17.565a.036.036,0,0,0-.014-.022S712,42.63,702.247,35.207C702.245,35.206,704.929,45.877,699.794,54.611Z" fill="#c0354f"/>
            </g>
            <g id="Grupo_1161500" data-name="Grupo 1161500">
              <path id="Trazado_995973" data-name="Trazado 995973" d="M677.365,87.348l4.1,7.92c14.367-6.144,20.809-20.5,20.809-20.5-2.211-1.111-6.882-3.438-12.877-6.179a31.147,31.147,0,0,1-4.939,10.445C680.326,85.1,677.365,87.348,677.365,87.348Z" fill="#fff"/>
            </g>
            <g id="Grupo_1161501" data-name="Grupo 1161501">
              <path id="Trazado_995974" data-name="Trazado 995974" d="M680.631,73.784s1.239,4.052,3.82,5.245l.01.006A31.187,31.187,0,0,0,689.4,68.59q-1.391-.634-2.888-1.293Z" fill="#dddafd"/>
            </g>
            <g id="Grupo_1161502" data-name="Grupo 1161502">
              <path id="Trazado_995975" data-name="Trazado 995975" d="M650.337,25.533c-5.407,9.2-13.226,27.986-4.135,33.331,2.787,1.639,5.91,1.272,9.049-.314,7.1-3.523,14.318-13.131,18.066-19.506s8.625-17.329,8.264-25.243c-.134-3.524-1.327-6.441-4.128-8.088C668.361.368,655.744,16.336,650.337,25.533Zm4.47,2.628c9.144-15.552,18.772-20.672,20.874-19.436a1.538,1.538,0,0,1,.532.6,4.281,4.281,0,0,1,.4,1.088c.678,2.8.174,8.708-3.1,16.671a71.881,71.881,0,0,1-4.666,9.335,71.919,71.919,0,0,1-5.888,8.616c-5.917,7.438-11.3,10.7-13.872,10.974a1.756,1.756,0,0,1-1.112-.154C645.871,54.616,645.664,43.713,654.807,28.161Z" fill="#c0354f"/>
            </g>
            <g id="Grupo_1161503" data-name="Grupo 1161503">
              <path id="Trazado_995976" data-name="Trazado 995976" d="M661.2,31.92a50.893,50.893,0,0,0-2.842,5.652c-.474,1.113-.031,2.576,1.143,3.82l3.455,3.639a71.885,71.885,0,0,0,5.888-8.616,72.014,72.014,0,0,0,4.666-9.335l-4.86-1.25c-1.658-.421-3.151-.1-3.894.859A50.922,50.922,0,0,0,661.2,31.92Z" fill="#c0354f"/>
            </g>
            <g id="Grupo_1161504" data-name="Grupo 1161504">
              <path id="Trazado_995977" data-name="Trazado 995977" d="M654.807,28.161c-9.144,15.552-8.936,26.455-6.835,27.69a1.75,1.75,0,0,0,1.112.154c2.567-.274,7.955-3.537,13.872-10.974L659.5,41.392c-1.174-1.244-1.617-2.707-1.143-3.82a48.229,48.229,0,0,1,6.4-10.883c.742-.955,2.236-1.279,3.894-.859l4.86,1.25c3.278-7.962,3.782-13.867,3.1-16.671a4.281,4.281,0,0,0-.4-1.088,1.538,1.538,0,0,0-.532-.6C673.58,7.489,663.951,12.61,654.807,28.161Z" fill="#dddafd"/>
            </g>
            <g id="Grupo_1161505" data-name="Grupo 1161505">
              <path id="Trazado_995978" data-name="Trazado 995978" d="M659.8,40.636a.625.625,0,0,1-.347-1.144,15.008,15.008,0,0,0,6.512-12.143.625.625,0,0,1,.624-.623h0a.624.624,0,0,1,.623.625,16.068,16.068,0,0,1-7.068,13.179A.616.616,0,0,1,659.8,40.636Z" fill="#471c31"/>
            </g>
            <g id="Grupo_1161506" data-name="Grupo 1161506">
              <path id="Trazado_995979" data-name="Trazado 995979" d="M662.875,45.814a.625.625,0,0,1-.478-1.025,64.211,64.211,0,0,0,10.612-17.944.624.624,0,1,1,1.163.453A65.421,65.421,0,0,1,663.354,45.59.62.62,0,0,1,662.875,45.814Z" fill="#471c31"/>
            </g>
            <g id="Grupo_1161507" data-name="Grupo 1161507">
              <path id="Trazado_995980" data-name="Trazado 995980" d="M680.387,91.742a.625.625,0,0,1-.314-1.165A43.512,43.512,0,0,0,696.942,72.7a.624.624,0,0,1,1.114.562A44.764,44.764,0,0,1,680.7,91.657.605.605,0,0,1,680.387,91.742Z" fill="#471c31"/>
            </g>
          </g>
          <g id="Grupo_1161513" data-name="Grupo 1161513">
            <g id="Grupo_1161509" data-name="Grupo 1161509">
              <path id="Trazado_995981" data-name="Trazado 995981" d="M688.734,82.89a2.759,2.759,0,0,1-4.071.357,3.107,3.107,0,0,1-1.1,4.22,3.15,3.15,0,0,1-3.69-.7,2.3,2.3,0,0,1-.345,2.219,3.247,3.247,0,0,1-2.87,1.072,6.385,6.385,0,0,1-2.919-1.19c-.27-.185-.539-.377-.793-.588,0,0-.007,0-.006-.007a12.9,12.9,0,0,1-2.854-3.106,6.266,6.266,0,0,1-1.086-2.7,3.074,3.074,0,0,1,.964-2.66,2.051,2.051,0,0,1,2.68.036,3.358,3.358,0,0,1,4.749-4.586,3.1,3.1,0,1,1,5.131-3.477,5.018,5.018,0,0,1,.169-3.542,3.471,3.471,0,0,1,2.807-2.021,2.666,2.666,0,0,1,2.721,1.934l.174.008a11.293,11.293,0,0,0,.709,4.738c.136.354.28.7.445,1.039a2.68,2.68,0,0,1-3.349.8,13.126,13.126,0,0,1,2.813,3.71A4.486,4.486,0,0,1,688.734,82.89Z" fill="#e89f9f"/>
            </g>
            <g id="Grupo_1161510" data-name="Grupo 1161510">
              <path id="Trazado_995982" data-name="Trazado 995982" d="M686.224,75.739a.624.624,0,0,1-.335-.1A17.5,17.5,0,0,1,681.774,72a.624.624,0,1,1,.964-.792,16.274,16.274,0,0,0,3.822,3.386.623.623,0,0,1-.336,1.149Z" fill="#471c31"/>
            </g>
            <g id="Grupo_1161511" data-name="Grupo 1161511">
              <path id="Trazado_995983" data-name="Trazado 995983" d="M684.748,83.947a.624.624,0,0,1-.376-.127,27.1,27.1,0,0,1-7.24-8.323.624.624,0,0,1,1.09-.608,25.85,25.85,0,0,0,6.9,7.937.624.624,0,0,1-.377,1.121Z" fill="#471c31"/>
            </g>
            <g id="Grupo_1161512" data-name="Grupo 1161512">
              <path id="Trazado_995984" data-name="Trazado 995984" d="M679.945,87.348a.632.632,0,0,1-.312-.083,20.713,20.713,0,0,1-7.5-7.459.624.624,0,0,1,1.078-.63,19.452,19.452,0,0,0,7.048,7.007.624.624,0,0,1-.312,1.165Z" fill="#471c31"/>
            </g>
          </g>
        </g>
      </g>
    </g>
  </g>
</svg>
