<svg xmlns="http://www.w3.org/2000/svg" xmlns:xlink="http://www.w3.org/1999/xlink" width="110" height="110" viewBox="0 0 110 110">
  <defs>
    <filter id="Trazado_982547" x="0" y="0" width="110" height="110" filterUnits="userSpaceOnUse">
      <feOffset dy="3" input="SourceAlpha"/>
      <feGaussianBlur stdDeviation="3" result="blur"/>
      <feFlood flood-opacity="0.161"/>
      <feComposite operator="in" in2="blur"/>
      <feComposite in="SourceGraphic"/>
    </filter>
  </defs>
  <g id="Grupo_1160956" data-name="Grupo 1160956" transform="translate(-3130 -3044)">
    <g id="Grupo_1160752" data-name="Grupo 1160752" transform="translate(2752 715)">
      <g id="Grupo_1158890" data-name="Grupo 1158890" transform="translate(-423 -1476)">
        <g id="Grupo_1157405" data-name="Grupo 1157405" transform="translate(1 3016)">
          <g id="Grupo_1155792" data-name="Grupo 1155792" transform="translate(-1 -3894.666)">
            <g id="Grupo_1154703" data-name="Grupo 1154703" transform="translate(0 1465.666)">
              <g id="Grupo_1150789" data-name="Grupo 1150789" transform="translate(3 2320)">
                <g id="Grupo_1154212" data-name="Grupo 1154212" transform="translate(-236 -5809)">
                  <g id="Grupo_1152583" data-name="Grupo 1152583" transform="translate(1043 6713)">
                    <g id="Grupo_1146973" data-name="Grupo 1146973" transform="translate(0 0)">
                      <g id="Grupo_1146954" data-name="Grupo 1146954">
                        <g transform="matrix(1, 0, 0, 1, -9, -6)" filter="url(#Trazado_982547)">
                          <g id="Trazado_982547-2" data-name="Trazado 982547" transform="translate(9 6)" fill="#fbeaee">
                            <path d="M 46 90.49987030029297 C 39.99187850952148 90.49987030029297 34.16426849365234 89.32350921630859 28.67905426025391 87.00345611572266 C 23.38019943237305 84.76224517822266 18.62104034423828 81.55341339111328 14.53374671936035 77.46613311767578 C 10.44646644592285 73.37885284423828 7.237639904022217 68.61969757080078 4.996413230895996 63.32085418701172 C 2.676359891891479 57.83565521240234 1.5 52.008056640625 1.5 45.99993515014648 C 1.5 39.99181365966797 2.676359891891479 34.16421508789062 4.996413230895996 28.67901420593262 C 7.237639904022217 23.38017463684082 10.44646644592285 18.62101554870605 14.53374671936035 14.53373527526855 C 18.62104034423828 10.44645500183105 23.38019943237305 7.23762845993042 28.67905426025391 4.996415138244629 C 34.16426849365234 2.676361799240112 39.99187850952148 1.500001788139343 46 1.500001788139343 C 52.00812149047852 1.500001788139343 57.83573150634766 2.676361799240112 63.32094573974609 4.996415138244629 C 68.61979675292969 7.23762845993042 73.37895965576172 10.44645500183105 77.46625518798828 14.53373527526855 C 81.55353546142578 18.62101554870605 84.76235961914062 23.38017463684082 87.00358581542969 28.67901420593262 C 89.32363891601562 34.16421508789062 90.5 39.99181365966797 90.5 45.99993515014648 C 90.5 52.008056640625 89.32363891601562 57.83565521240234 87.00358581542969 63.32085418701172 C 84.76235961914062 68.61969757080078 81.55353546142578 73.37885284423828 77.46625518798828 77.46613311767578 C 73.37895965576172 81.55341339111328 68.61979675292969 84.76224517822266 63.32094573974609 87.00345611572266 C 57.83573150634766 89.32350921630859 52.00812149047852 90.49987030029297 46 90.49987030029297 Z" stroke="none"/>
                            <path d="M 46 2.999992370605469 C 40.1937141418457 2.999992370605469 34.56269836425781 4.136489868164062 29.26337051391602 6.377906799316406 C 24.14332580566406 8.543502807617188 19.54441070556641 11.64437866210938 15.59439849853516 15.59437561035156 C 11.64440155029297 19.54439544677734 8.54351806640625 24.14329528808594 6.377914428710938 29.26333618164062 C 4.136497497558594 34.56264877319336 3 40.19366455078125 3 45.99993515014648 C 3 51.80620574951172 4.136497497558594 57.43720626831055 6.377914428710938 62.73651885986328 C 8.54351806640625 67.8565673828125 11.64440155029297 72.45545959472656 15.59439849853516 76.40547943115234 C 19.54441070556641 80.35547637939453 24.14332580566406 83.45635223388672 29.26337051391602 85.6219482421875 C 34.56269836425781 87.86336517333984 40.1937141418457 88.99986267089844 46 88.99986267089844 C 51.8062858581543 88.99986267089844 57.43730163574219 87.86336517333984 62.73661422729492 85.6219482421875 C 67.85667419433594 83.45635223388672 72.45557403564453 80.35547637939453 76.40558624267578 76.40547943115234 C 80.35559844970703 72.45545959472656 83.45647430419922 67.8565673828125 85.6220703125 62.73651885986328 C 87.86350250244141 57.43720626831055 89 51.80620574951172 89 45.99993515014648 C 89 40.19366455078125 87.86350250244141 34.56264877319336 85.6220703125 29.26333618164062 C 83.45647430419922 24.14329528808594 80.35559844970703 19.54439544677734 76.40558624267578 15.59437561035156 C 72.45557403564453 11.64437866210938 67.85667419433594 8.543502807617188 62.73661422729492 6.377906799316406 C 57.43730163574219 4.136489868164062 51.8062858581543 2.999992370605469 46 2.999992370605469 M 46 -7.62939453125e-06 C 71.40509033203125 -7.62939453125e-06 92 20.59486389160156 92 45.99993515014648 C 92 71.40499114990234 71.40509033203125 91.99986267089844 46 91.99986267089844 C 20.59490203857422 91.99986267089844 0 71.40499114990234 0 45.99993515014648 C 0 20.59486389160156 20.59490203857422 -7.62939453125e-06 46 -7.62939453125e-06 Z" stroke="none" fill="#e23e64"/>
                          </g>
                        </g>
                      </g>
                    </g>
                  </g>
                </g>
              </g>
            </g>
          </g>
        </g>
      </g>
    </g>
    <g id="Virus" transform="translate(3153 3064)">
      <rect id="Rectángulo_413003" data-name="Rectángulo 413003" width="54" height="37" rx="3" transform="translate(5 17)" fill="#b5b5b5"/>
      <rect id="Rectángulo_413004" data-name="Rectángulo 413004" width="16" height="10" rx="3" transform="translate(10 39)" fill="#fff"/>
      <rect id="Rectángulo_413005" data-name="Rectángulo 413005" width="10" height="10" rx="3" transform="translate(30 39)" fill="#fff"/>
      <path id="Trazado_995379" data-name="Trazado 995379" d="M8,17H56a3,3,0,0,1,3,3v5H5V20a3,3,0,0,1,3-3Z" fill="#ffbc00"/>
      <path id="Trazado_995380" data-name="Trazado 995380" d="M51.68,26.7H48.34l-1.56,2.08a2.23,2.23,0,0,1-3.56,0L41.66,26.7H38.32A3.35,3.35,0,0,1,35,23.36v-10A3.35,3.35,0,0,1,38.32,10H51.68A3.35,3.35,0,0,1,55,13.34v10a3.35,3.35,0,0,1-3.32,3.36Z" fill="#fff"/>
      <path id="Trazado_995381" data-name="Trazado 995381" d="M46.08,14.63l.57,1.15a1.15,1.15,0,0,0,.85.62l1.27.18a1.13,1.13,0,0,1,.63,1.93l-.92.9a1.12,1.12,0,0,0-.32,1l.21,1.26a1.13,1.13,0,0,1-1.64,1.2l-1.13-.6a1.17,1.17,0,0,0-1.06,0l-1.13.6a1.13,1.13,0,0,1-1.64-1.2L42,20.41a1.12,1.12,0,0,0-.32-1l-.92-.9a1.13,1.13,0,0,1,.63-1.93l1.26-.18a1.15,1.15,0,0,0,.86-.62l.56-1.15a1.13,1.13,0,0,1,2.01,0Z" fill="#ffbc00"/>
      <path id="Trazado_995382" data-name="Trazado 995382" d="M47.26,24a2.05,2.05,0,0,1-1-.25l-1.14-.59a.13.13,0,0,0-.12,0l-1.14.59a2.13,2.13,0,0,1-3.09-2.25L41,20.24a.15.15,0,0,0,0-.11l-.92-.9a2.14,2.14,0,0,1,1.18-3.64l1.27-.18a.14.14,0,0,0,.1-.07l.57-1.15a2.112,2.112,0,0,1,3.8,0l.57,1.15a.13.13,0,0,0,.1.07l1.27.18a2.14,2.14,0,0,1,1.18,3.64l-.92.9a.12.12,0,0,0,0,.11l.22,1.27A2.14,2.14,0,0,1,47.26,24Zm-2.19-2.86a2.05,2.05,0,0,1,1,.25L47.2,22a.11.11,0,0,0,.13,0,.13.13,0,0,0,.06-.13l-.22-1.26a2.14,2.14,0,0,1,.61-1.89l.92-.89a.13.13,0,0,0,0-.14.14.14,0,0,0-.11-.09l-1.27-.18a2.13,2.13,0,0,1-1.6-1.17l-.57-1.15a.138.138,0,0,0-.24,0l-.57,1.15a2.13,2.13,0,0,1-1.6,1.17l-1.27.18a.14.14,0,0,0-.11.09.13.13,0,0,0,0,.14l.91.89A2.12,2.12,0,0,1,43,20.58l-.22,1.26a.14.14,0,0,0,0,.13.12.12,0,0,0,.14,0l1.14-.59a2.05,2.05,0,0,1,1.01-.24Z"/>
      <path id="Trazado_995383" data-name="Trazado 995383" d="M56,55H13a1,1,0,0,1,0-2H56a2,2,0,0,0,2-2V20a2,2,0,0,0-2-2,1,1,0,0,1,0-2,4,4,0,0,1,4,4V51A4,4,0,0,1,56,55Z"/>
      <path id="Trazado_995384" data-name="Trazado 995384" d="M8,55a4,4,0,0,1-4-4V20a4,4,0,0,1,4-4H31a1,1,0,0,1,0,2H8a2,2,0,0,0-2,2V51a2,2,0,0,0,2,2,1,1,0,0,1,0,2Z"/>
      <path id="Trazado_995385" data-name="Trazado 995385" d="M31,26H5a1,1,0,0,1,0-2H31a1,1,0,0,1,0,2Z"/>
      <circle id="Elipse_12155" data-name="Elipse 12155" cx="1.25" cy="1.25" r="1.25" transform="translate(8 19.75)"/>
      <circle id="Elipse_12156" data-name="Elipse 12156" cx="1.25" cy="1.25" r="1.25" transform="translate(11.75 19.75)"/>
      <circle id="Elipse_12157" data-name="Elipse 12157" cx="1.25" cy="1.25" r="1.25" transform="translate(15.5 19.75)"/>
      <path id="Trazado_995386" data-name="Trazado 995386" d="M37,31H27a1,1,0,0,1,0-2H37a1,1,0,0,1,0,2Z"/>
      <path id="Trazado_995387" data-name="Trazado 995387" d="M41,35H32a1,1,0,0,1,0-2h9a1,1,0,0,1,0,2Z"/>
      <path id="Trazado_995388" data-name="Trazado 995388" d="M28,35H23a1,1,0,0,1,0-2h5a1,1,0,0,1,0,2Z"/>
      <path id="Trazado_995389" data-name="Trazado 995389" d="M23,50H13a4,4,0,0,1-4-4V42a4,4,0,0,1,4-4H23a4,4,0,0,1,4,4v4A4,4,0,0,1,23,50ZM13,40a2,2,0,0,0-2,2v4a2,2,0,0,0,2,2H23a2,2,0,0,0,2-2V42a2,2,0,0,0-2-2Z"/>
      <path id="Trazado_995390" data-name="Trazado 995390" d="M37,50H33a4,4,0,0,1-4-4V42a4,4,0,0,1,4-4h4a4,4,0,0,1,4,4v4A4,4,0,0,1,37,50ZM33,40a2,2,0,0,0-2,2v4a2,2,0,0,0,2,2h4a2,2,0,0,0,2-2V42a2,2,0,0,0-2-2Z"/>
      <path id="Trazado_995391" data-name="Trazado 995391" d="M53,42H44a1,1,0,0,1,0-2h9a1,1,0,0,1,0,2Z"/>
      <path id="Trazado_995392" data-name="Trazado 995392" d="M47,45H44a1,1,0,0,1,0-2h3a1,1,0,0,1,0,2Z"/>
      <path id="Trazado_995393" data-name="Trazado 995393" d="M50,48H44a1,1,0,0,1,0-2h6a1,1,0,0,1,0,2Z"/>
      <path id="Trazado_995394" data-name="Trazado 995394" d="M45,30.67a3.18,3.18,0,0,1-2.58-1.29L41.16,27.7H38.32A4.35,4.35,0,0,1,34,23.36v-10A4.35,4.35,0,0,1,38.32,9H51.68A4.35,4.35,0,0,1,56,13.34v10a4.35,4.35,0,0,1-4.34,4.34H48.84l-1.26,1.68A3.18,3.18,0,0,1,45,30.67ZM38.32,11A2.34,2.34,0,0,0,36,13.34v10a2.34,2.34,0,0,0,2.34,2.34h3.34a1,1,0,0,1,.8.4L44,28.18a1.27,1.27,0,0,0,2,0l1.56-2.08a1,1,0,0,1,.8-.4H51.7A2.34,2.34,0,0,0,54,23.36v-10A2.34,2.34,0,0,0,51.68,11Z"/>
    </g>
  </g>
</svg>
