<svg xmlns="http://www.w3.org/2000/svg" xmlns:xlink="http://www.w3.org/1999/xlink" width="110" height="110" viewBox="0 0 110 110">
  <defs>
    <filter id="Trazado_982547" x="0" y="0" width="110" height="110" filterUnits="userSpaceOnUse">
      <feOffset dy="3" input="SourceAlpha"/>
      <feGaussianBlur stdDeviation="3" result="blur"/>
      <feFlood flood-opacity="0.161"/>
      <feComposite operator="in" in2="blur"/>
      <feComposite in="SourceGraphic"/>
    </filter>
  </defs>
  <g id="Grupo_1160920" data-name="Grupo 1160920" transform="translate(-378 -2644)">
    <g id="Grupo_1160748" data-name="Grupo 1160748" transform="translate(0 315)">
      <g id="Grupo_1158890" data-name="Grupo 1158890" transform="translate(-423 -1476)">
        <g id="Grupo_1157405" data-name="Grupo 1157405" transform="translate(1 3016)">
          <g id="Grupo_1155792" data-name="Grupo 1155792" transform="translate(-1 -3894.666)">
            <g id="Grupo_1154703" data-name="Grupo 1154703" transform="translate(0 1465.666)">
              <g id="Grupo_1150789" data-name="Grupo 1150789" transform="translate(3 2320)">
                <g id="Grupo_1154212" data-name="Grupo 1154212" transform="translate(-236 -5809)">
                  <g id="Grupo_1152583" data-name="Grupo 1152583" transform="translate(1043 6713)">
                    <g id="Grupo_1146973" data-name="Grupo 1146973" transform="translate(0 0)">
                      <g id="Grupo_1146954" data-name="Grupo 1146954">
                        <g transform="matrix(1, 0, 0, 1, -9, -6)" filter="url(#Trazado_982547)">
                          <g id="Trazado_982547-2" data-name="Trazado 982547" transform="translate(9 6)" fill="#fbeaee">
                            <path d="M 46 90.49987030029297 C 39.99187850952148 90.49987030029297 34.16426849365234 89.32350921630859 28.67905426025391 87.00345611572266 C 23.38019943237305 84.76224517822266 18.62104034423828 81.55341339111328 14.53374671936035 77.46613311767578 C 10.44646644592285 73.37885284423828 7.237639904022217 68.61969757080078 4.996413230895996 63.32085418701172 C 2.676359891891479 57.83565521240234 1.5 52.008056640625 1.5 45.99993515014648 C 1.5 39.99181365966797 2.676359891891479 34.16421508789062 4.996413230895996 28.67901420593262 C 7.237639904022217 23.38017463684082 10.44646644592285 18.62101554870605 14.53374671936035 14.53373527526855 C 18.62104034423828 10.44645500183105 23.38019943237305 7.23762845993042 28.67905426025391 4.996415138244629 C 34.16426849365234 2.676361799240112 39.99187850952148 1.500001788139343 46 1.500001788139343 C 52.00812149047852 1.500001788139343 57.83573150634766 2.676361799240112 63.32094573974609 4.996415138244629 C 68.61979675292969 7.23762845993042 73.37895965576172 10.44645500183105 77.46625518798828 14.53373527526855 C 81.55353546142578 18.62101554870605 84.76235961914062 23.38017463684082 87.00358581542969 28.67901420593262 C 89.32363891601562 34.16421508789062 90.5 39.99181365966797 90.5 45.99993515014648 C 90.5 52.008056640625 89.32363891601562 57.83565521240234 87.00358581542969 63.32085418701172 C 84.76235961914062 68.61969757080078 81.55353546142578 73.37885284423828 77.46625518798828 77.46613311767578 C 73.37895965576172 81.55341339111328 68.61979675292969 84.76224517822266 63.32094573974609 87.00345611572266 C 57.83573150634766 89.32350921630859 52.00812149047852 90.49987030029297 46 90.49987030029297 Z" stroke="none"/>
                            <path d="M 46 2.999992370605469 C 40.1937141418457 2.999992370605469 34.56269836425781 4.136489868164062 29.26337051391602 6.377906799316406 C 24.14332580566406 8.543502807617188 19.54441070556641 11.64437866210938 15.59439849853516 15.59437561035156 C 11.64440155029297 19.54439544677734 8.54351806640625 24.14329528808594 6.377914428710938 29.26333618164062 C 4.136497497558594 34.56264877319336 3 40.19366455078125 3 45.99993515014648 C 3 51.80620574951172 4.136497497558594 57.43720626831055 6.377914428710938 62.73651885986328 C 8.54351806640625 67.8565673828125 11.64440155029297 72.45545959472656 15.59439849853516 76.40547943115234 C 19.54441070556641 80.35547637939453 24.14332580566406 83.45635223388672 29.26337051391602 85.6219482421875 C 34.56269836425781 87.86336517333984 40.1937141418457 88.99986267089844 46 88.99986267089844 C 51.8062858581543 88.99986267089844 57.43730163574219 87.86336517333984 62.73661422729492 85.6219482421875 C 67.85667419433594 83.45635223388672 72.45557403564453 80.35547637939453 76.40558624267578 76.40547943115234 C 80.35559844970703 72.45545959472656 83.45647430419922 67.8565673828125 85.6220703125 62.73651885986328 C 87.86350250244141 57.43720626831055 89 51.80620574951172 89 45.99993515014648 C 89 40.19366455078125 87.86350250244141 34.56264877319336 85.6220703125 29.26333618164062 C 83.45647430419922 24.14329528808594 80.35559844970703 19.54439544677734 76.40558624267578 15.59437561035156 C 72.45557403564453 11.64437866210938 67.85667419433594 8.543502807617188 62.73661422729492 6.377906799316406 C 57.43730163574219 4.136489868164062 51.8062858581543 2.999992370605469 46 2.999992370605469 M 46 -7.62939453125e-06 C 71.40509033203125 -7.62939453125e-06 92 20.59486389160156 92 45.99993515014648 C 92 71.40499114990234 71.40509033203125 91.99986267089844 46 91.99986267089844 C 20.59490203857422 91.99986267089844 0 71.40499114990234 0 45.99993515014648 C 0 20.59486389160156 20.59490203857422 -7.62939453125e-06 46 -7.62939453125e-06 Z" stroke="none" fill="#e23e64"/>
                          </g>
                        </g>
                      </g>
                    </g>
                  </g>
                </g>
              </g>
            </g>
          </g>
        </g>
      </g>
    </g>
    <g id="informacion_3_" data-name="informacion (3)" transform="translate(402.946 2666)">
      <g id="Grupo_1160918" data-name="Grupo 1160918" transform="translate(1.056 1)">
        <path id="Trazado_995324" data-name="Trazado 995324" d="M117.327,349.547l-15.507,9.937a5.684,5.684,0,0,1-3.015.881H77.048c-5.289,0-6.722-2.715-6.722-2.715v-.291H67.321V345.34h3.005v.07c1.753-2.675,5.219-3.6,7.4-3.907h.01a14.528,14.528,0,0,1,1.933-.17h.511a7.377,7.377,0,0,1,4.718,1.723,7.3,7.3,0,0,0,4.708,1.743h4.327a4.105,4.105,0,0,1,3.556,2.094l.07.12a3.279,3.279,0,0,1,.1,3.045,3.169,3.169,0,0,1-.491.721h1.893a3.071,3.071,0,0,0,1.042-.17l13.644-4.788,1.663-.591a2.3,2.3,0,0,1,.741-.12,2.23,2.23,0,0,1,1.8.952,2.491,2.491,0,0,1-.631,3.486Z" transform="translate(-60.309 -302.264)" fill="#bfa885"/>
        <path id="Trazado_995325" data-name="Trazado 995325" d="M113.321,350.828l-15.507,9.937a5.684,5.684,0,0,1-3.015.881H77.048c-5.289,0-6.722-2.715-6.722-2.715v-.291H67.321V346.621h3.005v.07c1.753-2.675,5.219-3.6,7.4-3.907h.01a7.407,7.407,0,0,1,3.155,1.553A7.3,7.3,0,0,0,85.6,346.08H89.93a4.105,4.105,0,0,1,3.556,2.094l.07.12a3.248,3.248,0,0,1-.391,3.766h1.893a3.07,3.07,0,0,0,1.042-.17l1.563-.551a3.169,3.169,0,0,1-.491.721h1.893a3.07,3.07,0,0,0,1.042-.17l13.644-4.788a1.6,1.6,0,0,1,.2.24,2.491,2.491,0,0,1-.631,3.486Z" transform="translate(-60.309 -303.544)" fill="#ffe0b2"/>
        <path id="Trazado_995326" data-name="Trazado 995326" d="M246.476,25.549a17.034,17.034,0,0,1-22.228,16.218l-4.818,3.817V39.312a17.027,17.027,0,1,1,27.047-13.764Z" transform="translate(-188.375 -8.517)" fill="#2296f3"/>
        <path id="Trazado_995327" data-name="Trazado 995327" d="M8.59,358.4H16.6a1,1,0,0,1,1,1v14.024a1,1,0,0,1-1,1H8.59a1,1,0,0,1-1-1V359.4A1,1,0,0,1,8.59,358.4Z" transform="translate(-7.588 -317.327)" fill="#4caf50"/>
        <g id="Grupo_1160917" data-name="Grupo 1160917" transform="translate(37.064 6.012)">
          <circle id="Elipse_12147" data-name="Elipse 12147" cx="2.004" cy="2.004" r="2.004" transform="translate(2.003)" fill="#fff"/>
          <path id="Trazado_995328" data-name="Trazado 995328" d="M325.325,132.007v6.01h-2v4.007h8.014v-4.007h-2V128h-6.01v4.007Z" transform="translate(-323.321 -119.986)" fill="#fff"/>
        </g>
        <path id="Trazado_995329" data-name="Trazado 995329" d="M363.036,25.562a17.028,17.028,0,0,1-17.029,17.029c-.511,0-1.022-.02-1.523-.07A17.024,17.024,0,0,0,344.5,8.6a14.8,14.8,0,0,1,1.5-.07,17.028,17.028,0,0,1,17.029,17.029Z" transform="translate(-304.936 -8.531)" fill="#1566c0"/>
      </g>
      <g id="Grupo_1160919" data-name="Grupo 1160919" transform="translate(0.054 0)">
        <path id="Trazado_995330" data-name="Trazado 995330" d="M2.058,352.835h8.014a1.992,1.992,0,0,0,1.54-.737,10.053,10.053,0,0,0,6.18,1.739H39.549a6.681,6.681,0,0,0,3.56-1.042l15.509-9.94a3.409,3.409,0,0,0,1.475-2.217,3.518,3.518,0,0,0-.578-2.69,3.244,3.244,0,0,0-3.682-1.189l-15.319,5.375a2.057,2.057,0,0,1-.7.115h-.239a4.257,4.257,0,0,0-.39-3.243l-.078-.142a5.128,5.128,0,0,0-4.422-2.6H30.359a6.374,6.374,0,0,1-4.073-1.508A8.387,8.387,0,0,0,20.93,332.8h-.508c-.252,0-5.388.047-8.7,2.873a2,2,0,0,0-1.649-.87H2.058a2.006,2.006,0,0,0-2,2v14.024A2.006,2.006,0,0,0,2.058,352.835ZM20.422,334.8h.508A6.38,6.38,0,0,1,25,336.3a8.379,8.379,0,0,0,5.357,1.974h4.328a3.069,3.069,0,0,1,2.673,1.571l.078.142a2.234,2.234,0,0,1-.05,2.266H32.457a8.192,8.192,0,0,0-4.7,1.5l-.6.422a1,1,0,1,0,1.15,1.639l.6-.42a6.2,6.2,0,0,1,3.554-1.139h7.359a4.054,4.054,0,0,0,1.373-.233l15.3-5.367a1.224,1.224,0,0,1,1.4.461,1.5,1.5,0,0,1,.241,1.147,1.378,1.378,0,0,1-.593.911l-15.5,9.933a4.671,4.671,0,0,1-2.486.73H17.792c-3.83,0-5.321-1.506-5.717-2.018V338.193C14.521,334.857,20.363,334.8,20.422,334.8Zm-18.365,2h8.014v14.024H2.058Z" transform="translate(-0.054 -293.732)"/>
        <path id="Trazado_995331" data-name="Trazado 995331" d="M34.434,444.117a1,1,0,0,0,.711,1.713,1.056,1.056,0,0,0,.711-.291,1.157,1.157,0,0,0,.21-.331,1,1,0,0,0,.08-.381,1,1,0,0,0-1.713-.711Z" transform="translate(-30.136 -391.736)"/>
        <path id="Trazado_995332" data-name="Trazado 995332" d="M335.859,57.21a3.005,3.005,0,1,0-3.005-3.005A3.005,3.005,0,0,0,335.859,57.21Zm0-4.007a1,1,0,1,1-1,1A1,1,0,0,1,335.859,53.2Z" transform="translate(-293.786 -45.19)"/>
        <path id="Trazado_995333" data-name="Trazado 995333" d="M324.8,129.483h-1v-9.016a1,1,0,0,0-1-1h-6.01a1,1,0,0,0-1,1v4.007a1,1,0,0,0,1,1h1v4.007h-1a1,1,0,0,0-1,1v4.007a1,1,0,0,0,1,1H324.8a1,1,0,0,0,1-1v-4.007a1,1,0,0,0-1-1Zm-1,4.007h-6.01v-2h1a1,1,0,0,0,1-1v-6.01a1,1,0,0,0-1-1h-1v-2H321.8v9.016a1,1,0,0,0,1,1h1Z" transform="translate(-278.723 -105.442)"/>
        <path id="Trazado_995334" data-name="Trazado 995334" d="M222.877,0a18.027,18.027,0,0,0-11.019,32.3v5.769a1,1,0,0,0,1.624.785l4.406-3.49A18.032,18.032,0,1,0,222.877,0Zm0,34.059a15.892,15.892,0,0,1-4.891-.763,1.007,1.007,0,0,0-.93.168l-3.194,2.53V31.8a1,1,0,0,0-.414-.811,16.02,16.02,0,1,1,9.429,3.075Z" transform="translate(-180.804 0)"/>
      </g>
    </g>
  </g>
</svg>
