<svg xmlns="http://www.w3.org/2000/svg" width="14.299" height="14.284" viewBox="0 0 14.299 14.284">
  <path id="Trazado_994591" data-name="Trazado 994591" d="M4284.816,1900.894a7.149,7.149,0,1,0-7.151,7.35A7.128,7.128,0,0,0,4284.816,1900.894Zm-2.71-1.267c-.313.321-.633.636-.951.952-.194.193-.392.384-.588.575a.281.281,0,0,1-.1.1,10.817,10.817,0,0,1-.773.767.047.047,0,0,1-.027.011.191.191,0,0,1-.137.137.047.047,0,0,1-.012.027h0a10.438,10.438,0,0,1-.769.773h0a.21.21,0,0,1-.131.11.047.047,0,0,1-.011.027h0a9.987,9.987,0,0,1-.8.8l-.107.107a12.185,12.185,0,0,1-.879.89c-.205.192-.483.135-.7-.109a1.9,1.9,0,0,1-.3-.3h0l-.608-.61a2.109,2.109,0,0,1-.3-.3h0l-.644-.641a1.685,1.685,0,0,1-.268-.267l-.033-.034h0l-.607-.61-.034-.034c-.355-.3-.355-.577,0-.877l.034-.034a3.909,3.909,0,0,1,.605-.58c.016-.03.043-.026.07-.023a.5.5,0,0,1,.54.171c.113.122.231.24.348.361l1.411,1.4c.177.176.177.177.363.021l.472-.473h0a4.43,4.43,0,0,1,.472-.471l.405-.405.035-.033h0l.5-.505h0l.407-.4a1299.138,1299.138,0,0,0,.945-.944,5.03,5.03,0,0,1,.471-.473c.153-.156.3-.319.459-.467a.451.451,0,0,1,.626.011c.223.213.441.43.653.654A.447.447,0,0,1,4282.106,1899.627Z" transform="translate(-4270.521 -1893.96)" fill="#ac59f1"/>
</svg>
