<svg xmlns="http://www.w3.org/2000/svg" xmlns:xlink="http://www.w3.org/1999/xlink" width="505" height="421" viewBox="0 0 505 421">
  <defs>
    <clipPath id="clip-path">
      <rect id="Rectángulo_413066" data-name="Rectángulo 413066" width="505" height="421" transform="translate(915 280)" fill="#fff" stroke="#707070" stroke-width="1" opacity="0.78"/>
    </clipPath>
  </defs>
  <g id="Enmascarar_grupo_1098785" data-name="Enmascarar grupo 1098785" transform="translate(-915 -280)" clip-path="url(#clip-path)">
    <g id="OBJECTS" transform="translate(907.458 247.012)">
      <g id="Grupo_1161887" data-name="Grupo 1161887" transform="translate(33.626 42.988)">
        <g id="Grupo_1161815" data-name="Grupo 1161815" transform="translate(330.894 1.271)">
          <g id="Grupo_1161808" data-name="Grupo 1161808" transform="translate(1.519)">
            <path id="Trazado_996137" data-name="Trazado 996137" d="M402.67,51.8l-6.794-6.794a2.76,2.76,0,0,0-3.9,0l-41.8,41.805,8.746,8.746Z" transform="translate(-350.168 -44.198)" fill="#7d8ea0"/>
          </g>
          <g id="Grupo_1161809" data-name="Grupo 1161809" transform="translate(8.062 1.723)">
            <rect id="Rectángulo_413059" data-name="Rectángulo 413059" width="50.288" height="56.68" transform="translate(40.079 0) rotate(45)" fill="#6db6c6"/>
          </g>
          <g id="Grupo_1161810" data-name="Grupo 1161810" transform="translate(1.463 42.545)">
            <path id="Trazado_996138" data-name="Trazado 996138" d="M386.49,121.1a5.154,5.154,0,0,0-1.519,3.616L351.015,90.759a3.032,3.032,0,0,1-.59-3.483,5.369,5.369,0,0,1,.952-1.29,5.512,5.512,0,0,1,1.3-.964,3.032,3.032,0,0,1,3.483.59l33.956,33.956A5.163,5.163,0,0,0,386.49,121.1Z" transform="translate(-350.115 -84.712)" fill="#fec130"/>
          </g>
          <g id="Grupo_1161811" data-name="Grupo 1161811" transform="translate(0 41.082)">
            <path id="Trazado_996139" data-name="Trazado 996139" d="M356.234,85.684a3,3,0,0,0-3.481-.585,5.248,5.248,0,0,0-1.306.958,5.192,5.192,0,0,0-.948,1.3,3,3,0,0,0,.587,3.478L386.1,125.848l-1.1,1.1L350.253,92.191a5.244,5.244,0,0,1-1.531-3.725,5.207,5.207,0,0,1,5.147-5.147h.048a5.236,5.236,0,0,1,3.677,1.531L392.345,119.6l-1.1,1.1Z" transform="translate(-348.722 -83.319)" fill="#8bd2e7"/>
          </g>
          <g id="Grupo_1161812" data-name="Grupo 1161812" transform="translate(4.659 45.74)">
            <path id="Trazado_996140" data-name="Trazado 996140" d="M382.778,118.278,353.346,88.846a.639.639,0,0,1,.9-.9l29.432,29.432a.639.639,0,0,1-.9.9Z" transform="translate(-353.159 -87.755)" fill="#f69c00"/>
          </g>
          <g id="Grupo_1161813" data-name="Grupo 1161813" transform="translate(0.53 49.795)">
            <path id="Trazado_996141" data-name="Trazado 996141" d="M352.04,102.612l-.2-2.612-2.612-.2,8.183-8.183,2.813,2.813Z" transform="translate(-349.227 -91.616)" fill="#c6209a"/>
          </g>
          <g id="Grupo_1161814" data-name="Grupo 1161814" transform="translate(36.991 23.52)">
            <rect id="Rectángulo_413060" data-name="Rectángulo 413060" width="28.127" height="7.103" transform="translate(5.023 0) rotate(45)" fill="#fff"/>
          </g>
        </g>
        <path id="Trazado_996142" data-name="Trazado 996142" d="M119.314,196.859c-10.141,16.767-12.892,38.985-3.043,55.927,6.126,10.537,16.578,18.455,20.813,29.884,6.308,17.021-2.969,35.36-10.254,51.987-16.263,37.118-22.473,82.856.272,116.4,11.806,17.411,30.408,29.645,50.544,35.729,45.779,13.833,111.754-42.649,122.714-50.252,14.8-10.265,40.534-16.071,58.192-19.615,18.132-3.639,37.118-3.114,55.324.14,65.779,11.758,97.307-27.445,102.921-37.965,6.233-11.681,4.774-26.433-1.453-38.117s-16.659-20.633-27.92-27.6c-8.316-5.143-17.461-9.579-23.465-17.3-9.589-12.322-8.728-29.421-10.409-44.943-2.926-27.016-14.78-52.313-29.042-75.441-6.6-10.7-13.854-21.183-23.329-29.445-14.322-12.489-32.893-19.15-51.563-22.695-33.86-6.43-68.7-3.267-102.036,4.6-29.149,6.883-63.277,15.437-88.633,31.916C143.878,169.866,128.743,181.271,119.314,196.859Z" transform="translate(-74.322 -79.118)" fill="#fff2a9"/>
        <path id="Trazado_996143" data-name="Trazado 996143" d="M350.314,399h-2.929a11.6,11.6,0,0,0-1.446-3.5l2.069-2.069a1.165,1.165,0,0,0,0-1.649l-2.149-2.151a1.166,1.166,0,0,0-1.65,0l-2.072,2.072a11.477,11.477,0,0,0-3.5-1.45v-2.926a1.166,1.166,0,0,0-1.166-1.166h-3.037a1.166,1.166,0,0,0-1.166,1.166v2.926a11.5,11.5,0,0,0-3.5,1.45l-2.072-2.072a1.166,1.166,0,0,0-1.65,0l-2.149,2.151a1.167,1.167,0,0,0,0,1.649l2.069,2.069a11.574,11.574,0,0,0-1.446,3.5H321.6a1.166,1.166,0,0,0-1.166,1.166v3.04a1.166,1.166,0,0,0,1.166,1.166h2.926a11.548,11.548,0,0,0,1.45,3.5l-2.069,2.069a1.166,1.166,0,0,0,0,1.649l2.149,2.151a1.166,1.166,0,0,0,1.65,0l2.072-2.072a11.477,11.477,0,0,0,3.5,1.45v2.929a1.166,1.166,0,0,0,1.166,1.166h3.037a1.166,1.166,0,0,0,1.166-1.166v-2.929a11.5,11.5,0,0,0,3.5-1.45l2.072,2.072a1.166,1.166,0,0,0,1.65,0l2.149-2.151a1.167,1.167,0,0,0,0-1.649l-2.069-2.069a11.539,11.539,0,0,0,1.45-3.5h2.926a1.166,1.166,0,0,0,1.166-1.166v-3.04A1.167,1.167,0,0,0,350.314,399Zm-8.5,4.743a5.781,5.781,0,0,1-.259.629,6.227,6.227,0,0,1-2.912,2.912,5.994,5.994,0,0,1-.625.259,6.238,6.238,0,0,1-4.119,0,6.089,6.089,0,0,1-.625-.259,6.227,6.227,0,0,1-2.912-2.912,5.7,5.7,0,0,1-.259-.629,6.226,6.226,0,0,1,0-4.114,5.241,5.241,0,0,1,.264-.629,6.221,6.221,0,0,1,2.908-2.909,5.794,5.794,0,0,1,.629-.259,6.214,6.214,0,0,1,4.11,0,6,6,0,0,1,.629.259A6.218,6.218,0,0,1,341.549,399a5.242,5.242,0,0,1,.264.629,6.218,6.218,0,0,1,0,4.114Z" transform="translate(-19.246 -25.782)" fill="#fec130"/>
        <g id="Grupo_1161816" data-name="Grupo 1161816" transform="translate(375.55 209.922)">
          <circle id="Elipse_12210" data-name="Elipse 12210" cx="35.683" cy="35.683" r="35.683" fill="#f69c00"/>
          <circle id="Elipse_12211" data-name="Elipse 12211" cx="30.98" cy="30.98" r="30.98" transform="translate(4.703 4.703)" fill="#fec130"/>
          <path id="Trazado_996144" data-name="Trazado 996144" d="M429.72,290.91c3.189-3.189,3.2-7.346.271-13.23-2.113-4.331-2.884-6.375-1.44-7.819,1.176-1.176,3.368-1,5.813,1.445a18.683,18.683,0,0,1,2.689,3.381,3.365,3.365,0,0,0,4.344,1.378,2.967,2.967,0,0,0,.973-4.263,25.962,25.962,0,0,0-3.356-4.221l4.438-4.438a1.963,1.963,0,0,0-2.777-2.777l-4.62,4.62c-5.12-3.719-10.346-3.687-13.643-.391s-2.67,8.076.167,13.533c2.025,3.972,2.4,5.964.993,7.373-1.478,1.478-3.822,1.081-6.413-1.51a21.078,21.078,0,0,1-3.393-4.538,3.34,3.34,0,0,0-4.463-1.405l-.08.045a2.983,2.983,0,0,0-.926,4.174,28.77,28.77,0,0,0,4.33,5.589c.1.1.191.176.287.27l-4.173,4.173a1.963,1.963,0,1,0,2.777,2.777l4.419-4.419C421.509,294.588,426.544,294.085,429.72,290.91Z" transform="translate(-390.415 -242.039)" fill="#fff"/>
        </g>
        <g id="Grupo_1161822" data-name="Grupo 1161822" transform="translate(23.979 36.28)">
          <g id="Grupo_1161817" data-name="Grupo 1161817" transform="translate(5.534)">
            <path id="Trazado_996145" data-name="Trazado 996145" d="M61.73,114.816l25.693-1.076,40.906-28.86-32.043,31.1L118.731,131.5l16.8-53.969Z" transform="translate(-61.73 -77.536)" fill="#8bd2e7"/>
            <path id="Trazado_996146" data-name="Trazado 996146" d="M86.2,113.389l7.089,21.167,1.774-18.929,32.043-31.1Z" transform="translate(-60.503 -77.185)" fill="#6db6c6"/>
            <path id="Trazado_996147" data-name="Trazado 996147" d="M92.947,133.071l9.8-13.374-8.03-5.555Z" transform="translate(-60.165 -75.701)" fill="#7d8ea0"/>
          </g>
          <g id="Grupo_1161821" data-name="Grupo 1161821" transform="translate(0 61.646)">
            <g id="Grupo_1161818" data-name="Grupo 1161818" transform="translate(29.812)">
              <path id="Trazado_996148" data-name="Trazado 996148" d="M85.9,138.716a1.05,1.05,0,0,1-.757-1.777l.372-.384a1.05,1.05,0,0,1,1.5,1.466l-.36.372A1.049,1.049,0,0,1,85.9,138.716Z" transform="translate(-84.848 -136.239)" fill="#d98490"/>
            </g>
            <g id="Grupo_1161819" data-name="Grupo 1161819" transform="translate(0 2.727)">
              <path id="Trazado_996149" data-name="Trazado 996149" d="M184.52,317.025a1.05,1.05,0,0,1-.009-2.1q.518,0,1.043-.016h.022a1.05,1.05,0,0,1,.022,2.1q-.537.011-1.067.016Zm-4.2-.054h-.04l-1.064-.044a1.05,1.05,0,0,1,.1-2.1l1.044.044a1.05,1.05,0,0,1-.039,2.1Zm9.448-.129a1.05,1.05,0,0,1-.061-2.1l1.045-.066a1.065,1.065,0,0,1,1.117.979,1.05,1.05,0,0,1-.978,1.117l-1.061.066Zm-14.684-.226c-.036,0-.071,0-.108-.005-.357-.037-.711-.075-1.062-.116a1.05,1.05,0,1,1,.241-2.086c.342.039.687.077,1.034.111a1.05,1.05,0,0,1-.105,2.1Zm-5.191-.722a.978.978,0,0,1-.19-.018c-.353-.064-.7-.129-1.051-.2a1.051,1.051,0,0,1,.407-2.061q.506.1,1.021.194a1.05,1.05,0,0,1-.187,2.082Zm-5.111-1.152a1.112,1.112,0,0,1-.278-.037c-.348-.1-.691-.194-1.032-.294a1.05,1.05,0,1,1,.593-2.014q.493.145.994.281a1.05,1.05,0,0,1-.277,2.064Zm-4.973-1.635a1.057,1.057,0,0,1-.381-.071q-.5-.2-1-.4a1.05,1.05,0,1,1,.8-1.941q.474.2.958.384a1.05,1.05,0,0,1-.38,2.029Zm-4.764-2.166a1.042,1.042,0,0,1-.487-.121q-.48-.252-.949-.514a1.05,1.05,0,1,1,1.023-1.833q.446.249.9.489a1.049,1.049,0,0,1-.489,1.978Zm-4.474-2.714a1.048,1.048,0,0,1-.6-.187c-.3-.2-.591-.416-.881-.628a1.051,1.051,0,0,1,1.242-1.695q.413.3.834.594a1.052,1.052,0,0,1-.6,1.915Zm-4.109-3.241a1.043,1.043,0,0,1-.7-.268q-.4-.361-.8-.728a1.051,1.051,0,0,1,1.438-1.532c.25.235.5.465.759.7a1.05,1.05,0,0,1-.7,1.833Zm-3.7-3.712a1.051,1.051,0,0,1-.784-.351q-.358-.4-.708-.814a1.05,1.05,0,0,1,1.6-1.36c.223.26.447.52.675.775a1.051,1.051,0,0,1-.783,1.75Zm-3.274-4.1a1.051,1.051,0,0,1-.855-.438c-.208-.29-.415-.583-.617-.877a1.05,1.05,0,1,1,1.727-1.194q.295.427.6.846a1.052,1.052,0,0,1-.241,1.466A1.04,1.04,0,0,1,139.493,297.172Zm-2.868-4.393a1.049,1.049,0,0,1-.9-.512q-.274-.46-.541-.926a1.051,1.051,0,0,1,1.824-1.044q.257.45.522.895a1.051,1.051,0,0,1-.9,1.588Zm-2.511-4.611a1.05,1.05,0,0,1-.941-.582c-.158-.317-.315-.637-.47-.957a1.05,1.05,0,1,1,1.889-.917q.228.471.461.937a1.049,1.049,0,0,1-.939,1.518Zm-2.21-4.764a1.049,1.049,0,0,1-.964-.634q-.211-.488-.417-.982a1.051,1.051,0,0,1,1.938-.813c.135.322.271.642.409.961a1.049,1.049,0,0,1-.548,1.38A1.023,1.023,0,0,1,131.905,283.4Zm-1.97-4.872a1.049,1.049,0,0,1-.982-.679l-.373-.995a1.05,1.05,0,1,1,1.969-.73l.369.983a1.049,1.049,0,0,1-.61,1.354A1.064,1.064,0,0,1,129.935,278.532Zm-1.782-4.947a1.051,1.051,0,0,1-.993-.709l-.342-1a1.05,1.05,0,1,1,1.99-.671l.338.992a1.051,1.051,0,0,1-.652,1.335A1.013,1.013,0,0,1,128.153,273.585Zm-1.648-4.992a1.051,1.051,0,0,1-1-.731l-.32-1.01a1.05,1.05,0,1,1,2-.63l.317,1a1.05,1.05,0,0,1-1,1.369Zm-1.557-5.022a1.051,1.051,0,0,1-1-.747l-.306-1.012a1.05,1.05,0,1,1,2.011-.6l.306,1.01a1.05,1.05,0,0,1-.7,1.308A1.035,1.035,0,0,1,124.948,263.571Zm-1.509-5.039a1.049,1.049,0,0,1-1.006-.751l-.3-1.011a1.05,1.05,0,0,1,2.013-.6l.3,1.011a1.051,1.051,0,0,1-.707,1.306A1.071,1.071,0,0,1,123.439,258.532Zm-1.5-5.039a1.049,1.049,0,0,1-1.006-.751l-.3-1.008a1.05,1.05,0,0,1,2.011-.606l.3,1.015a1.051,1.051,0,0,1-.707,1.306A1.085,1.085,0,0,1,121.937,253.493Zm-1.527-5.032a1.051,1.051,0,0,1-1-.74l-.312-1.006a1.05,1.05,0,0,1,2-.625l.313,1.01a1.048,1.048,0,0,1-.693,1.313A1.019,1.019,0,0,1,120.41,248.461Zm-1.591-5.024a1.052,1.052,0,0,1-1-.725l-.33-1a1.05,1.05,0,0,1,1.994-.658l.332,1.009a1.051,1.051,0,0,1-.672,1.324A1.012,1.012,0,0,1,118.819,243.437Zm-1.689-4.989a1.05,1.05,0,0,1-.99-.7l-.352-.991a1.05,1.05,0,1,1,1.977-.706l.355,1a1.05,1.05,0,0,1-.643,1.339A1.083,1.083,0,0,1,117.131,238.448Zm-1.816-4.939a1.052,1.052,0,0,1-.981-.674l-.379-.977a1.05,1.05,0,0,1,1.954-.768l.385.992a1.049,1.049,0,0,1-.98,1.426Zm-1.975-4.871a1.052,1.052,0,0,1-.966-.637l-.416-.961a1.05,1.05,0,0,1,1.924-.842l.422.977a1.051,1.051,0,0,1-.964,1.464Zm-2.167-4.788a1.05,1.05,0,0,1-.946-.594l-.458-.94a1.05,1.05,0,0,1,1.884-.928l.465.957a1.05,1.05,0,0,1-.945,1.506Zm-2.392-4.677a1.051,1.051,0,0,1-.923-.547c-.167-.306-.334-.61-.5-.914a1.05,1.05,0,1,1,1.833-1.026q.261.466.516.935a1.05,1.05,0,0,1-.921,1.552Zm-42.862-.8c-.342,0-.673-.015-1-.044a1.05,1.05,0,1,1,.187-2.092c.261.023.531.036.809.036h.15a1.05,1.05,0,0,1,.009,2.1Zm4.275-.714a1.05,1.05,0,0,1-.312-2.053q.466-.145.95-.322a1.05,1.05,0,0,1,.722,1.972q-.536.2-1.049.355A1.042,1.042,0,0,1,70.193,217.661Zm-9.076-.731a1.043,1.043,0,0,1-.617-.2,8.308,8.308,0,0,1-.92-.78,1.051,1.051,0,1,1,1.472-1.5,6.091,6.091,0,0,0,.686.582,1.051,1.051,0,0,1-.621,1.9ZM75,215.564a1.05,1.05,0,0,1-.523-1.962q.436-.25.834-.517a1.05,1.05,0,0,1,1.169,1.744q-.457.306-.959.594A1.031,1.031,0,0,1,75,215.564Zm31.132-.934a1.05,1.05,0,0,1-.892-.494q-.277-.444-.559-.884a1.05,1.05,0,0,1,1.769-1.131q.288.451.569.9a1.049,1.049,0,0,1-.888,1.606ZM58.17,212.685a1.052,1.052,0,0,1-1-.718q-.18-.537-.314-1.1a1.05,1.05,0,1,1,2.044-.485c.075.317.163.625.263.924a1.052,1.052,0,0,1-1,1.384Zm20.736-.568a1.05,1.05,0,0,1-.86-1.652,9.286,9.286,0,0,0,.5-.8,1.05,1.05,0,1,1,1.836,1.019,11.247,11.247,0,0,1-.615.986A1.049,1.049,0,0,1,78.906,212.117Zm24.31-1.863a1.05,1.05,0,0,1-.856-.44q-.3-.424-.613-.844a1.05,1.05,0,0,1,1.691-1.245q.32.433.631.871a1.049,1.049,0,0,1-.853,1.659ZM57.51,207.5h-.042a1.05,1.05,0,0,1-1.007-1.091q.022-.551.076-1.111a1.05,1.05,0,0,1,2.091.2c-.033.334-.055.666-.068.994A1.051,1.051,0,0,1,57.51,207.5Zm23.258-.244a.987.987,0,0,1-.156-.012,1.052,1.052,0,0,1-.884-1.194c.048-.321.085-.648.113-.981a1.05,1.05,0,1,1,2.093.175q-.047.567-.129,1.115A1.049,1.049,0,0,1,80.769,207.255Zm19.244-1.166a1.047,1.047,0,0,1-.81-.381q-.331-.4-.668-.8a1.05,1.05,0,1,1,1.6-1.361q.347.408.688.82a1.049,1.049,0,0,1-.811,1.718Zm-41.6-3.756a1.085,1.085,0,0,1-.309-.046,1.051,1.051,0,0,1-.7-1.313q.162-.526.35-1.05a1.051,1.051,0,0,1,1.976.713c-.114.317-.221.634-.318.955A1.052,1.052,0,0,1,58.41,202.333Zm38.121-.177a1.045,1.045,0,0,1-.762-.329q-.362-.383-.721-.754a1.05,1.05,0,1,1,1.508-1.461q.367.378.738.771a1.051,1.051,0,0,1-.762,1.773Zm-15.717-.142a1.049,1.049,0,0,1-1.044-.947q-.049-.5-.116-1.019a1.05,1.05,0,0,1,2.083-.266c.046.363.087.724.123,1.078a1.05,1.05,0,0,1-.943,1.148C80.882,202.011,80.847,202.013,80.814,202.013Zm11.975-3.546a1.047,1.047,0,0,1-.706-.273q-.389-.353-.773-.691a1.05,1.05,0,1,1,1.385-1.578q.4.35.8.715a1.05,1.05,0,0,1-.707,1.827Zm-32.248-.925a1.051,1.051,0,0,1-.9-1.593q.287-.476.6-.936a1.05,1.05,0,0,1,1.739,1.178q-.28.414-.538.842A1.052,1.052,0,0,1,60.541,197.542Zm19.441-.716a1.052,1.052,0,0,1-1.028-.838q-.1-.506-.217-1.021a1.05,1.05,0,1,1,2.052-.447q.115.526.223,1.045a1.048,1.048,0,0,1-1.029,1.261Zm8.755-1.7a1.035,1.035,0,0,1-.623-.206q-.421-.31-.835-.6a1.05,1.05,0,1,1,1.206-1.719q.436.306.877.631a1.051,1.051,0,0,1-.625,1.9Zm-24.909-1.662a1.05,1.05,0,0,1-.714-1.82c.273-.254.556-.5.844-.736a1.05,1.05,0,0,1,1.328,1.627c-.255.208-.5.425-.745.649A1.046,1.046,0,0,1,63.828,193.461Zm20.491-1.175a1.053,1.053,0,0,1-.5-.127q-.455-.247-.9-.47a1.05,1.05,0,0,1,.938-1.879q.479.239.967.5a1.05,1.05,0,0,1-.5,1.973Zm-5.512-.584a1.05,1.05,0,0,1-1.02-.8l-.249-1.023a5.446,5.446,0,0,0-.076-1.238,1.056,1.056,0,0,1,1.276-.761c.352.089.708.188,1.068.3a1.05,1.05,0,0,1-.029,2.016l.053.214a1.051,1.051,0,0,1-.774,1.268A1.137,1.137,0,0,1,78.807,191.7ZM68.19,190.582a1.05,1.05,0,0,1-.418-2.013q.515-.224,1.05-.412a1.05,1.05,0,1,1,.7,1.981q-.465.164-.913.357A1.045,1.045,0,0,1,68.19,190.582Zm5.085-1.186a1.05,1.05,0,0,1-.054-2.1q.428-.022.866-.023l.264,0a1.05,1.05,0,0,1-.019,2.1h-.021l-.221,0q-.383,0-.759.02Zm4.293-2.8a1.049,1.049,0,0,1-1.021-.808l-.242-1.033a1.05,1.05,0,0,1,2.046-.473l.239,1.022a1.051,1.051,0,0,1-.779,1.264A1.148,1.148,0,0,1,77.568,186.593Zm-1.128-5.135a1.049,1.049,0,0,1-1.028-.844q-.1-.521-.2-1.048a1.05,1.05,0,1,1,2.064-.387q.1.514.2,1.024a1.051,1.051,0,0,1-.823,1.236A1.071,1.071,0,0,1,76.44,181.458Zm-.876-5.181a1.049,1.049,0,0,1-1.039-.907c-.048-.354-.093-.708-.137-1.064a1.05,1.05,0,1,1,2.086-.25q.061.515.132,1.029a1.049,1.049,0,0,1-.9,1.182A1.141,1.141,0,0,1,75.564,176.277Zm-.495-5.234a1.05,1.05,0,0,1-1.048-1q-.028-.539-.044-1.078a1.05,1.05,0,0,1,1.018-1.082,1.038,1.038,0,0,1,1.082,1.018c.011.347.025.691.042,1.035a1.05,1.05,0,0,1-1,1.1A.446.446,0,0,1,75.07,171.043Zm.007-5.259h-.059a1.049,1.049,0,0,1-.99-1.107c.02-.359.044-.719.072-1.078a1.05,1.05,0,1,1,2.094.165q-.041.515-.069,1.029A1.051,1.051,0,0,1,75.077,165.784Zm.606-5.219a1.05,1.05,0,0,1-1.034-1.237q.1-.531.206-1.063a1.05,1.05,0,0,1,2.056.428c-.069.336-.134.673-.2,1.009A1.048,1.048,0,0,1,75.683,160.564Zm1.271-5.094a1.062,1.062,0,0,1-.32-.05,1.05,1.05,0,0,1-.68-1.32c.109-.343.226-.686.347-1.029a1.051,1.051,0,0,1,1.982.7q-.172.485-.327.97A1.053,1.053,0,0,1,76.953,155.47Zm1.938-4.88a1.05,1.05,0,0,1-.947-1.5c.154-.325.313-.648.479-.971a1.05,1.05,0,0,1,1.872.952c-.155.307-.308.613-.454.921A1.056,1.056,0,0,1,78.891,150.59ZM81.445,146a1.051,1.051,0,0,1-.883-1.617q.29-.451.592-.9a1.05,1.05,0,1,1,1.742,1.173q-.291.43-.566.861A1.048,1.048,0,0,1,81.445,146Zm3.082-4.253a1.05,1.05,0,0,1-.815-1.712q.336-.414.688-.83a1.05,1.05,0,1,1,1.6,1.357c-.224.266-.444.53-.658.795A1.047,1.047,0,0,1,84.527,141.749Z" transform="translate(-56.46 -138.836)" fill="#d98490"/>
            </g>
            <g id="Grupo_1161820" data-name="Grupo 1161820" transform="translate(135.307 178.369)">
              <path id="Trazado_996150" data-name="Trazado 996150" d="M186.356,308.237a1.05,1.05,0,0,1-.086-2.1l.519-.044a1.05,1.05,0,1,1,.183,2.092l-.529.046C186.414,308.236,186.384,308.237,186.356,308.237Z" transform="translate(-185.307 -306.092)" fill="#d98490"/>
            </g>
          </g>
        </g>
        <g id="Grupo_1161823" data-name="Grupo 1161823" transform="translate(41.652 296.374)">
          <path id="Trazado_996151" data-name="Trazado 996151" d="M152.387,347.953H147.2a20.529,20.529,0,0,0-2.562-6.2l3.665-3.665a2.066,2.066,0,0,0,0-2.92l-3.806-3.81a2.067,2.067,0,0,0-2.923,0l-3.67,3.67a20.361,20.361,0,0,0-6.2-2.57v-5.182a2.066,2.066,0,0,0-2.066-2.066h-5.38a2.066,2.066,0,0,0-2.066,2.066v5.182a20.36,20.36,0,0,0-6.2,2.57l-3.67-3.67a2.067,2.067,0,0,0-2.923,0l-3.806,3.81a2.065,2.065,0,0,0,0,2.92l3.665,3.665a20.529,20.529,0,0,0-2.562,6.2h-5.19a2.066,2.066,0,0,0-2.066,2.066v5.387a2.066,2.066,0,0,0,2.066,2.066H106.7a20.467,20.467,0,0,0,2.57,6.2l-3.665,3.665a2.066,2.066,0,0,0,0,2.92l3.806,3.81a2.067,2.067,0,0,0,2.923,0l3.67-3.67a20.386,20.386,0,0,0,6.2,2.57v5.19a2.066,2.066,0,0,0,2.066,2.066h5.38a2.066,2.066,0,0,0,2.066-2.066v-5.19a20.359,20.359,0,0,0,6.2-2.57l3.67,3.67a2.067,2.067,0,0,0,2.923,0l3.806-3.81a2.065,2.065,0,0,0,0-2.92l-3.665-3.665a20.467,20.467,0,0,0,2.57-6.2h5.182a2.066,2.066,0,0,0,2.066-2.066v-5.387A2.065,2.065,0,0,0,152.387,347.953Zm-15.062,8.4a10.34,10.34,0,0,1-.46,1.114,11.037,11.037,0,0,1-5.159,5.159,10.967,10.967,0,0,1-9.51,0,11.041,11.041,0,0,1-5.159-5.159,10.342,10.342,0,0,1-.46-1.114,11.032,11.032,0,0,1,0-7.29,9.241,9.241,0,0,1,.466-1.114,11.006,11.006,0,0,1,5.152-5.152,10.352,10.352,0,0,1,1.114-.46,11.014,11.014,0,0,1,7.284,0,10.353,10.353,0,0,1,1.114.46,11.006,11.006,0,0,1,5.152,5.152,9.242,9.242,0,0,1,.466,1.114,11.032,11.032,0,0,1,0,7.29Z" transform="translate(-71.978 -325.212)" fill="#7d8ea0"/>
          <path id="Trazado_996152" data-name="Trazado 996152" d="M105.47,387.746h-3.155a12.464,12.464,0,0,0-1.557-3.767l2.227-2.227a1.254,1.254,0,0,0,0-1.775l-2.313-2.316a1.256,1.256,0,0,0-1.776,0l-2.231,2.23A12.368,12.368,0,0,0,92.9,378.33v-3.15a1.255,1.255,0,0,0-1.256-1.255h-3.27a1.256,1.256,0,0,0-1.256,1.255v3.15a12.379,12.379,0,0,0-3.767,1.562l-2.23-2.23a1.256,1.256,0,0,0-1.776,0l-2.313,2.316a1.256,1.256,0,0,0,0,1.775l2.227,2.227a12.465,12.465,0,0,0-1.557,3.767H74.546A1.256,1.256,0,0,0,73.29,389v3.274a1.256,1.256,0,0,0,1.256,1.256H77.7a12.431,12.431,0,0,0,1.562,3.767l-2.227,2.227a1.254,1.254,0,0,0,0,1.775l2.313,2.316a1.257,1.257,0,0,0,1.776,0l2.23-2.23a12.369,12.369,0,0,0,3.767,1.562V406.1a1.256,1.256,0,0,0,1.256,1.256h3.27A1.256,1.256,0,0,0,92.9,406.1v-3.155a12.38,12.38,0,0,0,3.767-1.562l2.231,2.23a1.255,1.255,0,0,0,1.776,0l2.313-2.316a1.255,1.255,0,0,0,0-1.775l-2.227-2.227a12.43,12.43,0,0,0,1.562-3.767h3.15a1.256,1.256,0,0,0,1.256-1.256V389A1.256,1.256,0,0,0,105.47,387.746Zm-9.155,5.108a6.376,6.376,0,0,1-.279.677,6.694,6.694,0,0,1-3.809,3.415,6.675,6.675,0,0,1-5.109-.279,6.713,6.713,0,0,1-3.136-3.136,6.373,6.373,0,0,1-.279-.677,6.7,6.7,0,0,1,0-4.432,5.623,5.623,0,0,1,.284-.677,6.7,6.7,0,0,1,3.132-3.132,6.376,6.376,0,0,1,.677-.279,6.689,6.689,0,0,1,4.427,0,6.377,6.377,0,0,1,.677.279,6.691,6.691,0,0,1,3.132,3.132,5.622,5.622,0,0,1,.284.677,6.7,6.7,0,0,1,0,4.432Z" transform="translate(-73.29 -322.77)" fill="#8bd2e7"/>
          <path id="Trazado_996153" data-name="Trazado 996153" d="M177.018,386.612c.159-.816,1.262-1.55,1.262-2.411s-1.1-1.6-1.262-2.411c-.166-.832.567-1.935.25-2.706s-1.626-1.043-2.094-1.739-.212-2-.809-2.593-1.889-.34-2.593-.809-.952-1.768-1.738-2.094-1.874.416-2.706.25c-.809-.159-1.55-1.262-2.411-1.262s-1.6,1.1-2.4,1.262c-.839.166-1.943-.567-2.714-.25s-1.035,1.626-1.731,2.094-2,.212-2.6.809-.34,1.9-.809,2.593-1.768.96-2.094,1.739.416,1.874.25,2.706c-.159.816-1.262,1.55-1.262,2.411s1.1,1.6,1.262,2.411c.166.832-.567,1.935-.25,2.706s1.633,1.043,2.094,1.738.211,2,.809,2.593,1.9.34,2.593.809.96,1.768,1.739,2.094,1.874-.416,2.714-.249c.809.159,1.55,1.262,2.4,1.262s1.6-1.1,2.411-1.262c.832-.166,1.935.567,2.706.249s1.043-1.626,1.738-2.094,2-.212,2.593-.809.34-1.9.809-2.593,1.768-.96,2.094-1.738S176.852,387.444,177.018,386.612Zm-12.1,4.521a6.931,6.931,0,1,1,6.932-6.932A6.935,6.935,0,0,1,164.916,391.133Z" transform="translate(-69.366 -322.924)" fill="#2b6b87"/>
        </g>
        <g id="Grupo_1161824" data-name="Grupo 1161824" transform="translate(225.727 10.714)">
          <path id="Trazado_996154" data-name="Trazado 996154" d="M317.575,79.829h-2.583a10.192,10.192,0,0,0-1.276-3.084l1.824-1.824a1.028,1.028,0,0,0,0-1.453l-1.894-1.9a1.027,1.027,0,0,0-1.454,0L310.364,73.4a10.12,10.12,0,0,0-3.084-1.279v-2.58a1.028,1.028,0,0,0-1.028-1.028h-2.678a1.028,1.028,0,0,0-1.028,1.028v2.579a10.119,10.119,0,0,0-3.084,1.279l-1.827-1.827a1.029,1.029,0,0,0-1.454,0l-1.894,1.9a1.028,1.028,0,0,0,0,1.453l1.824,1.824a10.219,10.219,0,0,0-1.276,3.084H292.25a1.028,1.028,0,0,0-1.028,1.028v2.681a1.028,1.028,0,0,0,1.028,1.028h2.58a10.164,10.164,0,0,0,1.279,3.084l-1.824,1.824a1.028,1.028,0,0,0,0,1.453l1.894,1.9a1.027,1.027,0,0,0,1.454,0L299.461,91a10.13,10.13,0,0,0,3.084,1.279v2.583a1.028,1.028,0,0,0,1.028,1.028h2.678a1.028,1.028,0,0,0,1.028-1.028V92.276A10.12,10.12,0,0,0,310.364,91l1.827,1.827a1.028,1.028,0,0,0,1.454,0l1.894-1.9a1.028,1.028,0,0,0,0-1.453l-1.824-1.824A10.165,10.165,0,0,0,315,84.566h2.58a1.028,1.028,0,0,0,1.028-1.028V80.856A1.029,1.029,0,0,0,317.575,79.829Zm-7.5,4.184a5.2,5.2,0,0,1-.229.554,5.5,5.5,0,0,1-2.569,2.569,5.352,5.352,0,0,1-.551.229,5.462,5.462,0,0,1-4.183-.229,5.5,5.5,0,0,1-2.569-2.569,5.485,5.485,0,0,1-.229-4.183,4.647,4.647,0,0,1,.232-.554,5.478,5.478,0,0,1,2.564-2.564,5.342,5.342,0,0,1,.555-.229,5.475,5.475,0,0,1,3.625,0,5.214,5.214,0,0,1,.555.229,5.473,5.473,0,0,1,2.564,2.564,4.642,4.642,0,0,1,.232.554,5.5,5.5,0,0,1,0,3.628Z" transform="translate(-246.438 -52.423)" fill="#c6209a"/>
          <path id="Trazado_996155" data-name="Trazado 996155" d="M284.46,75.421c.224-1.151,1.779-2.183,1.779-3.4s-1.555-2.247-1.779-3.4c-.234-1.172.8-2.727.352-3.813s-2.29-1.47-2.951-2.45-.3-2.823-1.139-3.653-2.663-.479-3.653-1.139-1.342-2.492-2.45-2.951c-1.087-.447-2.642.586-3.813.352-1.139-.224-2.183-1.779-3.4-1.779s-2.247,1.555-3.387,1.779c-1.182.234-2.738-.8-3.824-.352s-1.46,2.29-2.44,2.951-2.823.3-3.664,1.139-.479,2.674-1.139,3.653-2.493,1.353-2.951,2.45.586,2.641.352,3.813c-.224,1.15-1.779,2.183-1.779,3.4s1.555,2.247,1.779,3.4c.234,1.172-.8,2.726-.352,3.813s2.3,1.47,2.951,2.45.3,2.823,1.139,3.653,2.674.48,3.653,1.139,1.353,2.492,2.45,2.951,2.641-.586,3.824-.352c1.139.224,2.183,1.779,3.387,1.779s2.258-1.555,3.4-1.779c1.172-.234,2.727.8,3.813.352,1.108-.458,1.47-2.29,2.45-2.951s2.823-.3,3.653-1.139.48-2.674,1.139-3.653,2.493-1.353,2.951-2.45S284.226,76.592,284.46,75.421Zm-17.053,6.369a9.767,9.767,0,1,1,9.767-9.767A9.774,9.774,0,0,1,267.407,81.791Z" transform="translate(-248.576 -53.191)" fill="#7d8ea0"/>
        </g>
        <g id="Grupo_1161845" data-name="Grupo 1161845" transform="translate(311.445 274.95)">
          <g id="Grupo_1161825" data-name="Grupo 1161825" transform="translate(28.483 5.951)">
            <rect id="Rectángulo_413061" data-name="Rectángulo 413061" width="14.668" height="7.001" fill="#fec130"/>
          </g>
          <g id="Grupo_1161826" data-name="Grupo 1161826" transform="translate(25.778)">
            <path id="Trazado_996156" data-name="Trazado 996156" d="M372.952,304.811h-16.33a1.759,1.759,0,0,0-1.875,1.613v2.725a1.759,1.759,0,0,0,1.875,1.613h16.33a1.759,1.759,0,0,0,1.875-1.613v-2.725A1.758,1.758,0,0,0,372.952,304.811Z" transform="translate(-354.748 -304.811)" fill="#c6209a"/>
          </g>
          <g id="Grupo_1161827" data-name="Grupo 1161827" transform="translate(0 11.502)">
            <circle id="Elipse_12212" data-name="Elipse 12212" cx="35.817" cy="35.817" r="35.817" fill="#c6209a"/>
          </g>
          <g id="Grupo_1161828" data-name="Grupo 1161828" transform="translate(5.586 17.06)">
            <circle id="Elipse_12213" data-name="Elipse 12213" cx="25.49" cy="25.49" r="25.49" transform="translate(0 49.859) rotate(-77.948)" fill="#fec130"/>
          </g>
          <g id="Grupo_1161829" data-name="Grupo 1161829" transform="translate(29.506 41.008)">
            <path id="Trazado_996157" data-name="Trazado 996157" d="M370.921,350.172a6.311,6.311,0,1,1-6.311-6.311A6.312,6.312,0,0,1,370.921,350.172Z" transform="translate(-358.298 -343.861)" fill="#c6209a"/>
          </g>
          <g id="Grupo_1161830" data-name="Grupo 1161830" transform="translate(34.241 27.382)">
            <path id="Trazado_996158" data-name="Trazado 996158" d="M364.382,352.4a1.576,1.576,0,0,1-1.425-2.246L371.6,331.79a1.575,1.575,0,1,1,2.851,1.341l-8.639,18.363A1.574,1.574,0,0,1,364.382,352.4Z" transform="translate(-362.807 -330.885)" fill="#c6209a"/>
          </g>
          <g id="Grupo_1161837" data-name="Grupo 1161837" transform="translate(6.045 17.547)">
            <g id="Grupo_1161833" data-name="Grupo 1161833" transform="translate(28.722)">
              <g id="Grupo_1161831" data-name="Grupo 1161831">
                <path id="Trazado_996159" data-name="Trazado 996159" d="M364.358,330.1a1.049,1.049,0,0,1-1.05-1.05V322.57a1.05,1.05,0,0,1,2.1,0v6.476A1.049,1.049,0,0,1,364.358,330.1Z" transform="translate(-363.308 -321.52)" fill="#c6209a"/>
              </g>
              <g id="Grupo_1161832" data-name="Grupo 1161832" transform="translate(0 50.97)">
                <path id="Trazado_996160" data-name="Trazado 996160" d="M364.358,378.631a1.049,1.049,0,0,1-1.05-1.05v-6.475a1.05,1.05,0,0,1,2.1,0v6.475A1.049,1.049,0,0,1,364.358,378.631Z" transform="translate(-363.308 -370.056)" fill="#c6209a"/>
              </g>
            </g>
            <g id="Grupo_1161836" data-name="Grupo 1161836" transform="translate(0 28.723)">
              <g id="Grupo_1161834" data-name="Grupo 1161834" transform="translate(50.969)">
                <path id="Trazado_996161" data-name="Trazado 996161" d="M392.018,350.972h-6.476a1.05,1.05,0,1,1,0-2.1h6.476a1.05,1.05,0,1,1,0,2.1Z" transform="translate(-384.492 -348.872)" fill="#c6209a"/>
              </g>
              <g id="Grupo_1161835" data-name="Grupo 1161835">
                <path id="Trazado_996162" data-name="Trazado 996162" d="M343.483,350.972h-6.476a1.05,1.05,0,1,1,0-2.1h6.476a1.05,1.05,0,1,1,0,2.1Z" transform="translate(-335.957 -348.872)" fill="#c6209a"/>
              </g>
            </g>
          </g>
          <g id="Grupo_1161844" data-name="Grupo 1161844" transform="translate(14.719 26.222)">
            <g id="Grupo_1161840" data-name="Grupo 1161840">
              <g id="Grupo_1161838" data-name="Grupo 1161838" transform="translate(36.042)">
                <path id="Trazado_996163" data-name="Trazado 996163" d="M379.326,335.936a.788.788,0,0,1-.557-1.345l4.579-4.579a.788.788,0,0,1,1.114,1.114l-4.579,4.579A.786.786,0,0,1,379.326,335.936Z" transform="translate(-378.538 -329.781)" fill="#c6209a"/>
              </g>
              <g id="Grupo_1161839" data-name="Grupo 1161839" transform="translate(0 36.041)">
                <path id="Trazado_996164" data-name="Trazado 996164" d="M345,370.255a.788.788,0,0,1-.557-1.344l4.58-4.579a.788.788,0,1,1,1.114,1.114l-4.58,4.579A.787.787,0,0,1,345,370.255Z" transform="translate(-344.217 -364.101)" fill="#c6209a"/>
              </g>
            </g>
            <g id="Grupo_1161843" data-name="Grupo 1161843" transform="translate(0.001)">
              <g id="Grupo_1161841" data-name="Grupo 1161841" transform="translate(36.041 36.04)">
                <path id="Trazado_996165" data-name="Trazado 996165" d="M383.9,370.255a.781.781,0,0,1-.557-.231l-4.579-4.579a.788.788,0,1,1,1.114-1.114l4.579,4.579a.789.789,0,0,1-.558,1.345Z" transform="translate(-378.538 -364.1)" fill="#c6209a"/>
              </g>
              <g id="Grupo_1161842" data-name="Grupo 1161842">
                <path id="Trazado_996166" data-name="Trazado 996166" d="M349.585,335.936a.781.781,0,0,1-.557-.231l-4.58-4.579a.787.787,0,1,1,1.113-1.114l4.58,4.579a.788.788,0,0,1-.557,1.345Z" transform="translate(-344.218 -329.781)" fill="#c6209a"/>
              </g>
            </g>
          </g>
        </g>
        <g id="Grupo_1161846" data-name="Grupo 1161846" transform="translate(381.011 93.55)">
          <rect id="Rectángulo_413062" data-name="Rectángulo 413062" width="5.489" height="17.274" transform="translate(36.615 40.499) rotate(-45)" fill="#fec130"/>
          <path id="Trazado_996167" data-name="Trazado 996167" d="M437.614,179.27l14.961,14.961a4.264,4.264,0,0,0,6.03-6.03L443.644,173.24Z" transform="translate(-394.382 -130.008)" fill="#c6209a"/>
          <circle id="Elipse_12214" data-name="Elipse 12214" cx="23.838" cy="23.838" r="23.838" fill="#7d8ea0"/>
          <circle id="Elipse_12215" data-name="Elipse 12215" cx="16.856" cy="16.856" r="16.856" transform="translate(6.982 6.982)" fill="#8bd2e7"/>
          <path id="Trazado_996168" data-name="Trazado 996168" d="M416.783,143.368a2.509,2.509,0,1,1-3.548,0A2.509,2.509,0,0,1,416.783,143.368Z" transform="translate(-395.641 -131.542)" fill="#fff"/>
          <path id="Trazado_996169" data-name="Trazado 996169" d="M423.667,143.545a1.784,1.784,0,1,1-2.523,0A1.785,1.785,0,0,1,423.667,143.545Z" transform="translate(-395.234 -131.523)" fill="#fff"/>
        </g>
        <path id="Trazado_996170" data-name="Trazado 996170" d="M396.286,180.26,361.25,213.242l22.24,5.892-15.409,28.01L406.388,212.2l-23.519-6.232Z" transform="translate(-17.2 -36.106)" fill="#fec130"/>
        <path id="Trazado_996171" data-name="Trazado 996171" d="M67.736,235.617l16.177,34.3,9.838-15.231,17.237,18.375L94.138,235.832l-10.4,16.108Z" transform="translate(-31.916 -33.33)" fill="#fec130"/>
        <g id="Grupo_1161847" data-name="Grupo 1161847" transform="translate(122.318)">
          <path id="Trazado_996172" data-name="Trazado 996172" d="M212.711,45.374,224.243,76.81a3.642,3.642,0,0,1-2.163,4.671l-55.547,20.377a3.64,3.64,0,0,1-4.67-2.163L150.331,68.259a3.569,3.569,0,0,1,.063-2.66,3.626,3.626,0,0,1,2.1-2.011L208.04,43.211a3.629,3.629,0,0,1,2.9.175A3.567,3.567,0,0,1,212.711,45.374Z" transform="translate(-150.104 -42.988)" fill="#fec130"/>
          <path id="Trazado_996173" data-name="Trazado 996173" d="M210.929,43.387,205.276,59.12a4.68,4.68,0,0,1-2.791,2.81L168.81,74.283a4.679,4.679,0,0,1-3.945-.338L150.379,65.6a3.626,3.626,0,0,1,2.1-2.011l55.547-20.378A3.625,3.625,0,0,1,210.929,43.387Z" transform="translate(-150.091 -42.988)" fill="#f69c00"/>
        </g>
        <g id="Grupo_1161878" data-name="Grupo 1161878" transform="translate(126.685 66.772)">
          <g id="Grupo_1161849" data-name="Grupo 1161849" transform="translate(0 0)">
            <g id="Grupo_1161848" data-name="Grupo 1161848">
              <path id="Trazado_996174" data-name="Trazado 996174" d="M358.5,205.358a101.752,101.752,0,0,1-19.745,63.815,248.259,248.259,0,0,0-35.021,68.538l-4.049,12.111H213.134l-3.393-10.149a261.084,261.084,0,0,0-36-70.951,102.154,102.154,0,0,1,84.03-162.142C312.089,107.285,356.755,151.058,358.5,205.358Z" transform="translate(-154.263 -106.573)" fill="#fec130"/>
              <rect id="Rectángulo_413063" data-name="Rectángulo 413063" width="86.552" height="56.951" transform="translate(58.87 243.249)" fill="#8bd2e7"/>
              <path id="Trazado_996175" data-name="Trazado 996175" d="M276.377,410.3H230.821l-20.5-17.863h86.553Z" transform="translate(-151.452 -92.239)" fill="#7d8ea0"/>
              <path id="Trazado_996176" data-name="Trazado 996176" d="M259.683,425.165H245.556a15.715,15.715,0,0,1-15.715-15.715H275.4A15.715,15.715,0,0,1,259.683,425.165Z" transform="translate(-150.474 -91.387)" fill="#2b6b87"/>
              <path id="Trazado_996177" data-name="Trazado 996177" d="M295.276,355.351H212.3a5.808,5.808,0,0,1-5.808-5.807h0a5.808,5.808,0,0,1,5.808-5.807h82.972a5.808,5.808,0,0,1,5.808,5.807h0A5.808,5.808,0,0,1,295.276,355.351Z" transform="translate(-151.644 -94.681)" fill="#7d8ea0"/>
              <path id="Trazado_996178" data-name="Trazado 996178" d="M295.276,371.572H212.3a5.809,5.809,0,0,1-5.808-5.808h0a5.808,5.808,0,0,1,5.808-5.807h82.972a5.808,5.808,0,0,1,5.808,5.807h0A5.808,5.808,0,0,1,295.276,371.572Z" transform="translate(-151.644 -93.868)" fill="#7d8ea0"/>
              <path id="Trazado_996179" data-name="Trazado 996179" d="M295.276,387.793H212.3a5.808,5.808,0,0,1-5.808-5.807h0a5.809,5.809,0,0,1,5.808-5.808h82.972a5.809,5.809,0,0,1,5.808,5.808h0A5.808,5.808,0,0,1,295.276,387.793Z" transform="translate(-151.644 -93.055)" fill="#7d8ea0"/>
            </g>
            <path id="Trazado_996180" data-name="Trazado 996180" d="M311.171,142.712c-2.926,5.994-15.622,5.814-28.358-.4S262.123,126.2,265.048,120.2s15.622-5.814,28.358.4S314.1,136.719,311.171,142.712Z" transform="translate(-148.739 -106.109)" fill="#fff"/>
            <circle id="Elipse_12216" data-name="Elipse 12216" cx="7.83" cy="7.83" r="7.83" transform="translate(168.966 47.867)" fill="#fff"/>
          </g>
          <g id="Grupo_1161877" data-name="Grupo 1161877" transform="translate(7.787 17.414)">
            <g id="Grupo_1161863" data-name="Grupo 1161863" transform="translate(29.2 49.908)">
              <path id="Trazado_996181" data-name="Trazado 996181" d="M313.031,227.194a17.032,17.032,0,0,0-4.994-12.071,22.337,22.337,0,0,0-19.838-32.61c-.684,0-1.359.036-2.027.1a17.09,17.09,0,0,0-25.933-5.106,17.079,17.079,0,0,0-25.5-2.048,17.084,17.084,0,0,0-23.648,8.98,21.668,21.668,0,0,0-3.794,42.99c3.916,7.317,12.869,12.435,23.3,12.435a31.114,31.114,0,0,0,5.258-.446c3.024,4.819,9.9,8.657,18.624,10.452,3.009,6.243,10.889,10.849,20.387,11.434a13.187,13.187,0,0,0,.729,1.839,16.067,16.067,0,0,0,2.265,3.149c3.523,4.237,6.6,9.387,6.187,14.883l4.654-1.5a3.81,3.81,0,0,0,1.32-.623c1.354-1.135.583-3.279.059-4.965-1.538-4.956.163-10.338-.17-15.494,6.487-3.051,10.775-8.316,10.775-14.3,0-.226-.012-.449-.024-.673A17.081,17.081,0,0,0,313.031,227.194Z" transform="translate(-189.484 -170.68)" fill="#fdafb3" stroke="#fff" stroke-linecap="round" stroke-linejoin="round" stroke-miterlimit="10" stroke-width="9"/>
              <g id="Grupo_1161862" data-name="Grupo 1161862" transform="translate(0)">
                <path id="Trazado_996182" data-name="Trazado 996182" d="M297.641,241.582c0-9.437-10.641-17.087-23.767-17.087s-23.767,7.65-23.767,17.087c0,8.939,9.55,16.27,21.714,17.019a13.185,13.185,0,0,0,.729,1.839,16.069,16.069,0,0,0,2.265,3.149c3.523,4.237,6.6,9.387,6.187,14.883l4.654-1.5a3.811,3.811,0,0,0,1.32-.623c1.354-1.135.583-3.279.059-4.965-1.538-4.956.163-10.338-.17-15.494C293.352,252.836,297.641,247.571,297.641,241.582Z" transform="translate(-186.444 -167.982)" fill="#d98490"/>
                <path id="Trazado_996183" data-name="Trazado 996183" d="M308.036,215.123a22.337,22.337,0,0,0-19.838-32.61c-.684,0-1.359.036-2.027.1a17.09,17.09,0,0,0-25.933-5.106,17.079,17.079,0,0,0-25.5-2.048,17.084,17.084,0,0,0-23.648,8.98,21.668,21.668,0,0,0-3.794,42.99c3.916,7.317,12.869,12.435,23.3,12.435a31.114,31.114,0,0,0,5.258-.446c4.222,6.725,15.925,11.563,29.713,11.563,10.675,0,20.1-2.9,25.773-7.33a17.086,17.086,0,0,0,16.7-28.523Z" transform="translate(-189.484 -170.68)" fill="#c6209a"/>
                <g id="Grupo_1161850" data-name="Grupo 1161850" transform="translate(18.285 12.564)">
                  <path id="Trazado_996184" data-name="Trazado 996184" d="M210.7,212.768c-2.767-5.566,1.89-8.175,6.343-9.457,1.771-.509,3.464-1.085,4.557-2.663,1.145-1.654.913-3.12.805-5.009-.2-3.449-.481-5.244,2.5-7.5,2.3-1.745,5.389-2.059,8.16-2.412,1.93-.246,1.954-3.314,0-3.065-4.239.54-8.73,1.175-11.762,4.5a8.462,8.462,0,0,0-2.172,4.265c-.41,2.334,1.275,6.586-.923,8.271-1.546,1.185-4.328.963-6.114,1.795a8.879,8.879,0,0,0-3.493,2.881,9.434,9.434,0,0,0-.545,9.942c.88,1.767,3.525.216,2.648-1.546Z" transform="translate(-206.896 -182.644)" fill="#d98490"/>
                </g>
                <g id="Grupo_1161851" data-name="Grupo 1161851" transform="translate(64.435 14.687)">
                  <path id="Trazado_996185" data-name="Trazado 996185" d="M252.866,185.37a14.844,14.844,0,0,0-1.6,11.148c.978,4.089,3,3.441,6.122,4.842,4.131,1.852,3.351,7.556,7.211,10.2,3.943,2.7,8.947,1.95,13.357,1.227,1.942-.319,1.117-3.273-.815-2.955-4.954.813-11.163,1.44-13.3-4.336-.668-1.8-.566-3.945-1.982-5.44s-2.748-1.117-4.47-1.757c-4.5-1.672-4.189-7.857-1.881-11.378,1.085-1.656-1.568-3.193-2.646-1.549Z" transform="translate(-250.843 -184.666)" fill="#d98490"/>
                </g>
                <g id="Grupo_1161852" data-name="Grupo 1161852" transform="translate(26.06 35.022)">
                  <path id="Trazado_996186" data-name="Trazado 996186" d="M219.8,227.5c-2.646-2.662-3.427-6.28-.951-9.4,1.766-2.225,3.367-1.69,5.9-1.211,4.031.761,8.139,1.429,12.064-.218,2.79-1.171,3.375-3.038,5.149-5.285,3.559-4.509,9.656-5.9,13.7-1.146,1.28,1.5,3.439-.672,2.167-2.167-2.6-3.052-7.495-4.885-11.421-3.654a15.261,15.261,0,0,0-7.028,5.279,29.384,29.384,0,0,1-1.8,2.779c-2.082,2.147-5.462,2.334-8.3,2.061-4.457-.427-9.161-2.967-12.444,1.141-3.681,4.606-3.3,9.87.8,13.986A1.533,1.533,0,0,0,219.8,227.5Z" transform="translate(-214.3 -204.03)" fill="#d98490"/>
                </g>
                <g id="Grupo_1161853" data-name="Grupo 1161853" transform="translate(63.266 48.701)">
                  <path id="Trazado_996187" data-name="Trazado 996187" d="M249.88,218.165c-1.295,8.128,5.9,18.062,14.734,15.311,1.377-.428,2.308-1.333,3.557-1.943,4.937-2.413,7.986.3,11.686,2.99,5.1,3.709,7.465-.248,12.47-1.884,1.866-.61,1.068-3.572-.815-2.956-1.6.522-2.859,1.543-4.374,2.192-4.187,1.795-5.336-.2-8.421-2.335a11.914,11.914,0,0,0-8.8-1.768c-2.516.426-4.183,2.239-6.579,2.871-6.137,1.618-11.406-6.01-10.506-11.662.306-1.93-2.647-2.761-2.957-.815Z" transform="translate(-249.729 -217.055)" fill="#d98490"/>
                </g>
                <g id="Grupo_1161854" data-name="Grupo 1161854" transform="translate(92.487 16.808)">
                  <path id="Trazado_996188" data-name="Trazado 996188" d="M277.911,187.777c-.679,2.724-.578,6.066,2.022,7.783a7.336,7.336,0,0,0,4.054.947c2.141.048,3.913-.773,4.821,2.745a11.833,11.833,0,0,1-.237,3.574c-.311,2.308-1.136,4.741.623,6.673a5.682,5.682,0,0,0,7.484.573c1.58-1.149.052-3.809-1.547-2.646q-1.952,1.813-3.99-.816a12.791,12.791,0,0,1,.234-2.018c.105-.782.26-1.558.35-2.344a11.017,11.017,0,0,0-.418-5.6,5.182,5.182,0,0,0-3.627-3.1,18.106,18.106,0,0,0-2.566-.144c-3.441-.413-5.1-1.39-4.246-4.813.477-1.915-2.478-2.731-2.956-.816Z" transform="translate(-277.555 -186.685)" fill="#d98490"/>
                </g>
                <g id="Grupo_1161855" data-name="Grupo 1161855" transform="translate(37.835 9.237)">
                  <path id="Trazado_996189" data-name="Trazado 996189" d="M229.283,204.651q.477-2.679.956-5.359l2.131-1.389c1.223-.31,1.531.031,2.519.223a22.881,22.881,0,0,0,2.764.755,6.847,6.847,0,0,0,5.786-2.9,7.066,7.066,0,0,0,1.575-5.5c-.486-3.752-2.888-5.9,1.722-8.189,1.766-.879.215-3.523-1.547-2.646-2.684,1.335-4.965,3.063-4.646,6.31.15,1.535,1.1,2.854,1.321,4.354.505,3.347-1.87,5.727-5.154,5.2-3.1-.5-4.773-1.3-7.632.76-3.419,2.465-4.683,6.235-2.443,9.919,1.025,1.683,3.677.145,2.647-1.547Z" transform="translate(-225.513 -179.476)" fill="#d98490"/>
                </g>
                <g id="Grupo_1161856" data-name="Grupo 1161856" transform="translate(38.099 55.357)">
                  <path id="Trazado_996190" data-name="Trazado 996190" d="M227.994,229.727c3.1-2.154,8.918-5.488,11.243-.336.861,1.907.778,3.6,2.226,5.341A10.579,10.579,0,0,0,251.5,238.28c1.944-.288,1.117-3.242-.815-2.955-5.1.756-7.187-2.627-8.494-6.747-.607-1.913-.912-3.467-2.877-4.467-4.013-2.04-9.6.7-12.867,2.971-1.61,1.116-.08,3.774,1.547,2.646Z" transform="translate(-225.764 -223.394)" fill="#d98490"/>
                </g>
                <g id="Grupo_1161857" data-name="Grupo 1161857" transform="translate(5.766 20.22)">
                  <path id="Trazado_996191" data-name="Trazado 996191" d="M200.185,211.817c-1.886-2.808-3.094-6.417-1.179-9.574s5.186-2.379,8.058-3.753c2.919-1.4,3.854-4.5,3.066-7.468a1.534,1.534,0,0,0-2.956.815c1.292,4.865-5.275,4.27-7.649,5.676a9.289,9.289,0,0,0-3.662,4.145c-1.815,3.954-.642,8.258,1.675,11.707,1.094,1.629,3.751.1,2.647-1.548Z" transform="translate(-194.975 -189.935)" fill="#d98490"/>
                </g>
                <g id="Grupo_1161858" data-name="Grupo 1161858" transform="translate(74.632 46.062)">
                  <path id="Trazado_996192" data-name="Trazado 996192" d="M260.768,216.834c2.778,4.842,9.5,6.419,14.683,6.725a15.062,15.062,0,0,0,7.81-1.8c1.651-.8,3.333-2.049,5.117-2.514a5.509,5.509,0,0,1,6.648,7.062c-.594,1.886,2.364,2.693,2.956.815,1.686-5.354-2.912-12.528-8.986-11.306-4.238.853-7.511,4.452-11.93,4.747-4.3.287-11.377-1.313-13.652-5.277a1.534,1.534,0,0,0-2.647,1.547Z" transform="translate(-260.553 -214.543)" fill="#d98490"/>
                </g>
                <g id="Grupo_1161859" data-name="Grupo 1161859" transform="translate(79.398 8.516)">
                  <path id="Trazado_996193" data-name="Trazado 996193" d="M273.2,199.41c-2.63-1.622-5.33-4.019-4.962-7.44.354-3.3,2.948-3.324,4.653-5.47a5.871,5.871,0,0,0,.084-7.016c-1.1-1.627-3.754-.093-2.646,1.547,2.225,3.3-2.37,4.675-3.909,6.926a8.2,8.2,0,0,0-1.321,4.833c.127,4.163,3.233,7.218,6.555,9.267,1.682,1.04,3.224-1.611,1.546-2.646Z" transform="translate(-265.091 -178.79)" fill="#d98490"/>
                </g>
                <g id="Grupo_1161860" data-name="Grupo 1161860" transform="translate(75.587 75.584)">
                  <path id="Trazado_996194" data-name="Trazado 996194" d="M262.935,252.372a43.546,43.546,0,0,0,26.111-6.812c1.638-1.083.105-3.738-1.547-2.646a40.946,40.946,0,0,1-24.564,6.393c-1.968-.138-1.96,2.928,0,3.065Z" transform="translate(-261.463 -242.655)" fill="#fdafb3"/>
                </g>
                <g id="Grupo_1161861" data-name="Grupo 1161861" transform="translate(88.214 84.148)">
                  <path id="Trazado_996195" data-name="Trazado 996195" d="M275.409,256.316a28.851,28.851,0,0,0,8.053-2.684c1.766-.878.215-3.522-1.547-2.646a26.078,26.078,0,0,1-7.322,2.375c-1.94.341-1.117,3.3.815,2.955Z" transform="translate(-273.486 -250.81)" fill="#fdafb3"/>
                </g>
              </g>
            </g>
            <g id="Grupo_1161876" data-name="Grupo 1161876">
              <g id="Grupo_1161866" data-name="Grupo 1161866" transform="translate(0 81.57)">
                <g id="Grupo_1161864" data-name="Grupo 1161864">
                  <path id="Trazado_996196" data-name="Trazado 996196" d="M178.536,204.917H163.722a2.044,2.044,0,0,1,0-4.087h14.814a2.044,2.044,0,0,1,0,4.087Z" transform="translate(-161.678 -200.83)" fill="#f69c00"/>
                </g>
                <g id="Grupo_1161865" data-name="Grupo 1161865" transform="translate(164.878)">
                  <path id="Trazado_996197" data-name="Trazado 996197" d="M335.542,204.917H320.728a2.044,2.044,0,1,1,0-4.087h14.814a2.044,2.044,0,0,1,0,4.087Z" transform="translate(-318.684 -200.83)" fill="#f69c00"/>
                </g>
              </g>
              <g id="Grupo_1161869" data-name="Grupo 1161869" transform="translate(31.662 22.691)">
                <g id="Grupo_1161867" data-name="Grupo 1161867">
                  <path id="Trazado_996198" data-name="Trazado 996198" d="M204.347,159.325a2.037,2.037,0,0,1-1.445-.6l-10.475-10.476a2.043,2.043,0,0,1,2.89-2.889l10.475,10.476a2.043,2.043,0,0,1-1.445,3.488Z" transform="translate(-191.828 -144.763)" fill="#f69c00"/>
                </g>
                <g id="Grupo_1161868" data-name="Grupo 1161868" transform="translate(116.586 116.587)">
                  <path id="Trazado_996199" data-name="Trazado 996199" d="M315.367,270.345a2.037,2.037,0,0,1-1.445-.6l-10.475-10.475a2.043,2.043,0,0,1,2.89-2.889l10.475,10.475a2.043,2.043,0,0,1-1.445,3.488Z" transform="translate(-302.848 -255.784)" fill="#f69c00"/>
                </g>
              </g>
              <g id="Grupo_1161872" data-name="Grupo 1161872" transform="translate(91.419)">
                <g id="Grupo_1161870" data-name="Grupo 1161870">
                  <path id="Trazado_996200" data-name="Trazado 996200" d="M250.776,142.056a2.043,2.043,0,0,1-2.044-2.044V125.2a2.043,2.043,0,1,1,4.086,0v14.814A2.042,2.042,0,0,1,250.776,142.056Z" transform="translate(-248.732 -123.155)" fill="#f69c00"/>
                </g>
                <g id="Grupo_1161871" data-name="Grupo 1161871" transform="translate(0 164.877)">
                  <path id="Trazado_996201" data-name="Trazado 996201" d="M250.776,299.061a2.043,2.043,0,0,1-2.044-2.044V282.2a2.043,2.043,0,1,1,4.086,0v14.814A2.042,2.042,0,0,1,250.776,299.061Z" transform="translate(-248.732 -280.16)" fill="#f69c00"/>
                </g>
              </g>
              <g id="Grupo_1161875" data-name="Grupo 1161875" transform="translate(31.662 24.834)">
                <g id="Grupo_1161873" data-name="Grupo 1161873" transform="translate(116.585)">
                  <path id="Trazado_996202" data-name="Trazado 996202" d="M304.891,161.366a2.044,2.044,0,0,1-1.445-3.489L313.921,147.4a2.043,2.043,0,0,1,2.889,2.89l-10.475,10.476A2.033,2.033,0,0,1,304.891,161.366Z" transform="translate(-302.847 -146.803)" fill="#f69c00"/>
                </g>
                <g id="Grupo_1161874" data-name="Grupo 1161874" transform="translate(0 116.587)">
                  <path id="Trazado_996203" data-name="Trazado 996203" d="M193.872,272.385a2.043,2.043,0,0,1-1.445-3.488L202.9,258.423a2.043,2.043,0,1,1,2.889,2.89l-10.475,10.475A2.036,2.036,0,0,1,193.872,272.385Z" transform="translate(-191.828 -257.824)" fill="#f69c00"/>
                </g>
              </g>
            </g>
          </g>
        </g>
        <g id="Grupo_1161886" data-name="Grupo 1161886" transform="translate(0 238.179)">
          <g id="Grupo_1161879" data-name="Grupo 1161879" transform="translate(0 26.08)">
            <path id="Trazado_996204" data-name="Trazado 996204" d="M40.167,294.63l-5.733,5.732a2.76,2.76,0,0,0,0,3.9l36.492,36.491,7.683-7.683Z" transform="translate(-33.627 -294.63)" fill="#a81a8a"/>
          </g>
          <g id="Grupo_1161880" data-name="Grupo 1161880" transform="translate(1.375 0)">
            <rect id="Rectángulo_413064" data-name="Rectángulo 413064" width="44.183" height="49.799" transform="translate(0 31.241) rotate(-45)" fill="#c6209a"/>
          </g>
          <g id="Grupo_1161881" data-name="Grupo 1161881" transform="translate(37.239 37.111)">
            <path id="Trazado_996205" data-name="Trazado 996205" d="M101.057,308.321a4.531,4.531,0,0,0,3.177,1.335L74.4,339.489a2.666,2.666,0,0,1-3.061.519,4.76,4.76,0,0,1-1.133-.837,4.863,4.863,0,0,1-.847-1.144,2.664,2.664,0,0,1,.519-3.06l29.833-29.833A4.546,4.546,0,0,0,101.057,308.321Z" transform="translate(-69.087 -305.134)" fill="#fec130"/>
          </g>
          <g id="Grupo_1161882" data-name="Grupo 1161882" transform="translate(35.956 35.216)">
            <path id="Trazado_996206" data-name="Trazado 996206" d="M69.942,335.056a2.64,2.64,0,0,0-.515,3.059,4.636,4.636,0,0,0,1.981,1.98,2.638,2.638,0,0,0,3.056-.516l30.764-30.764.964.964L75.66,340.311a4.609,4.609,0,0,1-3.272,1.345,4.576,4.576,0,0,1-4.522-4.522v-.042a4.6,4.6,0,0,1,1.345-3.23L99.743,303.33l.964.964Z" transform="translate(-67.866 -303.33)" fill="#e52cbd"/>
          </g>
          <g id="Grupo_1161883" data-name="Grupo 1161883" transform="translate(40.048 42.467)">
            <path id="Trazado_996207" data-name="Trazado 996207" d="M98.579,311.193,72.721,337.051a.561.561,0,0,1-.794-.794L97.786,310.4a.561.561,0,1,1,.794.794Z" transform="translate(-71.762 -310.234)" fill="#f69c00"/>
          </g>
          <g id="Grupo_1161884" data-name="Grupo 1161884" transform="translate(43.611 63.415)">
            <path id="Trazado_996208" data-name="Trazado 996208" d="M84.815,337.371l-2.295.176-.177,2.295-7.188-7.189,2.471-2.471Z" transform="translate(-75.155 -330.182)" fill="#7d8ea0"/>
          </g>
          <g id="Grupo_1161885" data-name="Grupo 1161885" transform="translate(20.526 19.151)">
            <rect id="Rectángulo_413065" data-name="Rectángulo 413065" width="24.712" height="6.24" transform="translate(0 17.474) rotate(-45)" fill="#fff"/>
          </g>
        </g>
      </g>
    </g>
  </g>
</svg>
