<svg xmlns="http://www.w3.org/2000/svg" xmlns:xlink="http://www.w3.org/1999/xlink" width="108" height="108" viewBox="0 0 108 108">
  <defs>
    <filter id="Trazado_982547" x="0" y="0" width="108" height="108" filterUnits="userSpaceOnUse">
      <feOffset dy="3" input="SourceAlpha"/>
      <feGaussianBlur stdDeviation="3" result="blur"/>
      <feFlood flood-opacity="0.161"/>
      <feComposite operator="in" in2="blur"/>
      <feComposite in="SourceGraphic"/>
    </filter>
  </defs>
  <g id="Grupo_1160898" data-name="Grupo 1160898" transform="translate(-166 -750)">
    <g id="Grupo_1160503" data-name="Grupo 1160503" transform="translate(13 -4350)">
      <g id="Grupo_1154734" data-name="Grupo 1154734" transform="translate(-3324 1034)">
        <g id="Grupo_1153177" data-name="Grupo 1153177" transform="translate(362 3397)">
          <g id="Grupo_1149598" data-name="Grupo 1149598" transform="translate(80 315)">
            <g id="Grupo_1148770" data-name="Grupo 1148770" transform="translate(-27 -2583)">
              <g id="Grupo_1146954" data-name="Grupo 1146954" transform="translate(-415 -1202)">
                <g transform="matrix(1, 0, 0, 1, 3477, 4139)" filter="url(#Trazado_982547)">
                  <g id="Trazado_982547-2" data-name="Trazado 982547" transform="translate(9 6)" fill="#fbeaee">
                    <path d="M 45 88.5 C 39.12687683105469 88.5 33.43022537231445 87.35007476806641 28.06830024719238 85.08217620849609 C 22.88852500915527 82.89131164550781 18.23629951477051 79.75458526611328 14.2408504486084 75.75914764404297 C 10.24541282653809 71.76370239257812 7.108687400817871 67.11147308349609 4.917825222015381 61.93170166015625 C 2.649924993515015 56.56977462768555 1.5 50.87312316894531 1.5 45 C 1.5 39.12687683105469 2.649924993515015 33.43022537231445 4.917825222015381 28.06830024719238 C 7.108687400817871 22.88852500915527 10.24541282653809 18.23629951477051 14.2408504486084 14.2408504486084 C 18.23629951477051 10.24541282653809 22.88852500915527 7.108687400817871 28.06830024719238 4.917825222015381 C 33.43022537231445 2.649924993515015 39.12687683105469 1.5 45 1.5 C 50.87312316894531 1.5 56.56977462768555 2.649924993515015 61.93170166015625 4.917825222015381 C 67.11147308349609 7.108687400817871 71.76370239257812 10.24541282653809 75.75914764404297 14.2408504486084 C 79.75458526611328 18.23629951477051 82.89131164550781 22.88852500915527 85.08217620849609 28.06830024719238 C 87.35007476806641 33.43022537231445 88.5 39.12687683105469 88.5 45 C 88.5 50.87312316894531 87.35007476806641 56.56977462768555 85.08217620849609 61.93170166015625 C 82.89131164550781 67.11147308349609 79.75458526611328 71.76370239257812 75.75914764404297 75.75914764404297 C 71.76370239257812 79.75458526611328 67.11147308349609 82.89131164550781 61.93170166015625 85.08217620849609 C 56.56977462768555 87.35007476806641 50.87312316894531 88.5 45 88.5 Z" stroke="none"/>
                    <path d="M 45 3 C 39.32871246337891 3 33.82865524291992 4.110054016113281 28.65262985229492 6.299339294433594 C 23.65165710449219 8.414573669433594 19.15968322753906 11.44334411621094 15.301513671875 15.301513671875 C 11.44334411621094 19.15968322753906 8.414573669433594 23.65165710449219 6.299339294433594 28.65262985229492 C 4.110054016113281 33.82865524291992 3 39.32871246337891 3 45 C 3 50.67128753662109 4.110054016113281 56.17134475708008 6.299339294433594 61.34737396240234 C 8.414573669433594 66.34834289550781 11.44334411621094 70.84031677246094 15.301513671875 74.698486328125 C 19.15968322753906 78.55665588378906 23.65165710449219 81.58542633056641 28.65262985229492 83.70066070556641 C 33.82865524291992 85.88994598388672 39.32871246337891 87 45 87 C 50.67128753662109 87 56.17134475708008 85.88994598388672 61.34737396240234 83.70066070556641 C 66.34834289550781 81.58542633056641 70.84031677246094 78.55665588378906 74.698486328125 74.698486328125 C 78.55665588378906 70.84031677246094 81.58542633056641 66.34834289550781 83.70066070556641 61.34737396240234 C 85.88994598388672 56.17134475708008 87 50.67128753662109 87 45 C 87 39.32871246337891 85.88994598388672 33.82865524291992 83.70066070556641 28.65262985229492 C 81.58542633056641 23.65165710449219 78.55665588378906 19.15968322753906 74.698486328125 15.301513671875 C 70.84031677246094 11.44334411621094 66.34834289550781 8.414573669433594 61.34737396240234 6.299339294433594 C 56.17134475708008 4.110054016113281 50.67128753662109 3 45 3 M 45 0 C 69.85281372070312 0 90 20.14718627929688 90 45 C 90 69.85281372070312 69.85281372070312 90 45 90 C 20.14718627929688 90 0 69.85281372070312 0 45 C 0 20.14718627929688 20.14718627929688 0 45 0 Z" stroke="none" fill="#e23e64"/>
                  </g>
                </g>
              </g>
            </g>
          </g>
        </g>
      </g>
    </g>
    <g id="Layer_x0020_1" transform="translate(194.89 772)">
      <path id="Trazado_995178" data-name="Trazado 995178" d="M32.886,8.2H3.52a3.408,3.408,0,0,1-3.4-3.4V2.067a.673.673,0,0,1,.672-.672h30.26a.672.672,0,0,1,0,1.345H1.461V4.8a2.061,2.061,0,0,0,2.06,2.058H32.887a.673.673,0,0,1,0,1.346Z" transform="translate(0.185 45.499)" fill-rule="evenodd"/>
      <path id="Trazado_995179" data-name="Trazado 995179" d="M11.225,5.352H1.207A.673.673,0,0,1,.535,4.68V2.067a.673.673,0,0,1,.672-.672H11.225a.673.673,0,0,1,.672.672V4.68a.673.673,0,0,1-.673.672ZM1.879,4.007h8.674V2.74H1.879Z" transform="translate(13.841 45.499)" fill-rule="evenodd"/>
      <path id="Trazado_995180" data-name="Trazado 995180" d="M6.246,12.563a6.136,6.136,0,1,1,6.136-6.136A6.143,6.143,0,0,1,6.246,12.563Zm0-10.927a4.791,4.791,0,1,0,4.791,4.792A4.8,4.8,0,0,0,6.246,1.636Z" transform="translate(0 9.481)" fill-rule="evenodd"/>
      <path id="Trazado_995181" data-name="Trazado 995181" d="M5.1,6.133A6.108,6.108,0,0,1,.291,3.808.673.673,0,0,1,.267,3,5.9,5.9,0,0,1,9.934,3a.672.672,0,0,1-.024.8A6.109,6.109,0,0,1,5.1,6.133ZM1.693,3.365a4.792,4.792,0,0,0,6.816,0,4.555,4.555,0,0,0-6.816,0Z" transform="translate(1.146 15.911)" fill-rule="evenodd"/>
      <path id="Trazado_995182" data-name="Trazado 995182" d="M2.952,5.847A2.741,2.741,0,1,1,5.694,3.106,2.744,2.744,0,0,1,2.952,5.847Zm0-4.138a1.4,1.4,0,1,0,1.4,1.4A1.4,1.4,0,0,0,2.952,1.709Z" transform="translate(3.294 11.896)" fill-rule="evenodd"/>
      <path id="Trazado_995183" data-name="Trazado 995183" d="M6.891,12a5.629,5.629,0,1,1,5.629-5.63A5.636,5.636,0,0,1,6.891,12Zm0-9.913a4.284,4.284,0,1,0,4.284,4.284A4.289,4.289,0,0,0,6.891,2.091Z" transform="translate(37.557 24.35)" fill-rule="evenodd"/>
      <path id="Trazado_995184" data-name="Trazado 995184" d="M2.852,7.109A1.484,1.484,0,0,1,1.358,5.623V2.312A1.493,1.493,0,0,1,3.595,1.019L6.457,2.672a1.494,1.494,0,0,1,0,2.586L3.595,6.91a1.491,1.491,0,0,1-.743.2Zm0-4.944a.146.146,0,0,0-.147.153v3.3a.147.147,0,0,0,.15.148.138.138,0,0,0,.071-.02L5.785,4.092a.149.149,0,0,0,0-.256L2.923,2.185a.142.142,0,0,0-.074-.019Z" transform="translate(40.692 26.76)" fill-rule="evenodd"/>
      <path id="Trazado_995185" data-name="Trazado 995185" d="M12.361,15.043a.67.67,0,0,1-.324-.084l-3.273-1.8A6.537,6.537,0,0,1,1.2,6.707a6.533,6.533,0,1,1,11.916,3.7l-.08,3.976a.673.673,0,0,1-.672.659ZM8.88,11.781a.67.67,0,0,1,.324.084l2.507,1.38.062-3.072a.674.674,0,0,1,.131-.386A5.188,5.188,0,1,0,7.73,11.9a5.242,5.242,0,0,0,1.019-.1.644.644,0,0,1,.131-.014Z" transform="translate(35.448 5.674)" fill-rule="evenodd"/>
      <path id="Trazado_995186" data-name="Trazado 995186" d="M7.573,1.681H1.96a.672.672,0,0,1,0-1.345H7.573a.672.672,0,0,1,0,1.345Z" transform="translate(38.412 10.983)" fill-rule="evenodd"/>
      <path id="Trazado_995187" data-name="Trazado 995187" d="M7.574,1.762H1.96a.672.672,0,0,1,0-1.345H7.574a.672.672,0,0,1,0,1.345Z" transform="translate(38.412 13.607)" fill-rule="evenodd"/>
      <path id="Trazado_995188" data-name="Trazado 995188" d="M5.736,1.613H1.994a.672.672,0,1,1,0-1.345H5.736a.672.672,0,0,1,0,1.345Z" transform="translate(39.525 8.755)" fill-rule="evenodd"/>
      <path id="Trazado_995189" data-name="Trazado 995189" d="M18.334,12.5,12.769,2.858a.664.664,0,0,0-1.15.665l1.94,3.36a.673.673,0,1,1-1.165.672L10.447,4.183A.664.664,0,0,0,9.3,4.859l1.94,3.36a.673.673,0,0,1-1.165.672L8.131,5.517A.664.664,0,0,0,6.989,6.2l1.94,3.36a.673.673,0,0,1-1.165.672L3.474,2.8a.664.664,0,0,0-1.15.665c.93,1.612,3.951,7.024,4.819,8.187a.673.673,0,0,1-.767,1.05c-1.966-.7-3.2-1.117-3.57-.877,0,.006-.108.694,1.16,1.459l4.113,2.644A8.8,8.8,0,0,0,12.41,17.1a.672.672,0,0,1,.561.336l1.4,2.427a.673.673,0,0,1-1.165.673l-1.218-2.109a9.8,9.8,0,0,1-4.656-1.384L3.272,14.433A3.617,3.617,0,0,1,1.48,12.147a1.412,1.412,0,0,1,.488-1.377c.679-.533,1.8-.369,3.029.012L1.159,4.134A2.009,2.009,0,0,1,4.639,2.125l1.4,2.428A2.006,2.006,0,0,1,7.972,3.9a2.006,2.006,0,0,1,2.315-1.336,2.01,2.01,0,0,1,3.646-.376l5.55,9.613a2.7,2.7,0,0,1,.269,2.1l1.141,1.975a.672.672,0,0,1-1.165.673l-1.3-2.259c-.329-.569.422-.933-.09-1.793Z" transform="translate(25.295 36.497)" fill-rule="evenodd"/>
      <path id="Trazado_995190" data-name="Trazado 995190" d="M4.433,3.412A4.786,4.786,0,0,0,7,2.059a4.555,4.555,0,0,0-6.813,0A4.787,4.787,0,0,0,2.767,3.412a4.837,4.837,0,0,0,.831.072,4.836,4.836,0,0,0,.8-.066l.038-.007Z" transform="translate(2.648 17.215)" fill="#8dbd57" fill-rule="evenodd"/>
      <path id="Trazado_995191" data-name="Trazado 995191" d="M1.648,3.2a1.4,1.4,0,1,0-1.4-1.4A1.4,1.4,0,0,0,1.648,3.2Z" transform="translate(4.599 13.201)" fill="#ffe5c1" fill-rule="evenodd"/>
      <path id="Trazado_995192" data-name="Trazado 995192" d="M4.942,1.475A2.74,2.74,0,0,1,7.026,5.994a5.916,5.916,0,0,1,2.135,1.4A4.791,4.791,0,1,0,.15,5.122,4.762,4.762,0,0,0,.722,7.39a5.916,5.916,0,0,1,2.135-1.4A2.74,2.74,0,0,1,4.942,1.475Z" transform="translate(1.305 10.786)" fill="#ffe5c1" fill-rule="evenodd"/>
      <path id="Trazado_995193" data-name="Trazado 995193" d="M21.156,22.913h0ZM6.294,2.431A2.617,2.617,0,0,1,6.42.735H2.369A2.141,2.141,0,0,0,.23,2.874V22.913H26.159l-.979-1.7H2.6a.673.673,0,0,1-.672-.672V3.1A.672.672,0,0,1,2.6,2.431h3.7Z" transform="translate(3.911 23.981)" fill="#7a7a7a" fill-rule="evenodd"/>
      <path id="Trazado_995194" data-name="Trazado 995194" d="M13.558,4.048a.673.673,0,0,1-.672-.672V1.435H.156V3.494a2.061,2.061,0,0,0,2.06,2.058H29.294L27.076,4.126A3.616,3.616,0,0,1,25.284,1.84a2.025,2.025,0,0,1-.012-.405H24.249v1.94a.673.673,0,0,1-.673.672H13.558Z" transform="translate(1.49 46.804)" fill="#5e5d5d" fill-rule="evenodd"/>
      <path id="Trazado_995195" data-name="Trazado 995195" d="M.575,2.7H9.248V1.435H.575Z" transform="translate(15.146 46.804)" fill="#545353" fill-rule="evenodd"/>
      <path id="Trazado_995196" data-name="Trazado 995196" d="M1.4,1.014v3.3a.147.147,0,0,0,.15.148.138.138,0,0,0,.071-.02L4.48,2.787a.149.149,0,0,0,0-.256L1.618.88A.141.141,0,0,0,1.545.86a.146.146,0,0,0-.147.153Z" transform="translate(41.997 28.065)" fill="#ffe470" fill-rule="evenodd"/>
      <path id="Trazado_995197" data-name="Trazado 995197" d="M5.424,2.125,8.287,3.778a1.494,1.494,0,0,1,0,2.586L5.424,8.016A1.492,1.492,0,0,1,3.188,6.729V3.418A1.493,1.493,0,0,1,5.424,2.125ZM1.3,5.07A4.284,4.284,0,1,0,5.586.787,4.289,4.289,0,0,0,1.3,5.07Z" transform="translate(38.863 25.654)" fill="#eb5468" fill-rule="evenodd"/>
      <path id="Trazado_995198" data-name="Trazado 995198" d="M13.12,18.656l5.513-3.183a.706.706,0,0,1-.2-.229l-1.3-2.259c-.329-.569.422-.933-.09-1.793L11.47,1.552a.664.664,0,0,0-1.15.665l1.94,3.36a.673.673,0,1,1-1.165.672L9.148,2.877A.664.664,0,0,0,8,3.553l1.94,3.36a.673.673,0,0,1-1.165.672L6.832,4.211A.707.707,0,0,0,6.7,4.045a.672.672,0,0,1-.131-.091.674.674,0,0,0-.877.935l1.94,3.36a.673.673,0,0,1-1.165.672l-4.29-7.43a.664.664,0,0,0-1.15.665c.449.779,1.386,2.444,2.333,4.089a.673.673,0,0,1,.178.308C4.488,8.2,5.421,9.777,5.843,10.343a.673.673,0,0,1-.767,1.05c-1.966-.7-3.2-1.117-3.57-.877,0,.006-.108.694,1.16,1.459l4.113,2.644A8.8,8.8,0,0,0,11.111,15.8a.672.672,0,0,1,.561.336l1.4,2.427a.807.807,0,0,1,.048.1Z" transform="translate(26.594 37.804)" fill="#ffc6b9" fill-rule="evenodd"/>
      <path id="Trazado_995199" data-name="Trazado 995199" d="M3.618,7.045H9.232a.672.672,0,0,1,0,1.345H3.618a.672.672,0,0,1,0-1.345ZM1.237,5.4A5.193,5.193,0,0,0,7.443,10.49a.643.643,0,0,1,.131-.014.67.67,0,0,1,.324.084l2.507,1.38.062-3.072a.674.674,0,0,1,.131-.386A5.188,5.188,0,1,0,1.237,5.4Zm8,.284H3.619a.672.672,0,0,1,0-1.345H9.232a.672.672,0,0,1,0,1.345Zm-.724-2.3H4.343a.672.672,0,1,1,0-1.345H8.508a.672.672,0,0,1,0,1.345Z" transform="translate(36.753 6.979)" fill="#1ab193" fill-rule="evenodd"/>
      <path id="Trazado_995200" data-name="Trazado 995200" d="M28.628,25.563H.862a.673.673,0,0,1-.672-.672V4.179A3.488,3.488,0,0,1,3.674.7H9.189a.672.672,0,0,1,.335,1.255,1.283,1.283,0,0,0-.62.789,1.262,1.262,0,0,0,.125.963l1.388,2.405a1.3,1.3,0,0,0,1.766.473L16.312,4.2l-.541-.937a.672.672,0,0,1,1.164-.672L17.6,3.732l9.338-.888L26.276,1.7A.672.672,0,0,1,26.859.7H31.2a3.514,3.514,0,0,1,3.511,3.51V15.963a.672.672,0,1,1-1.345,0V4.205A2.168,2.168,0,0,0,31.2,2.04h-3.18l.6,1.038A.672.672,0,0,1,28.1,4.083L17.441,5.1,12.855,7.745a2.643,2.643,0,0,1-3.6-.965l-1.388-2.4A2.594,2.594,0,0,1,7.6,2.392a2.672,2.672,0,0,1,.121-.352H3.674A2.141,2.141,0,0,0,1.535,4.179V24.218H28.629a.673.673,0,0,1,0,1.345Z" transform="translate(2.606 22.677)" fill-rule="evenodd"/>
      <path id="Trazado_995201" data-name="Trazado 995201" d="M23.923,19.572H.953A.673.673,0,0,1,.281,18.9V1.458A.672.672,0,0,1,.953.786H5.708a.671.671,0,0,1,.582.336L7.465,3.157a1.3,1.3,0,0,0,1.766.473L13.793,1A.645.645,0,0,1,14.26.786H28.05a.673.673,0,0,1,.672.672V15.627a.672.672,0,0,1-1.345,0V2.13H14.52L9.9,4.795A2.643,2.643,0,0,1,6.3,3.83l-.981-1.7h-3.7v16.1h22.3a.672.672,0,0,1,0,1.345Z" transform="translate(5.556 25.627)" fill-rule="evenodd"/>
      <path id="Trazado_995202" data-name="Trazado 995202" d="M3.994,2.431a.673.673,0,0,1,.672.672V15.245a2,2,0,0,1,1.3-.168,2.012,2.012,0,0,1,.393-.7V2.9A2.168,2.168,0,0,0,4.2.735H1.018l.6,1.038a.671.671,0,0,1,.015.644l-.007.014H3.994Z" transform="translate(29.612 23.981)" fill="#7a7a7a" fill-rule="evenodd"/>
      <path id="Trazado_995203" data-name="Trazado 995203" d="M4.436,10.729a2.649,2.649,0,0,1-2.29-1.317L.758,7.008a2.617,2.617,0,0,1,.957-3.571L6.447.7a.672.672,0,0,1,.918.246l3.342,5.788a.673.673,0,0,1-.246.919l-4.712,2.72a2.635,2.635,0,0,1-1.313.352ZM6.537,2.2,2.387,4.6a1.271,1.271,0,0,0-.465,1.734l1.389,2.4a1.3,1.3,0,0,0,1.125.645,1.282,1.282,0,0,0,.641-.172l4.13-2.384L6.537,2.2Z" transform="translate(9.711 20.044)" fill-rule="evenodd"/>
      <path id="Trazado_995204" data-name="Trazado 995204" d="M4.592,16.332A.672.672,0,0,1,4.01,16L.668,10.207A.672.672,0,0,1,.7,9.481L7,.634a.672.672,0,0,1,1.13.053l7.856,13.607a.672.672,0,0,1-.519,1.005L4.656,16.328a.509.509,0,0,1-.064,0ZM2.049,9.909l2.91,5.04,9.337-.889L7.486,2.266,2.049,9.909Z" transform="translate(15.244 11.459)" fill-rule="evenodd"/>
      <path id="Trazado_995205" data-name="Trazado 995205" d="M4.78,7.888A.671.671,0,0,1,4.2,7.552L.923,1.88A.672.672,0,0,1,1.178.957,3.947,3.947,0,0,1,5.125,7.792a.675.675,0,0,1-.345.1Zm-2.3-6.009,2.5,4.33a2.6,2.6,0,0,0-2.5-4.33Z" transform="translate(23.575 14.907)" fill-rule="evenodd"/>
      <path id="Trazado_995206" data-name="Trazado 995206" d="M7.117,10.58a.673.673,0,0,1-.493-.215L.717,4A.672.672,0,0,1,.873,2.961L4.45.9a.673.673,0,0,1,.829.125l5.908,6.363a.672.672,0,0,1-.156,1.039L7.453,10.489a.663.663,0,0,1-.336.091ZM2.276,3.7l4.97,5.353L9.628,7.682,4.658,2.329,2.276,3.7Z" transform="translate(13.915 26.295)" fill-rule="evenodd"/>
      <path id="Trazado_995207" data-name="Trazado 995207" d="M1.7,3.762a.672.672,0,0,1-.337-1.255L4.838.5a.672.672,0,0,1,.672,1.164l-3.473,2a.667.667,0,0,1-.336.09Z" transform="translate(29.985 13.452)" fill-rule="evenodd"/>
      <path id="Trazado_995208" data-name="Trazado 995208" d="M1.664,5.509a.683.683,0,0,1-.175-.023.672.672,0,0,1-.475-.824L2.053.789a.672.672,0,1,1,1.3.348L2.313,5.01a.672.672,0,0,1-.649.5Z" transform="translate(28.734 9.472)" fill-rule="evenodd"/>
      <path id="Trazado_995209" data-name="Trazado 995209" d="M5.615,2.922A.684.684,0,0,1,5.44,2.9L1.566,1.861a.673.673,0,0,1,.348-1.3L5.788,1.6a.673.673,0,0,1-.174,1.322Z" transform="translate(31.236 17.563)" fill-rule="evenodd"/>
      <path id="Trazado_995210" data-name="Trazado 995210" d="M2.4,1.613H1.982a.672.672,0,1,1,0-1.345H2.4a.672.672,0,0,1,0,1.345Z" transform="translate(39.115 8.755)" fill-rule="evenodd"/>
      <path id="Trazado_995211" data-name="Trazado 995211" d="M4.771,11.913a.672.672,0,0,1-.579-.331l-1.184-2H2.474A2.034,2.034,0,0,1,.442,7.547V2.032A2.034,2.034,0,0,1,2.474,0H21.832a2.034,2.034,0,0,1,2.032,2.031V7.547a2.035,2.035,0,0,1-2.032,2.032H6.534l-1.184,2a.673.673,0,0,1-.579.33ZM2.474,1.344a.688.688,0,0,0-.687.687V7.547a.688.688,0,0,0,.687.687h.918a.672.672,0,0,1,.579.331l.8,1.355.8-1.355a.672.672,0,0,1,.579-.331H21.832a.688.688,0,0,0,.687-.687V2.032a.687.687,0,0,0-.687-.687H2.474Z" transform="translate(10.823 0)" fill-rule="evenodd"/>
      <path id="Trazado_995212" data-name="Trazado 995212" d="M4.93,5.822a.671.671,0,0,1-.316-.079l-1.12-.6-1.12.6A.672.672,0,0,1,1.4,5.033l.222-1.25L.7,2.9a.672.672,0,0,1,.373-1.15l1.257-.175L2.889.435A.672.672,0,0,1,4.1.435l.555,1.142,1.257.175A.672.672,0,0,1,6.284,2.9l-.914.881.222,1.25a.671.671,0,0,1-.662.789ZM3.493,3.712a.67.67,0,0,1,.316.079l.217.115-.043-.242a.673.673,0,0,1,.2-.6l.176-.17-.243-.034A.673.673,0,0,1,3.6,2.486l-.107-.221-.107.221a.672.672,0,0,1-.512.372l-.243.034.176.17a.674.674,0,0,1,.2.6l-.043.242.217-.115a.675.675,0,0,1,.317-.079Z" transform="translate(12.621 1.85)" fill-rule="evenodd"/>
      <path id="Trazado_995213" data-name="Trazado 995213" d="M5.134,5.822a.671.671,0,0,1-.316-.079l-1.12-.6-1.12.6A.672.672,0,0,1,1.6,5.033l.222-1.25L.907,2.9a.672.672,0,0,1,.373-1.15l1.257-.175L3.093.435A.672.672,0,0,1,4.3.435l.555,1.142,1.257.175A.672.672,0,0,1,6.488,2.9l-.914.881L5.8,5.033a.671.671,0,0,1-.662.789ZM3.7,3.712a.67.67,0,0,1,.316.079l.217.115-.043-.242a.673.673,0,0,1,.2-.6l.177-.17-.243-.034A.673.673,0,0,1,3.8,2.487L3.7,2.266l-.107.221a.672.672,0,0,1-.512.372l-.243.034.176.17a.674.674,0,0,1,.2.6l-.043.242.217-.115A.668.668,0,0,1,3.7,3.712Z" transform="translate(19.279 1.85)" fill-rule="evenodd"/>
      <path id="Trazado_995214" data-name="Trazado 995214" d="M5.338,5.822a.675.675,0,0,1-.316-.079l-1.12-.6-1.12.6A.672.672,0,0,1,1.8,5.032l.222-1.25L1.111,2.9a.672.672,0,0,1,.374-1.15l1.257-.175L3.3.435a.672.672,0,0,1,1.209,0l.555,1.142,1.257.175A.672.672,0,0,1,6.692,2.9l-.914.881L6,5.032a.671.671,0,0,1-.662.789Zm-2.3-2.929.176.17a.672.672,0,0,1,.2.6l-.043.242.217-.116a.669.669,0,0,1,.633,0l.216.115-.043-.242a.672.672,0,0,1,.2-.6l.176-.17L4.52,2.858a.673.673,0,0,1-.512-.372L3.9,2.265l-.107.221a.671.671,0,0,1-.512.372l-.243.034Z" transform="translate(25.937 1.85)" fill-rule="evenodd"/>
      <path id="Trazado_995215" data-name="Trazado 995215" d="M14.57,2.491H13.047a.672.672,0,0,1,0-1.345H14.57a.672.672,0,0,1,0,1.345Zm-4.406,0H1.095a.672.672,0,0,1,0-1.345h9.07a.672.672,0,0,1,0,1.345Z" transform="translate(10.179 37.383)" fill-rule="evenodd"/>
      <path id="Trazado_995216" data-name="Trazado 995216" d="M14.57,2.563H5.5a.672.672,0,1,1,0-1.345h9.07a.672.672,0,0,1,0,1.345Zm-11.953,0H1.095a.672.672,0,1,1,0-1.345H2.618a.672.672,0,1,1,0,1.345Z" transform="translate(10.179 39.741)" fill-rule="evenodd"/>
      <g id="Grupo_1160897" data-name="Grupo 1160897" transform="translate(15.251 4.115)">
        <path id="Trazado_995217" data-name="Trazado 995217" d="M.737.919a.674.674,0,0,1,.2.6L.89,1.763l.217-.115a.674.674,0,0,1,.633,0l.217.115-.043-.242a.673.673,0,0,1,.2-.6l.176-.17L2.042.715A.673.673,0,0,1,1.53.343L1.423.123,1.316.343A.672.672,0,0,1,.8.715L.561.749l.176.17Z" transform="translate(-0.561 -0.123)" fill="#ffe8b2" fill-rule="evenodd"/>
        <path id="Trazado_995218" data-name="Trazado 995218" d="M.765.749l.176.17a.674.674,0,0,1,.2.6l-.043.242.217-.115a.672.672,0,0,1,.632,0l.217.115L2.117,1.52a.673.673,0,0,1,.2-.6l.177-.17L2.246.715A.673.673,0,0,1,1.734.343L1.627.123,1.519.343a.672.672,0,0,1-.512.372L.765.749Z" transform="translate(6.098 -0.122)" fill="#ffe8b2" fill-rule="evenodd"/>
        <path id="Trazado_995219" data-name="Trazado 995219" d="M.969.749l.176.17a.672.672,0,0,1,.2.6L1.3,1.763l.217-.116a.669.669,0,0,1,.633,0l.216.115-.043-.242a.672.672,0,0,1,.2-.6l.176-.17L2.45.715A.673.673,0,0,1,1.938.343L1.831.123,1.724.343a.671.671,0,0,1-.512.372L.969.749Z" transform="translate(12.756 -0.122)" fill="#ffe8b2" fill-rule="evenodd"/>
      </g>
      <path id="Trazado_995220" data-name="Trazado 995220" d="M15.834,4.328l-.914-.881a.672.672,0,0,1,.374-1.15l1.257-.175L17.106.981a.672.672,0,0,1,1.209,0l.555,1.142,1.257.175a.672.672,0,0,1,.374,1.15l-.914.881.222,1.25a.673.673,0,0,1-.979.711l-1.12-.6-1.12.6a.672.672,0,0,1-.978-.711l.222-1.25Zm-3.11,0,.222,1.25a.672.672,0,0,1-.978.711l-1.12-.6-1.12.6a.672.672,0,0,1-.978-.711l.222-1.25-.914-.881A.672.672,0,0,1,8.431,2.3l1.257-.175L10.243.98a.672.672,0,0,1,1.209,0l.555,1.142,1.257.175a.672.672,0,0,1,.374,1.15l-.914.881Zm-7.88,2.6H20.527a.688.688,0,0,0,.687-.687V.728a.687.687,0,0,0-.687-.687H1.169A.688.688,0,0,0,.482.727V6.242a.688.688,0,0,0,.687.687h.918a.672.672,0,0,1,.579.331l.8,1.355.8-1.355a.672.672,0,0,1,.579-.331Zm.973-.69a.673.673,0,0,1-.711.049l-1.12-.6-1.12.6a.672.672,0,0,1-.978-.711l.222-1.25L1.2,3.447A.672.672,0,0,1,1.569,2.3l1.257-.175L3.382.98a.672.672,0,0,1,1.209,0l.555,1.142L6.4,2.3a.672.672,0,0,1,.373,1.15l-.914.881.222,1.25a.674.674,0,0,1-.267.662Z" transform="translate(12.129 1.304)" fill="#ffbe61" fill-rule="evenodd"/>
      <path id="Trazado_995221" data-name="Trazado 995221" d="M3.765,7.674l.006,0ZM7.354,4.337,5.231.662,1.13,3.03l-.017.01-.031.018A1.275,1.275,0,0,0,.616,4.792l.213.369L2,7.2a1.285,1.285,0,0,0,.786.6,1.3,1.3,0,0,0,.34.044,1.281,1.281,0,0,0,.635-.168l.006,0L7.348,5.6,7.9,5.285,7.36,4.349l-.006-.011Z" transform="translate(11.017 21.587)" fill="#ff4974" fill-rule="evenodd"/>
      <path id="Trazado_995222" data-name="Trazado 995222" d="M2.971.851.589,2.226l4.97,5.353L7.941,6.2Z" transform="translate(15.602 27.773)" fill="#fe6a8d" fill-rule="evenodd"/>
      <path id="Trazado_995223" data-name="Trazado 995223" d="M3.531,13.091l9.337-.889L11.111,9.159l-.01-.017L7.827,3.47l-.007-.013L6.059.408.621,8.051l2.91,5.04Z" transform="translate(16.671 13.317)" fill="#ececff" fill-rule="evenodd"/>
      <path id="Trazado_995224" data-name="Trazado 995224" d="M.882.574l2.5,4.33A2.6,2.6,0,0,0,1.5.5,2.6,2.6,0,0,0,.882.574Z" transform="translate(25.168 16.212)" fill="#ff4974" fill-rule="evenodd"/>
      <path id="Trazado_995225" data-name="Trazado 995225" d="M26.073.826H13.364l-.176.017h0L12.908,1l5.334,5.745a.672.672,0,0,1-.156,1.039L14.508,9.853a.663.663,0,0,1-.336.091.673.673,0,0,1-.493-.215L8.1,3.715A2.648,2.648,0,0,1,5.023,2.57L5,2.525,4.016.826H.321v16.1H21.454L19.594,13.7a2.009,2.009,0,0,1,3.479-2.009l1.4,2.428a2.005,2.005,0,0,1,1.6-.7V.826ZM17.89,11.6a.672.672,0,0,1,0,1.345H16.366a.672.672,0,0,1,0-1.345Zm-9.071,2.43h9.07a.672.672,0,0,1,0,1.345H8.819a.672.672,0,1,1,0-1.345ZM4.414,11.6h9.07a.672.672,0,0,1,0,1.345H4.414a.672.672,0,0,1,0-1.345Zm2.2,3.1a.673.673,0,0,1-.672.672H4.414a.672.672,0,1,1,0-1.345H5.937A.673.673,0,0,1,6.609,14.7Z" transform="translate(6.86 26.931)" fill="#ffffe6" fill-rule="evenodd"/>
    </g>
  </g>
</svg>
