<svg xmlns="http://www.w3.org/2000/svg" xmlns:xlink="http://www.w3.org/1999/xlink" width="110" height="110" viewBox="0 0 110 110">
  <defs>
    <filter id="Trazado_982547" x="0" y="0" width="110" height="110" filterUnits="userSpaceOnUse">
      <feOffset dy="3" input="SourceAlpha"/>
      <feGaussianBlur stdDeviation="3" result="blur"/>
      <feFlood flood-opacity="0.161"/>
      <feComposite operator="in" in2="blur"/>
      <feComposite in="SourceGraphic"/>
    </filter>
  </defs>
  <g id="Grupo_1161079" data-name="Grupo 1161079" transform="translate(-9515 -5778)">
    <g id="Grupo_1160784" data-name="Grupo 1160784" transform="translate(9137 3449)">
      <g id="Grupo_1158890" data-name="Grupo 1158890" transform="translate(-423 -1476)">
        <g id="Grupo_1157405" data-name="Grupo 1157405" transform="translate(1 3016)">
          <g id="Grupo_1155792" data-name="Grupo 1155792" transform="translate(-1 -3894.666)">
            <g id="Grupo_1154703" data-name="Grupo 1154703" transform="translate(0 1465.666)">
              <g id="Grupo_1150789" data-name="Grupo 1150789" transform="translate(3 2320)">
                <g id="Grupo_1154212" data-name="Grupo 1154212" transform="translate(-236 -5809)">
                  <g id="Grupo_1152583" data-name="Grupo 1152583" transform="translate(1043 6713)">
                    <g id="Grupo_1146973" data-name="Grupo 1146973" transform="translate(0 0)">
                      <g id="Grupo_1146954" data-name="Grupo 1146954">
                        <g transform="matrix(1, 0, 0, 1, -9, -6)" filter="url(#Trazado_982547)">
                          <g id="Trazado_982547-2" data-name="Trazado 982547" transform="translate(9 6)" fill="#fbeaee">
                            <path d="M 46 90.49987030029297 C 39.99187850952148 90.49987030029297 34.16426849365234 89.32350921630859 28.67905426025391 87.00345611572266 C 23.38019943237305 84.76224517822266 18.62104034423828 81.55341339111328 14.53374671936035 77.46613311767578 C 10.44646644592285 73.37885284423828 7.237639904022217 68.61969757080078 4.996413230895996 63.32085418701172 C 2.676359891891479 57.83565521240234 1.5 52.008056640625 1.5 45.99993515014648 C 1.5 39.99181365966797 2.676359891891479 34.16421508789062 4.996413230895996 28.67901420593262 C 7.237639904022217 23.38017463684082 10.44646644592285 18.62101554870605 14.53374671936035 14.53373527526855 C 18.62104034423828 10.44645500183105 23.38019943237305 7.23762845993042 28.67905426025391 4.996415138244629 C 34.16426849365234 2.676361799240112 39.99187850952148 1.500001788139343 46 1.500001788139343 C 52.00812149047852 1.500001788139343 57.83573150634766 2.676361799240112 63.32094573974609 4.996415138244629 C 68.61979675292969 7.23762845993042 73.37895965576172 10.44645500183105 77.46625518798828 14.53373527526855 C 81.55353546142578 18.62101554870605 84.76235961914062 23.38017463684082 87.00358581542969 28.67901420593262 C 89.32363891601562 34.16421508789062 90.5 39.99181365966797 90.5 45.99993515014648 C 90.5 52.008056640625 89.32363891601562 57.83565521240234 87.00358581542969 63.32085418701172 C 84.76235961914062 68.61969757080078 81.55353546142578 73.37885284423828 77.46625518798828 77.46613311767578 C 73.37895965576172 81.55341339111328 68.61979675292969 84.76224517822266 63.32094573974609 87.00345611572266 C 57.83573150634766 89.32350921630859 52.00812149047852 90.49987030029297 46 90.49987030029297 Z" stroke="none"/>
                            <path d="M 46 2.999992370605469 C 40.1937141418457 2.999992370605469 34.56269836425781 4.136489868164062 29.26337051391602 6.377906799316406 C 24.14332580566406 8.543502807617188 19.54441070556641 11.64437866210938 15.59439849853516 15.59437561035156 C 11.64440155029297 19.54439544677734 8.54351806640625 24.14329528808594 6.377914428710938 29.26333618164062 C 4.136497497558594 34.56264877319336 3 40.19366455078125 3 45.99993515014648 C 3 51.80620574951172 4.136497497558594 57.43720626831055 6.377914428710938 62.73651885986328 C 8.54351806640625 67.8565673828125 11.64440155029297 72.45545959472656 15.59439849853516 76.40547943115234 C 19.54441070556641 80.35547637939453 24.14332580566406 83.45635223388672 29.26337051391602 85.6219482421875 C 34.56269836425781 87.86336517333984 40.1937141418457 88.99986267089844 46 88.99986267089844 C 51.8062858581543 88.99986267089844 57.43730163574219 87.86336517333984 62.73661422729492 85.6219482421875 C 67.85667419433594 83.45635223388672 72.45557403564453 80.35547637939453 76.40558624267578 76.40547943115234 C 80.35559844970703 72.45545959472656 83.45647430419922 67.8565673828125 85.6220703125 62.73651885986328 C 87.86350250244141 57.43720626831055 89 51.80620574951172 89 45.99993515014648 C 89 40.19366455078125 87.86350250244141 34.56264877319336 85.6220703125 29.26333618164062 C 83.45647430419922 24.14329528808594 80.35559844970703 19.54439544677734 76.40558624267578 15.59437561035156 C 72.45557403564453 11.64437866210938 67.85667419433594 8.543502807617188 62.73661422729492 6.377906799316406 C 57.43730163574219 4.136489868164062 51.8062858581543 2.999992370605469 46 2.999992370605469 M 46 -7.62939453125e-06 C 71.40509033203125 -7.62939453125e-06 92 20.59486389160156 92 45.99993515014648 C 92 71.40499114990234 71.40509033203125 91.99986267089844 46 91.99986267089844 C 20.59490203857422 91.99986267089844 0 71.40499114990234 0 45.99993515014648 C 0 20.59486389160156 20.59490203857422 -7.62939453125e-06 46 -7.62939453125e-06 Z" stroke="none" fill="#e23e64"/>
                          </g>
                        </g>
                      </g>
                    </g>
                  </g>
                </g>
              </g>
            </g>
          </g>
        </g>
      </g>
    </g>
    <g id="adaptar" transform="translate(9532.327 5796)">
      <g id="Grupo_1161078" data-name="Grupo 1161078" transform="translate(7.434 5.203)">
        <path id="Trazado_995631" data-name="Trazado 995631" d="M285.772,61.343a.16.16,0,0,1-.17-.119,30.015,30.015,0,0,0-28.99-22.25v3.669A26.465,26.465,0,0,1,281.87,61.5a.162.162,0,0,1-.141.207l-3.068.28a.161.161,0,0,0-.117.254l6.007,8.511a.161.161,0,0,0,.278-.025l4.369-9.457a.161.161,0,0,0-.161-.228Z" transform="translate(-226.61 -38.975)" fill="#fdb441"/>
        <path id="Trazado_995632" data-name="Trazado 995632" d="M45.062,83.785l4.367-9.458a.161.161,0,0,0-.161-.228l-10.374.945a.161.161,0,0,0-.117.254l1.89,2.678a.161.161,0,0,1-.018.206,30.015,30.015,0,0,0-4.774,36.231l3.178-1.835a26.466,26.466,0,0,1,3.7-31.3.162.162,0,0,1,.25.019l1.776,2.517A.161.161,0,0,0,45.062,83.785Z" transform="translate(-31.855 -69.41)" fill="#fdb441"/>
        <path id="Trazado_995633" data-name="Trazado 995633" d="M148.716,374.586l1.292-2.8a.161.161,0,0,0-.161-.228l-10.374.947a.161.161,0,0,0-.117.254l6.006,8.512a.161.161,0,0,0,.278-.025l1.374-2.976a.16.16,0,0,1,.188-.088A30.015,30.015,0,0,0,180.965,364.2l-3.178-1.834a26.466,26.466,0,0,1-28.963,12.444A.162.162,0,0,1,148.716,374.586Z" transform="translate(-124.98 -319.199)" fill="#fdb441"/>
      </g>
      <path id="Trazado_995634" data-name="Trazado 995634" d="M217.769,21.584H204.033a.174.174,0,0,1-.174-.174V7.674a.174.174,0,0,1,.174-.174h13.737a.174.174,0,0,1,.174.174V21.41A.174.174,0,0,1,217.769,21.584Z" transform="translate(-173.464 -6.499)" fill="#fe646f"/>
      <path id="Trazado_995635" data-name="Trazado 995635" d="M29.045,317.376h-17.7a.173.173,0,0,1-.145-.268l8.849-13.592a.173.173,0,0,1,.291,0l8.849,13.592A.174.174,0,0,1,29.045,317.376Z" transform="translate(-6.499 -262.932)" fill="#8ac9fe"/>
      <path id="Trazado_995636" data-name="Trazado 995636" d="M388.6,337.518a7.545,7.545,0,1,1,7.545-7.545A7.545,7.545,0,0,1,388.6,337.518Z" transform="translate(-327.008 -279.388)" fill="#6fd7a3"/>
      <path id="Trazado_995637" data-name="Trazado 995637" d="M217.769,7.5H212.6v7.31a4.1,4.1,0,0,1-4.1,4.1h-4.64v2.5a.174.174,0,0,0,.174.174h13.737a.174.174,0,0,0,.174-.174V7.674a.174.174,0,0,0-.174-.174Z" transform="translate(-173.464 -6.499)" fill="#fd4755"/>
      <path id="Trazado_995638" data-name="Trazado 995638" d="M29.189,317.108,20.34,303.516a.173.173,0,0,0-.291,0l-1.655,2.543,3.1,4.767a2.511,2.511,0,0,1-2.1,3.881h-6.63l-1.564,2.4a.173.173,0,0,0,.145.268h17.7A.173.173,0,0,0,29.189,317.108Z" transform="translate(-6.498 -262.932)" fill="#60b7ff"/>
      <path id="Trazado_995639" data-name="Trazado 995639" d="M400.561,322.519a7.545,7.545,0,0,1-5.769,12.408q-.216,0-.429-.012a7.545,7.545,0,1,0,6.2-12.4Z" transform="translate(-338.538 -279.467)" fill="#3ec3a4"/>
      <path id="Trazado_995640" data-name="Trazado 995640" d="M175.773,171.4l-3.062-.766a.1.1,0,0,1-.069-.066,11.992,11.992,0,0,0-.883-2.131.1.1,0,0,1,0-.1l1.625-2.708a.1.1,0,0,0-.015-.119l-3.683-3.683a.1.1,0,0,0-.119-.015l-2.708,1.625a.1.1,0,0,1-.1,0,11.991,11.991,0,0,0-2.131-.883.1.1,0,0,1-.066-.069l-.766-3.062a.1.1,0,0,0-.095-.074H158.5a.1.1,0,0,0-.095.074l-.766,3.062a.1.1,0,0,1-.066.069,11.991,11.991,0,0,0-2.131.883.1.1,0,0,1-.1,0l-2.708-1.625a.1.1,0,0,0-.119.015l-3.683,3.683a.1.1,0,0,0-.015.119l1.625,2.708a.1.1,0,0,1,0,.1,11.991,11.991,0,0,0-.883,2.131.1.1,0,0,1-.069.066l-3.062.766a.1.1,0,0,0-.074.095v5.209a.1.1,0,0,0,.074.095l3.062.766a.1.1,0,0,1,.069.066,11.991,11.991,0,0,0,.883,2.131.1.1,0,0,1,0,.1l-1.625,2.708a.1.1,0,0,0,.015.119l3.683,3.683a.1.1,0,0,0,.119.015l2.708-1.625a.1.1,0,0,1,.1,0,11.991,11.991,0,0,0,2.131.883.1.1,0,0,1,.066.069l.766,3.062a.1.1,0,0,0,.095.074h5.209a.1.1,0,0,0,.095-.074l.766-3.062a.1.1,0,0,1,.066-.069,11.991,11.991,0,0,0,2.131-.883.1.1,0,0,1,.1,0l2.708,1.625a.1.1,0,0,0,.119-.015l3.683-3.683a.1.1,0,0,0,.015-.119l-1.625-2.708a.1.1,0,0,1,0-.1,11.992,11.992,0,0,0,.883-2.131.1.1,0,0,1,.069-.066l3.062-.766a.1.1,0,0,0,.074-.095V171.5A.1.1,0,0,0,175.773,171.4ZM161.1,179.45a5.529,5.529,0,1,1,5.529-5.529A5.529,5.529,0,0,1,161.1,179.45Z" transform="translate(-123.641 -138.087)" fill="#685e68"/>
      <path id="Trazado_995641" data-name="Trazado 995641" d="M191.664,171.4l-3.062-.766a.1.1,0,0,1-.069-.066,11.992,11.992,0,0,0-.883-2.131.1.1,0,0,1,0-.1l1.625-2.708a.1.1,0,0,0-.015-.119l-3.683-3.683a.1.1,0,0,0-.119-.015l-2.708,1.625a.1.1,0,0,1-.1,0,11.99,11.99,0,0,0-2.131-.883.1.1,0,0,1-.066-.069l-.766-3.062a.1.1,0,0,0-.095-.074h-5.209a.1.1,0,0,0-.095.074l-.05.2a11.9,11.9,0,1,1-8.825,21.755l-.707,1.178a.1.1,0,0,0,.015.119l3.683,3.683a.1.1,0,0,0,.119.015l2.708-1.625a.1.1,0,0,1,.1,0,11.992,11.992,0,0,0,2.131.883.1.1,0,0,1,.066.069l.766,3.062a.1.1,0,0,0,.095.074H179.6a.1.1,0,0,0,.095-.074l.766-3.062a.1.1,0,0,1,.066-.069,11.991,11.991,0,0,0,2.131-.883.1.1,0,0,1,.1,0l2.708,1.625a.1.1,0,0,0,.119-.015l3.683-3.683a.1.1,0,0,0,.015-.119l-1.625-2.708a.1.1,0,0,1,0-.1,11.988,11.988,0,0,0,.883-2.131.1.1,0,0,1,.069-.066l3.062-.766a.1.1,0,0,0,.074-.095V171.5A.1.1,0,0,0,191.664,171.4Z" transform="translate(-139.532 -138.087)" fill="#554e56"/>
      <path id="Trazado_995642" data-name="Trazado 995642" d="M23.579,112.541a1.174,1.174,0,0,0-.048-1.2L14.681,97.748a1.175,1.175,0,0,0-1.969,0l-.1.153A25.476,25.476,0,0,1,18.37,76.226l1.174,1.664a1.163,1.163,0,0,0,2.005-.183l4.367-9.458a1.162,1.162,0,0,0-1.161-1.645l-10.374.945a1.163,1.163,0,0,0-.845,1.828l1.486,2.106A31.3,31.3,0,0,0,6.841,87.9a30.979,30.979,0,0,0,1.7,16.25l-4.68,7.188a1.175,1.175,0,0,0,.984,1.816h17.7a1.174,1.174,0,0,0,1.033-.615ZM8.816,88.226a29.263,29.263,0,0,1,8.118-15.832,1.159,1.159,0,0,0,.129-1.492l-1.051-1.49,7.477-.681-3.148,6.816L19.4,74.218a1.164,1.164,0,0,0-1.794-.13A27.472,27.472,0,0,0,11.1,100.217l-1.191,1.83a28.955,28.955,0,0,1-1.1-13.821ZM6.374,111.153,13.7,99.905l7.323,11.248Z" transform="translate(0 -57.71)"/>
      <path id="Trazado_995643" data-name="Trazado 995643" d="M172.644,314.929a8.547,8.547,0,0,0-2.573.394,1,1,0,0,0,.6,1.91,6.547,6.547,0,1,1-3.271,2.323,1,1,0,1,0-1.6-1.2,8.544,8.544,0,0,0-.8,8.933,25.368,25.368,0,0,1-21.43,5.662l.854-1.849a1.162,1.162,0,0,0-1.161-1.645l-2.912.266a1,1,0,1,0,.182,1.994l1.463-.133-.682,1.477a1.164,1.164,0,0,0,.784,1.619,27.489,27.489,0,0,0,24.01-5.7,8.629,8.629,0,0,0,1.208,1.177,28.773,28.773,0,0,1-8.577,5.074,29.118,29.118,0,0,1-17.771.885,1.16,1.16,0,0,0-1.357.634l-.764,1.655-4.328-6.135,1.33-.121a1,1,0,1,0-.182-1.994l-2.779.253a1.163,1.163,0,0,0-.844,1.828l6.006,8.512a1.163,1.163,0,0,0,2.005-.183l1.081-2.34a31.129,31.129,0,0,0,18.309-1.121,30.783,30.783,0,0,0,9.655-5.848,8.546,8.546,0,1,0,3.545-16.322Z" transform="translate(-111.05 -272.89)"/>
      <path id="Trazado_995644" data-name="Trazado 995644" d="M237.79,26.763a1.167,1.167,0,0,0-1.055-.487l-2.567.234A31,31,0,0,0,212.445,5.266V1.175A1.176,1.176,0,0,0,211.271,0H197.534a1.176,1.176,0,0,0-1.175,1.175V4.292a1,1,0,0,0,2,0V2h12.082V14.084H198.361V8.965a1,1,0,0,0-2,0v5.947a1.176,1.176,0,0,0,1.175,1.175h13.737a1.176,1.176,0,0,0,1.175-1.175V11.2a25.627,25.627,0,0,1,15.943,15.839l-2.027.185a1.163,1.163,0,0,0-.845,1.828l6.007,8.512a1.162,1.162,0,0,0,2-.183l4.369-9.458a1.166,1.166,0,0,0-.106-1.158Zm-5.471,8.455-4.33-6.134,1.62-.148a1.163,1.163,0,0,0,1.01-1.488,27.292,27.292,0,0,0-7.11-11.755,27.648,27.648,0,0,0-11.065-6.6V7.345a29,29,0,0,1,19.98,20.366,1.158,1.158,0,0,0,1.228.857l1.816-.166Z" transform="translate(-166.965)"/>
      <path id="Trazado_995645" data-name="Trazado 995645" d="M214.42,232.589a6.53,6.53,0,1,0-6.53-6.53A6.537,6.537,0,0,0,214.42,232.589Zm0-11.057a4.528,4.528,0,1,1-4.528,4.528A4.533,4.533,0,0,1,214.42,221.531Z" transform="translate(-176.957 -190.225)"/>
      <path id="Trazado_995646" data-name="Trazado 995646" d="M141.468,159.655l1.367,2.279a13.035,13.035,0,0,0-.562,1.355l-2.58.645a1.1,1.1,0,0,0-.831,1.065v5.209a1.1,1.1,0,0,0,.832,1.066l2.578.645a13.061,13.061,0,0,0,.562,1.355l-1.367,2.278a1.1,1.1,0,0,0,.164,1.344l3.683,3.683a1.1,1.1,0,0,0,1.342.165l2.279-1.368a13.056,13.056,0,0,0,1.355.562l.645,2.579a1.1,1.1,0,0,0,1.066.831h5.209a1.1,1.1,0,0,0,1.066-.832l.644-2.578a13.043,13.043,0,0,0,1.355-.562l2.279,1.367a1.1,1.1,0,0,0,1.342-.165l3.683-3.683a1.1,1.1,0,0,0,.165-1.342l-1.367-2.279a13.068,13.068,0,0,0,.562-1.355l2.577-.644a1.1,1.1,0,0,0,.833-1.066V165a1.1,1.1,0,0,0-.83-1.065h0l-2.578-.644a13.053,13.053,0,0,0-.562-1.355l1.369-2.281a1.1,1.1,0,0,0-.166-1.34L163.9,154.63a1.1,1.1,0,0,0-1.342-.165l-2.279,1.367a13.049,13.049,0,0,0-1.355-.562l-.645-2.58a1.1,1.1,0,0,0-1.065-.83H152a1.1,1.1,0,0,0-1.066.832l-.644,2.578a13.052,13.052,0,0,0-1.355.562l-2.281-1.369a1.1,1.1,0,0,0-1.34.166l-3.683,3.683a1.1,1.1,0,0,0-.165,1.343Zm3.341,1.678-1.262-2.1,2.685-2.685,2.1,1.262a1.1,1.1,0,0,0,1.08.027,11.016,11.016,0,0,1,1.952-.809,1.1,1.1,0,0,0,.745-.784l.595-2.378h3.8l.594,2.377a1.1,1.1,0,0,0,.744.785,11.019,11.019,0,0,1,1.956.811,1.1,1.1,0,0,0,1.078-.029l2.1-1.262,2.685,2.685-1.262,2.1a1.106,1.106,0,0,0-.027,1.08,11.019,11.019,0,0,1,.81,1.952,1.1,1.1,0,0,0,.784.745l2.378.594v3.8l-2.376.594a1.1,1.1,0,0,0-.786.745,11.013,11.013,0,0,1-.81,1.954,1.1,1.1,0,0,0,.028,1.08l1.262,2.1-2.685,2.685-2.1-1.262a1.1,1.1,0,0,0-1.08-.027,11.02,11.02,0,0,1-1.952.81,1.1,1.1,0,0,0-.745.784l-.594,2.378h-3.8l-.595-2.379a1.1,1.1,0,0,0-.744-.783,11.021,11.021,0,0,1-1.953-.81,1.106,1.106,0,0,0-1.081.027l-2.1,1.262-2.685-2.685,1.261-2.1a1.1,1.1,0,0,0,.028-1.081,11.016,11.016,0,0,1-.809-1.951,1.1,1.1,0,0,0-.784-.746l-2.378-.595v-3.8l2.377-.594a1.1,1.1,0,0,0,.785-.744,11.025,11.025,0,0,1,.81-1.953A1.1,1.1,0,0,0,144.809,161.333Z" transform="translate(-117.144 -131.589)"/>
    </g>
  </g>
</svg>
