<svg xmlns="http://www.w3.org/2000/svg" xmlns:xlink="http://www.w3.org/1999/xlink" width="108" height="108" viewBox="0 0 108 108">
  <defs>
    <filter id="Trazado_982547" x="0" y="0" width="108" height="108" filterUnits="userSpaceOnUse">
      <feOffset dy="3" input="SourceAlpha"/>
      <feGaussianBlur stdDeviation="3" result="blur"/>
      <feFlood flood-opacity="0.161"/>
      <feComposite operator="in" in2="blur"/>
      <feComposite in="SourceGraphic"/>
    </filter>
  </defs>
  <g id="Grupo_1161085" data-name="Grupo 1161085" transform="translate(-152 -8434)">
    <g id="Grupo_1160889" data-name="Grupo 1160889" transform="translate(-9 -786)">
      <g id="Grupo_1155843" data-name="Grupo 1155843">
        <g id="Grupo_1154880" data-name="Grupo 1154880" transform="translate(0 7768)">
          <g id="Grupo_1153117" data-name="Grupo 1153117" transform="translate(-93 939)">
            <g id="Grupo_1149598" data-name="Grupo 1149598" transform="translate(80 315)">
              <g id="Grupo_1148770" data-name="Grupo 1148770" transform="translate(-27 -2583)">
                <g id="Grupo_1146954" data-name="Grupo 1146954" transform="translate(-415 -1202)">
                  <g transform="matrix(1, 0, 0, 1, 616, 3983)" filter="url(#Trazado_982547)">
                    <g id="Trazado_982547-2" data-name="Trazado 982547" transform="translate(9 6)" fill="#f5fdfd">
                      <path d="M 45 88.5 C 39.12687683105469 88.5 33.43022537231445 87.35007476806641 28.06830024719238 85.08217620849609 C 22.88852500915527 82.89131164550781 18.23629951477051 79.75458526611328 14.2408504486084 75.75914764404297 C 10.24541282653809 71.76370239257812 7.108687400817871 67.11147308349609 4.917825222015381 61.93170166015625 C 2.649924993515015 56.56977462768555 1.5 50.87312316894531 1.5 45 C 1.5 39.12687683105469 2.649924993515015 33.43022537231445 4.917825222015381 28.06830024719238 C 7.108687400817871 22.88852500915527 10.24541282653809 18.23629951477051 14.2408504486084 14.2408504486084 C 18.23629951477051 10.24541282653809 22.88852500915527 7.108687400817871 28.06830024719238 4.917825222015381 C 33.43022537231445 2.649924993515015 39.12687683105469 1.5 45 1.5 C 50.87312316894531 1.5 56.56977462768555 2.649924993515015 61.93170166015625 4.917825222015381 C 67.11147308349609 7.108687400817871 71.76370239257812 10.24541282653809 75.75914764404297 14.2408504486084 C 79.75458526611328 18.23629951477051 82.89131164550781 22.88852500915527 85.08217620849609 28.06830024719238 C 87.35007476806641 33.43022537231445 88.5 39.12687683105469 88.5 45 C 88.5 50.87312316894531 87.35007476806641 56.56977462768555 85.08217620849609 61.93170166015625 C 82.89131164550781 67.11147308349609 79.75458526611328 71.76370239257812 75.75914764404297 75.75914764404297 C 71.76370239257812 79.75458526611328 67.11147308349609 82.89131164550781 61.93170166015625 85.08217620849609 C 56.56977462768555 87.35007476806641 50.87312316894531 88.5 45 88.5 Z" stroke="none"/>
                      <path d="M 45 3 C 39.32871246337891 3 33.82865524291992 4.110054016113281 28.65262985229492 6.299339294433594 C 23.65165710449219 8.414573669433594 19.15968322753906 11.44334411621094 15.301513671875 15.301513671875 C 11.44334411621094 19.15968322753906 8.414573669433594 23.65165710449219 6.299339294433594 28.65262985229492 C 4.110054016113281 33.82865524291992 3 39.32871246337891 3 45 C 3 50.67128753662109 4.110054016113281 56.17134475708008 6.299339294433594 61.34737396240234 C 8.414573669433594 66.34834289550781 11.44334411621094 70.84031677246094 15.301513671875 74.698486328125 C 19.15968322753906 78.55665588378906 23.65165710449219 81.58542633056641 28.65262985229492 83.70066070556641 C 33.82865524291992 85.88994598388672 39.32871246337891 87 45 87 C 50.67128753662109 87 56.17134475708008 85.88994598388672 61.34737396240234 83.70066070556641 C 66.34834289550781 81.58542633056641 70.84031677246094 78.55665588378906 74.698486328125 74.698486328125 C 78.55665588378906 70.84031677246094 81.58542633056641 66.34834289550781 83.70066070556641 61.34737396240234 C 85.88994598388672 56.17134475708008 87 50.67128753662109 87 45 C 87 39.32871246337891 85.88994598388672 33.82865524291992 83.70066070556641 28.65262985229492 C 81.58542633056641 23.65165710449219 78.55665588378906 19.15968322753906 74.698486328125 15.301513671875 C 70.84031677246094 11.44334411621094 66.34834289550781 8.414573669433594 61.34737396240234 6.299339294433594 C 56.17134475708008 4.110054016113281 50.67128753662109 3 45 3 M 45 0 C 69.85281372070312 0 90 20.14718627929688 90 45 C 90 69.85281372070312 69.85281372070312 90 45 90 C 20.14718627929688 90 0 69.85281372070312 0 45 C 0 20.14718627929688 20.14718627929688 0 45 0 Z" stroke="none" fill="#598384"/>
                    </g>
                  </g>
                </g>
              </g>
            </g>
          </g>
        </g>
      </g>
    </g>
    <g id="question_1033256" transform="translate(169.962 8457)">
      <path id="Trazado_995685" data-name="Trazado 995685" d="M52.246,107.7v5.926a2.035,2.035,0,0,1-2.036,2.036H18.716a2.036,2.036,0,0,1-2.036-2.036V107.7a9.41,9.41,0,0,1,9.407-9.409h1.165a14.542,14.542,0,0,0,2.022-.023,1.274,1.274,0,0,0,1.036-1.256V93.546a.7.7,0,0,0-.414-.634,10.273,10.273,0,0,1-6.074-9.35V68.114h20.9V83.562a10.272,10.272,0,0,1-6.114,9.364v4.08a1.28,1.28,0,0,0,1.28,1.28c.9,0,1.545,0,2.025,0l.674,0a10.3,10.3,0,0,1,1.139.045A9.406,9.406,0,0,1,52.246,107.7Z" transform="translate(-6.807 -60.673)" fill="#e3a76f"/>
      <path id="Trazado_995686" data-name="Trazado 995686" d="M82.012,107.7v5.926a2.035,2.035,0,0,1-2.036,2.036H52.131a2.035,2.035,0,0,1-2.035-2.035V107.7c0-5.216,4.234-8.769,9.406-8.769,3.1-.009,2.961.02,3.188-.024a1.275,1.275,0,0,0,1.036-1.256v-4.1a.7.7,0,0,0-.414-.634,10.272,10.272,0,0,1-6.075-9.35V68.114H74.493V83.562a10.272,10.272,0,0,1-6.114,9.364v4.08a1.28,1.28,0,0,0,1.28,1.28c2.794.012,3.083-.03,3.838.044A9.406,9.406,0,0,1,82.012,107.7Z" transform="translate(-36.573 -60.673)" fill="#f2bb88"/>
      <path id="Trazado_995687" data-name="Trazado 995687" d="M55.988,169.977a3.317,3.317,0,0,0,3.317,3.317V166.66A3.317,3.317,0,0,0,55.988,169.977Z" transform="translate(-41.821 -148.454)" fill="#e3a76f"/>
      <path id="Trazado_995688" data-name="Trazado 995688" d="M269.13,166.66v6.635a3.317,3.317,0,1,0,0-6.635Z" transform="translate(-231.68 -148.454)" fill="#f2bb88"/>
      <path id="Trazado_995689" data-name="Trazado 995689" d="M60.069,167.95v16.518a2.757,2.757,0,0,1-2.756,2.756l-15.4-.006-7.444,7.176-7.222-7.178H26.083a9.41,9.41,0,0,0-9.407,9.409v5.925a2.036,2.036,0,0,0,2.036,2.036H50.206a2.035,2.035,0,0,0,2.036-2.036v-5.925a9.462,9.462,0,0,0-.1-1.382h9.677a5.069,5.069,0,0,0,5.069-5.069V167.95Z" transform="translate(-6.804 -149.603)" fill="#ebe1dc"/>
      <path id="Trazado_995690" data-name="Trazado 995690" d="M82.744,7.8V18.08a3.087,3.087,0,0,1-3.249,2.871h-.135A3.087,3.087,0,0,1,76.11,18.08V17.04a.31.31,0,0,0-.517-.191c-1.273,1.121-3.475,1.618-5.23,1.889l-9.749,1.379-3.04.43a1.77,1.77,0,0,1-1.87-1.652V16.281a7.689,7.689,0,0,1,3.11-5.817,6.325,6.325,0,0,1,3.1-1.271,5.235,5.235,0,0,1,.893-.012c1.9.117,12.449.615,18.067-2.472A1.256,1.256,0,0,1,82.744,7.8Z" transform="translate(-41.569 -5.834)" fill="#7c3f2c"/>
      <path id="Trazado_995691" data-name="Trazado 995691" d="M107.448,7.8v8.266c-.073,0-.146.007-.221.007h-.135a3.087,3.087,0,0,1-3.249-2.871v-1.04a.309.309,0,0,0-.516-.191c-1.274,1.121-3.476,1.618-5.231,1.889l-9.748,1.379-3.041.43a1.769,1.769,0,0,1-1.868-1.652V11.405a5.666,5.666,0,0,1,.08-.941,6.325,6.325,0,0,1,3.1-1.271,5.235,5.235,0,0,1,.893-.012c1.9.117,12.449.615,18.067-2.472A1.256,1.256,0,0,1,107.448,7.8Z" transform="translate(-66.273 -5.834)" fill="#954c35"/>
      <path id="Trazado_995692" data-name="Trazado 995692" d="M232.313,438.286v6.9H224.6v-6.9a.232.232,0,0,1,.232-.232h7.249A.231.231,0,0,1,232.313,438.286Z" transform="translate(-192.015 -390.201)" fill="#65b1cf"/>
      <path id="Trazado_995693" data-name="Trazado 995693" d="M248.127,438.286v6.9h-5.773v-6.9a.232.232,0,0,1,.232-.232h5.309A.231.231,0,0,1,248.127,438.286Z" transform="translate(-207.829 -390.201)" fill="#7fbed7"/>
      <path id="Trazado_995694" data-name="Trazado 995694" d="M232.313,438.286v2.637H224.6v-2.637a.232.232,0,0,1,.232-.232h7.249A.231.231,0,0,1,232.313,438.286Z" transform="translate(-192.015 -390.201)" fill="#65b1cf"/>
      <path id="Trazado_995695" data-name="Trazado 995695" d="M226.772,438.054a.232.232,0,0,0-.232.232v2.638H224.6v-2.638a.232.232,0,0,1,.232-.232Z" transform="translate(-192.015 -390.201)" fill="#3e9dc3"/>
      <path id="Trazado_995696" data-name="Trazado 995696" d="M19.727,353.719v5.925a2.036,2.036,0,0,0,2.036,2.036H18.716a2.036,2.036,0,0,1-2.036-2.036v-5.925a9.41,9.41,0,0,1,9.407-9.409h1.165l.161.16A9.41,9.41,0,0,0,19.727,353.719Z" transform="translate(-6.807 -306.697)" fill="#dcd2cd"/>
      <path id="Trazado_995697" data-name="Trazado 995697" d="M92.971,343.447,90.1,337.987a.832.832,0,0,0-1.313-.212l-7.425,7.158a.47.47,0,0,1-.657-.005l-7.423-7.376a.831.831,0,0,0-1.327.214c-2.667,5.274-2.89,5.684-2.931,5.8a1.441,1.441,0,0,0,1.722,1.832c2.4-.536,2.521-.75,3.033-.573,7.56,2.606,7.192,2.484,7.512,2.375,7.633-2.616,7.185-2.5,7.531-2.412l2.474.61A1.436,1.436,0,0,0,92.971,343.447Z" transform="translate(-53.367 -300.462)" fill="#b4aaaa"/>
      <path id="Trazado_995698" data-name="Trazado 995698" d="M372.654,45.812V55.927a4.536,4.536,0,0,1-4.536,4.536h-2.623a3.569,3.569,0,0,1-3.159-2.1c-.948-1.619-2.017-2.106-4.046-3.879a1.659,1.659,0,0,1-.373-2.16,1.455,1.455,0,0,1,.12-.163,1.633,1.633,0,0,1,2.29-.219l.843.675a.436.436,0,0,0,.708-.34V43.709a1.347,1.347,0,1,1,2.694,0c.061-.695-.192-1.384.395-1.97a1.348,1.348,0,0,1,2.3.952v1.018a1.348,1.348,0,1,1,2.7,0v2.059a1.347,1.347,0,0,1,1.372-1.348,1.272,1.272,0,0,1,.227.024A1.389,1.389,0,0,1,372.654,45.812Z" transform="translate(-310.546 -36.827)" fill="#f2bb88"/>
      <g id="Grupo_1161084" data-name="Grupo 1161084" transform="translate(53.02 4.561)">
        <path id="Trazado_995699" data-name="Trazado 995699" d="M412.655,52.282v8.664a.5.5,0,0,1-1,0V51.065A1.346,1.346,0,0,1,412.655,52.282Z" transform="translate(-411.653 -50.048)" fill="#e3a76f"/>
        <path id="Trazado_995700" data-name="Trazado 995700" d="M437.347,43.054v9.6a.5.5,0,0,1-1,0v-10.9A1.347,1.347,0,0,1,437.347,43.054Z" transform="translate(-433.648 -41.752)" fill="#e3a76f"/>
        <path id="Trazado_995701" data-name="Trazado 995701" d="M462.019,52.368v8.576a.5.5,0,1,1-1,0V51.065A1.35,1.35,0,0,1,462.019,52.368Z" transform="translate(-455.625 -50.048)" fill="#e3a76f"/>
      </g>
      <path id="Trazado_995702" data-name="Trazado 995702" d="M404.467,198.822v.926a1.64,1.64,0,0,1-1.635,1.636h-7.815a1.64,1.64,0,0,1-1.635-1.636v-.926a1.64,1.64,0,0,1,1.635-1.636h7.815A1.64,1.64,0,0,1,404.467,198.822Z" transform="translate(-342.359 -175.646)" fill="#b4aaaa"/>
      <path id="Trazado_995703" data-name="Trazado 995703" d="M423.606,198.822v.788h-7.1a1.64,1.64,0,0,1-1.635-1.636v-.788h7.1A1.64,1.64,0,0,1,423.606,198.822Z" transform="translate(-361.498 -175.646)" fill="#dcd2cd"/>
      <path id="Trazado_995704" data-name="Trazado 995704" d="M62.994,8.985s0,0,0,0a2.29,2.29,0,0,0-1.906-2.25,2.328,2.328,0,0,0-.791.023,2.235,2.235,0,0,0-2.97-1.983,2.256,2.256,0,0,0-2.069-1.138h0a2.244,2.244,0,0,0-1.836,1.141,2.216,2.216,0,0,0-1.745.11h0a2.345,2.345,0,0,0-1.161,1.45,2.179,2.179,0,0,0-.069.546V14.51l-.106-.086a2.515,2.515,0,1,0-3.168,3.906c1.819,1.589,2.784,2.1,3.572,3.21a2.509,2.509,0,0,0-.6,1.636V24.1a2.526,2.526,0,0,0,2.242,2.507v8.255a1.87,1.87,0,0,1-1.87,1.87H32.737c-.166-.2-.081-.29-.1-1.87V32.9a11.12,11.12,0,0,0,5.785-7.223,4.148,4.148,0,0,0,.329-7.972V15.988A3.818,3.818,0,0,0,42,12.362V2.085A2.089,2.089,0,0,0,38.9.263c-4.4,2.418-12.649,2.682-17.614,2.37A7.316,7.316,0,0,0,15.3,5.453a8.178,8.178,0,0,0-2,5.111v2.614a2.6,2.6,0,0,0,2.718,2.483.727.727,0,0,0,.1-.008l.062-.009V17.7a4.149,4.149,0,0,0,.326,7.972,11.138,11.138,0,0,0,6.163,7.406V36.45a.447.447,0,0,1-.4.447c-.1.01-.7,0-3,0h0a10.185,10.185,0,0,0-7.113,2.878.831.831,0,0,0,1.155,1.2,8.544,8.544,0,0,1,4.64-2.308c-2.355,4.662-2.267,4.442-2.314,4.6a1.444,1.444,0,0,0,1.736,1.785c1.881-.3,2.556-.724,3.711-.323l5.731,1.933v7.605H11.9a1.208,1.208,0,0,1-1.2-1.2V47.139a8.5,8.5,0,0,1,.848-3.725.831.831,0,1,0-1.5-.724,10.145,10.145,0,0,0-1.014,4.448v5.924A2.87,2.87,0,0,0,11.9,55.931H43.4a2.87,2.87,0,0,0,2.866-2.867c-.013-3.43.009-5.189,0-6.307,0-.082,0-.159,0-.23h8.75a5.955,5.955,0,0,0,5.955-5.955v-14A2.527,2.527,0,0,0,62.994,24.1v-.926a2.506,2.506,0,0,0-.591-1.619,5.378,5.378,0,0,0,.591-2.458V8.985ZM49.876,18.267c-1.186-.944-1.446-1.194-1.568-1.3a.766.766,0,0,1-.134-1.074.741.741,0,0,1,1.042-.1l.01.008.844.675a1.322,1.322,0,0,0,2.148-1.033V6.881a.46.46,0,0,1,.921,0v8.7a.887.887,0,1,0,1.773,0c0-10.346,0-9.594,0-9.7a.743.743,0,0,1,.031-.188.457.457,0,0,1,.615-.253.444.444,0,0,1,.275.418v9.721a.887.887,0,1,0,1.773,0v-8.7a.461.461,0,0,1,.9-.137s0,0,0,0c.043.113.008-.28.021,8.838a.887.887,0,1,0,1.773,0V8.94a.452.452,0,0,1,.542-.453.5.5,0,0,1,.379.5V19.1a3.614,3.614,0,0,1-.252,1.331c-.034.085-.071.171-.112.253a2.591,2.591,0,0,0-.385-.029H52.659a2.487,2.487,0,0,0-.355.025A10.488,10.488,0,0,0,49.876,18.267ZM38.721,23.773c.045-.653.019-.875.027-4.252A2.485,2.485,0,0,1,38.721,23.773ZM16.18,19.521c.008,3.45-.019,3.6.027,4.253A2.486,2.486,0,0,1,16.18,19.521ZM19.1,42.916l-1.642.4,2.092-4.13,4.96,4.93C20.991,43.16,20.4,42.6,19.1,42.916Zm2.174-4.355a6.636,6.636,0,0,0,1.34-.039,2.107,2.107,0,0,0,1.713-2.072V32.53a.832.832,0,0,0-.524-.774,9.528,9.528,0,0,1-5.64-6.332c-.423-1.555-.325-2.02-.325-10.015L28.512,13.9a.831.831,0,1,0-.233-1.646L15.951,14a.949.949,0,0,1-.987-.82V10.564c0-2.622,2.389-5.929,5.469-6.262.69-.075,12.756,1,19.27-2.582a.424.424,0,0,1,.637.366V12.362c0,1.492-1.735,2.34-3.255,1.953a2.123,2.123,0,0,1-1.718-1.953v-1.04a1.14,1.14,0,0,0-1.9-.814,5.971,5.971,0,0,1-2.087,1.078.831.831,0,1,0,.516,1.58,9.016,9.016,0,0,0,1.8-.789,3.835,3.835,0,0,0,3.38,3.633c0,7.226.1,7.84-.32,9.421a9.464,9.464,0,0,1-5.3,6.179.83.83,0,0,0-.493.759v2.494c.006,1.446-.1,1.964.278,2.63.7,1.223,1.827,1.071,2.993,1.071l-6.579,6.342Zm14.5.834,2.06,3.922-2.434-.6c-.674-.163-.913.15-4.485,1.36ZM39.464,54.18H33.414V51.67h6.051Zm0-4.172H33.414V48.8h6.051ZM59.2,40.571a4.182,4.182,0,0,1-4.182,4.182H45.745A1.14,1.14,0,0,0,44.6,45.893c0,2.018,0,6.108,0,7.171a1.206,1.206,0,0,1-1.2,1.2H41.126v-6.3a.831.831,0,0,0-.831-.831H32.582a.831.831,0,0,0-.831.831v6.3H28.483v-7.6c6.054-2,6.221-2.406,7.2-2.164l2.243.552a1.428,1.428,0,0,0,1.38-.4,1.39,1.39,0,0,0,.261-1.614l-2.329-4.536H50.509a3.643,3.643,0,0,0,3.643-3.643V26.625H59.2V40.571ZM61.221,24.1a.75.75,0,0,1-.748.749c-8.5,0-7.9.025-8.094-.054a.749.749,0,0,1-.469-.695v-.926a.749.749,0,0,1,.469-.695.732.732,0,0,1,.279-.054h7.815a.744.744,0,0,1,.5.19C61.371,22.973,61.167,23.447,61.221,24.1Z"/>
      <circle id="Elipse_12187" data-name="Elipse 12187" cx="1.201" cy="1.201" r="1.201" transform="translate(21.185 18.43)"/>
      <circle id="Elipse_12188" data-name="Elipse 12188" cx="1.201" cy="1.201" r="1.201" transform="translate(31.316 18.43)"/>
      <path id="Trazado_995705" data-name="Trazado 995705" d="M150.8,218.777a.831.831,0,0,0-.831.831,2.092,2.092,0,0,1-4.183,0,.831.831,0,0,0-1.662,0,3.754,3.754,0,1,0,7.507,0A.831.831,0,0,0,150.8,218.777Z" transform="translate(-120.327 -194.878)"/>
      <circle id="Elipse_12189" data-name="Elipse 12189" cx="0.831" cy="0.831" r="0.831" transform="translate(24.839 47.878)"/>
      <circle id="Elipse_12190" data-name="Elipse 12190" cx="0.831" cy="0.831" r="0.831" transform="translate(24.839 52.059)"/>
    </g>
  </g>
</svg>
