<svg xmlns="http://www.w3.org/2000/svg" xmlns:xlink="http://www.w3.org/1999/xlink" width="108" height="108" viewBox="0 0 108 108">
  <defs>
    <filter id="Trazado_982547" x="0" y="0" width="108" height="108" filterUnits="userSpaceOnUse">
      <feOffset dy="3" input="SourceAlpha"/>
      <feGaussianBlur stdDeviation="3" result="blur"/>
      <feFlood flood-opacity="0.161"/>
      <feComposite operator="in" in2="blur"/>
      <feComposite in="SourceGraphic"/>
    </filter>
  </defs>
  <g id="Grupo_1160966" data-name="Grupo 1160966" transform="translate(-161 -308)">
    <g id="Grupo_1160759" data-name="Grupo 1160759" transform="translate(0 -8912)">
      <g id="Grupo_1155843" data-name="Grupo 1155843">
        <g id="Grupo_1154880" data-name="Grupo 1154880" transform="translate(0 7768)">
          <g id="Grupo_1153117" data-name="Grupo 1153117" transform="translate(-93 939)">
            <g id="Grupo_1149598" data-name="Grupo 1149598" transform="translate(80 315)">
              <g id="Grupo_1148770" data-name="Grupo 1148770" transform="translate(-27 -2583)">
                <g id="Grupo_1146954" data-name="Grupo 1146954" transform="translate(-415 -1202)">
                  <g transform="matrix(1, 0, 0, 1, 616, 3983)" filter="url(#Trazado_982547)">
                    <g id="Trazado_982547-2" data-name="Trazado 982547" transform="translate(9 6)" fill="#fef2ec">
                      <path d="M 45 88.5 C 39.12687683105469 88.5 33.43022537231445 87.35007476806641 28.06830024719238 85.08217620849609 C 22.88852500915527 82.89131164550781 18.23629951477051 79.75458526611328 14.2408504486084 75.75914764404297 C 10.24541282653809 71.76370239257812 7.108687400817871 67.11147308349609 4.917825222015381 61.93170166015625 C 2.649924993515015 56.56977462768555 1.5 50.87312316894531 1.5 45 C 1.5 39.12687683105469 2.649924993515015 33.43022537231445 4.917825222015381 28.06830024719238 C 7.108687400817871 22.88852500915527 10.24541282653809 18.23629951477051 14.2408504486084 14.2408504486084 C 18.23629951477051 10.24541282653809 22.88852500915527 7.108687400817871 28.06830024719238 4.917825222015381 C 33.43022537231445 2.649924993515015 39.12687683105469 1.5 45 1.5 C 50.87312316894531 1.5 56.56977462768555 2.649924993515015 61.93170166015625 4.917825222015381 C 67.11147308349609 7.108687400817871 71.76370239257812 10.24541282653809 75.75914764404297 14.2408504486084 C 79.75458526611328 18.23629951477051 82.89131164550781 22.88852500915527 85.08217620849609 28.06830024719238 C 87.35007476806641 33.43022537231445 88.5 39.12687683105469 88.5 45 C 88.5 50.87312316894531 87.35007476806641 56.56977462768555 85.08217620849609 61.93170166015625 C 82.89131164550781 67.11147308349609 79.75458526611328 71.76370239257812 75.75914764404297 75.75914764404297 C 71.76370239257812 79.75458526611328 67.11147308349609 82.89131164550781 61.93170166015625 85.08217620849609 C 56.56977462768555 87.35007476806641 50.87312316894531 88.5 45 88.5 Z" stroke="none"/>
                      <path d="M 45 3 C 39.32871246337891 3 33.82865524291992 4.110054016113281 28.65262985229492 6.299339294433594 C 23.65165710449219 8.414573669433594 19.15968322753906 11.44334411621094 15.301513671875 15.301513671875 C 11.44334411621094 19.15968322753906 8.414573669433594 23.65165710449219 6.299339294433594 28.65262985229492 C 4.110054016113281 33.82865524291992 3 39.32871246337891 3 45 C 3 50.67128753662109 4.110054016113281 56.17134475708008 6.299339294433594 61.34737396240234 C 8.414573669433594 66.34834289550781 11.44334411621094 70.84031677246094 15.301513671875 74.698486328125 C 19.15968322753906 78.55665588378906 23.65165710449219 81.58542633056641 28.65262985229492 83.70066070556641 C 33.82865524291992 85.88994598388672 39.32871246337891 87 45 87 C 50.67128753662109 87 56.17134475708008 85.88994598388672 61.34737396240234 83.70066070556641 C 66.34834289550781 81.58542633056641 70.84031677246094 78.55665588378906 74.698486328125 74.698486328125 C 78.55665588378906 70.84031677246094 81.58542633056641 66.34834289550781 83.70066070556641 61.34737396240234 C 85.88994598388672 56.17134475708008 87 50.67128753662109 87 45 C 87 39.32871246337891 85.88994598388672 33.82865524291992 83.70066070556641 28.65262985229492 C 81.58542633056641 23.65165710449219 78.55665588378906 19.15968322753906 74.698486328125 15.301513671875 C 70.84031677246094 11.44334411621094 66.34834289550781 8.414573669433594 61.34737396240234 6.299339294433594 C 56.17134475708008 4.110054016113281 50.67128753662109 3 45 3 M 45 0 C 69.85281372070312 0 90 20.14718627929688 90 45 C 90 69.85281372070312 69.85281372070312 90 45 90 C 20.14718627929688 90 0 69.85281372070312 0 45 C 0 20.14718627929688 20.14718627929688 0 45 0 Z" stroke="none" fill="#fd884d"/>
                    </g>
                  </g>
                </g>
              </g>
            </g>
          </g>
        </g>
      </g>
    </g>
    <g id="rompecabezas_2_" data-name="rompecabezas (2)" transform="translate(184 311.603)">
      <g id="Grupo_1160964" data-name="Grupo 1160964" transform="translate(0.901 20.298)">
        <path id="Trazado_995450" data-name="Trazado 995450" d="M364.194,56.347a8.662,8.662,0,0,0-4.948-7.011,1.111,1.111,0,0,1-.606-1.218,7.661,7.661,0,0,0-7.579-9.065,1.117,1.117,0,0,1-1.049-.729,5.483,5.483,0,0,0-1.852-2.451h-1.736l-1.381,3.322v5.876l3,.911-3,3.424v6.487l.831,1.286h.105a.766.766,0,0,1,.576.261h5.7a.766.766,0,0,1,.576-.261h10.6A.765.765,0,0,0,364.194,56.347Z" transform="translate(-304.497 -34.795)" fill="#ff636e"/>
        <path id="Trazado_995451" data-name="Trazado 995451" d="M87.992,137.373a2.7,2.7,0,0,0-2.719-2.561h-.988a.769.769,0,0,1-.769-.769v-3.43A5.6,5.6,0,0,0,82,126.779H79.644l-5.285,3.073s-3.357,6.5-4,6.692-2.166,4.09-2.246,4.3-2.4,3.27-2.4,3.27l.936,3.321-.936.591H82.047l1.469-.591V140.9a.769.769,0,0,1,.769-.769h1.052A2.657,2.657,0,0,0,87.992,137.373Z" transform="translate(-58.718 -114.781)" fill="#ffe02f"/>
        <path id="Trazado_995452" data-name="Trazado 995452" d="M20.418,126.983a1.111,1.111,0,0,0,.606-1.218A7.661,7.661,0,0,1,28.6,116.7a1.117,1.117,0,0,0,1.049-.729,5.47,5.47,0,0,1,1.131-1.806,5.393,5.393,0,0,0-3.828-1.721,5.465,5.465,0,0,0-5.231,3.527,1.116,1.116,0,0,1-1.049.729,7.661,7.661,0,0,0-7.579,9.065,1.111,1.111,0,0,1-.606,1.218A8.657,8.657,0,0,0,7.5,134.825l1.146.591h7.928l-1.146-.591a8.657,8.657,0,0,1,4.987-7.841Z" transform="translate(-7.503 -102.166)" fill="#fbc700"/>
        <path id="Trazado_995453" data-name="Trazado 995453" d="M311.4,49.282h-5.775a.769.769,0,0,1-.769-.769V42.738a.769.769,0,0,1,.769-.769h1.052a2.657,2.657,0,0,0,2.656-2.754,2.7,2.7,0,0,0-2.719-2.561h-.988a.769.769,0,0,1-.769-.769v-3.43a5.6,5.6,0,0,1,2.238-4.48,5.438,5.438,0,0,0-3.379-1.077,5.526,5.526,0,0,0-5.345,5.556v3.43a.769.769,0,0,0,.769.769h.988a2.7,2.7,0,0,1,2.719,2.561,2.657,2.657,0,0,1-2.656,2.754h-1.052a.769.769,0,0,0-.769.769v5.775a.769.769,0,0,0,.769.769h5.775a.769.769,0,0,1,.769.769v.988a2.7,2.7,0,0,0,2.56,2.719,2.657,2.657,0,0,0,2.754-2.656V50.05a.768.768,0,0,1,.586-.746A.774.774,0,0,0,311.4,49.282Z" transform="translate(-263.427 -26.899)" fill="#ff4654"/>
        <path id="Trazado_995454" data-name="Trazado 995454" d="M199.9,298.772H189.3a.769.769,0,0,0-.769.769v.988a2.7,2.7,0,0,1-2.56,2.719,2.657,2.657,0,0,1-2.754-2.656v-1.052a.769.769,0,0,0-.769-.769H175.9l-.828.856v5.5h-2.362l-2,2.6v2.239l2.042,2.013h2.282v2.643l.868.978a5.526,5.526,0,0,0,5.345,5.556,5.465,5.465,0,0,0,5.231-3.527,1.116,1.116,0,0,1,1.049-.729,7.663,7.663,0,0,0,7.579-9.065,1.111,1.111,0,0,1,.606-1.218,8.663,8.663,0,0,0,4.948-7.011A.766.766,0,0,0,199.9,298.772Z" transform="translate(-151.106 -266.114)" fill="#60b9fe"/>
        <path id="Trazado_995455" data-name="Trazado 995455" d="M76.2,265.2v-.988a2.7,2.7,0,0,0-2.56-2.719,2.657,2.657,0,0,0-2.754,2.656V265.2a.769.769,0,0,1-.769.769H66.646l-.936.591s1.842,6.246,2.322,7.127,4.324,6.967,4.324,7.448,3.043,3.684,3.043,3.684l6.6,1.811a5.6,5.6,0,0,0,1.517-3.835v-3.43a.769.769,0,0,0-.769-.769H81.695a2.657,2.657,0,0,1-2.656-2.754,2.7,2.7,0,0,1,2.719-2.56h.988a.769.769,0,0,0,.769-.769v-6.543H76.972A.769.769,0,0,1,76.2,265.2Z" transform="translate(-58.718 -233.314)" fill="#73d578"/>
        <g id="Grupo_1160963" data-name="Grupo 1160963" transform="translate(0 32.658)">
          <path id="Trazado_995456" data-name="Trazado 995456" d="M29.652,317.625A1.117,1.117,0,0,0,28.6,316.9a7.663,7.663,0,0,1-7.579-9.065,1.111,1.111,0,0,0-.606-1.218,8.657,8.657,0,0,1-4.987-7.841H7.5a8.657,8.657,0,0,0,4.987,7.841,1.111,1.111,0,0,1,.606,1.218,7.663,7.663,0,0,0,7.579,9.065,1.117,1.117,0,0,1,1.049.729,5.465,5.465,0,0,0,5.231,3.527,5.392,5.392,0,0,0,3.828-1.721A5.47,5.47,0,0,1,29.652,317.625Z" transform="translate(-7.503 -298.771)" fill="#00c63a"/>
        </g>
      </g>
      <g id="Grupo_1160965" data-name="Grupo 1160965" transform="translate(0 19.397)">
        <path id="Trazado_995457" data-name="Trazado 995457" d="M317.417,41.765a9.6,9.6,0,0,0-5.462-7.741.212.212,0,0,1-.1-.234,8.563,8.563,0,0,0-8.384-10.135h-.091a.218.218,0,0,1-.2-.148,6.38,6.38,0,0,0-5.955-4.11l-.137,0a6.449,6.449,0,0,0-6.227,6.457v3.43a1.671,1.671,0,0,0,1.67,1.67h.988a1.8,1.8,0,0,1,1.819,1.692,1.755,1.755,0,0,1-1.755,1.821h-1.052a1.671,1.671,0,0,0-1.67,1.67v5.775a1.671,1.671,0,0,0,1.67,1.669h5.642v.856a3.621,3.621,0,0,0,3.429,3.62,3.555,3.555,0,0,0,3.687-3.556v-.92h2.725a.9.9,0,0,0,0-1.8h-2.858a1.671,1.671,0,0,0-1.67,1.67V44.5a1.755,1.755,0,0,1-1.821,1.755,1.8,1.8,0,0,1-1.691-1.819v-.988a1.671,1.671,0,0,0-1.67-1.67h-5.642v-5.51h.92a3.556,3.556,0,0,0,3.556-3.687,3.621,3.621,0,0,0-3.62-3.43h-.856v-3.3a4.637,4.637,0,0,1,4.464-4.656,4.581,4.581,0,0,1,4.369,2.946,2.025,2.025,0,0,0,1.881,1.311h.09a6.76,6.76,0,0,1,6.615,8,2.009,2.009,0,0,0,1.109,2.2,7.788,7.788,0,0,1,4.417,6.125h-3.387a.9.9,0,1,0,0,1.8h3.534a1.667,1.667,0,0,0,1.663-1.816Z" transform="translate(-255.922 -19.397)"/>
        <path id="Trazado_995458" data-name="Trazado 995458" d="M49.69,127.32h-10.6a1.671,1.671,0,0,0-1.669,1.669v.988a1.8,1.8,0,0,1-1.691,1.819,1.755,1.755,0,0,1-1.821-1.755V128.99a1.671,1.671,0,0,0-1.67-1.669H26.6v-5.51h.92a3.558,3.558,0,0,0,3.556-3.687,3.621,3.621,0,0,0-3.62-3.43H26.6v-3.3a6.449,6.449,0,0,0-6.227-6.457,6.37,6.37,0,0,0-6.093,4.109.218.218,0,0,1-.2.148h-.091A8.563,8.563,0,0,0,5.609,119.33a.212.212,0,0,1-.1.234,9.559,9.559,0,0,0,0,17.314.212.212,0,0,1,.1.234,8.564,8.564,0,0,0,8.385,10.135h.09a.218.218,0,0,1,.2.148,6.336,6.336,0,0,0,11.419.944,6.336,6.336,0,0,0,11.419-.944.218.218,0,0,1,.2-.148H37.4a8.485,8.485,0,0,0,4.055-1.03.9.9,0,1,0-.863-1.582,6.582,6.582,0,0,1-3.188.81h-.092a2.025,2.025,0,0,0-1.881,1.311,4.583,4.583,0,0,1-4.369,2.946,4.637,4.637,0,0,1-4.464-4.655v-3.43h0a1.671,1.671,0,0,0-1.67-1.669H23.878a1.755,1.755,0,0,1-1.755-1.821,1.8,1.8,0,0,1,1.819-1.692h.988a1.672,1.672,0,0,0,1.661-1.5,1.7,1.7,0,0,0,.009-.17v-5.642h5.51v.92A3.556,3.556,0,0,0,35.8,133.6a3.621,3.621,0,0,0,3.429-3.62v-.856H49.543a7.788,7.788,0,0,1-4.417,6.125,2.009,2.009,0,0,0-1.108,2.2,6.7,6.7,0,0,1-.776,4.582.9.9,0,0,0,1.563.9,8.508,8.508,0,0,0,.982-5.815.212.212,0,0,1,.1-.234,9.6,9.6,0,0,0,5.462-7.741,1.657,1.657,0,0,0-.424-1.269,1.68,1.68,0,0,0-1.24-.548ZM24.8,134.632h-.856a3.621,3.621,0,0,0-3.62,3.43,3.555,3.555,0,0,0,3.556,3.687h.92v3.3a4.637,4.637,0,0,1-4.464,4.656,4.577,4.577,0,0,1-4.369-2.946,2.025,2.025,0,0,0-1.881-1.311h-.02a6.761,6.761,0,0,1-6.684-8,2.009,2.009,0,0,0-1.109-2.2,7.8,7.8,0,0,1-4.415-6.125H12.3a1.671,1.671,0,0,0,1.67-1.67v-.988a1.757,1.757,0,1,1,3.513,0v.988a1.671,1.671,0,0,0,1.67,1.67H24.8v5.51Zm1.67-14.624a1.671,1.671,0,0,0-1.67,1.67v5.642h-5.51v-.92a3.558,3.558,0,1,0-7.116.064v.856H1.855A7.8,7.8,0,0,1,6.27,121.2a2.009,2.009,0,0,0,1.109-2.2,6.761,6.761,0,0,1,6.615-8h.09a2.025,2.025,0,0,0,1.881-1.311,4.579,4.579,0,0,1,4.369-2.946A4.637,4.637,0,0,1,24.8,111.4v3.43a1.671,1.671,0,0,0,1.67,1.669h.988a1.8,1.8,0,0,1,1.819,1.692,1.757,1.757,0,0,1-1.755,1.821H26.467Z" transform="translate(0 -94.662)"/>
      </g>
    </g>
  </g>
</svg>
