<svg xmlns="http://www.w3.org/2000/svg" xmlns:xlink="http://www.w3.org/1999/xlink" width="110" height="110" viewBox="0 0 110 110">
  <defs>
    <filter id="Trazado_982547" x="0" y="0" width="110" height="110" filterUnits="userSpaceOnUse">
      <feOffset dy="3" input="SourceAlpha"/>
      <feGaussianBlur stdDeviation="3" result="blur"/>
      <feFlood flood-opacity="0.161"/>
      <feComposite operator="in" in2="blur"/>
      <feComposite in="SourceGraphic"/>
    </filter>
  </defs>
  <g id="Grupo_1160931" data-name="Grupo 1160931" transform="translate(-693 -2645)">
    <g id="Grupo_1160749" data-name="Grupo 1160749" transform="translate(0 315)">
      <g id="Grupo_1158891" data-name="Grupo 1158891" transform="translate(-423 -1476)">
        <g id="Grupo_1157406" data-name="Grupo 1157406" transform="translate(1 3016)">
          <g id="Grupo_1155793" data-name="Grupo 1155793" transform="translate(-0.999 -3894)">
            <g id="Grupo_1154704" data-name="Grupo 1154704" transform="translate(0 1466)">
              <g id="Grupo_1150790" data-name="Grupo 1150790" transform="translate(3 2320)">
                <g id="Grupo_1154214" data-name="Grupo 1154214" transform="translate(79 -5809)">
                  <g id="Grupo_1152583" data-name="Grupo 1152583" transform="translate(1043 6713)">
                    <g id="Grupo_1146973" data-name="Grupo 1146973" transform="translate(0 0)">
                      <g id="Grupo_1146954" data-name="Grupo 1146954">
                        <g transform="matrix(1, 0, 0, 1, -9, -6)" filter="url(#Trazado_982547)">
                          <g id="Trazado_982547-2" data-name="Trazado 982547" transform="translate(9 6)" fill="#fbeaee">
                            <path d="M 46 90.49987030029297 C 39.99187850952148 90.49987030029297 34.16426849365234 89.32350921630859 28.67905426025391 87.00345611572266 C 23.38019943237305 84.76224517822266 18.62104034423828 81.55341339111328 14.53374671936035 77.46613311767578 C 10.44646644592285 73.37885284423828 7.237639904022217 68.61969757080078 4.996413230895996 63.32085418701172 C 2.676359891891479 57.83565521240234 1.5 52.008056640625 1.5 45.99993515014648 C 1.5 39.99181365966797 2.676359891891479 34.16421508789062 4.996413230895996 28.67901420593262 C 7.237639904022217 23.38017463684082 10.44646644592285 18.62101554870605 14.53374671936035 14.53373527526855 C 18.62104034423828 10.44645500183105 23.38019943237305 7.23762845993042 28.67905426025391 4.996415138244629 C 34.16426849365234 2.676361799240112 39.99187850952148 1.500001788139343 46 1.500001788139343 C 52.00812149047852 1.500001788139343 57.83573150634766 2.676361799240112 63.32094573974609 4.996415138244629 C 68.61979675292969 7.23762845993042 73.37895965576172 10.44645500183105 77.46625518798828 14.53373527526855 C 81.55353546142578 18.62101554870605 84.76235961914062 23.38017463684082 87.00358581542969 28.67901420593262 C 89.32363891601562 34.16421508789062 90.5 39.99181365966797 90.5 45.99993515014648 C 90.5 52.008056640625 89.32363891601562 57.83565521240234 87.00358581542969 63.32085418701172 C 84.76235961914062 68.61969757080078 81.55353546142578 73.37885284423828 77.46625518798828 77.46613311767578 C 73.37895965576172 81.55341339111328 68.61979675292969 84.76224517822266 63.32094573974609 87.00345611572266 C 57.83573150634766 89.32350921630859 52.00812149047852 90.49987030029297 46 90.49987030029297 Z" stroke="none"/>
                            <path d="M 46 2.999992370605469 C 40.1937141418457 2.999992370605469 34.56269836425781 4.136489868164062 29.26337051391602 6.377906799316406 C 24.14332580566406 8.543502807617188 19.54441070556641 11.64437866210938 15.59439849853516 15.59437561035156 C 11.64440155029297 19.54439544677734 8.54351806640625 24.14329528808594 6.377914428710938 29.26333618164062 C 4.136497497558594 34.56264877319336 3 40.19366455078125 3 45.99993515014648 C 3 51.80620574951172 4.136497497558594 57.43720626831055 6.377914428710938 62.73651885986328 C 8.54351806640625 67.8565673828125 11.64440155029297 72.45545959472656 15.59439849853516 76.40547943115234 C 19.54441070556641 80.35547637939453 24.14332580566406 83.45635223388672 29.26337051391602 85.6219482421875 C 34.56269836425781 87.86336517333984 40.1937141418457 88.99986267089844 46 88.99986267089844 C 51.8062858581543 88.99986267089844 57.43730163574219 87.86336517333984 62.73661422729492 85.6219482421875 C 67.85667419433594 83.45635223388672 72.45557403564453 80.35547637939453 76.40558624267578 76.40547943115234 C 80.35559844970703 72.45545959472656 83.45647430419922 67.8565673828125 85.6220703125 62.73651885986328 C 87.86350250244141 57.43720626831055 89 51.80620574951172 89 45.99993515014648 C 89 40.19366455078125 87.86350250244141 34.56264877319336 85.6220703125 29.26333618164062 C 83.45647430419922 24.14329528808594 80.35559844970703 19.54439544677734 76.40558624267578 15.59437561035156 C 72.45557403564453 11.64437866210938 67.85667419433594 8.543502807617188 62.73661422729492 6.377906799316406 C 57.43730163574219 4.136489868164062 51.8062858581543 2.999992370605469 46 2.999992370605469 M 46 -7.62939453125e-06 C 71.40509033203125 -7.62939453125e-06 92 20.59486389160156 92 45.99993515014648 C 92 71.40499114990234 71.40509033203125 91.99986267089844 46 91.99986267089844 C 20.59490203857422 91.99986267089844 0 71.40499114990234 0 45.99993515014648 C 0 20.59486389160156 20.59490203857422 -7.62939453125e-06 46 -7.62939453125e-06 Z" stroke="none" fill="#e23e64"/>
                          </g>
                        </g>
                      </g>
                    </g>
                  </g>
                </g>
              </g>
            </g>
          </g>
        </g>
      </g>
    </g>
    <g id="publico-objetivo_2_" data-name="publico-objetivo (2)" transform="translate(716 2664.029)">
      <g id="Grupo_1160930" data-name="Grupo 1160930" transform="translate(1.234 3.206)">
        <g id="Grupo_1160921" data-name="Grupo 1160921" transform="translate(33.127 33.358)">
          <path id="Trazado_995335" data-name="Trazado 995335" d="M292.572,282.267a13.375,13.375,0,0,0-7.5,2.289l-6.65-1.174,2.035,6.511a13.441,13.441,0,1,0,12.119-7.626Z" transform="translate(-278.418 -282.267)" fill="#61a2ff"/>
        </g>
        <g id="Grupo_1160924" data-name="Grupo 1160924" transform="translate(37.844 39.044)">
          <g id="Grupo_1160922" data-name="Grupo 1160922" transform="translate(5.337)">
            <path id="Trazado_995336" data-name="Trazado 995336" d="M364.006,338.148a4.121,4.121,0,0,1-4.121-4.121v-1.574a4.121,4.121,0,0,1,8.241,0v1.574A4.121,4.121,0,0,1,364.006,338.148Z" transform="translate(-359.885 -328.333)" fill="#ffc6ae"/>
          </g>
          <g id="Grupo_1160923" data-name="Grupo 1160923" transform="translate(0 9.814)">
            <path id="Trazado_995337" data-name="Trazado 995337" d="M335.556,413.291v2.032a13.439,13.439,0,0,1-18.916.039V413.29a5.434,5.434,0,0,1,5.433-5.434h8.048A5.435,5.435,0,0,1,335.556,413.291Z" transform="translate(-316.64 -407.856)" fill="#ffce62"/>
          </g>
        </g>
        <g id="Grupo_1160925" data-name="Grupo 1160925" transform="translate(0 6.088)">
          <path id="Trazado_995338" data-name="Trazado 995338" d="M56.673,84.64a23.405,23.405,0,0,1-.337,3.967,13.363,13.363,0,0,0-6.561,2.256l-.295-.053-6.355-1.121,2.035,6.51a13.481,13.481,0,0,0-.919,9.077A23.34,23.34,0,1,1,56.673,84.64Z" transform="translate(-10 -61.303)" fill="#fff"/>
        </g>
        <g id="Grupo_1160926" data-name="Grupo 1160926" transform="translate(6.058 12.146)">
          <path id="Trazado_995339" data-name="Trazado 995339" d="M92.507,133.836l-6.355-1.121,2.035,6.51a13.293,13.293,0,0,0-.652,1.623,17.242,17.242,0,1,1,4.972-7.012Z" transform="translate(-59.083 -110.387)" fill="#ff7e96"/>
        </g>
        <g id="Grupo_1160927" data-name="Grupo 1160927" transform="translate(12.349 18.437)">
          <circle id="Elipse_12148" data-name="Elipse 12148" cx="10.988" cy="10.988" r="10.988" fill="#fff"/>
        </g>
        <g id="Grupo_1160928" data-name="Grupo 1160928" transform="translate(18.471 24.558)">
          <circle id="Elipse_12149" data-name="Elipse 12149" cx="4.866" cy="4.866" r="4.866" fill="#ff7e96"/>
        </g>
        <g id="Grupo_1160929" data-name="Grupo 1160929" transform="translate(42.653)">
          <path id="Trazado_995340" data-name="Trazado 995340" d="M355.609,22.129h5.314l4.843-5h-5.157V11.972l-5,4.842Z" transform="translate(-355.609 -11.972)" fill="#868eaf"/>
        </g>
      </g>
      <path id="Trazado_995341" data-name="Trazado 995341" d="M48.993,35.339a24.831,24.831,0,0,0,.149-2.708,24.474,24.474,0,0,0-6.334-16.448L44.4,14.6h4.8a1.234,1.234,0,0,0,.886-.376l4.843-5a1.234,1.234,0,0,0-.886-2.093H50.121V3.206a1.234,1.234,0,0,0-2.093-.887l-5,4.842a1.234,1.234,0,0,0-.376.887v4.8l-1.588,1.584a24.548,24.548,0,0,0-29.894-2.4A1.234,1.234,0,1,0,12.519,14.1a22.081,22.081,0,0,1,26.8,2.078l-2.544,2.538a18.507,18.507,0,1,0-2.863,29.9,14.937,14.937,0,0,0,.162,3.976A22.108,22.108,0,0,1,5.51,21.437a1.234,1.234,0,1,0-2.127-1.252A24.578,24.578,0,0,0,34.716,55.015a14.728,14.728,0,0,0,10.894,9.375,14.824,14.824,0,0,0,9-1.036,14.674,14.674,0,0,0-5.617-28.015ZM45.122,8.571l2.531-2.452V8.363A1.234,1.234,0,0,0,48.887,9.6h2.243l-2.452,2.531H45.122V8.571Zm-4.063,9.357a22.012,22.012,0,0,1,5.615,14.7,22.337,22.337,0,0,1-.181,2.838,14.608,14.608,0,0,0-3.823,1.074,18.515,18.515,0,0,0-4.155-16.077ZM34.876,44.586c-.066.166-.129.333-.189.5a16.051,16.051,0,1,1,.333-24.622L32.3,23.173a12.222,12.222,0,1,0,1.635,17.3l.39,1.247.746,2.388c-.07.159-.136.319-.2.48ZM23.7,33.5a1.234,1.234,0,0,0,1.745,0l2.418-2.412a3.634,3.634,0,1,1-1.743-1.748L23.7,31.757a1.235,1.235,0,0,0,0,1.745Zm4.23-5.962a6.109,6.109,0,1,0,1.743,1.748l2.618-2.612a9.772,9.772,0,1,1-1.743-1.747Zm6.121-2.619,2.715-2.708A16.051,16.051,0,0,1,39.895,37.4l-3.087-.545-.722-.127a12.205,12.205,0,0,0-2.038-11.81ZM56.76,59a12.239,12.239,0,0,1-2.367,1.7V58.18a1.234,1.234,0,1,0-2.468,0v3.546a12.2,12.2,0,0,1-6.8,0V58.18a1.234,1.234,0,1,0-2.468,0v2.532a12.205,12.205,0,0,1-2.342-1.674V57.5a4.2,4.2,0,0,1,4.2-4.2h8.048a4.205,4.205,0,0,1,4.2,4.2V59ZM45.649,47.944V46.37a2.886,2.886,0,1,1,5.773,0v1.574a2.889,2.889,0,0,1-2.853,2.886H48.5a2.889,2.889,0,0,1-2.853-2.886Zm13.434,8.173a6.681,6.681,0,0,0-6.053-5.269,5.321,5.321,0,0,0,.859-2.9V46.37a5.355,5.355,0,1,0-10.709,0v1.574a5.322,5.322,0,0,0,.859,2.9,6.68,6.68,0,0,0-6.063,5.32,12.288,12.288,0,0,1-1.341-8.976,12.148,12.148,0,0,1,.872-2.468,1.234,1.234,0,0,0,.065-.9l-1.43-4.574,4.48.791a1.412,1.412,0,0,0,1.106-.181A12.206,12.206,0,0,1,60.72,50a12.132,12.132,0,0,1-1.637,6.115Z" transform="translate(0 0)"/>
      <path id="Trazado_995342" data-name="Trazado 995342" d="M55.12,109.835A1.234,1.234,0,1,0,55,111.354a1.242,1.242,0,0,0,.116-1.518Z" transform="translate(-46.337 -94.072)"/>
    </g>
  </g>
</svg>
