<svg xmlns="http://www.w3.org/2000/svg" xmlns:xlink="http://www.w3.org/1999/xlink" width="108" height="108" viewBox="0 0 108 108">
  <defs>
    <filter id="Trazado_982547" x="0" y="0" width="108" height="108" filterUnits="userSpaceOnUse">
      <feOffset dy="3" input="SourceAlpha"/>
      <feGaussianBlur stdDeviation="3" result="blur"/>
      <feFlood flood-opacity="0.161"/>
      <feComposite operator="in" in2="blur"/>
      <feComposite in="SourceGraphic"/>
    </filter>
  </defs>
  <g id="Grupo_1161058" data-name="Grupo 1161058" transform="translate(-1165 -3268)">
    <g id="Grupo_1160772" data-name="Grupo 1160772" transform="translate(1174 3274)">
      <g id="Grupo_1149837" data-name="Grupo 1149837">
        <g id="Grupo_1149675" data-name="Grupo 1149675">
          <g id="Grupo_1148534" data-name="Grupo 1148534">
            <g id="Grupo_1147066" data-name="Grupo 1147066">
              <g transform="matrix(1, 0, 0, 1, -9, -6)" filter="url(#Trazado_982547)">
                <g id="Trazado_982547-2" data-name="Trazado 982547" transform="translate(9 6)" fill="#f6edfd">
                  <path d="M 45 88.5 C 39.12687683105469 88.5 33.43022537231445 87.35007476806641 28.06830024719238 85.08217620849609 C 22.88852500915527 82.89131164550781 18.23629951477051 79.75458526611328 14.2408504486084 75.75914764404297 C 10.24541282653809 71.76370239257812 7.108687400817871 67.11147308349609 4.917825222015381 61.93170166015625 C 2.649924993515015 56.56977462768555 1.5 50.87312316894531 1.5 45 C 1.5 39.12687683105469 2.649924993515015 33.43022537231445 4.917825222015381 28.06830024719238 C 7.108687400817871 22.88852500915527 10.24541282653809 18.23629951477051 14.2408504486084 14.2408504486084 C 18.23629951477051 10.24541282653809 22.88852500915527 7.108687400817871 28.06830024719238 4.917825222015381 C 33.43022537231445 2.649924993515015 39.12687683105469 1.5 45 1.5 C 50.87312316894531 1.5 56.56977462768555 2.649924993515015 61.93170166015625 4.917825222015381 C 67.11147308349609 7.108687400817871 71.76370239257812 10.24541282653809 75.75914764404297 14.2408504486084 C 79.75458526611328 18.23629951477051 82.89131164550781 22.88852500915527 85.08217620849609 28.06830024719238 C 87.35007476806641 33.43022537231445 88.5 39.12687683105469 88.5 45 C 88.5 50.87312316894531 87.35007476806641 56.56977462768555 85.08217620849609 61.93170166015625 C 82.89131164550781 67.11147308349609 79.75458526611328 71.76370239257812 75.75914764404297 75.75914764404297 C 71.76370239257812 79.75458526611328 67.11147308349609 82.89131164550781 61.93170166015625 85.08217620849609 C 56.56977462768555 87.35007476806641 50.87312316894531 88.5 45 88.5 Z" stroke="none"/>
                  <path d="M 45 3 C 39.32871246337891 3 33.82865524291992 4.110054016113281 28.65262985229492 6.299339294433594 C 23.65165710449219 8.414573669433594 19.15968322753906 11.44334411621094 15.301513671875 15.301513671875 C 11.44334411621094 19.15968322753906 8.414573669433594 23.65165710449219 6.299339294433594 28.65262985229492 C 4.110054016113281 33.82865524291992 3 39.32871246337891 3 45 C 3 50.67128753662109 4.110054016113281 56.17134475708008 6.299339294433594 61.34737396240234 C 8.414573669433594 66.34834289550781 11.44334411621094 70.84031677246094 15.301513671875 74.698486328125 C 19.15968322753906 78.55665588378906 23.65165710449219 81.58542633056641 28.65262985229492 83.70066070556641 C 33.82865524291992 85.88994598388672 39.32871246337891 87 45 87 C 50.67128753662109 87 56.17134475708008 85.88994598388672 61.34737396240234 83.70066070556641 C 66.34834289550781 81.58542633056641 70.84031677246094 78.55665588378906 74.698486328125 74.698486328125 C 78.55665588378906 70.84031677246094 81.58542633056641 66.34834289550781 83.70066070556641 61.34737396240234 C 85.88994598388672 56.17134475708008 87 50.67128753662109 87 45 C 87 39.32871246337891 85.88994598388672 33.82865524291992 83.70066070556641 28.65262985229492 C 81.58542633056641 23.65165710449219 78.55665588378906 19.15968322753906 74.698486328125 15.301513671875 C 70.84031677246094 11.44334411621094 66.34834289550781 8.414573669433594 61.34737396240234 6.299339294433594 C 56.17134475708008 4.110054016113281 50.67128753662109 3 45 3 M 45 0 C 69.85281372070312 0 90 20.14718627929688 90 45 C 90 69.85281372070312 69.85281372070312 90 45 90 C 20.14718627929688 90 0 69.85281372070312 0 45 C 0 20.14718627929688 20.14718627929688 0 45 0 Z" stroke="none" fill="#ac59f1"/>
                </g>
              </g>
            </g>
          </g>
        </g>
      </g>
    </g>
    <g id="conexion" transform="translate(1191.994 3292)">
      <g id="Grupo_1161053" data-name="Grupo 1161053" transform="translate(1.077 1.071)">
        <g id="Grupo_1161031" data-name="Grupo 1161031" transform="translate(25.565 25.564)">
          <g id="Grupo_1161030" data-name="Grupo 1161030">
            <g id="Grupo_1161022" data-name="Grupo 1161022">
              <g id="Grupo_1161021" data-name="Grupo 1161021">
                <g id="Grupo_1161020" data-name="Grupo 1161020">
                  <g id="Grupo_1161019" data-name="Grupo 1161019">
                    <path id="Trazado_995579" data-name="Trazado 995579" d="M254.043,273.037a13.56,13.56,0,1,1,16.54,0" transform="translate(-248.753 -248.729)" fill="#ff7d97"/>
                  </g>
                </g>
              </g>
            </g>
            <g id="Grupo_1161029" data-name="Grupo 1161029" transform="translate(5.29 7.598)">
              <g id="Grupo_1161025" data-name="Grupo 1161025" transform="translate(2.548)">
                <g id="Grupo_1161024" data-name="Grupo 1161024">
                  <g id="Grupo_1161023" data-name="Grupo 1161023">
                    <circle id="Elipse_12176" data-name="Elipse 12176" cx="5.722" cy="5.722" r="5.722" fill="#ffdcd5"/>
                  </g>
                </g>
              </g>
              <g id="Grupo_1161028" data-name="Grupo 1161028" transform="translate(0 11.444)">
                <g id="Grupo_1161027" data-name="Grupo 1161027">
                  <g id="Grupo_1161026" data-name="Grupo 1161026">
                    <path id="Trazado_995580" data-name="Trazado 995580" d="M314.693,431.7v.125a13.563,13.563,0,0,1-16.54,0V431.7a5.141,5.141,0,0,1,5.141-5.141h6.259A5.141,5.141,0,0,1,314.693,431.7Z" transform="translate(-298.153 -426.558)" fill="#ccf5fc"/>
                  </g>
                </g>
              </g>
            </g>
          </g>
        </g>
        <g id="Grupo_1161044" data-name="Grupo 1161044">
          <g id="Grupo_1161043" data-name="Grupo 1161043">
            <g id="Grupo_1161042" data-name="Grupo 1161042">
              <g id="Grupo_1161034" data-name="Grupo 1161034">
                <g id="Grupo_1161033" data-name="Grupo 1161033">
                  <g id="Grupo_1161032" data-name="Grupo 1161032">
                    <path id="Trazado_995581" data-name="Trazado 995581" d="M15.3,34.308a13.56,13.56,0,1,1,16.54,0" transform="translate(-10.006 -10)" fill="#fff2a0"/>
                  </g>
                </g>
              </g>
              <g id="Grupo_1161041" data-name="Grupo 1161041" transform="translate(5.29 7.598)">
                <g id="Grupo_1161037" data-name="Grupo 1161037" transform="translate(2.548)">
                  <g id="Grupo_1161036" data-name="Grupo 1161036">
                    <g id="Grupo_1161035" data-name="Grupo 1161035">
                      <circle id="Elipse_12177" data-name="Elipse 12177" cx="5.722" cy="5.722" r="5.722" fill="#ffdcd5"/>
                    </g>
                  </g>
                </g>
                <g id="Grupo_1161040" data-name="Grupo 1161040" transform="translate(0 11.444)">
                  <g id="Grupo_1161039" data-name="Grupo 1161039">
                    <g id="Grupo_1161038" data-name="Grupo 1161038">
                      <path id="Trazado_995582" data-name="Trazado 995582" d="M75.946,192.97v.125a13.563,13.563,0,0,1-16.54,0v-.125a5.141,5.141,0,0,1,5.141-5.141h6.259A5.141,5.141,0,0,1,75.946,192.97Z" transform="translate(-59.406 -187.829)" fill="#ff9eb1"/>
                    </g>
                  </g>
                </g>
              </g>
            </g>
          </g>
        </g>
        <g id="Grupo_1161052" data-name="Grupo 1161052" transform="translate(4.38 6.92)">
          <g id="Grupo_1161047" data-name="Grupo 1161047" transform="translate(33.426)">
            <g id="Grupo_1161046" data-name="Grupo 1161046">
              <g id="Grupo_1161045" data-name="Grupo 1161045">
                <circle id="Elipse_12178" data-name="Elipse 12178" cx="5.249" cy="5.249" r="5.249" fill="#ccf5fc"/>
              </g>
            </g>
          </g>
          <g id="Grupo_1161051" data-name="Grupo 1161051" transform="translate(0 28.345)">
            <g id="Grupo_1161050" data-name="Grupo 1161050">
              <g id="Grupo_1161049" data-name="Grupo 1161049">
                <g id="Grupo_1161048" data-name="Grupo 1161048">
                  <circle id="Elipse_12179" data-name="Elipse 12179" cx="5.249" cy="5.249" r="5.249" fill="#99ebfa"/>
                </g>
              </g>
            </g>
          </g>
        </g>
      </g>
      <g id="Grupo_1161057" data-name="Grupo 1161057" transform="translate(0.006 0)">
        <g id="Grupo_1161056" data-name="Grupo 1161056" transform="translate(52.687 38.873)">
          <g id="Grupo_1161055" data-name="Grupo 1161055">
            <g id="Grupo_1161054" data-name="Grupo 1161054">
              <path id="Trazado_995583" data-name="Trazado 995583" d="M493.1,365.162a1.071,1.071,0,1,1,1.049-.862A1.079,1.079,0,0,1,493.1,365.162Z" transform="translate(-492.03 -363.023)"/>
            </g>
          </g>
        </g>
        <path id="Trazado_995584" data-name="Trazado 995584" d="M53.33,43.77a1.071,1.071,0,0,0-1.37.646,12.457,12.457,0,0,1-2.741,4.422,6.238,6.238,0,0,0-4.279-4.02,6.793,6.793,0,1,0-9.477,0,6.238,6.238,0,0,0-4.279,4.022,12.492,12.492,0,1,1,20.6-13.332,1.071,1.071,0,0,0,1.985-.8A14.673,14.673,0,0,0,45.2,26.44V19.47a6.32,6.32,0,1,0-7.3-7.3H29.06A14.631,14.631,0,1,0,5.713,26.227l.005,0a14.584,14.584,0,0,0,3.917,2.159v6.967a6.32,6.32,0,1,0,7.3,7.3h8.841a14.53,14.53,0,0,0,5.5,9.134l.006,0a14.633,14.633,0,0,0,17.838,0l0,0a14.625,14.625,0,0,0,4.85-6.651,1.071,1.071,0,0,0-.646-1.37Zm-9.2-34.707a4.178,4.178,0,1,1-4.178,4.178A4.183,4.183,0,0,1,44.132,9.062ZM2.148,14.632a12.489,12.489,0,1,1,21.507,8.644,6.238,6.238,0,0,0-4.279-4.022,6.793,6.793,0,1,0-9.477,0,6.238,6.238,0,0,0-4.279,4.022,12.4,12.4,0,0,1-3.471-8.644Zm12.489,4.41a4.651,4.651,0,1,1,4.651-4.651A4.657,4.657,0,0,1,14.637,19.042Zm-3.129,2.142h6.259a4.075,4.075,0,0,1,4.05,3.669,12.5,12.5,0,0,1-14.359,0,4.075,4.075,0,0,1,4.05-3.669Zm-.8,24.58a4.178,4.178,0,1,1,4.178-4.178A4.183,4.183,0,0,1,10.706,45.764Zm6.229-5.249a6.337,6.337,0,0,0-5.158-5.158v-6.37a14.788,14.788,0,0,0,2.86.277,14.494,14.494,0,0,0,8.917-3.031l.006,0a14.539,14.539,0,0,0,5.707-11.595q0-.161,0-.32H37.9a6.337,6.337,0,0,0,5.158,5.158v6.373A14.645,14.645,0,0,0,25.571,40.2q0,.16,0,.319ZM40.2,35.3a4.651,4.651,0,1,1-4.651,4.651A4.657,4.657,0,0,1,40.2,35.3Zm0,17.381a12.363,12.363,0,0,1-7.179-2.268,4.075,4.075,0,0,1,4.05-3.669h6.259a4.075,4.075,0,0,1,4.05,3.669A12.363,12.363,0,0,1,40.2,52.684Z" transform="translate(-0.006 0)"/>
      </g>
    </g>
  </g>
</svg>
