<svg xmlns="http://www.w3.org/2000/svg" xmlns:xlink="http://www.w3.org/1999/xlink" width="110" height="110" viewBox="0 0 110 110">
  <defs>
    <filter id="Trazado_982547" x="0" y="0" width="110" height="110" filterUnits="userSpaceOnUse">
      <feOffset dy="3" input="SourceAlpha"/>
      <feGaussianBlur stdDeviation="3" result="blur"/>
      <feFlood flood-opacity="0.161"/>
      <feComposite operator="in" in2="blur"/>
      <feComposite in="SourceGraphic"/>
    </filter>
  </defs>
  <g id="Grupo_1161077" data-name="Grupo 1161077" transform="translate(-1115 -5774)">
    <g id="Grupo_1160783" data-name="Grupo 1160783" transform="translate(422 3444)">
      <g id="Grupo_1158891" data-name="Grupo 1158891" transform="translate(-423 -1476)">
        <g id="Grupo_1157406" data-name="Grupo 1157406" transform="translate(1 3016)">
          <g id="Grupo_1155793" data-name="Grupo 1155793" transform="translate(-0.999 -3894)">
            <g id="Grupo_1154704" data-name="Grupo 1154704" transform="translate(0 1466)">
              <g id="Grupo_1150790" data-name="Grupo 1150790" transform="translate(3 2320)">
                <g id="Grupo_1154214" data-name="Grupo 1154214" transform="translate(79 -5809)">
                  <g id="Grupo_1152583" data-name="Grupo 1152583" transform="translate(1043 6713)">
                    <g id="Grupo_1146973" data-name="Grupo 1146973" transform="translate(0 0)">
                      <g id="Grupo_1146954" data-name="Grupo 1146954">
                        <g transform="matrix(1, 0, 0, 1, -9, -6)" filter="url(#Trazado_982547)">
                          <g id="Trazado_982547-2" data-name="Trazado 982547" transform="translate(9 6)" fill="#fbeaee">
                            <path d="M 46 90.49987030029297 C 39.99187850952148 90.49987030029297 34.16426849365234 89.32350921630859 28.67905426025391 87.00345611572266 C 23.38019943237305 84.76224517822266 18.62104034423828 81.55341339111328 14.53374671936035 77.46613311767578 C 10.44646644592285 73.37885284423828 7.237639904022217 68.61969757080078 4.996413230895996 63.32085418701172 C 2.676359891891479 57.83565521240234 1.5 52.008056640625 1.5 45.99993515014648 C 1.5 39.99181365966797 2.676359891891479 34.16421508789062 4.996413230895996 28.67901420593262 C 7.237639904022217 23.38017463684082 10.44646644592285 18.62101554870605 14.53374671936035 14.53373527526855 C 18.62104034423828 10.44645500183105 23.38019943237305 7.23762845993042 28.67905426025391 4.996415138244629 C 34.16426849365234 2.676361799240112 39.99187850952148 1.500001788139343 46 1.500001788139343 C 52.00812149047852 1.500001788139343 57.83573150634766 2.676361799240112 63.32094573974609 4.996415138244629 C 68.61979675292969 7.23762845993042 73.37895965576172 10.44645500183105 77.46625518798828 14.53373527526855 C 81.55353546142578 18.62101554870605 84.76235961914062 23.38017463684082 87.00358581542969 28.67901420593262 C 89.32363891601562 34.16421508789062 90.5 39.99181365966797 90.5 45.99993515014648 C 90.5 52.008056640625 89.32363891601562 57.83565521240234 87.00358581542969 63.32085418701172 C 84.76235961914062 68.61969757080078 81.55353546142578 73.37885284423828 77.46625518798828 77.46613311767578 C 73.37895965576172 81.55341339111328 68.61979675292969 84.76224517822266 63.32094573974609 87.00345611572266 C 57.83573150634766 89.32350921630859 52.00812149047852 90.49987030029297 46 90.49987030029297 Z" stroke="none"/>
                            <path d="M 46 2.999992370605469 C 40.1937141418457 2.999992370605469 34.56269836425781 4.136489868164062 29.26337051391602 6.377906799316406 C 24.14332580566406 8.543502807617188 19.54441070556641 11.64437866210938 15.59439849853516 15.59437561035156 C 11.64440155029297 19.54439544677734 8.54351806640625 24.14329528808594 6.377914428710938 29.26333618164062 C 4.136497497558594 34.56264877319336 3 40.19366455078125 3 45.99993515014648 C 3 51.80620574951172 4.136497497558594 57.43720626831055 6.377914428710938 62.73651885986328 C 8.54351806640625 67.8565673828125 11.64440155029297 72.45545959472656 15.59439849853516 76.40547943115234 C 19.54441070556641 80.35547637939453 24.14332580566406 83.45635223388672 29.26337051391602 85.6219482421875 C 34.56269836425781 87.86336517333984 40.1937141418457 88.99986267089844 46 88.99986267089844 C 51.8062858581543 88.99986267089844 57.43730163574219 87.86336517333984 62.73661422729492 85.6219482421875 C 67.85667419433594 83.45635223388672 72.45557403564453 80.35547637939453 76.40558624267578 76.40547943115234 C 80.35559844970703 72.45545959472656 83.45647430419922 67.8565673828125 85.6220703125 62.73651885986328 C 87.86350250244141 57.43720626831055 89 51.80620574951172 89 45.99993515014648 C 89 40.19366455078125 87.86350250244141 34.56264877319336 85.6220703125 29.26333618164062 C 83.45647430419922 24.14329528808594 80.35559844970703 19.54439544677734 76.40558624267578 15.59437561035156 C 72.45557403564453 11.64437866210938 67.85667419433594 8.543502807617188 62.73661422729492 6.377906799316406 C 57.43730163574219 4.136489868164062 51.8062858581543 2.999992370605469 46 2.999992370605469 M 46 -7.62939453125e-06 C 71.40509033203125 -7.62939453125e-06 92 20.59486389160156 92 45.99993515014648 C 92 71.40499114990234 71.40509033203125 91.99986267089844 46 91.99986267089844 C 20.59490203857422 91.99986267089844 0 71.40499114990234 0 45.99993515014648 C 0 20.59486389160156 20.59490203857422 -7.62939453125e-06 46 -7.62939453125e-06 Z" stroke="none" fill="#e23e64"/>
                          </g>
                        </g>
                      </g>
                    </g>
                  </g>
                </g>
              </g>
            </g>
          </g>
        </g>
      </g>
    </g>
    <g id="combinar" transform="translate(1138.996 5795)">
      <g id="Grupo_1161072" data-name="Grupo 1161072" transform="translate(21.333 21.329)">
        <circle id="Elipse_12183" data-name="Elipse 12183" cx="19.729" cy="19.729" r="19.729" transform="translate(0 0)" fill="#89dd8e"/>
      </g>
      <g id="Grupo_1161073" data-name="Grupo 1161073" transform="translate(1.071 1.066)">
        <circle id="Elipse_12184" data-name="Elipse 12184" cx="20.262" cy="20.262" r="20.262" transform="translate(0 0)" fill="#ff7d95"/>
      </g>
      <g id="Grupo_1161074" data-name="Grupo 1161074" transform="translate(21.225 21.221)">
        <path id="Trazado_995625" data-name="Trazado 995625" d="M194.006,174a20,20,0,0,1-20,20A20,20,0,0,1,194.006,174Z" transform="translate(-174.004 -174)" fill="#89dd8e"/>
      </g>
      <g id="Grupo_1161075" data-name="Grupo 1161075" transform="translate(21.225 21.221)">
        <path id="Trazado_995626" data-name="Trazado 995626" d="M194.006,174a20,20,0,0,1-20,20A20,20,0,0,1,194.006,174Z" transform="translate(-174.004 -174)" fill="#fff"/>
      </g>
      <g id="Grupo_1161076" data-name="Grupo 1161076" transform="translate(0.004 0)">
        <path id="Trazado_995627" data-name="Trazado 995627" d="M60.839,45.351a1.219,1.219,0,0,0-1.5.853,18.784,18.784,0,0,1-36.857-3.8A21.251,21.251,0,0,0,42.408,22.478,18.834,18.834,0,0,1,59.329,36.2a1.22,1.22,0,0,0,2.351-.651,21.364,21.364,0,0,0-7.5-11.135,20.988,20.988,0,0,0-11.768-4.379A21.221,21.221,0,1,0,20.039,42.409,21.223,21.223,0,0,0,61.692,46.85a1.22,1.22,0,0,0-.853-1.5ZM22.488,39.96A18.809,18.809,0,0,1,39.964,22.484,18.809,18.809,0,0,1,22.488,39.96ZM2.443,21.221A18.782,18.782,0,0,1,39.969,20.04,21.251,21.251,0,0,0,20.044,39.965a18.805,18.805,0,0,1-17.6-18.744Z" transform="translate(-0.004 0)"/>
        <path id="Trazado_995628" data-name="Trazado 995628" d="M319.065,329.225a1.22,1.22,0,0,0,1.22-1.22v-2.767l6.557,6.557a1.22,1.22,0,1,0,1.725-1.725l-6.558-6.557h2.753a1.22,1.22,0,0,0,0-2.439h-5.7a1.232,1.232,0,0,0-1.22,1.22V328A1.219,1.219,0,0,0,319.065,329.225Z" transform="translate(-279.082 -281.915)"/>
        <path id="Trazado_995629" data-name="Trazado 995629" d="M108.9,113.352a1.232,1.232,0,0,0,1.22-1.22v-5.711a1.22,1.22,0,1,0-2.439,0v2.767l-6.557-6.557a1.22,1.22,0,0,0-1.725,1.725l6.558,6.557H103.2a1.22,1.22,0,1,0,0,2.439Z" transform="translate(-86.964 -89.8)"/>
        <path id="Trazado_995630" data-name="Trazado 995630" d="M494.428,328.995a1.219,1.219,0,1,0-.957,1.433A1.229,1.229,0,0,0,494.428,328.995Z" transform="translate(-432.008 -288.009)"/>
      </g>
    </g>
  </g>
</svg>
