<svg xmlns="http://www.w3.org/2000/svg" xmlns:xlink="http://www.w3.org/1999/xlink" width="110" height="110" viewBox="0 0 110 110">
  <defs>
    <filter id="Trazado_982547" x="0.001" y="0" width="110" height="110" filterUnits="userSpaceOnUse">
      <feOffset dy="3" input="SourceAlpha"/>
      <feGaussianBlur stdDeviation="3" result="blur"/>
      <feFlood flood-opacity="0.161"/>
      <feComposite operator="in" in2="blur"/>
      <feComposite in="SourceGraphic"/>
    </filter>
  </defs>
  <g id="Grupo_1161080" data-name="Grupo 1161080" transform="translate(-9830.65 -5779)">
    <g id="Grupo_1160785" data-name="Grupo 1160785" transform="translate(9137.651 3449)">
      <g id="Grupo_1158891" data-name="Grupo 1158891" transform="translate(-423 -1476)">
        <g id="Grupo_1157406" data-name="Grupo 1157406" transform="translate(1 3016)">
          <g id="Grupo_1155793" data-name="Grupo 1155793" transform="translate(-0.999 -3894)">
            <g id="Grupo_1154704" data-name="Grupo 1154704" transform="translate(0 1466)">
              <g id="Grupo_1150790" data-name="Grupo 1150790" transform="translate(3 2320)">
                <g id="Grupo_1154214" data-name="Grupo 1154214" transform="translate(79 -5809)">
                  <g id="Grupo_1152583" data-name="Grupo 1152583" transform="translate(1043 6713)">
                    <g id="Grupo_1146973" data-name="Grupo 1146973" transform="translate(0 0)">
                      <g id="Grupo_1146954" data-name="Grupo 1146954">
                        <g transform="matrix(1, 0, 0, 1, -9, -6)" filter="url(#Trazado_982547)">
                          <g id="Trazado_982547-2" data-name="Trazado 982547" transform="translate(9 6)" fill="#fbeaee">
                            <path d="M 46 90.49987030029297 C 39.99187850952148 90.49987030029297 34.16426849365234 89.32350921630859 28.67905426025391 87.00345611572266 C 23.38019943237305 84.76224517822266 18.62104034423828 81.55341339111328 14.53374671936035 77.46613311767578 C 10.44646644592285 73.37885284423828 7.237639904022217 68.61969757080078 4.996413230895996 63.32085418701172 C 2.676359891891479 57.83565521240234 1.5 52.008056640625 1.5 45.99993515014648 C 1.5 39.99181365966797 2.676359891891479 34.16421508789062 4.996413230895996 28.67901420593262 C 7.237639904022217 23.38017463684082 10.44646644592285 18.62101554870605 14.53374671936035 14.53373527526855 C 18.62104034423828 10.44645500183105 23.38019943237305 7.23762845993042 28.67905426025391 4.996415138244629 C 34.16426849365234 2.676361799240112 39.99187850952148 1.500001788139343 46 1.500001788139343 C 52.00812149047852 1.500001788139343 57.83573150634766 2.676361799240112 63.32094573974609 4.996415138244629 C 68.61979675292969 7.23762845993042 73.37895965576172 10.44645500183105 77.46625518798828 14.53373527526855 C 81.55353546142578 18.62101554870605 84.76235961914062 23.38017463684082 87.00358581542969 28.67901420593262 C 89.32363891601562 34.16421508789062 90.5 39.99181365966797 90.5 45.99993515014648 C 90.5 52.008056640625 89.32363891601562 57.83565521240234 87.00358581542969 63.32085418701172 C 84.76235961914062 68.61969757080078 81.55353546142578 73.37885284423828 77.46625518798828 77.46613311767578 C 73.37895965576172 81.55341339111328 68.61979675292969 84.76224517822266 63.32094573974609 87.00345611572266 C 57.83573150634766 89.32350921630859 52.00812149047852 90.49987030029297 46 90.49987030029297 Z" stroke="none"/>
                            <path d="M 46 2.999992370605469 C 40.1937141418457 2.999992370605469 34.56269836425781 4.136489868164062 29.26337051391602 6.377906799316406 C 24.14332580566406 8.543502807617188 19.54441070556641 11.64437866210938 15.59439849853516 15.59437561035156 C 11.64440155029297 19.54439544677734 8.54351806640625 24.14329528808594 6.377914428710938 29.26333618164062 C 4.136497497558594 34.56264877319336 3 40.19366455078125 3 45.99993515014648 C 3 51.80620574951172 4.136497497558594 57.43720626831055 6.377914428710938 62.73651885986328 C 8.54351806640625 67.8565673828125 11.64440155029297 72.45545959472656 15.59439849853516 76.40547943115234 C 19.54441070556641 80.35547637939453 24.14332580566406 83.45635223388672 29.26337051391602 85.6219482421875 C 34.56269836425781 87.86336517333984 40.1937141418457 88.99986267089844 46 88.99986267089844 C 51.8062858581543 88.99986267089844 57.43730163574219 87.86336517333984 62.73661422729492 85.6219482421875 C 67.85667419433594 83.45635223388672 72.45557403564453 80.35547637939453 76.40558624267578 76.40547943115234 C 80.35559844970703 72.45545959472656 83.45647430419922 67.8565673828125 85.6220703125 62.73651885986328 C 87.86350250244141 57.43720626831055 89 51.80620574951172 89 45.99993515014648 C 89 40.19366455078125 87.86350250244141 34.56264877319336 85.6220703125 29.26333618164062 C 83.45647430419922 24.14329528808594 80.35559844970703 19.54439544677734 76.40558624267578 15.59437561035156 C 72.45557403564453 11.64437866210938 67.85667419433594 8.543502807617188 62.73661422729492 6.377906799316406 C 57.43730163574219 4.136489868164062 51.8062858581543 2.999992370605469 46 2.999992370605469 M 46 -7.62939453125e-06 C 71.40509033203125 -7.62939453125e-06 92 20.59486389160156 92 45.99993515014648 C 92 71.40499114990234 71.40509033203125 91.99986267089844 46 91.99986267089844 C 20.59490203857422 91.99986267089844 0 71.40499114990234 0 45.99993515014648 C 0 20.59486389160156 20.59490203857422 -7.62939453125e-06 46 -7.62939453125e-06 Z" stroke="none" fill="#e23e64"/>
                          </g>
                        </g>
                      </g>
                    </g>
                  </g>
                </g>
              </g>
            </g>
          </g>
        </g>
      </g>
    </g>
    <g id="noticias-falsas" transform="translate(9851.348 5798.996)">
      <path id="Trazado_995647" data-name="Trazado 995647" d="M48,6V24.82L44,27l-5.51-3-5.5,3L27.5,24,22,27l-4-2.18V6Z" fill="#f1f1f1"/>
      <path id="Trazado_995648" data-name="Trazado 995648" d="M24,12H42v9H24Z" fill="#f5c463"/>
      <path id="Trazado_995649" data-name="Trazado 995649" d="M48,40V28.82L44,31l-5.51-3L33,31l-5.5-3L22,31l-4-2.18V58H52.5A4.49,4.49,0,0,0,57,53.5V40Z" fill="#f1f1f1"/>
      <path id="Trazado_995650" data-name="Trazado 995650" d="M57,40V53.5a4.5,4.5,0,0,1-9,0V40Z" fill="#d8d8d8"/>
      <circle id="Elipse_12185" data-name="Elipse 12185" cx="7" cy="7" r="7" transform="translate(41 2)" fill="#80c877"/>
      <circle id="Elipse_12186" data-name="Elipse 12186" cx="7" cy="7" r="7" transform="translate(11 48)" fill="#ed7b79"/>
      <path id="Trazado_995651" data-name="Trazado 995651" d="M48,1a8,8,0,0,0-6.92,4H18a1,1,0,0,0-1,1V24.82h2V7H40.26A8.24,8.24,0,0,0,40,9a8,8,0,0,0,7,7.93v7.89h2V16.93A8,8,0,0,0,48,1Zm0,14a6,6,0,1,1,6-6A6,6,0,0,1,48,15Z"/>
      <path id="Trazado_995652" data-name="Trazado 995652" d="M46.59,9.91,45.17,8.5,43.76,9.91,45.88,12a1,1,0,0,0,1.41,0l5-4.95L50.83,5.67Z"/>
      <path id="Trazado_995653" data-name="Trazado 995653" d="M20.12,51.46,18,53.59l-2.12-2.13-1.42,1.42L16.59,55l-2.13,2.12,1.42,1.42L18,56.41l2.12,2.13,1.42-1.42L19.41,55l2.13-2.12Z"/>
      <path id="Trazado_995654" data-name="Trazado 995654" d="M29,37H43v2H29Z"/>
      <path id="Trazado_995655" data-name="Trazado 995655" d="M23,37h4v2H23Z"/>
      <path id="Trazado_995656" data-name="Trazado 995656" d="M23,43H43v2H23Z"/>
      <path id="Trazado_995657" data-name="Trazado 995657" d="M38,13V11H24a1,1,0,0,0-1,1v9a1,1,0,0,0,1,1H42a1,1,0,0,0,1-1V17H41v3H25V13Z"/>
      <path id="Trazado_995658" data-name="Trazado 995658" d="M18.48,27.94a.99.99,0,0,0-1.49.86V47.07A8,8,0,1,0,24.92,59H52.5A5.51,5.51,0,0,0,58,53.5V40a1,1,0,0,0-1-1H49V28.82a.99.99,0,0,0-1.49-.86L44,29.86l-5-2.74a1,1,0,0,0-1,0l-5,2.74-5-2.74a1,1,0,0,0-1,0l-5,2.74ZM49,41h7V53.5a3.5,3.5,0,1,1-7,0ZM18,61a6,6,0,1,1,6-6A6,6,0,0,1,18,61Zm4.48-29.12,5-2.74,5,2.74a1,1,0,0,0,1,0l5-2.74,5,2.74a1,1,0,0,0,1,0L47,30.5v23A5.4,5.4,0,0,0,48.29,57H25.74A8.24,8.24,0,0,0,26,55a8,8,0,0,0-7-7.93V30.5l2.52,1.38a1,1,0,0,0,.96,0Z"/>
    </g>
  </g>
</svg>
