<svg xmlns="http://www.w3.org/2000/svg" xmlns:xlink="http://www.w3.org/1999/xlink" width="108" height="108" viewBox="0 0 108 108">
  <defs>
    <filter id="Trazado_982547" x="0" y="0" width="108" height="108" filterUnits="userSpaceOnUse">
      <feOffset dy="3" input="SourceAlpha"/>
      <feGaussianBlur stdDeviation="3" result="blur"/>
      <feFlood flood-opacity="0.161"/>
      <feComposite operator="in" in2="blur"/>
      <feComposite in="SourceGraphic"/>
    </filter>
  </defs>
  <g id="Grupo_1160916" data-name="Grupo 1160916" transform="translate(-1218 -3438)">
    <g id="Grupo_1160644" data-name="Grupo 1160644" transform="translate(0 2554)">
      <g id="Grupo_1149838" data-name="Grupo 1149838" transform="translate(0 -3975)">
        <g id="Grupo_1149676" data-name="Grupo 1149676" transform="translate(472 -2821)">
          <g id="Grupo_1148534" data-name="Grupo 1148534" transform="translate(156 4253)">
            <g id="Grupo_1147066" data-name="Grupo 1147066" transform="translate(-26 -556)">
              <g transform="matrix(1, 0, 0, 1, 616, 3983)" filter="url(#Trazado_982547)">
                <g id="Trazado_982547-2" data-name="Trazado 982547" transform="translate(9 6)" fill="#f6edfd">
                  <path d="M 45 88.5 C 39.12687683105469 88.5 33.43022537231445 87.35007476806641 28.06830024719238 85.08217620849609 C 22.88852500915527 82.89131164550781 18.23629951477051 79.75458526611328 14.2408504486084 75.75914764404297 C 10.24541282653809 71.76370239257812 7.108687400817871 67.11147308349609 4.917825222015381 61.93170166015625 C 2.649924993515015 56.56977462768555 1.5 50.87312316894531 1.5 45 C 1.5 39.12687683105469 2.649924993515015 33.43022537231445 4.917825222015381 28.06830024719238 C 7.108687400817871 22.88852500915527 10.24541282653809 18.23629951477051 14.2408504486084 14.2408504486084 C 18.23629951477051 10.24541282653809 22.88852500915527 7.108687400817871 28.06830024719238 4.917825222015381 C 33.43022537231445 2.649924993515015 39.12687683105469 1.5 45 1.5 C 50.87312316894531 1.5 56.56977462768555 2.649924993515015 61.93170166015625 4.917825222015381 C 67.11147308349609 7.108687400817871 71.76370239257812 10.24541282653809 75.75914764404297 14.2408504486084 C 79.75458526611328 18.23629951477051 82.89131164550781 22.88852500915527 85.08217620849609 28.06830024719238 C 87.35007476806641 33.43022537231445 88.5 39.12687683105469 88.5 45 C 88.5 50.87312316894531 87.35007476806641 56.56977462768555 85.08217620849609 61.93170166015625 C 82.89131164550781 67.11147308349609 79.75458526611328 71.76370239257812 75.75914764404297 75.75914764404297 C 71.76370239257812 79.75458526611328 67.11147308349609 82.89131164550781 61.93170166015625 85.08217620849609 C 56.56977462768555 87.35007476806641 50.87312316894531 88.5 45 88.5 Z" stroke="none"/>
                  <path d="M 45 3 C 39.32871246337891 3 33.82865524291992 4.110054016113281 28.65262985229492 6.299339294433594 C 23.65165710449219 8.414573669433594 19.15968322753906 11.44334411621094 15.301513671875 15.301513671875 C 11.44334411621094 19.15968322753906 8.414573669433594 23.65165710449219 6.299339294433594 28.65262985229492 C 4.110054016113281 33.82865524291992 3 39.32871246337891 3 45 C 3 50.67128753662109 4.110054016113281 56.17134475708008 6.299339294433594 61.34737396240234 C 8.414573669433594 66.34834289550781 11.44334411621094 70.84031677246094 15.301513671875 74.698486328125 C 19.15968322753906 78.55665588378906 23.65165710449219 81.58542633056641 28.65262985229492 83.70066070556641 C 33.82865524291992 85.88994598388672 39.32871246337891 87 45 87 C 50.67128753662109 87 56.17134475708008 85.88994598388672 61.34737396240234 83.70066070556641 C 66.34834289550781 81.58542633056641 70.84031677246094 78.55665588378906 74.698486328125 74.698486328125 C 78.55665588378906 70.84031677246094 81.58542633056641 66.34834289550781 83.70066070556641 61.34737396240234 C 85.88994598388672 56.17134475708008 87 50.67128753662109 87 45 C 87 39.32871246337891 85.88994598388672 33.82865524291992 83.70066070556641 28.65262985229492 C 81.58542633056641 23.65165710449219 78.55665588378906 19.15968322753906 74.698486328125 15.301513671875 C 70.84031677246094 11.44334411621094 66.34834289550781 8.414573669433594 61.34737396240234 6.299339294433594 C 56.17134475708008 4.110054016113281 50.67128753662109 3 45 3 M 45 0 C 69.85281372070312 0 90 20.14718627929688 90 45 C 90 69.85281372070312 69.85281372070312 90 45 90 C 20.14718627929688 90 0 69.85281372070312 0 45 C 0 20.14718627929688 20.14718627929688 0 45 0 Z" stroke="none" fill="#ac59f1"/>
                </g>
              </g>
            </g>
          </g>
        </g>
      </g>
    </g>
    <g id="medicion" transform="translate(1244 3460.318)">
      <g id="Grupo_1160914" data-name="Grupo 1160914" transform="translate(0.807 2.489)">
        <path id="Trazado_995303" data-name="Trazado 995303" d="M60.038,416.525h9.786v9.169H60.038Z" transform="translate(-54.383 -372.68)" fill="#fd4755" fill-rule="evenodd"/>
        <path id="Trazado_995304" data-name="Trazado 995304" d="M193.582,331.314h9.783v18.34h-9.783Z" transform="translate(-173.553 -296.641)" fill="#99e6fc" fill-rule="evenodd"/>
        <path id="Trazado_995305" data-name="Trazado 995305" d="M327.1,241.091h9.786v28.052H327.1Z" transform="translate(-292.698 -216.129)" fill="#9be69d" fill-rule="evenodd"/>
        <path id="Trazado_995306" data-name="Trazado 995306" d="M178.078,103.238a2.42,2.42,0,0,0,2.4,2.409h6.07a2.409,2.409,0,1,0,0-4.819h-4.389l-2.579.178A2.421,2.421,0,0,0,178.078,103.238Z" transform="translate(-159.718 -90.964)" fill="#ffcebf" fill-rule="evenodd"/>
        <path id="Trazado_995307" data-name="Trazado 995307" d="M180.351,145.6a2.409,2.409,0,1,0,0,4.819h5.317a2.409,2.409,0,1,0,0-4.819h-5.317Z" transform="translate(-159.59 -130.916)" fill="#ffcebf" fill-rule="evenodd"/>
        <path id="Trazado_995308" data-name="Trazado 995308" d="M193,190.369h-1.7a2.138,2.138,0,1,0,0,4.276h2.732a2.147,2.147,0,0,0,.274-4.276H193Z" transform="translate(-169.604 -170.867)" fill="#ffcebf" fill-rule="evenodd"/>
        <path id="Trazado_995309" data-name="Trazado 995309" d="M57.079,28.684a2.409,2.409,0,1,1,0-4.819,2.409,2.409,0,0,1-.9-4.641,2.634,2.634,0,0,0,3.765-2.37V13.682l0-1.263a3.006,3.006,0,0,0-3.236-3.237l-5.5,0c-2.668,0-6.8,1.9-9.58,7.047l-1.838,5.726,1.838,7.768c4.081,2.281,4.53,3.246,8.246,3.234h8.135a2.138,2.138,0,1,1,0-4.276Z" transform="translate(-36.318 -9.182)" fill="#ffdfcf" fill-rule="evenodd"/>
        <path id="Trazado_995310" data-name="Trazado 995310" d="M227.894,60.878a2.409,2.409,0,1,0,0-4.819H217.183v2.627A2.634,2.634,0,0,1,216,60.878Z" transform="translate(-193.555 -51.013)" fill="#ffcebf" fill-rule="evenodd"/>
        <path id="Trazado_995311" data-name="Trazado 995311" d="M227.894,60.878a2.409,2.409,0,0,0,.022-4.819,1.835,1.835,0,0,1-1.733,2.885h-9.011A2.635,2.635,0,0,1,216,60.878Z" transform="translate(-193.555 -51.013)" fill="#ffb09e" fill-rule="evenodd"/>
        <path id="Trazado_995312" data-name="Trazado 995312" d="M178.164,117.293a2.406,2.406,0,0,0,2.314,3.044h6.07a2.409,2.409,0,0,0,2.33-3.047c-.283,1.021-1.223,1.03-2.33,1.03h-6.055C179.409,118.32,178.453,118.332,178.164,117.293Z" transform="translate(-159.718 -105.654)" fill="#ffb09e" fill-rule="evenodd"/>
        <path id="Trazado_995313" data-name="Trazado 995313" d="M180.351,161.119a2.43,2.43,0,0,1-2.24-1.508,2.38,2.38,0,0,0-.175.9,2.419,2.419,0,0,0,2.416,2.409h5.317a2.419,2.419,0,0,0,2.416-2.409,2.382,2.382,0,0,0-.178-.9,2.422,2.422,0,0,1-2.237,1.508Z" transform="translate(-159.59 -143.419)" fill="#ffb09e" fill-rule="evenodd"/>
        <path id="Trazado_995314" data-name="Trazado 995314" d="M56.836,178.473a9.571,9.571,0,0,1-1.288-.659l-4.973-2.995-.759.8.759,1.919c4.081,2.281,4.53,3.246,8.246,3.234h8.135a2.147,2.147,0,0,1-2.1-1.717,2.094,2.094,0,0,1-.043-.42,1.359,1.359,0,0,1,.006-.159H56.836Z" transform="translate(-45.261 -156.99)" fill="#ffcebf" fill-rule="evenodd"/>
        <path id="Trazado_995315" data-name="Trazado 995315" d="M119.361,36.031c-.175,1.156-2.065,1.937-3.089,1.882-2.437-.129-2.032,2.553,0,2.2,2.437.129,5.154-2.394,5.154-4.776v3.173a2.637,2.637,0,0,0,2.431,2.618c0-.1-.215-.509-.212-.619a4.056,4.056,0,0,1-.151-1.183V35.881C123.495,32.92,119.924,32.31,119.361,36.031Z" transform="translate(-103.066 -30.835)" fill="#ffcebf" fill-rule="evenodd"/>
        <path id="Trazado_995316" data-name="Trazado 995316" d="M12.814,73.362V59.022a.944.944,0,0,0-.94-.941H7.5V74.3h4.373A.943.943,0,0,0,12.814,73.362Z" transform="translate(-7.5 -52.818)" fill="#99e6fc" fill-rule="evenodd"/>
        <path id="Trazado_995317" data-name="Trazado 995317" d="M11.873,165.646H7.5v3.8h4.373a.943.943,0,0,0,.94-.938v-3.8A.943.943,0,0,1,11.873,165.646Z" transform="translate(-7.5 -147.968)" fill="#62dbfb" fill-rule="evenodd"/>
        <path id="Trazado_995318" data-name="Trazado 995318" d="M383.177,241.091h3.75v28.052h-3.75Z" transform="translate(-342.741 -216.129)" fill="#6fd7a3" fill-rule="evenodd"/>
        <path id="Trazado_995319" data-name="Trazado 995319" d="M249.661,331.314h3.747v18.34h-3.747Z" transform="translate(-223.596 -296.641)" fill="#62dbfb" fill-rule="evenodd"/>
        <path id="Trazado_995320" data-name="Trazado 995320" d="M116.146,416.525h3.747v9.169h-3.747Z" transform="translate(-104.452 -372.68)" fill="#e94444" fill-rule="evenodd"/>
        <path id="Trazado_995321" data-name="Trazado 995321" d="M193.533,203.9h-2.348a2.012,2.012,0,0,1-1.976-1.137,1.748,1.748,0,0,0-.046.313,1.362,1.362,0,0,0-.006.159,2.092,2.092,0,0,0,.043.42,2.147,2.147,0,0,0,2.1,1.717h2.732a2.161,2.161,0,0,0,2.142-2.155,2.128,2.128,0,0,0-.166-.828,2.019,2.019,0,0,1-2.09,1.511h-.384Z" transform="translate(-169.604 -181.593)" fill="#ffb09e" fill-rule="evenodd"/>
      </g>
      <g id="Grupo_1160915" data-name="Grupo 1160915" transform="translate(0 1.682)">
        <path id="Trazado_995322" data-name="Trazado 995322" d="M6.5,24.178c.587.341,1.091.648,1.55.928,2.143,1.308,3.227,1.969,6.25,1.969H25.234a2.959,2.959,0,0,0,2.949-2.962,2.926,2.926,0,0,0-.383-1.447,3.211,3.211,0,0,0,1.534-5.17,3.207,3.207,0,0,0,1.1-4.335h4.715a3.217,3.217,0,1,0,0-6.433h-9.9v-1A4.018,4.018,0,0,0,24.154,2.8a4.107,4.107,0,0,0-2.942-1.119H21.2l-5.5,0c-2.568,0-6.359,1.56-9.264,5.795a1.741,1.741,0,0,0-1.255-.534H.807a.807.807,0,0,0,0,1.615H5.181a.137.137,0,0,1,.133.134v5.4a.807.807,0,1,0,1.615,0V9.75C9.4,5.3,13.1,3.3,15.7,3.3l5.5,0h.007a2.576,2.576,0,0,1,1.8.647,2.42,2.42,0,0,1,.618,1.781V7.5c0,.012,0,.024,0,.036s0,.023,0,.035l0,2.592a1.817,1.817,0,0,1-.8,1.5l-.038.024a1.825,1.825,0,0,1-2.816-1.527V6.989a.807.807,0,1,0-1.615,0A3.96,3.96,0,0,1,17,9.685a4.191,4.191,0,0,1-2.944,1.274.807.807,0,0,0-.085,1.612,5.81,5.81,0,0,0,4.14-1.715q.142-.135.275-.275a3.421,3.421,0,0,0,.9,1.925,3.2,3.2,0,0,0,.157,4.659,3.209,3.209,0,0,0,.644,5.274,2.932,2.932,0,0,0-.218,3.021H14.364c-2.621.012-3.4-.465-5.476-1.733C8.326,23.384,7.7,23,6.928,22.563V17.844a.807.807,0,0,0-1.615,0v5.19a.135.135,0,0,1-.133.131H.807a.807.807,0,0,0,0,1.615H5.181a1.743,1.743,0,0,0,1.317-.6ZM35.146,8.342a1.6,1.6,0,1,1,0,3.2H24.95a3.407,3.407,0,0,0,.293-1.385V8.342h9.9Zm-11.67,4.819h4.162a1.6,1.6,0,1,1,0,3.2H21.574a1.6,1.6,0,0,1-.862-2.946,3.441,3.441,0,0,0,2.764-.258ZM21.568,17.98h5.317a1.6,1.6,0,1,1,0,3.2H21.568a1.6,1.6,0,1,1,0-3.2Zm-.4,6.151A1.335,1.335,0,0,1,22.5,22.8h2.94a1.335,1.335,0,0,1,1.127,1.314,1.359,1.359,0,0,1-1.335,1.348H22.5a1.334,1.334,0,0,1-1.335-1.329Z" transform="translate(0 -1.682)"/>
        <path id="Trazado_995323" data-name="Trazado 995323" d="M67.908,24.579a.807.807,0,0,0-.807.807v3.892H63.513a.807.807,0,1,0,0,1.615H67.1v7.554H63.513a.807.807,0,1,0,0,1.615H67.1v7.557H63.513a.807.807,0,1,0,0,1.615H67.1v7.554H63.513a.807.807,0,1,0,0,1.615H67.1v7.557H63.513a.807.807,0,1,0,0,1.615H67.1v7.674H59.406V47.884a.807.807,0,0,0-.807-.807H48.813a.807.807,0,0,0-.807.807V59.8a.807.807,0,0,0,1.615,0V48.691h8.171V75.128H49.621V63.542a.807.807,0,1,0-1.615,0V75.248H45.032V57.595a.807.807,0,0,0-.807-.807H34.442a.807.807,0,0,0-.807.807V75.248H30.661V66.767a.807.807,0,0,0-.807-.807H20.068a.807.807,0,0,0-.807.807v8.481H16.054a.807.807,0,0,0,0,1.615H67.908a.807.807,0,0,0,.807-.807V25.386a.807.807,0,0,0-.807-.807ZM35.25,58.4h8.168V75.128H35.25ZM20.875,67.574h8.171v7.554H20.875Z" transform="translate(-13.606 -22.114)"/>
      </g>
    </g>
  </g>
</svg>
