<svg xmlns="http://www.w3.org/2000/svg" xmlns:xlink="http://www.w3.org/1999/xlink" width="108" height="108" viewBox="0 0 108 108">
  <defs>
    <filter id="Trazado_982547" x="0" y="0" width="108" height="108" filterUnits="userSpaceOnUse">
      <feOffset dy="3" input="SourceAlpha"/>
      <feGaussianBlur stdDeviation="3" result="blur"/>
      <feFlood flood-opacity="0.161"/>
      <feComposite operator="in" in2="blur"/>
      <feComposite in="SourceGraphic"/>
    </filter>
  </defs>
  <g id="Grupo_1160900" data-name="Grupo 1160900" transform="translate(-196 -315)">
    <g id="Grupo_1160504" data-name="Grupo 1160504" transform="translate(205 321)">
      <g id="Grupo_1154033" data-name="Grupo 1154033">
        <g id="Grupo_1153177" data-name="Grupo 1153177">
          <g id="Grupo_1149598" data-name="Grupo 1149598">
            <g id="Grupo_1148770" data-name="Grupo 1148770">
              <g id="Grupo_1146954" data-name="Grupo 1146954">
                <g transform="matrix(1, 0, 0, 1, -9, -6)" filter="url(#Trazado_982547)">
                  <g id="Trazado_982547-2" data-name="Trazado 982547" transform="translate(9 6)" fill="#f5fdfd">
                    <path d="M 45 88.5 C 39.12687683105469 88.5 33.43022537231445 87.35007476806641 28.06830024719238 85.08217620849609 C 22.88852500915527 82.89131164550781 18.23629951477051 79.75458526611328 14.2408504486084 75.75914764404297 C 10.24541282653809 71.76370239257812 7.108687400817871 67.11147308349609 4.917825222015381 61.93170166015625 C 2.649924993515015 56.56977462768555 1.5 50.87312316894531 1.5 45 C 1.5 39.12687683105469 2.649924993515015 33.43022537231445 4.917825222015381 28.06830024719238 C 7.108687400817871 22.88852500915527 10.24541282653809 18.23629951477051 14.2408504486084 14.2408504486084 C 18.23629951477051 10.24541282653809 22.88852500915527 7.108687400817871 28.06830024719238 4.917825222015381 C 33.43022537231445 2.649924993515015 39.12687683105469 1.5 45 1.5 C 50.87312316894531 1.5 56.56977462768555 2.649924993515015 61.93170166015625 4.917825222015381 C 67.11147308349609 7.108687400817871 71.76370239257812 10.24541282653809 75.75914764404297 14.2408504486084 C 79.75458526611328 18.23629951477051 82.89131164550781 22.88852500915527 85.08217620849609 28.06830024719238 C 87.35007476806641 33.43022537231445 88.5 39.12687683105469 88.5 45 C 88.5 50.87312316894531 87.35007476806641 56.56977462768555 85.08217620849609 61.93170166015625 C 82.89131164550781 67.11147308349609 79.75458526611328 71.76370239257812 75.75914764404297 75.75914764404297 C 71.76370239257812 79.75458526611328 67.11147308349609 82.89131164550781 61.93170166015625 85.08217620849609 C 56.56977462768555 87.35007476806641 50.87312316894531 88.5 45 88.5 Z" stroke="none"/>
                    <path d="M 45 3 C 39.32871246337891 3 33.82865524291992 4.110054016113281 28.65262985229492 6.299339294433594 C 23.65165710449219 8.414573669433594 19.15968322753906 11.44334411621094 15.301513671875 15.301513671875 C 11.44334411621094 19.15968322753906 8.414573669433594 23.65165710449219 6.299339294433594 28.65262985229492 C 4.110054016113281 33.82865524291992 3 39.32871246337891 3 45 C 3 50.67128753662109 4.110054016113281 56.17134475708008 6.299339294433594 61.34737396240234 C 8.414573669433594 66.34834289550781 11.44334411621094 70.84031677246094 15.301513671875 74.698486328125 C 19.15968322753906 78.55665588378906 23.65165710449219 81.58542633056641 28.65262985229492 83.70066070556641 C 33.82865524291992 85.88994598388672 39.32871246337891 87 45 87 C 50.67128753662109 87 56.17134475708008 85.88994598388672 61.34737396240234 83.70066070556641 C 66.34834289550781 81.58542633056641 70.84031677246094 78.55665588378906 74.698486328125 74.698486328125 C 78.55665588378906 70.84031677246094 81.58542633056641 66.34834289550781 83.70066070556641 61.34737396240234 C 85.88994598388672 56.17134475708008 87 50.67128753662109 87 45 C 87 39.32871246337891 85.88994598388672 33.82865524291992 83.70066070556641 28.65262985229492 C 81.58542633056641 23.65165710449219 78.55665588378906 19.15968322753906 74.698486328125 15.301513671875 C 70.84031677246094 11.44334411621094 66.34834289550781 8.414573669433594 61.34737396240234 6.299339294433594 C 56.17134475708008 4.110054016113281 50.67128753662109 3 45 3 M 45 0 C 69.85281372070312 0 90 20.14718627929688 90 45 C 90 69.85281372070312 69.85281372070312 90 45 90 C 20.14718627929688 90 0 69.85281372070312 0 45 C 0 20.14718627929688 20.14718627929688 0 45 0 Z" stroke="none" fill="#598384"/>
                  </g>
                </g>
              </g>
            </g>
          </g>
        </g>
      </g>
    </g>
    <g id="correo-electronico" transform="translate(225 341)">
      <path id="Trazado_995226" data-name="Trazado 995226" d="M16.564,163,10,168.271v24.366a4.077,4.077,0,0,0,4.078,4.078H54.853a4.077,4.077,0,0,0,4.078-4.078V168.271l-6.564-5.112" transform="translate(-9.005 -146.789)" fill="#72d8ff"/>
      <rect id="Rectángulo_412998" data-name="Rectángulo 412998" width="35.007" height="37.897" transform="translate(7.956 0.995)" fill="#edf2fa"/>
      <path id="Trazado_995227" data-name="Trazado 995227" d="M41.129,233.861H27.258L10,216v24.366a4.078,4.078,0,0,0,4.078,4.078H54.853a4.078,4.078,0,0,0,4.078-4.078V216Z" transform="translate(-9.005 -194.518)" fill="#feda9b"/>
      <path id="Trazado_995228" data-name="Trazado 995228" d="M44.055,353.09l14.419-13.1a9.9,9.9,0,0,1,13.319,0l14.419,13.1Z" transform="translate(-39.674 -303.861)" fill="#ffb954"/>
      <g id="Grupo_1160899" data-name="Grupo 1160899" transform="translate(13.828 7.419)">
        <path id="Trazado_995229" data-name="Trazado 995229" d="M316.313,80.119a3.233,3.233,0,1,0-4.572-4.572Z" transform="translate(-294.566 -74.601)" fill="#ff5d5d"/>
        <path id="Trazado_995230" data-name="Trazado 995230" d="M150.248,196.327l-3.744,3.744a4.372,4.372,0,0,1-6.183,0h0a4.372,4.372,0,0,1,0-6.183l3.744-3.744Z" transform="translate(-139.04 -178.653)" fill="#ff5d5d"/>
      </g>
      <path id="Trazado_995231" data-name="Trazado 995231" d="M227.636,252.336l4.382,4.381-2.661,2.661L224.974,255Z" transform="translate(-202.6 -227.241)" fill="#6a80ff"/>
      <path id="Trazado_995232" data-name="Trazado 995232" d="M195.743,52.19l-6.184-6.185,6.778-15.918,15.319,15.319Z" transform="translate(-170.707 -27.095)" fill="#4dbaf6"/>
      <path id="Trazado_995233" data-name="Trazado 995233" d="M253.193,47.147l4.084-1.741L241.957,30.087l-1.739,4.085Z" transform="translate(-216.328 -27.095)" fill="#fff"/>
      <path id="Trazado_995234" data-name="Trazado 995234" d="M188.291,56.291a.994.994,0,1,0,.7-.291A1,1,0,0,0,188.291,56.291Z" transform="translate(-169.303 -50.431)"/>
      <path id="Trazado_995235" data-name="Trazado 995235" d="M111.87,57.989h4a.995.995,0,1,0,0-1.989h-4a.995.995,0,0,0,0,1.989Z" transform="translate(-99.848 -50.431)"/>
      <path id="Trazado_995236" data-name="Trazado 995236" d="M111.87,113.989h4.793a.995.995,0,0,0,0-1.989H111.87a.995.995,0,0,0,0,1.989Z" transform="translate(-99.848 -100.861)"/>
      <path id="Trazado_995237" data-name="Trazado 995237" d="M50.536,20.7h0l-6.564-5.112-.014-.01V14.52a.995.995,0,0,0-1.989,0V28.012c0,.006,0,.012,0,.018L33.741,36.26l-.953-.866a10.874,10.874,0,0,0-5.249-2.632l2.582-2.582a1,1,0,0,0,0-1.407l-3.341-3.341,14.558-6.207a.995.995,0,0,0,.313-1.618L36.9,12.854a4.229,4.229,0,0,0-5.812-5.812L26.333,2.289a.995.995,0,0,0-1.618.314l-6.7,15.741L14.4,21.95a5.367,5.367,0,1,0,7.59,7.59l.379-.379,3.407,3.407c-.107,0-.214-.005-.321-.005a10.876,10.876,0,0,0-7.328,2.832l-.953.866L8.95,28.03c0-.006,0-.012,0-.018V1.989H20.088a.995.995,0,0,0,0-1.989H7.956a1,1,0,0,0-.995.995V15.417l-.026.019L.372,20.706h0A.992.992,0,0,0,0,21.482V45.848A5.078,5.078,0,0,0,5.072,50.92H45.848a5.078,5.078,0,0,0,5.072-5.072V21.482A.992.992,0,0,0,50.536,20.7ZM24.228,8.822,35.121,19.715l-9.856,4.2L20.03,18.682Zm9.061-.408a2.235,2.235,0,0,1,2.12,2.952L32.576,8.532A2.239,2.239,0,0,1,33.289,8.414ZM25.968,4.737,30.3,9.068h0l4.57,4.57h0L39.2,17.974l-2.111.9L25.068,6.849ZM18.2,29.123a3.378,3.378,0,0,1-2.388-5.766l3.04-3.04,4.777,4.777-3.04,3.04A3.355,3.355,0,0,1,18.2,29.123ZM25.035,26.5l2.977,2.977-1.254,1.254-2.977-2.977ZM43.958,18.1l4.468,3.479-4.468,4.468ZM19.469,36.866a8.875,8.875,0,0,1,11.981,0l13.28,12.064H6.189l3.284-2.984h7.3a.995.995,0,1,0,0-1.989H11.663ZM6.962,17.965v8.077l-4.48-4.48ZM1.989,45.848V23.883L15.705,37.6,3.713,48.493a1.016,1.016,0,0,0-.079.081A3.085,3.085,0,0,1,1.989,45.848Zm45.3,2.726a1,1,0,0,0-.079-.081L35.215,37.6,48.931,23.883V45.848A3.085,3.085,0,0,1,47.286,48.573Z"/>
      <path id="Trazado_995238" data-name="Trazado 995238" d="M382.995,6.4a.992.992,0,0,0,.7-.291l4.017-4.017A.995.995,0,0,0,386.309.687L382.292,4.7a.995.995,0,0,0,.7,1.7Z" transform="translate(-344.009 -0.357)"/>
      <path id="Trazado_995239" data-name="Trazado 995239" d="M345.406,3.987a1,1,0,0,0,.995-.995v-2a.995.995,0,1,0-1.989,0v2A1,1,0,0,0,345.406,3.987Z" transform="translate(-310.159)"/>
      <path id="Trazado_995240" data-name="Trazado 995240" d="M404.988,77.521h-2.065a.995.995,0,0,0,0,1.989h2.065a.995.995,0,1,0,0-1.989Z" transform="translate(-361.956 -69.811)"/>
      <path id="Trazado_995241" data-name="Trazado 995241" d="M200.655,443.989a.993.993,0,1,0-.7-.291A1,1,0,0,0,200.655,443.989Z" transform="translate(-179.803 -398.042)"/>
    </g>
  </g>
</svg>
