<svg xmlns="http://www.w3.org/2000/svg" xmlns:xlink="http://www.w3.org/1999/xlink" width="110" height="110" viewBox="0 0 110 110">
  <defs>
    <filter id="Trazado_982547" x="0" y="0" width="110" height="110" filterUnits="userSpaceOnUse">
      <feOffset dy="3" input="SourceAlpha"/>
      <feGaussianBlur stdDeviation="3" result="blur"/>
      <feFlood flood-opacity="0.161"/>
      <feComposite operator="in" in2="blur"/>
      <feComposite in="SourceGraphic"/>
    </filter>
  </defs>
  <g id="Grupo_1160932" data-name="Grupo 1160932" transform="translate(-3130 -2693)">
    <g id="Grupo_1160750" data-name="Grupo 1160750" transform="translate(2752 364)">
      <g id="Grupo_1158890" data-name="Grupo 1158890" transform="translate(-423 -1476)">
        <g id="Grupo_1157405" data-name="Grupo 1157405" transform="translate(1 3016)">
          <g id="Grupo_1155792" data-name="Grupo 1155792" transform="translate(-1 -3894.666)">
            <g id="Grupo_1154703" data-name="Grupo 1154703" transform="translate(0 1465.666)">
              <g id="Grupo_1150789" data-name="Grupo 1150789" transform="translate(3 2320)">
                <g id="Grupo_1154212" data-name="Grupo 1154212" transform="translate(-236 -5809)">
                  <g id="Grupo_1152583" data-name="Grupo 1152583" transform="translate(1043 6713)">
                    <g id="Grupo_1146973" data-name="Grupo 1146973" transform="translate(0 0)">
                      <g id="Grupo_1146954" data-name="Grupo 1146954">
                        <g transform="matrix(1, 0, 0, 1, -9, -6)" filter="url(#Trazado_982547)">
                          <g id="Trazado_982547-2" data-name="Trazado 982547" transform="translate(9 6)" fill="#fbeaee">
                            <path d="M 46 90.49987030029297 C 39.99187850952148 90.49987030029297 34.16426849365234 89.32350921630859 28.67905426025391 87.00345611572266 C 23.38019943237305 84.76224517822266 18.62104034423828 81.55341339111328 14.53374671936035 77.46613311767578 C 10.44646644592285 73.37885284423828 7.237639904022217 68.61969757080078 4.996413230895996 63.32085418701172 C 2.676359891891479 57.83565521240234 1.5 52.008056640625 1.5 45.99993515014648 C 1.5 39.99181365966797 2.676359891891479 34.16421508789062 4.996413230895996 28.67901420593262 C 7.237639904022217 23.38017463684082 10.44646644592285 18.62101554870605 14.53374671936035 14.53373527526855 C 18.62104034423828 10.44645500183105 23.38019943237305 7.23762845993042 28.67905426025391 4.996415138244629 C 34.16426849365234 2.676361799240112 39.99187850952148 1.500001788139343 46 1.500001788139343 C 52.00812149047852 1.500001788139343 57.83573150634766 2.676361799240112 63.32094573974609 4.996415138244629 C 68.61979675292969 7.23762845993042 73.37895965576172 10.44645500183105 77.46625518798828 14.53373527526855 C 81.55353546142578 18.62101554870605 84.76235961914062 23.38017463684082 87.00358581542969 28.67901420593262 C 89.32363891601562 34.16421508789062 90.5 39.99181365966797 90.5 45.99993515014648 C 90.5 52.008056640625 89.32363891601562 57.83565521240234 87.00358581542969 63.32085418701172 C 84.76235961914062 68.61969757080078 81.55353546142578 73.37885284423828 77.46625518798828 77.46613311767578 C 73.37895965576172 81.55341339111328 68.61979675292969 84.76224517822266 63.32094573974609 87.00345611572266 C 57.83573150634766 89.32350921630859 52.00812149047852 90.49987030029297 46 90.49987030029297 Z" stroke="none"/>
                            <path d="M 46 2.999992370605469 C 40.1937141418457 2.999992370605469 34.56269836425781 4.136489868164062 29.26337051391602 6.377906799316406 C 24.14332580566406 8.543502807617188 19.54441070556641 11.64437866210938 15.59439849853516 15.59437561035156 C 11.64440155029297 19.54439544677734 8.54351806640625 24.14329528808594 6.377914428710938 29.26333618164062 C 4.136497497558594 34.56264877319336 3 40.19366455078125 3 45.99993515014648 C 3 51.80620574951172 4.136497497558594 57.43720626831055 6.377914428710938 62.73651885986328 C 8.54351806640625 67.8565673828125 11.64440155029297 72.45545959472656 15.59439849853516 76.40547943115234 C 19.54441070556641 80.35547637939453 24.14332580566406 83.45635223388672 29.26337051391602 85.6219482421875 C 34.56269836425781 87.86336517333984 40.1937141418457 88.99986267089844 46 88.99986267089844 C 51.8062858581543 88.99986267089844 57.43730163574219 87.86336517333984 62.73661422729492 85.6219482421875 C 67.85667419433594 83.45635223388672 72.45557403564453 80.35547637939453 76.40558624267578 76.40547943115234 C 80.35559844970703 72.45545959472656 83.45647430419922 67.8565673828125 85.6220703125 62.73651885986328 C 87.86350250244141 57.43720626831055 89 51.80620574951172 89 45.99993515014648 C 89 40.19366455078125 87.86350250244141 34.56264877319336 85.6220703125 29.26333618164062 C 83.45647430419922 24.14329528808594 80.35559844970703 19.54439544677734 76.40558624267578 15.59437561035156 C 72.45557403564453 11.64437866210938 67.85667419433594 8.543502807617188 62.73661422729492 6.377906799316406 C 57.43730163574219 4.136489868164062 51.8062858581543 2.999992370605469 46 2.999992370605469 M 46 -7.62939453125e-06 C 71.40509033203125 -7.62939453125e-06 92 20.59486389160156 92 45.99993515014648 C 92 71.40499114990234 71.40509033203125 91.99986267089844 46 91.99986267089844 C 20.59490203857422 91.99986267089844 0 71.40499114990234 0 45.99993515014648 C 0 20.59486389160156 20.59490203857422 -7.62939453125e-06 46 -7.62939453125e-06 Z" stroke="none" fill="#e23e64"/>
                          </g>
                        </g>
                      </g>
                    </g>
                  </g>
                </g>
              </g>
            </g>
          </g>
        </g>
      </g>
    </g>
    <g id="analitica_3_" data-name="analitica (3)" transform="translate(3158 2718)">
      <path id="Trazado_995343" data-name="Trazado 995343" d="M17.516,54.02h-3.34A4.175,4.175,0,0,1,10,49.845V14.175A4.175,4.175,0,0,1,14.175,10H57.182a4.175,4.175,0,0,1,4.175,4.175v35.67a4.175,4.175,0,0,1-4.175,4.175H17.516Z" transform="translate(-8.956 -8.956)" fill="#fff"/>
      <path id="Trazado_995344" data-name="Trazado 995344" d="M57.182,10H14.175A4.175,4.175,0,0,0,10,14.175v3.34H61.357v-3.34A4.175,4.175,0,0,0,57.182,10Z" transform="translate(-8.956 -8.956)" fill="#ff5a5a"/>
      <path id="Trazado_995345" data-name="Trazado 995345" d="M21,82H70.586" transform="translate(-18.812 -73.441)" fill="#231f20"/>
      <rect id="Rectángulo_412999" data-name="Rectángulo 412999" width="6.117" height="12.235" transform="translate(6.117 40.782)" fill="#a5dc69"/>
      <rect id="Rectángulo_413000" data-name="Rectángulo 413000" width="8.156" height="14.274" transform="translate(28.548 38.743)" fill="#78d2fa"/>
      <rect id="Rectángulo_413001" data-name="Rectángulo 413001" width="6.681" height="23.024" transform="translate(17.537 29.377)" fill="#f5c86e"/>
      <rect id="Rectángulo_413002" data-name="Rectángulo 413002" width="6.681" height="24.582" transform="translate(40.919 27.818)" fill="#ff5a5a"/>
      <circle id="Elipse_12150" data-name="Elipse 12150" cx="2.714" cy="2.714" r="2.714" transform="translate(17.575 15.234)" fill="#f5c86e"/>
      <circle id="Elipse_12151" data-name="Elipse 12151" cx="2.714" cy="2.714" r="2.714" transform="translate(29.757 27.662)" fill="#78d2fa"/>
      <circle id="Elipse_12152" data-name="Elipse 12152" cx="2.714" cy="2.714" r="2.714" transform="translate(41.545 15.234)" fill="#ff5a5a"/>
      <circle id="Elipse_12153" data-name="Elipse 12153" cx="2.714" cy="2.714" r="2.714" transform="translate(6.403 26.663)" fill="#a5dc69"/>
      <path id="Trazado_995346" data-name="Trazado 995346" d="M49.8,45.981a3.649,3.649,0,0,0,3.645-3.645V5.219A5.225,5.225,0,0,0,48.225,0H5.219A5.225,5.225,0,0,0,0,5.219V42.336a3.649,3.649,0,0,0,3.645,3.645H4.8v5.376H1.044a1.044,1.044,0,1,0,0,2.088H52.4a1.044,1.044,0,1,0,0-2.088H48.643V45.981ZM5.219,2.088H48.225a3.135,3.135,0,0,1,3.132,3.132v2.3H2.192c-.035,0-.07,0-.1.005v-2.3A3.135,3.135,0,0,1,5.219,2.088Zm1.67,49.269V41.962h4.593v9.395Zm11.691,0V30.421h4.593V51.357Zm11.691,0V39.248h4.593V51.357Zm11.691,0V40.11a1.044,1.044,0,0,0-2.088,0V51.357H36.952V38.2a1.044,1.044,0,0,0-1.044-1.044H29.228A1.044,1.044,0,0,0,28.184,38.2V51.357H25.261V29.377a1.044,1.044,0,0,0-1.044-1.044H17.537a1.044,1.044,0,0,0-1.044,1.044v21.98H13.57V40.919a1.044,1.044,0,0,0-1.044-1.044H5.846A1.044,1.044,0,0,0,4.8,40.919v2.975H3.645a1.559,1.559,0,0,1-1.557-1.557V9.6c.034,0,.069.005.1.005H51.357V42.336A1.559,1.559,0,0,1,49.8,43.894H48.643V27.818A1.044,1.044,0,0,0,47.6,26.774H40.919a1.044,1.044,0,0,0-1.044,1.044V33.09a1.044,1.044,0,0,0,2.088,0V28.862h4.593V51.357Z"/>
      <path id="Trazado_995347" data-name="Trazado 995347" d="M213.109,38.088h23.584a1.044,1.044,0,1,0,0-2.088H213.109a1.044,1.044,0,0,0,0,2.088Z" transform="translate(-189.929 -32.242)"/>
      <path id="Trazado_995348" data-name="Trazado 995348" d="M95.044,38.088a1.044,1.044,0,1,0-.738-.306A1.051,1.051,0,0,0,95.044,38.088Z" transform="translate(-84.188 -32.242)"/>
      <path id="Trazado_995349" data-name="Trazado 995349" d="M55.044,38.088a1.044,1.044,0,1,0-.738-.306A1.051,1.051,0,0,0,55.044,38.088Z" transform="translate(-48.363 -32.242)"/>
      <path id="Trazado_995350" data-name="Trazado 995350" d="M135.044,38.088a1.044,1.044,0,1,0-.738-.306A1.051,1.051,0,0,0,135.044,38.088Z" transform="translate(-120.013 -32.242)"/>
      <path id="Trazado_995351" data-name="Trazado 995351" d="M383.044,342.64a1.044,1.044,0,1,0,.738.306A1.047,1.047,0,0,0,383.044,342.64Z" transform="translate(-342.125 -306.874)"/>
      <path id="Trazado_995352" data-name="Trazado 995352" d="M90.236,143.455A3.763,3.763,0,1,0,87.2,141.9l-6.934,6.934a3.749,3.749,0,0,0-3.465-.084l-7.24-7.24a3.758,3.758,0,1,0-6.485.161l-6.164,6.164a3.761,3.761,0,1,0,1.476,1.476l6.238-6.238a3.749,3.749,0,0,0,3.459-.088l7.169,7.169a3.758,3.758,0,1,0,6.489.155l7.119-7.119A3.734,3.734,0,0,0,90.236,143.455Zm0-5.428a1.67,1.67,0,1,1-1.67,1.67A1.672,1.672,0,0,1,90.236,138.027ZM55.094,152.8a1.67,1.67,0,1,1,1.67-1.67A1.672,1.672,0,0,1,55.094,152.8Zm11.173-11.429a1.67,1.67,0,1,1,1.67-1.67A1.672,1.672,0,0,1,66.267,141.367Zm12.182,12.428a1.67,1.67,0,1,1,1.67-1.67A1.672,1.672,0,0,1,78.448,153.795Z" transform="translate(-45.977 -121.749)"/>
      <path id="Trazado_995353" data-name="Trazado 995353" d="M132.3,128.108a1.042,1.042,0,1,0-.739-.306A1.053,1.053,0,0,0,132.3,128.108Z" transform="translate(-117.559 -112.866)"/>
      <path id="Trazado_995354" data-name="Trazado 995354" d="M47.044,128.109h5.01a1.044,1.044,0,1,0,0-2.088h-5.01a1.044,1.044,0,1,0,0,2.088Z" transform="translate(-41.198 -112.866)"/>
      <path id="Trazado_995355" data-name="Trazado 995355" d="M52.054,176.109a1.044,1.044,0,1,0,0-2.088h-5.01a1.044,1.044,0,0,0,0,2.088Z" transform="translate(-41.198 -155.856)"/>
    </g>
  </g>
</svg>
