<svg xmlns="http://www.w3.org/2000/svg" xmlns:xlink="http://www.w3.org/1999/xlink" width="108" height="108" viewBox="0 0 108 108">
  <defs>
    <filter id="Trazado_982547" x="0" y="0" width="108" height="108" filterUnits="userSpaceOnUse">
      <feOffset dy="3" input="SourceAlpha"/>
      <feGaussianBlur stdDeviation="3" result="blur"/>
      <feFlood flood-opacity="0.161"/>
      <feComposite operator="in" in2="blur"/>
      <feComposite in="SourceGraphic"/>
    </filter>
  </defs>
  <g id="Grupo_1160961" data-name="Grupo 1160961" transform="translate(-717 -3435)">
    <g id="Grupo_1160758" data-name="Grupo 1160758" transform="translate(556 -5785)">
      <g id="Grupo_1155843" data-name="Grupo 1155843">
        <g id="Grupo_1154880" data-name="Grupo 1154880" transform="translate(0 7768)">
          <g id="Grupo_1153117" data-name="Grupo 1153117" transform="translate(-93 939)">
            <g id="Grupo_1149598" data-name="Grupo 1149598" transform="translate(80 315)">
              <g id="Grupo_1148770" data-name="Grupo 1148770" transform="translate(-27 -2583)">
                <g id="Grupo_1146954" data-name="Grupo 1146954" transform="translate(-415 -1202)">
                  <g transform="matrix(1, 0, 0, 1, 616, 3983)" filter="url(#Trazado_982547)">
                    <g id="Trazado_982547-2" data-name="Trazado 982547" transform="translate(9 6)" fill="#f6edfd">
                      <path d="M 45 88.5 C 39.12687683105469 88.5 33.43022537231445 87.35007476806641 28.06830024719238 85.08217620849609 C 22.88852500915527 82.89131164550781 18.23629951477051 79.75458526611328 14.2408504486084 75.75914764404297 C 10.24541282653809 71.76370239257812 7.108687400817871 67.11147308349609 4.917825222015381 61.93170166015625 C 2.649924993515015 56.56977462768555 1.5 50.87312316894531 1.5 45 C 1.5 39.12687683105469 2.649924993515015 33.43022537231445 4.917825222015381 28.06830024719238 C 7.108687400817871 22.88852500915527 10.24541282653809 18.23629951477051 14.2408504486084 14.2408504486084 C 18.23629951477051 10.24541282653809 22.88852500915527 7.108687400817871 28.06830024719238 4.917825222015381 C 33.43022537231445 2.649924993515015 39.12687683105469 1.5 45 1.5 C 50.87312316894531 1.5 56.56977462768555 2.649924993515015 61.93170166015625 4.917825222015381 C 67.11147308349609 7.108687400817871 71.76370239257812 10.24541282653809 75.75914764404297 14.2408504486084 C 79.75458526611328 18.23629951477051 82.89131164550781 22.88852500915527 85.08217620849609 28.06830024719238 C 87.35007476806641 33.43022537231445 88.5 39.12687683105469 88.5 45 C 88.5 50.87312316894531 87.35007476806641 56.56977462768555 85.08217620849609 61.93170166015625 C 82.89131164550781 67.11147308349609 79.75458526611328 71.76370239257812 75.75914764404297 75.75914764404297 C 71.76370239257812 79.75458526611328 67.11147308349609 82.89131164550781 61.93170166015625 85.08217620849609 C 56.56977462768555 87.35007476806641 50.87312316894531 88.5 45 88.5 Z" stroke="none"/>
                      <path d="M 45 3 C 39.32871246337891 3 33.82865524291992 4.110054016113281 28.65262985229492 6.299339294433594 C 23.65165710449219 8.414573669433594 19.15968322753906 11.44334411621094 15.301513671875 15.301513671875 C 11.44334411621094 19.15968322753906 8.414573669433594 23.65165710449219 6.299339294433594 28.65262985229492 C 4.110054016113281 33.82865524291992 3 39.32871246337891 3 45 C 3 50.67128753662109 4.110054016113281 56.17134475708008 6.299339294433594 61.34737396240234 C 8.414573669433594 66.34834289550781 11.44334411621094 70.84031677246094 15.301513671875 74.698486328125 C 19.15968322753906 78.55665588378906 23.65165710449219 81.58542633056641 28.65262985229492 83.70066070556641 C 33.82865524291992 85.88994598388672 39.32871246337891 87 45 87 C 50.67128753662109 87 56.17134475708008 85.88994598388672 61.34737396240234 83.70066070556641 C 66.34834289550781 81.58542633056641 70.84031677246094 78.55665588378906 74.698486328125 74.698486328125 C 78.55665588378906 70.84031677246094 81.58542633056641 66.34834289550781 83.70066070556641 61.34737396240234 C 85.88994598388672 56.17134475708008 87 50.67128753662109 87 45 C 87 39.32871246337891 85.88994598388672 33.82865524291992 83.70066070556641 28.65262985229492 C 81.58542633056641 23.65165710449219 78.55665588378906 19.15968322753906 74.698486328125 15.301513671875 C 70.84031677246094 11.44334411621094 66.34834289550781 8.414573669433594 61.34737396240234 6.299339294433594 C 56.17134475708008 4.110054016113281 50.67128753662109 3 45 3 M 45 0 C 69.85281372070312 0 90 20.14718627929688 90 45 C 90 69.85281372070312 69.85281372070312 90 45 90 C 20.14718627929688 90 0 69.85281372070312 0 45 C 0 20.14718627929688 20.14718627929688 0 45 0 Z" stroke="none" fill="#ac59f1"/>
                    </g>
                  </g>
                </g>
              </g>
            </g>
          </g>
        </g>
      </g>
    </g>
    <g id="IT_Support" data-name="IT Support" transform="translate(744.827 3458.117)">
      <g id="Filled" transform="translate(0.862 0.758)">
        <path id="Trazado_995417" data-name="Trazado 995417" d="M50.1,8a18.1,18.1,0,0,1,18.1,18.1V45.931a3.448,3.448,0,0,1-3.448,3.448H35.448A3.448,3.448,0,0,1,32,45.931V26.1A18.1,18.1,0,0,1,50.1,8Z" transform="translate(-29.414 -8)" fill="#525252"/>
        <path id="Trazado_995418" data-name="Trazado 995418" d="M56.785,19.815A24.553,24.553,0,0,1,35.879,31.473a24.684,24.684,0,0,1-3.065-.192A18.1,18.1,0,0,0,32,36.645V56.473a3.448,3.448,0,0,0,3.448,3.448H64.759a3.448,3.448,0,0,0,3.448-3.448V36.645a18.11,18.11,0,0,0-11.423-16.83Z" transform="translate(-29.414 -18.542)" fill="#3f3f3f"/>
        <path id="Trazado_995419" data-name="Trazado 995419" d="M10.155,152h3.879v10.345H10.155A2.155,2.155,0,0,1,8,160.19v-6.035A2.155,2.155,0,0,1,10.155,152Z" transform="translate(-8 -136.483)" fill="#e56161"/>
        <path id="Trazado_995420" data-name="Trazado 995420" d="M336,152h4.31a1.724,1.724,0,0,1,1.724,1.724v6.9a1.724,1.724,0,0,1-1.724,1.724H336Z" transform="translate(-300.655 -136.483)" fill="#e56161"/>
        <path id="Trazado_995421" data-name="Trazado 995421" d="M168,280h6.9v6.9H168Z" transform="translate(-150.758 -250.689)" fill="#f4c2b5"/>
        <path id="Trazado_995422" data-name="Trazado 995422" d="M70.035,344H87.276a6.035,6.035,0,0,1,6.035,6.035V362.1H64V350.035A6.035,6.035,0,0,1,70.035,344Z" transform="translate(-57.965 -307.793)" fill="#ce93d8"/>
        <path id="Trazado_995423" data-name="Trazado 995423" d="M64,385.17v.873H93.311V373.973a6.006,6.006,0,0,0-.883-3.143A37,37,0,0,1,64,385.17Z" transform="translate(-57.965 -331.732)" fill="#c087cc"/>
        <path id="Trazado_995424" data-name="Trazado 995424" d="M93.311,94.9V106.75a5.388,5.388,0,0,1-5.388,5.388H69.388A5.388,5.388,0,0,1,64,106.75V94.9H80.056a1.185,1.185,0,0,0,1.185-1.185V88a5.859,5.859,0,0,1,5.814,5.132l.091.726A1.185,1.185,0,0,0,88.323,94.9Z" transform="translate(-57.965 -79.379)" fill="#ffe7de"/>
        <path id="Trazado_995425" data-name="Trazado 995425" d="M203.571,211.8a31.928,31.928,0,0,1-15.994,10.8h10.606a5.388,5.388,0,0,0,5.388-5.388Z" transform="translate(-168.226 -189.839)" fill="#f9d8cd"/>
        <rect id="Rectángulo_413006" data-name="Rectángulo 413006" width="25.431" height="18.104" rx="9.052" transform="translate(23.276 29.311)" fill="#f5f5f5"/>
        <path id="Trazado_995426" data-name="Trazado 995426" d="M311.759,454.035H304l.862-6.035H310.9Z" transform="translate(-272.103 -400.586)" fill="#ededed"/>
        <circle id="Elipse_12158" data-name="Elipse 12158" cx="1.724" cy="1.724" r="1.724" transform="translate(11.638 18.966)" fill="#f5f5f5"/>
        <circle id="Elipse_12159" data-name="Elipse 12159" cx="1.724" cy="1.724" r="1.724" transform="translate(26.293 18.966)" fill="#f5f5f5"/>
        <path id="Trazado_995427" data-name="Trazado 995427" d="M121.724,349.172,120,344h7.759Z" transform="translate(-107.931 -307.793)" fill="#e2b9ea"/>
        <path id="Trazado_995428" data-name="Trazado 995428" d="M336,171.809v4.706h4.31a1.724,1.724,0,0,0,1.724-1.724v-6.9s0-.008,0-.013A11.644,11.644,0,0,1,336,171.809Z" transform="translate(-300.655 -150.653)" fill="#d65858"/>
        <path id="Trazado_995429" data-name="Trazado 995429" d="M10.155,185.771h3.879v-7.516A10.8,10.8,0,0,1,8,182.755v.861A2.155,2.155,0,0,0,10.155,185.771Z" transform="translate(-8 -159.908)" fill="#d65858"/>
        <path id="Trazado_995430" data-name="Trazado 995430" d="M104,248h3.448a1.724,1.724,0,1,1,0,3.448H104Z" transform="translate(-93.655 -222.138)" fill="#e56161"/>
        <path id="Trazado_995431" data-name="Trazado 995431" d="M109.172,250.148a1.723,1.723,0,0,0-1.314-1.673A5.613,5.613,0,0,1,104,251.72v.152h3.448A1.724,1.724,0,0,0,109.172,250.148Z" transform="translate(-93.655 -222.561)" fill="#d65858"/>
        <path id="Trazado_995432" data-name="Trazado 995432" d="M0,0H11.207V18.535H0Z" transform="translate(45.259 32.759) rotate(90)" fill="#0277bd"/>
        <path id="Trazado_995433" data-name="Trazado 995433" d="M274.535,312h-.65A21.64,21.64,0,0,1,256,322.391v.816h18.535Z" transform="translate(-229.276 -279.241)" fill="#0469bc"/>
        <circle id="Elipse_12160" data-name="Elipse 12160" cx="1.724" cy="1.724" r="1.724" transform="translate(13.793 1.724)" fill="#848484"/>
        <circle id="Elipse_12161" data-name="Elipse 12161" cx="0.862" cy="0.862" r="0.862" transform="translate(12.069 6.035)" fill="#848484"/>
        <circle id="Elipse_12162" data-name="Elipse 12162" cx="1.724" cy="1.724" r="1.724" transform="translate(28.449 34.483)" fill="#4baee0"/>
        <circle id="Elipse_12163" data-name="Elipse 12163" cx="0.862" cy="0.862" r="0.862" transform="translate(32.759 37.069)" fill="#4baee0"/>
        <path id="Trazado_995434" data-name="Trazado 995434" d="M424,328h8.621v18.966H424Z" transform="translate(-379.172 -293.517)" fill="#ededed"/>
        <path id="Trazado_995435" data-name="Trazado 995435" d="M432.621,422.733A23.677,23.677,0,0,1,424,427.748v3.743h8.621Z" transform="translate(-379.172 -378.041)" fill="#e2e2e2"/>
      </g>
      <g id="Outline" transform="translate(0 -0.117)">
        <path id="Trazado_995436" data-name="Trazado 995436" d="M115.371,3.582a17.261,17.261,0,0,1,24.252,9.532.862.862,0,0,0,1.626-.573A18.987,18.987,0,0,0,114.57,2.055a.862.862,0,0,0,.8,1.527Z" transform="translate(-101.812 0.117)"/>
        <path id="Trazado_995437" data-name="Trazado 995437" d="M34.434,77.176c1.175,0,.573-1.363,2.991-4.778a.862.862,0,0,0-1.407-1,18.926,18.926,0,0,0-2.4,4.625.863.863,0,0,0,.813,1.15Z" transform="translate(-29.954 -63.37)"/>
        <path id="Trazado_995438" data-name="Trazado 995438" d="M328,144.862v10.345a.862.862,0,0,0,.862.862h4.31a2.589,2.589,0,0,0,2.586-2.586v-6.9A2.589,2.589,0,0,0,333.172,144h-4.31A.862.862,0,0,0,328,144.862Zm1.724.862h3.448a.863.863,0,0,1,.862.862v6.9a.863.863,0,0,1-.862.862h-3.448Z" transform="translate(-292.655 -128.47)"/>
        <path id="Trazado_995439" data-name="Trazado 995439" d="M112.138,87.759a.862.862,0,0,0-.862-.862c-1.188-.078-1.8.194-1.86-.285l-.091-.724A6.721,6.721,0,0,0,102.655,80a.862.862,0,0,0-.862.862v5.711a.323.323,0,0,1-.323.323H88.862a.862.862,0,1,0,0,1.724H101.47a2.05,2.05,0,0,0,2.047-2.047V81.8a4.988,4.988,0,0,1,2.445,1.176,5.488,5.488,0,0,1,1.743,3.851,2.049,2.049,0,0,0,2.031,1.8h1.54A.862.862,0,0,0,112.138,87.759Z" transform="translate(-78.517 -71.367)"/>
        <path id="Trazado_995440" data-name="Trazado 995440" d="M425.483,320h-8.621a.862.862,0,0,0-.862.862v18.966a.862.862,0,0,0,.862.862h8.621a.862.862,0,0,0,.862-.862V320.862A.862.862,0,0,0,425.483,320Zm-.862,18.966h-6.9V321.724h6.9Z" transform="translate(-371.172 -285.504)"/>
        <path id="Trazado_995441" data-name="Trazado 995441" d="M43.1,176.759a.862.862,0,0,0-.862-.862H25.862a.863.863,0,0,1-.862-.862V160.38a.863.863,0,0,1,.862-.862H47.845a.863.863,0,0,1,.862.862.862.862,0,0,0,.862.862c1.649,0,.839-3.448-1.724-3.448H25.862a2.589,2.589,0,0,0-2.586,2.586v4.31h-4.31v-1.724h1.293a.862.862,0,1,0,0-1.724H12.285a4.533,4.533,0,0,1-4.4-3.448h2.456v.862a.862.862,0,0,0,.862.862h3.448a2.586,2.586,0,1,0,0-5.172H11.207a.862.862,0,0,0-.862.862v.862H7.759V144.862A.862.862,0,0,0,6.9,144H3.017A3.021,3.021,0,0,0,0,147.017v6.035a3.021,3.021,0,0,0,3.017,3.017H6.035v.862a6.263,6.263,0,0,0,6.25,6.035h4.957v1.724h-4.31a6.908,6.908,0,0,0-6.657,5.1,2.59,2.59,0,0,1-1.964-2.51v-8.621a.862.862,0,1,0-1.724,0v8.621a4.318,4.318,0,0,0,3.45,4.224c0,.347,0,5.607,0,11.293a.862.862,0,0,0,1.724,0V171.587a5.179,5.179,0,0,1,4.564-5.135c1.6,4.41,1.344,5.135,2.333,5.135.569,0,.384-.151,5.172-4.16V169a.862.862,0,0,0,1.724,0v-2.586h1.724v8.621a2.589,2.589,0,0,0,2.586,2.586h6.765l-.616,4.31h-.977a.862.862,0,1,0,0,1.724H42.242a.862.862,0,0,0,0-1.724h-.977l-.616-4.31h1.592A.862.862,0,0,0,43.1,176.759Zm-31.035-20.69h2.586a.862.862,0,1,1,0,1.724H12.069Zm-6.035-1.724H3.017a1.3,1.3,0,0,1-1.293-1.293v-6.035a1.3,1.3,0,0,1,1.293-1.293H6.035Zm9.033,14.891-.94-2.821h4.232Zm18.685,12.7.616-4.31h4.539l.616,4.31Z" transform="translate(0 -128.47)"/>
        <path id="Trazado_995442" data-name="Trazado 995442" d="M263.517,305.724a.862.862,0,0,0,0-1.724H248.862a.862.862,0,0,0-.862.862v11.207a.862.862,0,0,0,.862.862h14.655a.862.862,0,0,0,0-1.724H249.724v-9.483Z" transform="translate(-221.276 -271.228)"/>
        <path id="Trazado_995443" data-name="Trazado 995443" d="M177.141,228a.862.862,0,0,0-.862.862,1.293,1.293,0,1,1-2.586,0,.862.862,0,0,0-.862-.862c-1.749,0-.758,3.879,2.155,3.879S178.89,228,177.141,228Z" transform="translate(-153.434 -203.418)"/>
        <path id="Trazado_995444" data-name="Trazado 995444" d="M108,178.586A2.586,2.586,0,1,0,110.586,176,2.586,2.586,0,0,0,108,178.586Zm3.448,0a.862.862,0,1,1-.862-.862A.862.862,0,0,1,111.448,178.586Z" transform="translate(-96.362 -157.022)"/>
        <path id="Trazado_995445" data-name="Trazado 995445" d="M246.586,176a2.586,2.586,0,1,0,2.586,2.586A2.586,2.586,0,0,0,246.586,176Zm0,3.448a.862.862,0,1,1,.862-.862A.862.862,0,0,1,246.586,179.448Z" transform="translate(-217.707 -157.022)"/>
        <circle id="Elipse_12164" data-name="Elipse 12164" cx="0.862" cy="0.862" r="0.862" transform="translate(19.828 43.117)"/>
        <circle id="Elipse_12165" data-name="Elipse 12165" cx="0.862" cy="0.862" r="0.862" transform="translate(19.828 53.461)"/>
        <circle id="Elipse_12166" data-name="Elipse 12166" cx="0.862" cy="0.862" r="0.862" transform="translate(19.828 50.013)"/>
        <circle id="Elipse_12167" data-name="Elipse 12167" cx="0.862" cy="0.862" r="0.862" transform="translate(19.828 46.565)"/>
        <path id="Trazado_995446" data-name="Trazado 995446" d="M112.862,440a.862.862,0,0,0-.862.862V446.9a.862.862,0,1,0,1.724,0v-6.035A.862.862,0,0,0,112.862,440Z" transform="translate(-99.931 -392.573)"/>
        <path id="Trazado_995447" data-name="Trazado 995447" d="M448.862,353.724h1.724a.862.862,0,0,0,0-1.724h-1.724a.862.862,0,1,0,0,1.724Z" transform="translate(-399.724 -314.056)"/>
        <path id="Trazado_995448" data-name="Trazado 995448" d="M448.862,377.724h1.724a.862.862,0,1,0,0-1.724h-1.724a.862.862,0,1,0,0,1.724Z" transform="translate(-399.724 -335.47)"/>
        <path id="Trazado_995449" data-name="Trazado 995449" d="M448.862,401.724h1.724a.862.862,0,1,0,0-1.724h-1.724a.862.862,0,1,0,0,1.724Z" transform="translate(-399.724 -356.883)"/>
        <circle id="Elipse_12168" data-name="Elipse 12168" cx="0.862" cy="0.862" r="0.862" transform="translate(8.621 4.323)"/>
      </g>
    </g>
  </g>
</svg>
