<svg xmlns="http://www.w3.org/2000/svg" xmlns:xlink="http://www.w3.org/1999/xlink" width="110" height="110" viewBox="0 0 110 110">
  <defs>
    <filter id="Trazado_982547" x="0" y="0" width="110" height="110" filterUnits="userSpaceOnUse">
      <feOffset dy="3" input="SourceAlpha"/>
      <feGaussianBlur stdDeviation="3" result="blur"/>
      <feFlood flood-opacity="0.161"/>
      <feComposite operator="in" in2="blur"/>
      <feComposite in="SourceGraphic"/>
    </filter>
  </defs>
  <g id="Grupo_1161071" data-name="Grupo 1161071" transform="translate(-799 -5773)">
    <g id="Grupo_1160782" data-name="Grupo 1160782" transform="translate(421 3444)">
      <g id="Grupo_1158890" data-name="Grupo 1158890" transform="translate(-423 -1476)">
        <g id="Grupo_1157405" data-name="Grupo 1157405" transform="translate(1 3016)">
          <g id="Grupo_1155792" data-name="Grupo 1155792" transform="translate(-1 -3894.666)">
            <g id="Grupo_1154703" data-name="Grupo 1154703" transform="translate(0 1465.666)">
              <g id="Grupo_1150789" data-name="Grupo 1150789" transform="translate(3 2320)">
                <g id="Grupo_1154212" data-name="Grupo 1154212" transform="translate(-236 -5809)">
                  <g id="Grupo_1152583" data-name="Grupo 1152583" transform="translate(1043 6713)">
                    <g id="Grupo_1146973" data-name="Grupo 1146973" transform="translate(0 0)">
                      <g id="Grupo_1146954" data-name="Grupo 1146954">
                        <g transform="matrix(1, 0, 0, 1, -9, -6)" filter="url(#Trazado_982547)">
                          <g id="Trazado_982547-2" data-name="Trazado 982547" transform="translate(9 6)" fill="#fbeaee">
                            <path d="M 46 90.49987030029297 C 39.99187850952148 90.49987030029297 34.16426849365234 89.32350921630859 28.67905426025391 87.00345611572266 C 23.38019943237305 84.76224517822266 18.62104034423828 81.55341339111328 14.53374671936035 77.46613311767578 C 10.44646644592285 73.37885284423828 7.237639904022217 68.61969757080078 4.996413230895996 63.32085418701172 C 2.676359891891479 57.83565521240234 1.5 52.008056640625 1.5 45.99993515014648 C 1.5 39.99181365966797 2.676359891891479 34.16421508789062 4.996413230895996 28.67901420593262 C 7.237639904022217 23.38017463684082 10.44646644592285 18.62101554870605 14.53374671936035 14.53373527526855 C 18.62104034423828 10.44645500183105 23.38019943237305 7.23762845993042 28.67905426025391 4.996415138244629 C 34.16426849365234 2.676361799240112 39.99187850952148 1.500001788139343 46 1.500001788139343 C 52.00812149047852 1.500001788139343 57.83573150634766 2.676361799240112 63.32094573974609 4.996415138244629 C 68.61979675292969 7.23762845993042 73.37895965576172 10.44645500183105 77.46625518798828 14.53373527526855 C 81.55353546142578 18.62101554870605 84.76235961914062 23.38017463684082 87.00358581542969 28.67901420593262 C 89.32363891601562 34.16421508789062 90.5 39.99181365966797 90.5 45.99993515014648 C 90.5 52.008056640625 89.32363891601562 57.83565521240234 87.00358581542969 63.32085418701172 C 84.76235961914062 68.61969757080078 81.55353546142578 73.37885284423828 77.46625518798828 77.46613311767578 C 73.37895965576172 81.55341339111328 68.61979675292969 84.76224517822266 63.32094573974609 87.00345611572266 C 57.83573150634766 89.32350921630859 52.00812149047852 90.49987030029297 46 90.49987030029297 Z" stroke="none"/>
                            <path d="M 46 2.999992370605469 C 40.1937141418457 2.999992370605469 34.56269836425781 4.136489868164062 29.26337051391602 6.377906799316406 C 24.14332580566406 8.543502807617188 19.54441070556641 11.64437866210938 15.59439849853516 15.59437561035156 C 11.64440155029297 19.54439544677734 8.54351806640625 24.14329528808594 6.377914428710938 29.26333618164062 C 4.136497497558594 34.56264877319336 3 40.19366455078125 3 45.99993515014648 C 3 51.80620574951172 4.136497497558594 57.43720626831055 6.377914428710938 62.73651885986328 C 8.54351806640625 67.8565673828125 11.64440155029297 72.45545959472656 15.59439849853516 76.40547943115234 C 19.54441070556641 80.35547637939453 24.14332580566406 83.45635223388672 29.26337051391602 85.6219482421875 C 34.56269836425781 87.86336517333984 40.1937141418457 88.99986267089844 46 88.99986267089844 C 51.8062858581543 88.99986267089844 57.43730163574219 87.86336517333984 62.73661422729492 85.6219482421875 C 67.85667419433594 83.45635223388672 72.45557403564453 80.35547637939453 76.40558624267578 76.40547943115234 C 80.35559844970703 72.45545959472656 83.45647430419922 67.8565673828125 85.6220703125 62.73651885986328 C 87.86350250244141 57.43720626831055 89 51.80620574951172 89 45.99993515014648 C 89 40.19366455078125 87.86350250244141 34.56264877319336 85.6220703125 29.26333618164062 C 83.45647430419922 24.14329528808594 80.35559844970703 19.54439544677734 76.40558624267578 15.59437561035156 C 72.45557403564453 11.64437866210938 67.85667419433594 8.543502807617188 62.73661422729492 6.377906799316406 C 57.43730163574219 4.136489868164062 51.8062858581543 2.999992370605469 46 2.999992370605469 M 46 -7.62939453125e-06 C 71.40509033203125 -7.62939453125e-06 92 20.59486389160156 92 45.99993515014648 C 92 71.40499114990234 71.40509033203125 91.99986267089844 46 91.99986267089844 C 20.59490203857422 91.99986267089844 0 71.40499114990234 0 45.99993515014648 C 0 20.59486389160156 20.59490203857422 -7.62939453125e-06 46 -7.62939453125e-06 Z" stroke="none" fill="#e23e64"/>
                          </g>
                        </g>
                      </g>
                    </g>
                  </g>
                </g>
              </g>
            </g>
          </g>
        </g>
      </g>
    </g>
    <g id="barajar" transform="translate(905.413 5877.358)">
      <circle id="Elipse_12181" data-name="Elipse 12181" cx="30.677" cy="30.677" r="30.677" transform="translate(-95.413 -51.98) rotate(-45)" fill="#ffc265"/>
      <path id="Trazado_995616" data-name="Trazado 995616" d="M38.192,271.481A30.678,30.678,0,0,1,7.561,242.474q-.044.829-.046,1.67a30.677,30.677,0,1,0,61.355,0q0-.841-.046-1.67A30.678,30.678,0,0,1,38.192,271.481Z" transform="translate(-90.221 -296.124)" fill="#ffb541"/>
      <circle id="Elipse_12182" data-name="Elipse 12182" cx="25.703" cy="25.703" r="25.703" transform="translate(-88.38 -51.98) rotate(-45)" fill="#ffe9c8"/>
      <path id="Trazado_995617" data-name="Trazado 995617" d="M73.507,266.507a25.7,25.7,0,0,1-25.648-24.033c-.035.552-.055,1.109-.055,1.67a25.7,25.7,0,1,0,51.407,0c0-.561-.02-1.118-.055-1.67A25.7,25.7,0,0,1,73.507,266.507Z" transform="translate(-125.536 -296.124)" fill="#ffdca7"/>
      <path id="Trazado_995618" data-name="Trazado 995618" d="M148.117,191.433l-5.681,3.6a.669.669,0,0,1-1.027-.565v-1.308a15.465,15.465,0,0,1-13.738-9.387,10.873,10.873,0,0,0-10.01-6.606h-2.2a2.3,2.3,0,1,1,0-4.6h2.2a15.467,15.467,0,0,1,14.239,9.4,10.872,10.872,0,0,0,9.51,6.593v-1.285a.669.669,0,0,1,1.027-.565l5.681,3.6A.669.669,0,0,1,148.117,191.433Z" transform="translate(-182.821 -234.846)" fill="#ff4755"/>
      <path id="Trazado_995619" data-name="Trazado 995619" d="M222.746,213.322l.017-.037a10.88,10.88,0,0,1-2.243-3.349,15.476,15.476,0,0,0-3.914-5.456,15.57,15.57,0,0,0-.736,1.493,10.9,10.9,0,0,1-1.61,2.645,10.887,10.887,0,0,1,2.03,3.126,15.469,15.469,0,0,0,4,5.534,15.5,15.5,0,0,0,2.452-3.956Z" transform="translate(-271.441 -262.821)" fill="#fc2b3a"/>
      <path id="Trazado_995620" data-name="Trazado 995620" d="M148.117,160.321l-5.681-3.6a.669.669,0,0,0-1.027.565V158.6a15.465,15.465,0,0,0-13.738,9.387,10.873,10.873,0,0,1-10.01,6.606h-2.2a2.3,2.3,0,1,0,0,4.6h2.2a15.467,15.467,0,0,0,14.239-9.4,10.872,10.872,0,0,1,9.51-6.593v1.285a.669.669,0,0,0,1.027.565l5.681-3.6A.669.669,0,0,0,148.117,160.321Z" transform="translate(-182.821 -220.867)" fill="#ff4755"/>
      <path id="Trazado_995621" data-name="Trazado 995621" d="M148.118,182.72l-.865-.548-4.816,3.05a.669.669,0,0,1-1.027-.565v-.617a.621.621,0,0,0-.691-.615,10.871,10.871,0,0,0-8.819,6.54,15.467,15.467,0,0,1-14.239,9.4h-2.2a2.3,2.3,0,0,1-2.012-1.186,2.29,2.29,0,0,0-.284,1.248,2.335,2.335,0,0,0,2.349,2.165h2.15a15.467,15.467,0,0,0,14.239-9.4,10.872,10.872,0,0,1,9.51-6.593v1.285a.669.669,0,0,0,1.027.565l5.681-3.6A.669.669,0,0,0,148.118,182.72Z" transform="translate(-182.823 -243.267)" fill="#fc2b3a"/>
      <g id="Grupo_1161070" data-name="Grupo 1161070" transform="translate(-83.633 -83.585)">
        <path id="Trazado_995622" data-name="Trazado 995622" d="M134.722,159.3a1.6,1.6,0,0,0,1.624-.05l5.681-3.6a1.612,1.612,0,0,0,0-2.7l-5.681-3.6a1.6,1.6,0,0,0-2.451,1.349v.434a16.367,16.367,0,0,0-10.7,5.286,16.308,16.308,0,0,0-12.124-5.349h-2.2a3.227,3.227,0,0,0,0,6.455h2.2a9.941,9.941,0,0,1,8.5,4.776,9.947,9.947,0,0,1-2.681,2.9.928.928,0,1,0,1.084,1.506,11.817,11.817,0,0,0,3.958-4.945,14.537,14.537,0,0,1,12.915-8.825.928.928,0,0,0,.9-.927v-.838l4.939,3.128-4.939,3.128v-.816a.938.938,0,0,0-.97-.927,11.8,11.8,0,0,0-10.32,7.155,14.541,14.541,0,0,1-13.386,8.834h-2.2a1.372,1.372,0,0,1,0-2.744h2.2a11.835,11.835,0,0,0,3.281-.463.928.928,0,0,0-.514-1.783,9.98,9.98,0,0,1-2.766.39h-2.2a3.227,3.227,0,0,0,0,6.455h2.2a16.392,16.392,0,0,0,12.126-5.348,16.362,16.362,0,0,0,10.694,5.285v.433a1.6,1.6,0,0,0,2.452,1.349l5.681-3.6a1.612,1.612,0,0,0,0-2.7l-5.681-3.6a1.6,1.6,0,0,0-2.452,1.349v.266a10.015,10.015,0,0,1-7.074-4.673,9.85,9.85,0,0,1,7.074-4.668v.268A1.6,1.6,0,0,0,134.722,159.3Zm-14.2,1.1a11.8,11.8,0,0,0-9.447-4.722h-2.2a1.372,1.372,0,0,1,0-2.744h2.2a14.465,14.465,0,0,1,10.939,4.952A16.444,16.444,0,0,0,120.522,160.4Zm14.258,8.523a.937.937,0,0,0,.97-.927v-.816l4.939,3.128-4.939,3.128V172.6a.928.928,0,0,0-.9-.927,14.517,14.517,0,0,1-10.467-4.942,16.428,16.428,0,0,0,1.492-2.518A11.875,11.875,0,0,0,134.781,168.924Z" transform="translate(-92.602 -130.703)"/>
        <path id="Trazado_995623" data-name="Trazado 995623" d="M53.953,9.257a31.605,31.605,0,0,0-44.7,44.7,31.609,31.609,0,0,0,41.334,2.921.928.928,0,1,0-1.116-1.483A29.751,29.751,0,0,1,1.855,31.605,29.75,29.75,0,0,1,52.641,10.569a29.725,29.725,0,0,1-.426,42.49A.928.928,0,1,0,53.5,54.4a31.605,31.605,0,0,0,.453-45.14Z" transform="translate(0)"/>
        <path id="Trazado_995624" data-name="Trazado 995624" d="M48.089,48.087A26.573,26.573,0,1,0,51,45.568a.928.928,0,1,0,1.111,1.486A24.822,24.822,0,1,1,49.4,49.4a.928.928,0,1,0-1.312-1.312Z" transform="translate(-35.315 -35.313)"/>
      </g>
    </g>
  </g>
</svg>
