<svg xmlns="http://www.w3.org/2000/svg" xmlns:xlink="http://www.w3.org/1999/xlink" width="110" height="110" viewBox="0 0 110 110">
  <defs>
    <filter id="Trazado_982547" x="0" y="0" width="110" height="110" filterUnits="userSpaceOnUse">
      <feOffset dy="3" input="SourceAlpha"/>
      <feGaussianBlur stdDeviation="3" result="blur"/>
      <feFlood flood-opacity="0.161"/>
      <feComposite operator="in" in2="blur"/>
      <feComposite in="SourceGraphic"/>
    </filter>
  </defs>
  <g id="Grupo_1160955" data-name="Grupo 1160955" transform="translate(-3445 -2694)">
    <g id="Grupo_1160751" data-name="Grupo 1160751" transform="translate(2752 364)">
      <g id="Grupo_1158891" data-name="Grupo 1158891" transform="translate(-423 -1476)">
        <g id="Grupo_1157406" data-name="Grupo 1157406" transform="translate(1 3016)">
          <g id="Grupo_1155793" data-name="Grupo 1155793" transform="translate(-0.999 -3894)">
            <g id="Grupo_1154704" data-name="Grupo 1154704" transform="translate(0 1466)">
              <g id="Grupo_1150790" data-name="Grupo 1150790" transform="translate(3 2320)">
                <g id="Grupo_1154214" data-name="Grupo 1154214" transform="translate(79 -5809)">
                  <g id="Grupo_1152583" data-name="Grupo 1152583" transform="translate(1043 6713)">
                    <g id="Grupo_1146973" data-name="Grupo 1146973" transform="translate(0 0)">
                      <g id="Grupo_1146954" data-name="Grupo 1146954">
                        <g transform="matrix(1, 0, 0, 1, -9, -6)" filter="url(#Trazado_982547)">
                          <g id="Trazado_982547-2" data-name="Trazado 982547" transform="translate(9 6)" fill="#fbeaee">
                            <path d="M 46 90.49987030029297 C 39.99187850952148 90.49987030029297 34.16426849365234 89.32350921630859 28.67905426025391 87.00345611572266 C 23.38019943237305 84.76224517822266 18.62104034423828 81.55341339111328 14.53374671936035 77.46613311767578 C 10.44646644592285 73.37885284423828 7.237639904022217 68.61969757080078 4.996413230895996 63.32085418701172 C 2.676359891891479 57.83565521240234 1.5 52.008056640625 1.5 45.99993515014648 C 1.5 39.99181365966797 2.676359891891479 34.16421508789062 4.996413230895996 28.67901420593262 C 7.237639904022217 23.38017463684082 10.44646644592285 18.62101554870605 14.53374671936035 14.53373527526855 C 18.62104034423828 10.44645500183105 23.38019943237305 7.23762845993042 28.67905426025391 4.996415138244629 C 34.16426849365234 2.676361799240112 39.99187850952148 1.500001788139343 46 1.500001788139343 C 52.00812149047852 1.500001788139343 57.83573150634766 2.676361799240112 63.32094573974609 4.996415138244629 C 68.61979675292969 7.23762845993042 73.37895965576172 10.44645500183105 77.46625518798828 14.53373527526855 C 81.55353546142578 18.62101554870605 84.76235961914062 23.38017463684082 87.00358581542969 28.67901420593262 C 89.32363891601562 34.16421508789062 90.5 39.99181365966797 90.5 45.99993515014648 C 90.5 52.008056640625 89.32363891601562 57.83565521240234 87.00358581542969 63.32085418701172 C 84.76235961914062 68.61969757080078 81.55353546142578 73.37885284423828 77.46625518798828 77.46613311767578 C 73.37895965576172 81.55341339111328 68.61979675292969 84.76224517822266 63.32094573974609 87.00345611572266 C 57.83573150634766 89.32350921630859 52.00812149047852 90.49987030029297 46 90.49987030029297 Z" stroke="none"/>
                            <path d="M 46 2.999992370605469 C 40.1937141418457 2.999992370605469 34.56269836425781 4.136489868164062 29.26337051391602 6.377906799316406 C 24.14332580566406 8.543502807617188 19.54441070556641 11.64437866210938 15.59439849853516 15.59437561035156 C 11.64440155029297 19.54439544677734 8.54351806640625 24.14329528808594 6.377914428710938 29.26333618164062 C 4.136497497558594 34.56264877319336 3 40.19366455078125 3 45.99993515014648 C 3 51.80620574951172 4.136497497558594 57.43720626831055 6.377914428710938 62.73651885986328 C 8.54351806640625 67.8565673828125 11.64440155029297 72.45545959472656 15.59439849853516 76.40547943115234 C 19.54441070556641 80.35547637939453 24.14332580566406 83.45635223388672 29.26337051391602 85.6219482421875 C 34.56269836425781 87.86336517333984 40.1937141418457 88.99986267089844 46 88.99986267089844 C 51.8062858581543 88.99986267089844 57.43730163574219 87.86336517333984 62.73661422729492 85.6219482421875 C 67.85667419433594 83.45635223388672 72.45557403564453 80.35547637939453 76.40558624267578 76.40547943115234 C 80.35559844970703 72.45545959472656 83.45647430419922 67.8565673828125 85.6220703125 62.73651885986328 C 87.86350250244141 57.43720626831055 89 51.80620574951172 89 45.99993515014648 C 89 40.19366455078125 87.86350250244141 34.56264877319336 85.6220703125 29.26333618164062 C 83.45647430419922 24.14329528808594 80.35559844970703 19.54439544677734 76.40558624267578 15.59437561035156 C 72.45557403564453 11.64437866210938 67.85667419433594 8.543502807617188 62.73661422729492 6.377906799316406 C 57.43730163574219 4.136489868164062 51.8062858581543 2.999992370605469 46 2.999992370605469 M 46 -7.62939453125e-06 C 71.40509033203125 -7.62939453125e-06 92 20.59486389160156 92 45.99993515014648 C 92 71.40499114990234 71.40509033203125 91.99986267089844 46 91.99986267089844 C 20.59490203857422 91.99986267089844 0 71.40499114990234 0 45.99993515014648 C 0 20.59486389160156 20.59490203857422 -7.62939453125e-06 46 -7.62939453125e-06 Z" stroke="none" fill="#e23e64"/>
                          </g>
                        </g>
                      </g>
                    </g>
                  </g>
                </g>
              </g>
            </g>
          </g>
        </g>
      </g>
    </g>
    <g id="idea-genial" transform="translate(3472 2718)">
      <g id="Grupo_1160953" data-name="Grupo 1160953" transform="translate(1.879 1.878)">
        <g id="Grupo_1160933" data-name="Grupo 1160933" transform="translate(35.143 40.414)">
          <path id="Trazado_995356" data-name="Trazado 995356" d="M47.271,50.451a10.759,10.759,0,0,1,2.029-1.1L52.543,48a9.285,9.285,0,0,1,7.029,9.005V60.3H42a11.788,11.788,0,0,1,2.144-6.791A11.642,11.642,0,0,1,47.271,50.451Z" transform="translate(-42 -48)" fill="#e6e9ed"/>
        </g>
        <g id="Grupo_1160934" data-name="Grupo 1160934" transform="translate(15.454 41.557)">
          <path id="Trazado_995357" data-name="Trazado 995357" d="M41.422,53.666a11.788,11.788,0,0,0-2.144,6.791H21.707A11.8,11.8,0,0,0,19.59,53.7a9.962,9.962,0,0,1,3.084-3.18,9.767,9.767,0,0,1,2.8-1.221l1.5,6.765,3.514-3.514,3.514,3.514,1.5-6.765a9.637,9.637,0,0,1,2.75,1.195,9.75,9.75,0,0,1,3.066,3.1Z" transform="translate(-19.59 -49.3)" fill="#4fc1e9"/>
        </g>
        <g id="Grupo_1160935" data-name="Grupo 1160935" transform="translate(26.357 41.284)">
          <path id="Trazado_995358" data-name="Trazado 995358" d="M37.017,49.262l-1.5,6.765L32,52.513l3.514-3.523A9.258,9.258,0,0,1,37.017,49.262Z" transform="translate(-32 -48.99)" fill="#3bafda"/>
        </g>
        <g id="Grupo_1160936" data-name="Grupo 1160936" transform="translate(21.34 41.284)">
          <path id="Trazado_995359" data-name="Trazado 995359" d="M27.792,48.99l3.514,3.523-3.514,3.514-1.5-6.765a9.258,9.258,0,0,1,1.5-.272Z" transform="translate(-26.29 -48.99)" fill="#3bafda"/>
        </g>
        <g id="Grupo_1160937" data-name="Grupo 1160937" transform="translate(0 40.414)">
          <path id="Trazado_995360" data-name="Trazado 995360" d="M7.271,60.3H2V57.005A9.294,9.294,0,0,1,9.029,48l.879,3.514L14.3,54.15l1.335-2.662a11.254,11.254,0,0,1,1.819,2.056A11.8,11.8,0,0,1,19.571,60.3Z" transform="translate(-2 -48)" fill="#b4dd7f"/>
        </g>
        <g id="Grupo_1160938" data-name="Grupo 1160938" transform="translate(7.029 40.414)">
          <path id="Trazado_995361" data-name="Trazado 995361" d="M15.271,50.451a9.384,9.384,0,0,1,1.335,1.037L15.271,54.15l-4.393-2.636L10,48l3.242,1.353A10.759,10.759,0,0,1,15.271,50.451Z" transform="translate(-10 -48)" fill="#a0d468"/>
        </g>
        <g id="Grupo_1160939" data-name="Grupo 1160939" transform="translate(0 24.6)">
          <path id="Trazado_995362" data-name="Trazado 995362" d="M9.029,38.786v4.393L8,42.669a10.883,10.883,0,0,1-6-9.717V30H9.029v4.393A1.762,1.762,0,0,0,7.271,36.15V36.3a1.763,1.763,0,0,0,.518,1.248Z" transform="translate(-2 -30)" fill="#656d78"/>
        </g>
        <g id="Grupo_1160940" data-name="Grupo 1160940" transform="translate(45.685 24.6)">
          <path id="Trazado_995363" data-name="Trazado 995363" d="M61.029,30v2.952a10.883,10.883,0,0,1-6,9.717L54,43.178V38.786l1.239-1.239a1.763,1.763,0,0,0,.518-1.248V36.15A1.762,1.762,0,0,0,54,34.393V30Z" transform="translate(-54 -30)" fill="#fcd770"/>
        </g>
        <g id="Grupo_1160941" data-name="Grupo 1160941" transform="translate(35.143 24.6)">
          <path id="Trazado_995364" data-name="Trazado 995364" d="M47.271,43.178h-.518a3,3,0,0,1-3-3V37.907l-.51-.255A2.255,2.255,0,0,1,42,35.64a2.157,2.157,0,0,1,.114-.712L43.757,30h8.786v4.393A1.762,1.762,0,0,1,54.3,36.15V36.3a1.762,1.762,0,0,1-.518,1.248l-1.239,1.239v7.029L49.3,47.167a10.759,10.759,0,0,0-2.029,1.1Z" transform="translate(-42 -30)" fill="#f0d0b4"/>
        </g>
        <g id="Grupo_1160942" data-name="Grupo 1160942" transform="translate(22.843 38.648)">
          <path id="Trazado_995365" data-name="Trazado 995365" d="M34.15,45.99l.879,2.636-3.514,3.523L28,48.626l.879-2.636Z" transform="translate(-28 -45.99)" fill="#f0d0b4"/>
        </g>
        <g id="Grupo_1160943" data-name="Grupo 1160943" transform="translate(19.328 24.6)">
          <path id="Trazado_995366" data-name="Trazado 995366" d="M38.057,35.64v4.015a4.394,4.394,0,0,1-4.393,4.393H28.393A4.394,4.394,0,0,1,24,39.655V30H38.057Z" transform="translate(-24 -30)" fill="#f0d0b4"/>
        </g>
        <g id="Grupo_1160944" data-name="Grupo 1160944" transform="translate(5.271 24.6)">
          <path id="Trazado_995367" data-name="Trazado 995367" d="M15.029,43.178v5.087A10.759,10.759,0,0,0,13,47.167L9.757,45.814V38.786L8.518,37.547A1.763,1.763,0,0,1,8,36.3V36.15a1.762,1.762,0,0,1,1.757-1.757V30h8.786l1.643,4.929a2.157,2.157,0,0,1,.114.712,2.255,2.255,0,0,1-1.248,2.012l-.51.255v2.275a3,3,0,0,1-3,3Z" transform="translate(-8 -30)" fill="#f0d0b4"/>
        </g>
        <g id="Grupo_1160945" data-name="Grupo 1160945" transform="translate(2.636 8.786)">
          <path id="Trazado_995368" data-name="Trazado 995368" d="M10.271,12V27.814H5V12Z" transform="translate(-5 -12)" fill="#69d6f4"/>
        </g>
        <g id="Grupo_1160946" data-name="Grupo 1160946" transform="translate(7.907 8.786)">
          <path id="Trazado_995369" data-name="Trazado 995369" d="M11,12h5.271V27.814H11Z" transform="translate(-11 -12)" fill="#ef7385"/>
        </g>
        <g id="Grupo_1160947" data-name="Grupo 1160947" transform="translate(2.636 0)">
          <path id="Trazado_995370" data-name="Trazado 995370" d="M11.545,2.782l4,8H5l4-8a1.429,1.429,0,0,1,2.548,0Z" transform="translate(-5 -2)" fill="#969faa"/>
        </g>
        <g id="Grupo_1160948" data-name="Grupo 1160948" transform="translate(21.964 21.086)">
          <path id="Trazado_995371" data-name="Trazado 995371" d="M35.786,26v3.514H27V26h8.786Z" transform="translate(-27 -26)" fill="#aab2bd"/>
        </g>
        <g id="Grupo_1160949" data-name="Grupo 1160949" transform="translate(16.696 0)">
          <path id="Trazado_995372" data-name="Trazado 995372" d="M29.549,2.061a9.662,9.662,0,0,0-5,17.079,4.523,4.523,0,0,1,1.722,3.479v.466h8.786V22.62a4.45,4.45,0,0,1,1.687-3.453,9.66,9.66,0,0,0-7.2-17.106Z" transform="translate(-21.003 -1.999)" fill="#ffeaa7"/>
        </g>
        <g id="Grupo_1160950" data-name="Grupo 1160950" transform="translate(27.886 7.908)">
          <path id="Trazado_995373" data-name="Trazado 995373" d="M36.964,11.518a1.718,1.718,0,0,1,.518,1.239,1.762,1.762,0,0,1-1.757,1.757H33.74l.123-1.871A1.757,1.757,0,0,1,35.611,11h.114a1.718,1.718,0,0,1,1.239.518Z" transform="translate(-33.74 -11)" fill="#fcd770"/>
        </g>
        <g id="Grupo_1160951" data-name="Grupo 1160951" transform="translate(42.171 17.572)">
          <circle id="Elipse_12154" data-name="Elipse 12154" cx="2" cy="2" r="2" transform="translate(-0.05 -0.45)" fill="#ef7385"/>
        </g>
        <g id="Grupo_1160952" data-name="Grupo 1160952" transform="translate(21.086 7.908)">
          <path id="Trazado_995374" data-name="Trazado 995374" d="M29.62,12.643l.123,1.871H27.757A1.77,1.77,0,0,1,26,12.757,1.762,1.762,0,0,1,27.757,11h.114A1.757,1.757,0,0,1,29.62,12.643Z" transform="translate(-26 -11)" fill="#fcd770"/>
        </g>
      </g>
      <g id="Grupo_1160954" data-name="Grupo 1160954" transform="translate(1 1)">
        <path id="Trazado_995375" data-name="Trazado 995375" d="M48.982,39.931a11.675,11.675,0,0,0,6.489-10.5V25.6H38.145L36.3,31.126a3.156,3.156,0,0,0-.16.989,3.113,3.113,0,0,0,1.73,2.8l.027,1.742A3.841,3.841,0,0,0,41.414,40.5v3.775a12.707,12.707,0,0,0-2.242,2.068,10.553,10.553,0,0,0-6.763-3.986l-.364-1.092a5.277,5.277,0,0,0,4.1-5.135V25.6H33.507V22.5a3.564,3.564,0,0,1,1.356-2.767,10.532,10.532,0,0,0,.4-16.049,10.544,10.544,0,0,0-17.44,6.189A10.5,10.5,0,0,0,21.563,19.7a3.653,3.653,0,0,1,1.4,2.805v3.1H20.328V36.13a5.277,5.277,0,0,0,4.1,5.135l-.365,1.093a10.721,10.721,0,0,0-6.76,3.99,12.721,12.721,0,0,0-2.246-2.073V40.5a3.844,3.844,0,0,0,3.515-3.843V34.928l.027-.013a3.131,3.131,0,0,0,1.569-3.79L18.326,25.6H15.936V10.457L11.843,2.272a2.3,2.3,0,0,0-4.115,0L3.636,10.457V25.6H1v3.831a11.675,11.675,0,0,0,6.489,10.5l.539.27v1.436A10.138,10.138,0,0,0,1,51.3v4.176H55.471V51.294a10.138,10.138,0,0,0-7.029-9.658V40.2Zm4.732-10.5a9.912,9.912,0,0,1-5.271,8.782V35.628l.985-.985a2.617,2.617,0,0,0,.772-1.864v-.15a2.641,2.641,0,0,0-1.757-2.485V27.357h5.271Zm-10.543,11.1h1.757V38.778H41.777a2.1,2.1,0,0,1-1.5-.621,2.133,2.133,0,0,1-.622-1.5V33.842l-1-.5a1.372,1.372,0,0,1-.689-1.661l1.442-4.324h7.274V31.75h.879a.88.88,0,0,1,.879.879v.15a.875.875,0,0,1-.257.622l-1.5,1.5v6.806l-2.7,1.126q-.414.173-.811.372ZM28.235,45.44l-2.509-2.519.507-1.521h4l.507,1.521ZM24.415,44.1l2.579,2.587-1.762,1.762-.961-4.327Zm7.641,0,.145.023-.962,4.328-1.762-1.762ZM22.675,18.336a8.759,8.759,0,0,1-3.117-8.2,8.85,8.85,0,0,1,7.661-7.325,8.782,8.782,0,0,1,6.54,15.552,5.325,5.325,0,0,0-1.986,3.72h-1.72l.527-7.907H31.75a2.636,2.636,0,1,0,0-5.271h-.113a2.643,2.643,0,0,0-2.63,2.461l-.07,1.053h-1.4l-.07-1.054a2.643,2.643,0,0,0-2.63-2.46h-.113a2.636,2.636,0,0,0,0,5.271h1.169l.527,7.907H24.7a5.432,5.432,0,0,0-2.022-3.75Zm5.5,3.75-.527-7.907h1.168l-.527,7.907ZM30.7,12.421l.062-.937a.881.881,0,0,1,.877-.821h.113a.879.879,0,1,1,0,1.757Zm-4.923,0H24.721a.879.879,0,0,1,0-1.757h.113a.881.881,0,0,1,.877.821ZM24.721,23.843H31.75V25.6H24.721ZM22.086,36.13V27.357h12.3V36.13a3.518,3.518,0,0,1-3.514,3.514H25.6a3.518,3.518,0,0,1-3.514-3.514Zm-7.664,9.861-.605,1.21-3.267-1.96-.366-1.465,1.63.679A11,11,0,0,1,14.422,45.991ZM18.5,31.68a1.375,1.375,0,0,1-.689,1.663l-1,.5v2.815a2.119,2.119,0,0,1-2.12,2.12H11.543v1.757H13.3v2.67q-.4-.2-.811-.372l-2.7-1.127V34.9l-1.5-1.5a.875.875,0,0,1-.257-.622v-.15a.88.88,0,0,1,.879-.879h.879V27.357h7.274ZM10.664,25.6V11.543h3.514V25.6ZM9.3,3.057a.563.563,0,0,1,.971,0l3.365,6.729h-7.7ZM5.393,11.543H8.907V25.6H5.393ZM2.757,29.431V27.357H8.029v2.786a2.641,2.641,0,0,0-1.757,2.485v.15a2.62,2.62,0,0,0,.772,1.864l.985.985v2.586a9.913,9.913,0,0,1-5.271-8.782ZM8.029,53.714V48.442H6.271v5.271H2.757v-2.42A8.384,8.384,0,0,1,8.28,43.406l.742,2.967,5.518,3.311,1.216-2.433a10.937,10.937,0,0,1,2.781,6.463Zm12.27,0a12.705,12.705,0,0,0-1.9-5.872,8.944,8.944,0,0,1,4.173-3.268l1.639,7.379,4.025-4.025,4.025,4.025L33.9,44.566a8.808,8.808,0,0,1,4.172,3.274,12.7,12.7,0,0,0-1.9,5.874Zm33.415-2.42v2.42H50.2V48.442H48.442v5.271H37.935a10.95,10.95,0,0,1,6.724-9.259l2.968-1.236A8.388,8.388,0,0,1,53.714,51.294Z" transform="translate(-1 -1)"/>
        <path id="Trazado_995376" data-name="Trazado 995376" d="M35.15,38H33.393a.88.88,0,0,1-.879.879H29v1.757h3.514A2.639,2.639,0,0,0,35.15,38Z" transform="translate(-4.4 -5.493)"/>
        <path id="Trazado_995377" data-name="Trazado 995377" d="M49,23.636A2.636,2.636,0,1,0,51.636,21,2.639,2.639,0,0,0,49,23.636Zm3.514,0a.879.879,0,1,1-.879-.879A.88.88,0,0,1,52.514,23.636Z" transform="translate(-6.829 -3.429)"/>
        <path id="Trazado_995378" data-name="Trazado 995378" d="M47.757,8.032a3.279,3.279,0,0,1,3.275-3.275h.479a3.275,3.275,0,0,1,2.045,5.833l-3.164,2.531v3.936H52.15V13.964l2.5-2A5.032,5.032,0,0,0,51.51,3h-.479A5.037,5.037,0,0,0,46,8.032v.239h1.757Z" transform="translate(-6.465 -1.243)"/>
      </g>
    </g>
  </g>
</svg>
