<svg xmlns="http://www.w3.org/2000/svg" xmlns:xlink="http://www.w3.org/1999/xlink" width="98" height="98" viewBox="0 0 98 98">
  <defs>
    <filter id="Trazado_982548" x="0" y="0" width="98" height="98" filterUnits="userSpaceOnUse">
      <feOffset dy="3" input="SourceAlpha"/>
      <feGaussianBlur stdDeviation="3" result="blur"/>
      <feFlood flood-opacity="0.161"/>
      <feComposite operator="in" in2="blur"/>
      <feComposite in="SourceGraphic"/>
    </filter>
  </defs>
  <g id="Grupo_1160978" data-name="Grupo 1160978" transform="translate(-1023 -2251.015)">
    <g id="Grupo_1160769" data-name="Grupo 1160769" transform="translate(210 1402.015)">
      <g id="Grupo_1154396" data-name="Grupo 1154396" transform="translate(-219 -1247)">
        <g id="Grupo_1149914" data-name="Grupo 1149914" transform="translate(0.5 -2463)">
          <g id="Grupo_1149696" data-name="Grupo 1149696" transform="translate(830.5 4104)">
            <g id="Grupo_1149263" data-name="Grupo 1149263" transform="translate(210 461)">
              <g transform="matrix(1, 0, 0, 1, -9, -6)" filter="url(#Trazado_982548)">
                <g id="Trazado_982548-2" data-name="Trazado 982548" transform="translate(9 6)" fill="#f6edfd">
                  <path d="M 40 78.5 C 34.80187606811523 78.5 29.76003265380859 77.48227691650391 25.01452255249023 75.47509765625 C 20.43014526367188 73.53606414794922 16.31264495849609 70.75986480712891 12.77638912200928 67.22360992431641 C 9.240133285522461 63.68735504150391 6.46393346786499 59.56985473632812 4.524899959564209 54.98547744750977 C 2.517722129821777 50.23996734619141 1.5 45.19812393188477 1.5 40 C 1.5 34.80187606811523 2.517722129821777 29.76003265380859 4.524899959564209 25.01452255249023 C 6.46393346786499 20.43014526367188 9.240133285522461 16.31264495849609 12.77638912200928 12.77638912200928 C 16.31264495849609 9.240133285522461 20.43014526367188 6.46393346786499 25.01452255249023 4.524899959564209 C 29.76003265380859 2.517722129821777 34.80187606811523 1.5 40 1.5 C 45.19812393188477 1.5 50.23996734619141 2.517722129821777 54.98547744750977 4.524899959564209 C 59.56985473632812 6.46393346786499 63.68735504150391 9.240133285522461 67.22360992431641 12.77638912200928 C 70.75986480712891 16.31264495849609 73.53606414794922 20.43014526367188 75.47509765625 25.01452255249023 C 77.48227691650391 29.76003265380859 78.5 34.80187606811523 78.5 40 C 78.5 45.19812393188477 77.48227691650391 50.23996734619141 75.47509765625 54.98547744750977 C 73.53606414794922 59.56985473632812 70.75986480712891 63.68735504150391 67.22360992431641 67.22360992431641 C 63.68735504150391 70.75986480712891 59.56985473632812 73.53606414794922 54.98547744750977 75.47509765625 C 50.23996734619141 77.48227691650391 45.19812393188477 78.5 40 78.5 Z" stroke="none"/>
                  <path d="M 40 3 C 35.00370788574219 3 30.15846633911133 3.977851867675781 25.59885406494141 5.906410217285156 C 21.19326782226562 7.769813537597656 17.23602676391602 10.43806457519531 13.83704376220703 13.83705139160156 C 10.43806457519531 17.23603820800781 7.769813537597656 21.19327926635742 5.906410217285156 25.59885406494141 C 3.977851867675781 30.15846633911133 3 35.00370788574219 3 40 C 3 44.99629211425781 3.977851867675781 49.84153366088867 5.906410217285156 54.40114593505859 C 7.769813537597656 58.80672073364258 10.43806457519531 62.76396179199219 13.83704376220703 66.16294860839844 C 17.23602676391602 69.56193542480469 21.19326782226562 72.23018646240234 25.59885406494141 74.09358978271484 C 30.15846633911133 76.02214813232422 35.00370788574219 77 40 77 C 44.99629211425781 77 49.84153366088867 76.02214813232422 54.40114593505859 74.09358978271484 C 58.80672073364258 72.23018646240234 62.76396179199219 69.56193542480469 66.16294860839844 66.16294860839844 C 69.56193542480469 62.76396179199219 72.23018646240234 58.80672073364258 74.09358978271484 54.40114593505859 C 76.02214813232422 49.84153366088867 77 44.99629211425781 77 40 C 77 35.00370788574219 76.02214813232422 30.15846633911133 74.09358978271484 25.59885406494141 C 72.23018646240234 21.19327926635742 69.56193542480469 17.23603820800781 66.16294860839844 13.83705139160156 C 62.76396179199219 10.43806457519531 58.80672073364258 7.769813537597656 54.40114593505859 5.906410217285156 C 49.84153366088867 3.977851867675781 44.99629211425781 3 40 3 M 40 0 C 62.09138488769531 0 80 17.90861511230469 80 40 C 80 62.09138488769531 62.09138488769531 80 40 80 C 17.90859985351562 80 0 62.09138488769531 0 40 C 0 17.90861511230469 17.90859985351562 0 40 0 Z" stroke="none" fill="#ac59f1"/>
                </g>
              </g>
            </g>
          </g>
        </g>
      </g>
    </g>
    <g id="prueba_3_" data-name="prueba (3)" transform="translate(1050.301 2247.283)">
      <g id="Grupo_1160975" data-name="Grupo 1160975" transform="translate(0.636 31.263)">
        <path id="Trazado_995508" data-name="Trazado 995508" d="M267.425,43.945V63.674l-10.826,1.1-9.39-1.1-.814-8.527.814-12.266,18.356.129C266.267,43.009,267.425,43.578,267.425,43.945Z" transform="translate(-226.144 -42.476)" fill="#fe93d3"/>
        <path id="Trazado_995509" data-name="Trazado 995509" d="M260.706,288.19v12.7c0,1.038-1.259,2.785-1.961,2.785l-.77.251H240.49l-1.437-7.315,1.437-8.426Z" transform="translate(-219.426 -266.992)" fill="#66c6a6"/>
        <path id="Trazado_995510" data-name="Trazado 995510" d="M28.564,278.341v15.741H8.771A1.272,1.272,0,0,1,7.5,292.81V278.341l12.591-.912Z" transform="translate(-7.5 -257.144)" fill="#ffef57"/>
        <path id="Trazado_995511" data-name="Trazado 995511" d="M28.564,41.452V62.246H7.5V46.5l.848-3.911A1.271,1.271,0,0,1,9.619,41.32Z" transform="translate(-7.5 -41.048)" fill="#b2e5fb"/>
        <path id="Trazado_995512" data-name="Trazado 995512" d="M49.294,39.692v3.6l-2.258.27L7.5,43.568V39.385a1.271,1.271,0,0,1,1.271-1.271H45.824l1.98.088A1.677,1.677,0,0,1,49.294,39.692Z" transform="translate(-7.5 -38.114)" fill="#756e78"/>
        <g id="Grupo_1160972" data-name="Grupo 1160972" transform="translate(35.639 0)">
          <path id="Trazado_995513" data-name="Trazado 995513" d="M456.772,94.434v15.752l-2.21.715-2.21-.715V94.434L455,93.7Z" transform="translate(-450.283 -88.988)" fill="#fe73c5"/>
          <path id="Trazado_995514" data-name="Trazado 995514" d="M438.6,288.19v14.469c0,.7-.972,1.271-2.169,1.271h-3.935l.458-.159c.759-.263,1.225-.742,1.225-1.259V288.19Z" transform="translate(-432.109 -266.992)" fill="#50b29f"/>
          <path id="Trazado_995515" data-name="Trazado 995515" d="M434.433,39.385V43.56h-4.421v-3.8c0-.612-.572-1.174-1.491-1.465l-.578-.183h4.32c1.2,0,2.169.569,2.169,1.271Z" transform="translate(-427.944 -38.114)" fill="#655f66"/>
        </g>
        <path id="Trazado_995516" data-name="Trazado 995516" d="M132.479,136.67a5.368,5.368,0,0,1-.723,2.7l-1.657-.259-1.1-1.331a2.22,2.22,0,0,0-1.922-3.33l-.4-1.255.4-1.926A5.4,5.4,0,0,1,132.479,136.67Z" transform="translate(-116.575 -123.374)" fill="#ffef57"/>
        <path id="Trazado_995517" data-name="Trazado 995517" d="M73.11,131.27v3.18a2.22,2.22,0,0,0-1.923,3.33l-.9,1.59H68.433a5.4,5.4,0,0,1,4.677-8.1Z" transform="translate(-62.606 -123.374)" fill="#fe93d3"/>
        <path id="Trazado_995518" data-name="Trazado 995518" d="M85.595,209.67a5.4,5.4,0,0,1-9.355,0l2.754-1.59a2.22,2.22,0,0,0,3.846,0Z" transform="translate(-70.413 -193.673)" fill="#7ec8ed"/>
        <g id="Grupo_1160973" data-name="Grupo 1160973" transform="translate(25.118 7.897)">
          <path id="Trazado_995519" data-name="Trazado 995519" d="M307.062,218.625H304a.169.169,0,0,1-.17-.17v-3.372a.169.169,0,0,1,.17-.17h3.062l.9,1.855Z" transform="translate(-303.83 -207.824)" fill="#f9db48"/>
          <path id="Trazado_995520" data-name="Trazado 995520" d="M345.189,193.618h-3.232v-5.857a.169.169,0,0,1,.17-.17h3.062l.826,3.642Z" transform="translate(-338.725 -182.817)" fill="#f2c853"/>
          <path id="Trazado_995521" data-name="Trazado 995521" d="M383.317,167.846h-3.232V159.6a.169.169,0,0,1,.17-.17h3.062l.753,5.234Z" transform="translate(-373.621 -157.045)" fill="#f9db48"/>
          <path id="Trazado_995522" data-name="Trazado 995522" d="M421.274,142.075h-3.062V131.444a.169.169,0,0,1,.17-.17h2.893a.169.169,0,0,1,.17.17V141.9A.169.169,0,0,1,421.274,142.075Z" transform="translate(-408.516 -131.274)" fill="#ffef57"/>
        </g>
        <g id="Grupo_1160974" data-name="Grupo 1160974" transform="translate(3.43 25.893)">
          <circle id="Elipse_12169" data-name="Elipse 12169" cx="1.306" cy="1.306" r="1.306" fill="#fe93d3"/>
          <circle id="Elipse_12170" data-name="Elipse 12170" cx="1.306" cy="1.306" r="1.306" transform="translate(3.73 3.73)" fill="#fe93d3"/>
          <circle id="Elipse_12171" data-name="Elipse 12171" cx="1.306" cy="1.306" r="1.306" transform="translate(7.461)" fill="#fe93d3"/>
          <circle id="Elipse_12172" data-name="Elipse 12172" cx="1.306" cy="1.306" r="1.306" transform="translate(11.537 3.73)" fill="#fe93d3"/>
        </g>
        <path id="Trazado_995523" data-name="Trazado 995523" d="M305.732,333.79l.564,1.352-.564,1.352h-2.169a1.352,1.352,0,1,1,0-2.7Z" transform="translate(-277.229 -308.727)" fill="#40a089"/>
        <path id="Trazado_995524" data-name="Trazado 995524" d="M353.3,335.142a1.352,1.352,0,0,1-1.353,1.353h-8.19v-2.7h8.19A1.352,1.352,0,0,1,353.3,335.142Z" transform="translate(-315.257 -308.727)" fill="#f5f8f9"/>
        <path id="Trazado_995525" data-name="Trazado 995525" d="M311.838,398.38l.624,1.353-.624,1.353h-8.275a1.353,1.353,0,0,1,0-2.706Z" transform="translate(-277.229 -367.842)" fill="#40a089"/>
        <path id="Trazado_995526" data-name="Trazado 995526" d="M419.227,399.733a1.353,1.353,0,0,1-1.353,1.353H415.79V398.38h2.084A1.353,1.353,0,0,1,419.227,399.733Z" transform="translate(-381.181 -367.842)" fill="#f5f8f9"/>
      </g>
      <g id="Grupo_1160977" data-name="Grupo 1160977" transform="translate(0 30.629)">
        <path id="Trazado_995527" data-name="Trazado 995527" d="M41.381,30.629H21.18a.636.636,0,0,0,0,1.271h20.2a.748.748,0,0,1,.747.747v3.377H1.271V32.647a.748.748,0,0,1,.747-.747h16.2a.636.636,0,1,0,0-1.271H2.018A2.021,2.021,0,0,0,0,32.647v34.17a2.021,2.021,0,0,0,2.018,2.018H14.253a.636.636,0,1,0,0-1.271H2.018a.748.748,0,0,1-.747-.747V53.1H3.888a.636.636,0,1,0,0-1.271H1.271V37.3H21.064v14.53H6.855a.636.636,0,1,0,0,1.271H21.064V67.564H17.22a.636.636,0,1,0,0,1.271H41.381A2.021,2.021,0,0,0,43.4,66.818V32.647A2.021,2.021,0,0,0,41.381,30.629Zm.747,36.188a.748.748,0,0,1-.747.747H22.335V53.1H42.128Zm0-14.992H22.335V37.3H42.128Z" transform="translate(0 -30.629)"/>
        <path id="Trazado_995528" data-name="Trazado 995528" d="M66.246,135.846a6.036,6.036,0,1,0-6.036-6.036A6.043,6.043,0,0,0,66.246,135.846Zm0-1.271a4.758,4.758,0,0,1-3.769-1.855l1.677-.968a2.85,2.85,0,0,0,4.184,0l1.677.968A4.758,4.758,0,0,1,66.246,134.575Zm.636-9.485a4.761,4.761,0,0,1,3.771,6.531l-1.677-.968a2.856,2.856,0,0,0-2.094-3.626Zm.949,4.721a1.585,1.585,0,1,1-1.585-1.585A1.586,1.586,0,0,1,67.831,129.81Zm-6.349,0a4.771,4.771,0,0,1,4.129-4.721v1.937a2.856,2.856,0,0,0-2.094,3.626l-1.677.968A4.736,4.736,0,0,1,61.481,129.81Z" transform="translate(-55.106 -115.879)"/>
        <path id="Trazado_995529" data-name="Trazado 995529" d="M299.2,135.842h12.927a.636.636,0,0,0,.636-.636v-3.917a.636.636,0,0,0-1.271,0v3.281h-1.961v-9.529h1.961v3.281a.636.636,0,0,0,1.271,0v-3.917a.636.636,0,0,0-.636-.636H308.9a.636.636,0,0,0-.636.636v1.751h-2.6a.636.636,0,0,0-.636.636v1.751h-2.6a.636.636,0,0,0-.636.636v1.68h-2.6a.636.636,0,0,0-.636.636v3.711A.636.636,0,0,0,299.2,135.842Zm7.1-8.414h1.96v7.142H306.3Zm-3.232,2.387h1.96v4.755h-1.96Zm-3.232,2.316h1.96v2.439h-1.96Z" transform="translate(-273.256 -115.875)"/>
        <path id="Trazado_995530" data-name="Trazado 995530" d="M56.225,341.758a1.94,1.94,0,0,0-3.008-1.621l-1.262-1.262a1.941,1.941,0,1,0-3.493,0l-1.137,1.137a1.939,1.939,0,0,0-1.695,0l-1.137-1.137a1.942,1.942,0,1,0-.9.9l1.137,1.137a1.941,1.941,0,1,0,3.493,0l1.137-1.137a1.938,1.938,0,0,0,1.695,0l1.383,1.383a1.941,1.941,0,1,0,3.787.6ZM42.747,338.7a.67.67,0,1,1,.67-.67.671.671,0,0,1-.67.67Zm3.73,3.73a.67.67,0,1,1,.67-.67A.671.671,0,0,1,46.478,342.428Zm3.73-3.73a.67.67,0,1,1,.67-.67.671.671,0,0,1-.67.67Zm3.406,3.061a.67.67,0,1,1,.67.67A.671.671,0,0,1,53.614,341.758Z" transform="translate(-37.347 -310.194)"/>
        <path id="Trazado_995531" data-name="Trazado 995531" d="M297.673,330.264h10.359a1.988,1.988,0,1,0,0-3.977H297.673a1.988,1.988,0,0,0,0,3.977Zm2.805-2.705h7.554a.717.717,0,1,1,0,1.434h-7.554Zm-2.805,0h1.534v1.434h-1.534a.717.717,0,0,1,0-1.434Z" transform="translate(-270.621 -301.226)"/>
        <path id="Trazado_995532" data-name="Trazado 995532" d="M297.673,394.86h10.359a1.988,1.988,0,1,0,0-3.977H297.673a1.988,1.988,0,0,0,0,3.977Zm8.91-2.705h1.449a.717.717,0,1,1,0,1.434h-1.449Zm-8.91,0h7.639v1.434h-7.639a.717.717,0,0,1,0-1.434Z" transform="translate(-270.621 -360.346)"/>
        <g id="Grupo_1160976" data-name="Grupo 1160976" transform="translate(2.93 2.698)">
          <circle id="Elipse_12173" data-name="Elipse 12173" cx="0.636" cy="0.636" r="0.636"/>
          <circle id="Elipse_12174" data-name="Elipse 12174" cx="0.636" cy="0.636" r="0.636" transform="translate(2.892)"/>
          <circle id="Elipse_12175" data-name="Elipse 12175" cx="0.636" cy="0.636" r="0.636" transform="translate(5.784)"/>
        </g>
      </g>
    </g>
  </g>
</svg>
