<svg xmlns="http://www.w3.org/2000/svg" xmlns:xlink="http://www.w3.org/1999/xlink" width="108" height="108" viewBox="0 0 108 108">
  <defs>
    <filter id="Trazado_982547" x="0" y="0" width="108" height="108" filterUnits="userSpaceOnUse">
      <feOffset dy="3" input="SourceAlpha"/>
      <feGaussianBlur stdDeviation="3" result="blur"/>
      <feFlood flood-opacity="0.161"/>
      <feComposite operator="in" in2="blur"/>
      <feComposite in="SourceGraphic"/>
    </filter>
  </defs>
  <g id="Grupo_1161018" data-name="Grupo 1161018" transform="translate(-745.244 -3268.224)">
    <g id="Grupo_1160771" data-name="Grupo 1160771" transform="translate(754.244 3274.224)">
      <g id="Grupo_1149836" data-name="Grupo 1149836">
        <g id="Grupo_1149674" data-name="Grupo 1149674">
          <g id="Grupo_1148534" data-name="Grupo 1148534">
            <g id="Grupo_1147066" data-name="Grupo 1147066">
              <g transform="matrix(1, 0, 0, 1, -9, -6)" filter="url(#Trazado_982547)">
                <g id="Trazado_982547-2" data-name="Trazado 982547" transform="translate(9 6)" fill="#f6edfd">
                  <path d="M 45 88.5 C 39.12687683105469 88.5 33.43022537231445 87.35007476806641 28.06830024719238 85.08217620849609 C 22.88852500915527 82.89131164550781 18.23629951477051 79.75458526611328 14.2408504486084 75.75914764404297 C 10.24541282653809 71.76370239257812 7.108687400817871 67.11147308349609 4.917825222015381 61.93170166015625 C 2.649924993515015 56.56977462768555 1.5 50.87312316894531 1.5 45 C 1.5 39.12687683105469 2.649924993515015 33.43022537231445 4.917825222015381 28.06830024719238 C 7.108687400817871 22.88852500915527 10.24541282653809 18.23629951477051 14.2408504486084 14.2408504486084 C 18.23629951477051 10.24541282653809 22.88852500915527 7.108687400817871 28.06830024719238 4.917825222015381 C 33.43022537231445 2.649924993515015 39.12687683105469 1.5 45 1.5 C 50.87312316894531 1.5 56.56977462768555 2.649924993515015 61.93170166015625 4.917825222015381 C 67.11147308349609 7.108687400817871 71.76370239257812 10.24541282653809 75.75914764404297 14.2408504486084 C 79.75458526611328 18.23629951477051 82.89131164550781 22.88852500915527 85.08217620849609 28.06830024719238 C 87.35007476806641 33.43022537231445 88.5 39.12687683105469 88.5 45 C 88.5 50.87312316894531 87.35007476806641 56.56977462768555 85.08217620849609 61.93170166015625 C 82.89131164550781 67.11147308349609 79.75458526611328 71.76370239257812 75.75914764404297 75.75914764404297 C 71.76370239257812 79.75458526611328 67.11147308349609 82.89131164550781 61.93170166015625 85.08217620849609 C 56.56977462768555 87.35007476806641 50.87312316894531 88.5 45 88.5 Z" stroke="none"/>
                  <path d="M 45 3 C 39.32871246337891 3 33.82865524291992 4.110054016113281 28.65262985229492 6.299339294433594 C 23.65165710449219 8.414573669433594 19.15968322753906 11.44334411621094 15.301513671875 15.301513671875 C 11.44334411621094 19.15968322753906 8.414573669433594 23.65165710449219 6.299339294433594 28.65262985229492 C 4.110054016113281 33.82865524291992 3 39.32871246337891 3 45 C 3 50.67128753662109 4.110054016113281 56.17134475708008 6.299339294433594 61.34737396240234 C 8.414573669433594 66.34834289550781 11.44334411621094 70.84031677246094 15.301513671875 74.698486328125 C 19.15968322753906 78.55665588378906 23.65165710449219 81.58542633056641 28.65262985229492 83.70066070556641 C 33.82865524291992 85.88994598388672 39.32871246337891 87 45 87 C 50.67128753662109 87 56.17134475708008 85.88994598388672 61.34737396240234 83.70066070556641 C 66.34834289550781 81.58542633056641 70.84031677246094 78.55665588378906 74.698486328125 74.698486328125 C 78.55665588378906 70.84031677246094 81.58542633056641 66.34834289550781 83.70066070556641 61.34737396240234 C 85.88994598388672 56.17134475708008 87 50.67128753662109 87 45 C 87 39.32871246337891 85.88994598388672 33.82865524291992 83.70066070556641 28.65262985229492 C 81.58542633056641 23.65165710449219 78.55665588378906 19.15968322753906 74.698486328125 15.301513671875 C 70.84031677246094 11.44334411621094 66.34834289550781 8.414573669433594 61.34737396240234 6.299339294433594 C 56.17134475708008 4.110054016113281 50.67128753662109 3 45 3 M 45 0 C 69.85281372070312 0 90 20.14718627929688 90 45 C 90 69.85281372070312 69.85281372070312 90 45 90 C 20.14718627929688 90 0 69.85281372070312 0 45 C 0 20.14718627929688 20.14718627929688 0 45 0 Z" stroke="none" fill="#ac59f1"/>
                </g>
              </g>
            </g>
          </g>
        </g>
      </g>
    </g>
    <g id="idea_7_" data-name="idea (7)" transform="translate(768.956 3288.224)">
      <g id="Grupo_1161016" data-name="Grupo 1161016">
        <g id="Grupo_1160999" data-name="Grupo 1160999">
          <path id="Trazado_995554" data-name="Trazado 995554" d="M31.088,57v4h-16V57H9.168a13.243,13.243,0,0,1,2.4-6.21,13,13,0,0,1,5.02-4.17l3.5,4.38,3-2,3,2,3.61-4.34A13.057,13.057,0,0,1,34.748,51h.01a13.191,13.191,0,0,1,2.25,6Z" fill="#e6e9ed"/>
        </g>
        <g id="Grupo_1161000" data-name="Grupo 1161000">
          <path id="Trazado_995555" data-name="Trazado 995555" d="M28.088,46a14.29,14.29,0,0,1,1.61.66L26.088,51l-3-2-3,2-3.5-4.38a11,11,0,0,1,1.5-.62l5,2Z" fill="#ccd1d9"/>
        </g>
        <g id="Grupo_1161001" data-name="Grupo 1161001">
          <path id="Trazado_995556" data-name="Trazado 995556" d="M37.088,58.49V61h-6V57h5.92a14.716,14.716,0,0,1,.08,1.49Z" fill="#f0d0b4"/>
        </g>
        <g id="Grupo_1161002" data-name="Grupo 1161002">
          <path id="Trazado_995557" data-name="Trazado 995557" d="M15.088,57v4h-6V58.49A14.716,14.716,0,0,1,9.168,57Z" fill="#f0d0b4"/>
        </g>
        <g id="Grupo_1161003" data-name="Grupo 1161003">
          <path id="Trazado_995558" data-name="Trazado 995558" d="M40.328,26a3,3,0,0,1-2.24,5h-3V22.8l4.22,4.22Z" fill="#f0d0b4"/>
        </g>
        <g id="Grupo_1161004" data-name="Grupo 1161004">
          <path id="Trazado_995559" data-name="Trazado 995559" d="M27.838,45l.25,1-5,2-5-2,.93-3.71a12.02,12.02,0,0,0,8.14,0Z" fill="#f0d0b4"/>
        </g>
        <g id="Grupo_1161005" data-name="Grupo 1161005">
          <path id="Trazado_995560" data-name="Trazado 995560" d="M32.038,39c-.15.17-.3.33-.46.49A12,12,0,0,1,11.088,31V19.91l1.55.85a1.742,1.742,0,0,0,.45.17,1.792,1.792,0,0,0,.51.07h23.15a1.985,1.985,0,0,1-.32.41l-1.36,1.37.02.02V31a11.933,11.933,0,0,1-3.05,8Z" fill="#f0d0b4"/>
        </g>
        <g id="Grupo_1161006" data-name="Grupo 1161006">
          <path id="Trazado_995561" data-name="Trazado 995561" d="M11.088,25v6h-3a3,3,0,0,1,0-6Z" fill="#f0d0b4"/>
        </g>
        <g id="Grupo_1161007" data-name="Grupo 1161007">
          <path id="Trazado_995562" data-name="Trazado 995562" d="M33.088,12v3h-20V9.07A1.792,1.792,0,0,1,13.6,9h23.15a2,2,0,0,1-1.73,3Z" fill="#4fc1e9"/>
        </g>
        <g id="Grupo_1161008" data-name="Grupo 1161008">
          <path id="Trazado_995563" data-name="Trazado 995563" d="M36.748,21H13.6a1.792,1.792,0,0,1-.51-.07V15h20v3h1.93A2,2,0,0,1,36.748,21Z" fill="#ff826e"/>
        </g>
        <g id="Grupo_1161009" data-name="Grupo 1161009">
          <path id="Trazado_995564" data-name="Trazado 995564" d="M51.088,58v2a1,1,0,0,1-1,1h-2a1,1,0,0,1-1-1V58a1,1,0,0,1,1-1h2A1,1,0,0,1,51.088,58Z" fill="#ff826e"/>
        </g>
        <g id="Grupo_1161010" data-name="Grupo 1161010">
          <path id="Trazado_995565" data-name="Trazado 995565" d="M59.088,44v2a1,1,0,0,1-1,1h-2a1,1,0,0,1-1-1V44a1,1,0,0,1,1-1h2A1,1,0,0,1,59.088,44Z" fill="#ff826e"/>
        </g>
        <g id="Grupo_1161011" data-name="Grupo 1161011">
          <path id="Trazado_995566" data-name="Trazado 995566" d="M50.088,29a1,1,0,0,1,1,1v2a1,1,0,0,1-1,1h-2a1,1,0,0,1-1-1V30a1,1,0,0,1,1-1Z" fill="#ff826e"/>
        </g>
        <g id="Grupo_1161012" data-name="Grupo 1161012">
          <path id="Trazado_995567" data-name="Trazado 995567" d="M27.088,35l-.27,1.09a3.846,3.846,0,0,1-7.46,0L19.088,35Z" fill="#ff826e"/>
        </g>
        <g id="Grupo_1161013" data-name="Grupo 1161013">
          <path id="Trazado_995568" data-name="Trazado 995568" d="M13.088,15v5.93a1.742,1.742,0,0,1-.45-.17l-1.55-.85-9-4.91,10.55-5.76a1.742,1.742,0,0,1,.45-.17Z" fill="#ccd1d9"/>
        </g>
        <g id="Grupo_1161014" data-name="Grupo 1161014">
          <path id="Trazado_995569" data-name="Trazado 995569" d="M35.088,22.8l-.02-.02,1.36-1.37A1.991,1.991,0,0,0,35.018,18h-1.93V12h1.93a1.991,1.991,0,0,0,1.41-3.41l-1.36-1.37,4.24-4.24,1.37,1.36a2,2,0,0,0,3.41-1.41V1h6V2.93A2,2,0,0,0,53.5,4.34l1.37-1.36,4.24,4.24-1.36,1.37A2,2,0,0,0,59.158,12h1.93v6h-1.93a2,2,0,0,0-1.41,3.41l1.36,1.37-4.24,4.24L53.5,25.66a2,2,0,0,0-3.41,1.41V29h-6V27.07a2,2,0,0,0-3.41-1.41l-.35.34-1.02,1.02Zm20-7.8a8,8,0,1,0-8,8,8,8,0,0,0,8-8Z" fill="#ffc729"/>
        </g>
        <g id="Grupo_1161015" data-name="Grupo 1161015">
          <path id="Trazado_995570" data-name="Trazado 995570" d="M47.088,7a8,8,0,1,1-8,8A8,8,0,0,1,47.088,7Zm4,8a4,4,0,1,0-4,4A4,4,0,0,0,51.088,15Z" fill="#fcd770"/>
        </g>
      </g>
      <g id="Grupo_1161017" data-name="Grupo 1161017">
        <path id="Trazado_995571" data-name="Trazado 995571" d="M47.088,6a9,9,0,1,0,9,9A9.01,9.01,0,0,0,47.088,6Zm0,16a7,7,0,1,1,7-7A7.009,7.009,0,0,1,47.088,22Z"/>
        <path id="Trazado_995572" data-name="Trazado 995572" d="M47.088,10a5,5,0,1,0,5,5A5.006,5.006,0,0,0,47.088,10Zm0,8a3,3,0,1,1,3-3A3,3,0,0,1,47.088,18Z"/>
        <path id="Trazado_995573" data-name="Trazado 995573" d="M59.159,19h2.929V11H59.159a1,1,0,0,1-.707-1.707l2.07-2.071L54.866,1.566l-2.071,2.07a1,1,0,0,1-1.707-.707V0h-8V2.929a1,1,0,0,1-1.707.707L39.31,1.566,33.654,7.222,34.431,8H13.6a3.008,3.008,0,0,0-1.436.366L0,15l10.088,5.5V24h-2a4,4,0,0,0,0,8h2.051a13.015,13.015,0,0,0,7.7,10.883l-.589,2.355a14.14,14.14,0,0,0-9.16,13.248V62h30V58.485A14.138,14.138,0,0,0,36.513,52H47.089a1,1,0,0,1,1,1v3a2,2,0,0,0-2,2v2a2,2,0,0,0,2,2h2a2,2,0,0,0,2-2V58a2,2,0,0,0-2-2V53a3,3,0,0,0-3-3H35.257a14.119,14.119,0,0,0-4.665-4h23.5a2,2,0,0,0,2,2h2a2,2,0,0,0,2-2V44a2,2,0,0,0-2-2h-2a2,2,0,0,0-2,2H28.618l-.28-1.117A13.017,13.017,0,0,0,32.446,40H47.087a3,3,0,0,0,3-3V34a2,2,0,0,0,2-2V30a1.993,1.993,0,0,0-1-1.722V27.071a1,1,0,0,1,1.707-.707l2.071,2.07,5.656-5.656-2.07-2.071A1,1,0,0,1,59.159,19ZM50.09,60h-2V58h2Zm6-16h2v2h-2ZM40.059,27.685a2.061,2.061,0,0,1,.029.315,2,2,0,0,1-2,2h-2V25.213l3.222,3.222ZM14.088,20V16h18v3h2.929a.985.985,0,0,1,.925.617,1.153,1.153,0,0,1,.073.383Zm-2-.685-4-2.182V12.866l4-2.181Zm20-8.315v3h-18V10H36.014a1.153,1.153,0,0,1-.073.383.982.982,0,0,1-.924.617Zm-26,2.957v2.086L4.176,15ZM6.088,28a2,2,0,0,1,2-2h2v4h-2A2,2,0,0,1,6.088,28ZM28.024,47.1l-2.13,2.566L24.287,48.6ZM21.889,48.6,20.3,49.659l-2-2.5Zm-11.8,9.888c0-.163.013-.324.019-.485h3.981v2h-4Zm26,1.515h-4V58h3.981c.006.162.019.322.019.485Zm-.264-4H32.088V54.414a2.4,2.4,0,0,1,.707-1.707l-1.414-1.414a4.384,4.384,0,0,0-1.293,3.121V60h-14V54.414A4.384,4.384,0,0,0,14.8,51.293l-1.414,1.414a2.4,2.4,0,0,1,.707,1.707V56H10.352a12.133,12.133,0,0,1,5.959-8.119l3.568,4.46L23.087,50.2l3.194,2.129,3.659-4.406A12.129,12.129,0,0,1,35.824,56ZM26.907,45.4l-3.819,1.528L19.27,45.4l.463-1.851a12.6,12.6,0,0,0,6.711,0ZM23.088,42a11.013,11.013,0,0,1-11-11V21.594l.073.04A3.015,3.015,0,0,0,13.6,22H34.432l-.778.778.435.435V31A11.014,11.014,0,0,1,23.088,42Zm25-5a1,1,0,0,1-1,1H34.025a12.909,12.909,0,0,0,2.013-6h2.051a3.973,3.973,0,0,0,3.55-5.81,1.028,1.028,0,0,1,.833-.044.984.984,0,0,1,.617.925V30h3v2a2,2,0,0,0,2,2v3Zm2-5h-2V30h2Zm6.95-9.879.656.657-2.828,2.828-.657-.656a3,3,0,0,0-5.122,2.121V28h-4v-.929a3,3,0,0,0-5.122-2.121l-.657.656L36.48,22.778l.656-.657A3,3,0,0,0,35.017,17h-.929V13h.929a3,3,0,0,0,2.121-5.122l-.656-.657L39.31,4.393l.657.656a3,3,0,0,0,5.122-2.121V2h4v.929A3,3,0,0,0,54.211,5.05l.657-.656L57.7,7.222l-.656.657A3,3,0,0,0,59.159,13h.929v4h-.929a3,3,0,0,0-2.121,5.121Z"/>
        <path id="Trazado_995574" data-name="Trazado 995574" d="M20.088,27V26h-2v1a1,1,0,0,1-2,0V26h-2v1a3,3,0,0,0,6,0Z"/>
        <path id="Trazado_995575" data-name="Trazado 995575" d="M30.088,27a1,1,0,0,1-2,0V26h-2v1a3,3,0,1,0,6,0V26h-2Z"/>
        <path id="Trazado_995576" data-name="Trazado 995576" d="M18.391,36.332a4.841,4.841,0,0,0,9.394,0L28.369,34H17.807ZM25.8,36a2.843,2.843,0,0,1-5.43,0Z"/>
        <path id="Trazado_995577" data-name="Trazado 995577" d="M22.088,52h2v2h-2Z"/>
        <path id="Trazado_995578" data-name="Trazado 995578" d="M22.088,56h2v2h-2Z"/>
      </g>
    </g>
  </g>
</svg>
