<svg xmlns="http://www.w3.org/2000/svg" xmlns:xlink="http://www.w3.org/1999/xlink" width="110" height="110" viewBox="0 0 110 110">
  <defs>
    <filter id="Trazado_982547" x="-0.001" y="0" width="110" height="110" filterUnits="userSpaceOnUse">
      <feOffset dy="3" input="SourceAlpha"/>
      <feGaussianBlur stdDeviation="3" result="blur"/>
      <feFlood flood-opacity="0.161"/>
      <feComposite operator="in" in2="blur"/>
      <feComposite in="SourceGraphic"/>
    </filter>
  </defs>
  <g id="Grupo_1161083" data-name="Grupo 1161083" transform="translate(-9514.652 -6143)">
    <g id="Grupo_1160786" data-name="Grupo 1160786" transform="translate(9136.651 3814)">
      <g id="Grupo_1158890" data-name="Grupo 1158890" transform="translate(-423 -1476)">
        <g id="Grupo_1157405" data-name="Grupo 1157405" transform="translate(1 3016)">
          <g id="Grupo_1155792" data-name="Grupo 1155792" transform="translate(-1 -3894.666)">
            <g id="Grupo_1154703" data-name="Grupo 1154703" transform="translate(0 1465.666)">
              <g id="Grupo_1150789" data-name="Grupo 1150789" transform="translate(3 2320)">
                <g id="Grupo_1154212" data-name="Grupo 1154212" transform="translate(-236 -5809)">
                  <g id="Grupo_1152583" data-name="Grupo 1152583" transform="translate(1043 6713)">
                    <g id="Grupo_1146973" data-name="Grupo 1146973" transform="translate(0 0)">
                      <g id="Grupo_1146954" data-name="Grupo 1146954">
                        <g transform="matrix(1, 0, 0, 1, -9, -6)" filter="url(#Trazado_982547)">
                          <g id="Trazado_982547-2" data-name="Trazado 982547" transform="translate(9 6)" fill="#fbeaee">
                            <path d="M 46 90.49987030029297 C 39.99187850952148 90.49987030029297 34.16426849365234 89.32350921630859 28.67905426025391 87.00345611572266 C 23.38019943237305 84.76224517822266 18.62104034423828 81.55341339111328 14.53374671936035 77.46613311767578 C 10.44646644592285 73.37885284423828 7.237639904022217 68.61969757080078 4.996413230895996 63.32085418701172 C 2.676359891891479 57.83565521240234 1.5 52.008056640625 1.5 45.99993515014648 C 1.5 39.99181365966797 2.676359891891479 34.16421508789062 4.996413230895996 28.67901420593262 C 7.237639904022217 23.38017463684082 10.44646644592285 18.62101554870605 14.53374671936035 14.53373527526855 C 18.62104034423828 10.44645500183105 23.38019943237305 7.23762845993042 28.67905426025391 4.996415138244629 C 34.16426849365234 2.676361799240112 39.99187850952148 1.500001788139343 46 1.500001788139343 C 52.00812149047852 1.500001788139343 57.83573150634766 2.676361799240112 63.32094573974609 4.996415138244629 C 68.61979675292969 7.23762845993042 73.37895965576172 10.44645500183105 77.46625518798828 14.53373527526855 C 81.55353546142578 18.62101554870605 84.76235961914062 23.38017463684082 87.00358581542969 28.67901420593262 C 89.32363891601562 34.16421508789062 90.5 39.99181365966797 90.5 45.99993515014648 C 90.5 52.008056640625 89.32363891601562 57.83565521240234 87.00358581542969 63.32085418701172 C 84.76235961914062 68.61969757080078 81.55353546142578 73.37885284423828 77.46625518798828 77.46613311767578 C 73.37895965576172 81.55341339111328 68.61979675292969 84.76224517822266 63.32094573974609 87.00345611572266 C 57.83573150634766 89.32350921630859 52.00812149047852 90.49987030029297 46 90.49987030029297 Z" stroke="none"/>
                            <path d="M 46 2.999992370605469 C 40.1937141418457 2.999992370605469 34.56269836425781 4.136489868164062 29.26337051391602 6.377906799316406 C 24.14332580566406 8.543502807617188 19.54441070556641 11.64437866210938 15.59439849853516 15.59437561035156 C 11.64440155029297 19.54439544677734 8.54351806640625 24.14329528808594 6.377914428710938 29.26333618164062 C 4.136497497558594 34.56264877319336 3 40.19366455078125 3 45.99993515014648 C 3 51.80620574951172 4.136497497558594 57.43720626831055 6.377914428710938 62.73651885986328 C 8.54351806640625 67.8565673828125 11.64440155029297 72.45545959472656 15.59439849853516 76.40547943115234 C 19.54441070556641 80.35547637939453 24.14332580566406 83.45635223388672 29.26337051391602 85.6219482421875 C 34.56269836425781 87.86336517333984 40.1937141418457 88.99986267089844 46 88.99986267089844 C 51.8062858581543 88.99986267089844 57.43730163574219 87.86336517333984 62.73661422729492 85.6219482421875 C 67.85667419433594 83.45635223388672 72.45557403564453 80.35547637939453 76.40558624267578 76.40547943115234 C 80.35559844970703 72.45545959472656 83.45647430419922 67.8565673828125 85.6220703125 62.73651885986328 C 87.86350250244141 57.43720626831055 89 51.80620574951172 89 45.99993515014648 C 89 40.19366455078125 87.86350250244141 34.56264877319336 85.6220703125 29.26333618164062 C 83.45647430419922 24.14329528808594 80.35559844970703 19.54439544677734 76.40558624267578 15.59437561035156 C 72.45557403564453 11.64437866210938 67.85667419433594 8.543502807617188 62.73661422729492 6.377906799316406 C 57.43730163574219 4.136489868164062 51.8062858581543 2.999992370605469 46 2.999992370605469 M 46 -7.62939453125e-06 C 71.40509033203125 -7.62939453125e-06 92 20.59486389160156 92 45.99993515014648 C 92 71.40499114990234 71.40509033203125 91.99986267089844 46 91.99986267089844 C 20.59490203857422 91.99986267089844 0 71.40499114990234 0 45.99993515014648 C 0 20.59486389160156 20.59490203857422 -7.62939453125e-06 46 -7.62939453125e-06 Z" stroke="none" fill="#e23e64"/>
                          </g>
                        </g>
                      </g>
                    </g>
                  </g>
                </g>
              </g>
            </g>
          </g>
        </g>
      </g>
    </g>
    <g id="caso-de-uso" transform="translate(9536.945 6129.849)">
      <path id="Trazado_995659" data-name="Trazado 995659" d="M22.416,294.886l1.023,2.076a2.856,2.856,0,0,0,2.15,1.564l2.289.333a3.384,3.384,0,0,1,1.873,5.77l-1.656,1.616a2.861,2.861,0,0,0-.821,2.53l.391,2.282a3.38,3.38,0,0,1-4.9,3.566l-2.047-1.077a2.853,2.853,0,0,0-2.658,0l-2.047,1.077a3.38,3.38,0,0,1-4.9-3.566l.391-2.282a2.861,2.861,0,0,0-.821-2.53L9.02,304.629a3.384,3.384,0,0,1,1.873-5.77l2.289-.333a2.855,2.855,0,0,0,2.15-1.564l1.023-2.076A3.378,3.378,0,0,1,22.416,294.886Z" transform="translate(-6.984 -223.167)" fill="#ffe07d"/>
      <g id="Grupo_1161081" data-name="Grupo 1161081" transform="translate(9.83 69.834)">
        <path id="Trazado_995660" data-name="Trazado 995660" d="M88.748,298.864l-2.289-.333a2.855,2.855,0,0,1-2.15-1.564l-1.023-2.076a3.38,3.38,0,0,0-5.6-.7,3.32,3.32,0,0,1,1.8,1.658l1.023,2.076a2.856,2.856,0,0,0,2.15,1.564l2.289.333a3.384,3.384,0,0,1,1.873,5.77l-1.656,1.616a2.861,2.861,0,0,0-.821,2.53l.391,2.282a3.326,3.326,0,0,1-.759,2.768,3.38,3.38,0,0,0,4.556-3.724l-.391-2.282a2.861,2.861,0,0,1,.821-2.53l1.656-1.616A3.384,3.384,0,0,0,88.748,298.864Z" transform="translate(-77.685 -293.007)" fill="#ffd064"/>
      </g>
      <path id="Trazado_995661" data-name="Trazado 995661" d="M292.347,84.686H266.025A2.025,2.025,0,0,1,264,82.661V71.525a2.025,2.025,0,0,1,2.025-2.025h26.322a2.025,2.025,0,0,1,2.025,2.025V82.661A2.025,2.025,0,0,1,292.347,84.686Z" transform="translate(-230.592 -27.95)" fill="#ecf4ff"/>
      <path id="Trazado_995662" data-name="Trazado 995662" d="M461.8,69.5H458a2.025,2.025,0,0,1,2.025,2.025V82.661A2.025,2.025,0,0,1,458,84.686h3.8a2.025,2.025,0,0,0,2.025-2.025V71.525A2.025,2.025,0,0,0,461.8,69.5Z" transform="translate(-400.041 -27.95)" fill="#ddeafb"/>
      <path id="Trazado_995663" data-name="Trazado 995663" d="M414,106.587v-6.581a.506.506,0,0,1,.506-.506h6.581a.506.506,0,0,1,.506.506v6.581a.506.506,0,0,1-.506.506h-6.581A.506.506,0,0,1,414,106.587Z" transform="translate(-361.609 -54.154)" fill="#c8ea73"/>
      <path id="Trazado_995664" data-name="Trazado 995664" d="M292.347,335.186H266.025A2.025,2.025,0,0,1,264,333.161V322.025A2.025,2.025,0,0,1,266.025,320h26.322a2.025,2.025,0,0,1,2.025,2.025v11.136A2.025,2.025,0,0,1,292.347,335.186Z" transform="translate(-230.592 -246.75)" fill="#ecf4ff"/>
      <path id="Trazado_995665" data-name="Trazado 995665" d="M461.8,320H458a2.025,2.025,0,0,1,2.025,2.025v11.136A2.025,2.025,0,0,1,458,335.186h3.8a2.025,2.025,0,0,0,2.025-2.025V322.025A2.025,2.025,0,0,0,461.8,320Z" transform="translate(-400.041 -246.75)" fill="#ddeafb"/>
      <path id="Trazado_995666" data-name="Trazado 995666" d="M414,357.087v-6.581a.506.506,0,0,1,.506-.506h6.581a.506.506,0,0,1,.506.506v6.581a.506.506,0,0,1-.506.506h-6.581A.506.506,0,0,1,414,357.087Z" transform="translate(-361.609 -272.953)" fill="#75cef9"/>
      <path id="Trazado_995667" data-name="Trazado 995667" d="M43.619,139.63H30.1a2.1,2.1,0,0,1-2.1-2.1v-3.507A5.025,5.025,0,0,1,33.025,129h7.667a5.025,5.025,0,0,1,5.025,5.025v3.507A2.1,2.1,0,0,1,43.619,139.63Z" transform="translate(-24.457 -79.921)" fill="#dd4fb1"/>
      <path id="Trazado_995668" data-name="Trazado 995668" d="M102.087,129h-3.8a5.025,5.025,0,0,1,5.025,5.025v3.507a2.1,2.1,0,0,1-2.1,2.1h3.8a2.1,2.1,0,0,0,2.1-2.1v-3.507A5.025,5.025,0,0,0,102.087,129Z" transform="translate(-85.853 -79.921)" fill="#da2ea2"/>
      <path id="Trazado_995669" data-name="Trazado 995669" d="M73.352,181.045H65v-3.118a1.512,1.512,0,0,1,1.512-1.512H71.84a1.512,1.512,0,0,1,1.512,1.512Z" transform="translate(-56.775 -121.335)" fill="#ffe07d"/>
      <path id="Trazado_995670" data-name="Trazado 995670" d="M64.469,52.154V49.243a4.243,4.243,0,1,1,8.487,0v2.895a4.243,4.243,0,0,1-8.487.016Z" transform="translate(-56.311 -6.551)" fill="#ffddce"/>
      <path id="Trazado_995671" data-name="Trazado 995671" d="M84.856,45a4.223,4.223,0,0,0-1.9.448A4.242,4.242,0,0,1,85.3,49.243v2.895a4.251,4.251,0,0,1-2.351,3.8,4.248,4.248,0,0,0,6.148-3.8V49.243A4.243,4.243,0,0,0,84.856,45Z" transform="translate(-72.455 -6.551)" fill="#ffcbbe"/>
      <path id="Trazado_995672" data-name="Trazado 995672" d="M64.469,49.243v.423h8.487v-.423a4.243,4.243,0,0,0-8.487,0Z" transform="translate(-56.311 -6.551)" fill="#be694f"/>
      <path id="Trazado_995673" data-name="Trazado 995673" d="M84.9,45a4.223,4.223,0,0,0-1.9.448,4.242,4.242,0,0,1,2.345,3.795v.423h3.8v-.423A4.243,4.243,0,0,0,84.9,45Z" transform="translate(-72.497 -6.551)" fill="#aa593d"/>
      <g id="Grupo_1161082" data-name="Grupo 1161082" transform="translate(-0.001 37.5)">
        <path id="Trazado_995674" data-name="Trazado 995674" d="M20.967,291.383l-2.288-.333a1.907,1.907,0,0,1-1.436-1.044l-1.023-2.076a4.327,4.327,0,0,0-7.763,0l-1.023,2.076A1.907,1.907,0,0,1,6,291.05l-2.289.333a4.333,4.333,0,0,0-2.4,7.389l1.656,1.616c.038.037.075.076.109.116a.949.949,0,0,0,1.434-1.244c-.069-.079-.142-.157-.217-.23l-1.656-1.616a2.435,2.435,0,0,1,1.346-4.152l2.289-.333a3.8,3.8,0,0,0,2.865-2.083l1.023-2.076a2.429,2.429,0,0,1,4.358,0l1.023,2.076a3.8,3.8,0,0,0,2.865,2.083l2.288.333a2.435,2.435,0,0,1,1.347,4.152l-1.656,1.616a3.81,3.81,0,0,0-1.094,3.37l.391,2.282a2.431,2.431,0,0,1-3.526,2.566l-2.047-1.077a3.8,3.8,0,0,0-3.542,0L8.52,307.248a2.431,2.431,0,0,1-3.526-2.566l.044-.254a.949.949,0,1,0-1.871-.321l-.044.254A4.323,4.323,0,0,0,9.4,308.928l2.047-1.077a1.9,1.9,0,0,1,1.773,0l2.047,1.077a4.329,4.329,0,0,0,6.281-4.567l-.391-2.282a1.911,1.911,0,0,1,.549-1.691l1.656-1.616a4.334,4.334,0,0,0-2.4-7.39Z" transform="translate(0.001 -254.128)"/>
        <path id="Trazado_995675" data-name="Trazado 995675" d="M407,93.458v6.581a1.457,1.457,0,0,0,1.455,1.455h6.581a1.457,1.457,0,0,0,1.455-1.455V93.458A1.457,1.457,0,0,0,415.035,92h-6.581A1.457,1.457,0,0,0,407,93.458Zm1.9.443h5.695V99.6H408.9Z" transform="translate(-355.494 -85.106)"/>
        <path id="Trazado_995676" data-name="Trazado 995676" d="M305.029,93.9h5.821a.949.949,0,1,0,0-1.9h-5.821a.949.949,0,1,0,0,1.9Z" transform="translate(-265.599 -85.107)"/>
        <path id="Trazado_995677" data-name="Trazado 995677" d="M312.928,122h-7.9a.949.949,0,1,0,0,1.9h7.9a.949.949,0,1,0,0-1.9Z" transform="translate(-265.599 -111.31)"/>
        <path id="Trazado_995678" data-name="Trazado 995678" d="M312.928,152.006h-7.9a.949.949,0,1,0,0,1.9h7.9a.949.949,0,1,0,0-1.9Z" transform="translate(-265.599 -137.515)"/>
        <path id="Trazado_995679" data-name="Trazado 995679" d="M408.454,352.007h6.581a1.457,1.457,0,0,0,1.455-1.455V343.97a1.457,1.457,0,0,0-1.455-1.455h-6.581A1.457,1.457,0,0,0,407,343.97v6.581A1.457,1.457,0,0,0,408.454,352.007Zm.443-7.593h5.695v5.695H408.9Z" transform="translate(-355.494 -303.916)"/>
        <path id="Trazado_995680" data-name="Trazado 995680" d="M305.029,344.415h5.821a.949.949,0,1,0,0-1.9h-5.821a.949.949,0,1,0,0,1.9Z" transform="translate(-265.599 -303.917)"/>
        <path id="Trazado_995681" data-name="Trazado 995681" d="M305.029,374.417h7.9a.949.949,0,1,0,0-1.9h-7.9a.949.949,0,1,0,0,1.9Z" transform="translate(-265.599 -330.123)"/>
        <path id="Trazado_995682" data-name="Trazado 995682" d="M305.029,404.418h7.9a.949.949,0,1,0,0-1.9h-7.9a.949.949,0,1,0,0,1.9Z" transform="translate(-265.599 -356.327)"/>
        <path id="Trazado_995683" data-name="Trazado 995683" d="M23.544,60.66H37.065a3.05,3.05,0,0,0,3.047-3.047V54.105a5.982,5.982,0,0,0-5.3-5.936,5.167,5.167,0,0,0,.689-2.582V42.693a5.192,5.192,0,1,0-10.385,0V45.6a5.151,5.151,0,0,0,.683,2.567,5.982,5.982,0,0,0-5.3,5.935v3.507a3.05,3.05,0,0,0,3.047,3.047Zm9.988-1.9H27.078V56.593a.563.563,0,0,1,.563-.563h5.328a.563.563,0,0,1,.563.563ZM27.01,45.6V44.065H33.6v1.522a3.294,3.294,0,1,1-6.589.016ZM30.3,39.4a3.3,3.3,0,0,1,3.252,2.769h-6.5A3.3,3.3,0,0,1,30.3,39.4ZM22.4,54.105a4.081,4.081,0,0,1,4.076-4.076H27.6a5.182,5.182,0,0,0,5.4,0h1.138a4.081,4.081,0,0,1,4.076,4.076v3.507a1.15,1.15,0,0,1-1.149,1.149H35.43V56.593a2.464,2.464,0,0,0-2.461-2.461H27.64a2.464,2.464,0,0,0-2.461,2.461v2.169H23.544A1.15,1.15,0,0,1,22.4,57.613Z" transform="translate(-17.903 -37.5)"/>
        <path id="Trazado_995684" data-name="Trazado 995684" d="M244.239,79.087h12.212a2.977,2.977,0,0,0,2.974-2.974V64.976A2.977,2.977,0,0,0,256.451,62h-2.046a.949.949,0,0,0,0,1.9h2.046a1.077,1.077,0,0,1,1.076,1.076V76.113a1.077,1.077,0,0,1-1.076,1.076H230.129a1.077,1.077,0,0,1-1.076-1.076V64.976a1.077,1.077,0,0,1,1.076-1.076h19.763a.949.949,0,1,0,0-1.9H230.129a2.977,2.977,0,0,0-2.974,2.974V69.6H223.78a.949.949,0,0,0,0,1.9h3.375v4.619a2.977,2.977,0,0,0,2.974,2.974h12.212V91.953c0,.013,0,.026,0,.039L240.3,90.115a.949.949,0,0,0-1.284,1.4L241.4,93.7H230.129a2.977,2.977,0,0,0-2.974,2.974V101.3H223.78a.949.949,0,0,0,0,1.9h3.375v4.619a2.977,2.977,0,0,0,2.974,2.974h26.322a2.977,2.977,0,0,0,2.974-2.974V96.678a2.977,2.977,0,0,0-2.974-2.974H245.237l2.476-2.177A.949.949,0,1,0,246.46,90.1l-2.227,1.958a.935.935,0,0,0,.006-.106V79.087Zm13.288,17.591v11.137a1.077,1.077,0,0,1-1.076,1.076H230.129a1.077,1.077,0,0,1-1.076-1.076V96.678a1.077,1.077,0,0,1,1.076-1.076h26.322A1.077,1.077,0,0,1,257.527,96.678Z" transform="translate(-194.632 -58.901)"/>
      </g>
    </g>
  </g>
</svg>
