<svg xmlns="http://www.w3.org/2000/svg" xmlns:xlink="http://www.w3.org/1999/xlink" width="110" height="110" viewBox="0 0 110 110">
  <defs>
    <filter id="Trazado_982547" x="0" y="0" width="110" height="110" filterUnits="userSpaceOnUse">
      <feOffset dy="3" input="SourceAlpha"/>
      <feGaussianBlur stdDeviation="3" result="blur"/>
      <feFlood flood-opacity="0.161"/>
      <feComposite operator="in" in2="blur"/>
      <feComposite in="SourceGraphic"/>
    </filter>
  </defs>
  <g id="Grupo_1160960" data-name="Grupo 1160960" transform="translate(-3445 -3045)">
    <g id="Grupo_1160753" data-name="Grupo 1160753" transform="translate(2752 715)">
      <g id="Grupo_1158891" data-name="Grupo 1158891" transform="translate(-423 -1476)">
        <g id="Grupo_1157406" data-name="Grupo 1157406" transform="translate(1 3016)">
          <g id="Grupo_1155793" data-name="Grupo 1155793" transform="translate(-0.999 -3894)">
            <g id="Grupo_1154704" data-name="Grupo 1154704" transform="translate(0 1466)">
              <g id="Grupo_1150790" data-name="Grupo 1150790" transform="translate(3 2320)">
                <g id="Grupo_1154214" data-name="Grupo 1154214" transform="translate(79 -5809)">
                  <g id="Grupo_1152583" data-name="Grupo 1152583" transform="translate(1043 6713)">
                    <g id="Grupo_1146973" data-name="Grupo 1146973" transform="translate(0 0)">
                      <g id="Grupo_1146954" data-name="Grupo 1146954">
                        <g transform="matrix(1, 0, 0, 1, -9, -6)" filter="url(#Trazado_982547)">
                          <g id="Trazado_982547-2" data-name="Trazado 982547" transform="translate(9 6)" fill="#fbeaee">
                            <path d="M 46 90.49987030029297 C 39.99187850952148 90.49987030029297 34.16426849365234 89.32350921630859 28.67905426025391 87.00345611572266 C 23.38019943237305 84.76224517822266 18.62104034423828 81.55341339111328 14.53374671936035 77.46613311767578 C 10.44646644592285 73.37885284423828 7.237639904022217 68.61969757080078 4.996413230895996 63.32085418701172 C 2.676359891891479 57.83565521240234 1.5 52.008056640625 1.5 45.99993515014648 C 1.5 39.99181365966797 2.676359891891479 34.16421508789062 4.996413230895996 28.67901420593262 C 7.237639904022217 23.38017463684082 10.44646644592285 18.62101554870605 14.53374671936035 14.53373527526855 C 18.62104034423828 10.44645500183105 23.38019943237305 7.23762845993042 28.67905426025391 4.996415138244629 C 34.16426849365234 2.676361799240112 39.99187850952148 1.500001788139343 46 1.500001788139343 C 52.00812149047852 1.500001788139343 57.83573150634766 2.676361799240112 63.32094573974609 4.996415138244629 C 68.61979675292969 7.23762845993042 73.37895965576172 10.44645500183105 77.46625518798828 14.53373527526855 C 81.55353546142578 18.62101554870605 84.76235961914062 23.38017463684082 87.00358581542969 28.67901420593262 C 89.32363891601562 34.16421508789062 90.5 39.99181365966797 90.5 45.99993515014648 C 90.5 52.008056640625 89.32363891601562 57.83565521240234 87.00358581542969 63.32085418701172 C 84.76235961914062 68.61969757080078 81.55353546142578 73.37885284423828 77.46625518798828 77.46613311767578 C 73.37895965576172 81.55341339111328 68.61979675292969 84.76224517822266 63.32094573974609 87.00345611572266 C 57.83573150634766 89.32350921630859 52.00812149047852 90.49987030029297 46 90.49987030029297 Z" stroke="none"/>
                            <path d="M 46 2.999992370605469 C 40.1937141418457 2.999992370605469 34.56269836425781 4.136489868164062 29.26337051391602 6.377906799316406 C 24.14332580566406 8.543502807617188 19.54441070556641 11.64437866210938 15.59439849853516 15.59437561035156 C 11.64440155029297 19.54439544677734 8.54351806640625 24.14329528808594 6.377914428710938 29.26333618164062 C 4.136497497558594 34.56264877319336 3 40.19366455078125 3 45.99993515014648 C 3 51.80620574951172 4.136497497558594 57.43720626831055 6.377914428710938 62.73651885986328 C 8.54351806640625 67.8565673828125 11.64440155029297 72.45545959472656 15.59439849853516 76.40547943115234 C 19.54441070556641 80.35547637939453 24.14332580566406 83.45635223388672 29.26337051391602 85.6219482421875 C 34.56269836425781 87.86336517333984 40.1937141418457 88.99986267089844 46 88.99986267089844 C 51.8062858581543 88.99986267089844 57.43730163574219 87.86336517333984 62.73661422729492 85.6219482421875 C 67.85667419433594 83.45635223388672 72.45557403564453 80.35547637939453 76.40558624267578 76.40547943115234 C 80.35559844970703 72.45545959472656 83.45647430419922 67.8565673828125 85.6220703125 62.73651885986328 C 87.86350250244141 57.43720626831055 89 51.80620574951172 89 45.99993515014648 C 89 40.19366455078125 87.86350250244141 34.56264877319336 85.6220703125 29.26333618164062 C 83.45647430419922 24.14329528808594 80.35559844970703 19.54439544677734 76.40558624267578 15.59437561035156 C 72.45557403564453 11.64437866210938 67.85667419433594 8.543502807617188 62.73661422729492 6.377906799316406 C 57.43730163574219 4.136489868164062 51.8062858581543 2.999992370605469 46 2.999992370605469 M 46 -7.62939453125e-06 C 71.40509033203125 -7.62939453125e-06 92 20.59486389160156 92 45.99993515014648 C 92 71.40499114990234 71.40509033203125 91.99986267089844 46 91.99986267089844 C 20.59490203857422 91.99986267089844 0 71.40499114990234 0 45.99993515014648 C 0 20.59486389160156 20.59490203857422 -7.62939453125e-06 46 -7.62939453125e-06 Z" stroke="none" fill="#e23e64"/>
                          </g>
                        </g>
                      </g>
                    </g>
                  </g>
                </g>
              </g>
            </g>
          </g>
        </g>
      </g>
    </g>
    <g id="documentos" transform="translate(3443.6 3069)">
      <g id="Grupo_1160958" data-name="Grupo 1160958" transform="translate(33.224 0.814)">
        <path id="Trazado_995395" data-name="Trazado 995395" d="M424.886,136.5h-.008l-.325.191v5.625h4.928l.27-.23v-.72A4.88,4.88,0,0,0,424.886,136.5Z" transform="translate(-382.549 -122.408)" fill="#ffa90f"/>
        <path id="Trazado_995396" data-name="Trazado 995396" d="M155.593,8.24l-.348-.783H131.363a1.8,1.8,0,0,0-1.8,1.8v3.115l.75.615H150.33L156.9,19.38v8.137h4.678l.52-.38V14.314l-.812-.359Z" transform="translate(-119.772 -7.457)" fill="#62ddfc"/>
        <g id="Grupo_1160957" data-name="Grupo 1160957" transform="translate(9.787 0)">
          <path id="Trazado_995397" data-name="Trazado 995397" d="M135.155,9.261a1.8,1.8,0,0,1,1.8-1.8h-5.6a1.8,1.8,0,0,0-1.8,1.8v3.115l.75.615h5.6l-.75-.615V9.261Z" transform="translate(-129.559 -7.457)" fill="#00d2fc"/>
        </g>
        <path id="Trazado_995398" data-name="Trazado 995398" d="M44.818,136.5h-.1a4.787,4.787,0,0,0-4.773,4.773v.813l.472.131h4.769v-5.409Z" transform="translate(-39.945 -122.408)" fill="#ffa90f"/>
        <path id="Trazado_995399" data-name="Trazado 995399" d="M364.741,7.457V12.51a1.8,1.8,0,0,0,1.8,1.8H371.6Z" transform="translate(-329.268 -7.457)" fill="#00d2fc"/>
        <path id="Trazado_995400" data-name="Trazado 995400" d="M110.67,53.531l-.42-1.033H86.368a1.8,1.8,0,0,0-1.8,1.8V67.259l.708.708h29.892l1.943-.708v-7.9l-1.012-.472Z" transform="translate(-79.691 -47.579)" fill="#dbedff"/>
        <path id="Trazado_995401" data-name="Trazado 995401" d="M90.161,54.3a1.8,1.8,0,0,1,1.8-1.8h-5.6a1.8,1.8,0,0,0-1.8,1.8V67.258l.708.708h5.6l-.708-.708Z" transform="translate(-79.692 -47.578)" fill="#b5dcff"/>
        <path id="Trazado_995402" data-name="Trazado 995402" d="M319.746,52.5v5.053a1.8,1.8,0,0,0,1.8,1.8H326.6Z" transform="translate(-289.187 -47.579)" fill="#b5dcff"/>
        <path id="Trazado_995403" data-name="Trazado 995403" d="M367.69,12.51v-2.1l-2.949-2.949V12.51a1.8,1.8,0,0,0,1.8,1.8h2.949a1.8,1.8,0,0,1-1.8-1.8Z" transform="translate(-329.268 -7.457)" fill="#00c2fb"/>
        <path id="Trazado_995404" data-name="Trazado 995404" d="M322.695,57.551v-2.1L319.746,52.5v5.053a1.8,1.8,0,0,0,1.8,1.8H324.5A1.8,1.8,0,0,1,322.695,57.551Z" transform="translate(-289.187 -47.579)" fill="#8bcaff"/>
        <path id="Trazado_995405" data-name="Trazado 995405" d="M87.148,187.649h-47.2V220.8A1.451,1.451,0,0,0,41.4,222.25H85.7a1.451,1.451,0,0,0,1.451-1.451Z" transform="translate(-39.945 -167.969)" fill="#ffd086"/>
        <path id="Trazado_995406" data-name="Trazado 995406" d="M46.9,220.8v-33.15H39.945V220.8A1.451,1.451,0,0,0,41.4,222.25h6.957A1.451,1.451,0,0,1,46.9,220.8Z" transform="translate(-39.945 -167.969)" fill="#ffc365"/>
        <path id="Trazado_995407" data-name="Trazado 995407" d="M274.357,320H256.974a.928.928,0,0,0-.928.928v13.683a.928.928,0,0,0,.928.928h17.383a.928.928,0,0,0,.928-.928V320.93A.928.928,0,0,0,274.357,320Z" transform="translate(-232.444 -285.867)" fill="#dbedff"/>
        <path id="Trazado_995408" data-name="Trazado 995408" d="M260.408,334.613V320.93a.928.928,0,0,1,.928-.928h-4.362a.928.928,0,0,0-.928.928v13.683a.928.928,0,0,0,.928.928h4.362A.928.928,0,0,1,260.408,334.613Z" transform="translate(-232.444 -285.867)" fill="#b5dcff"/>
      </g>
      <g id="Grupo_1160959" data-name="Grupo 1160959" transform="translate(32.4 0)">
        <path id="Trazado_995409" data-name="Trazado 995409" d="M37.273,14.142A5.6,5.6,0,0,0,32.4,19.686V53.649a2.272,2.272,0,0,0,2.27,2.27h44.3a2.272,2.272,0,0,0,2.27-2.27V38.823a.819.819,0,1,0-1.638,0V53.649a.632.632,0,0,1-.631.631H34.67a.632.632,0,0,1-.631-.631V21.318H79.6V35a.819.819,0,1,0,1.638,0V19.778a5.693,5.693,0,0,0-4.873-5.626V7.676a.823.823,0,0,0-.24-.579L69.271.24A.827.827,0,0,0,68.692,0H44.811a2.626,2.626,0,0,0-2.623,2.623v2.3H39.9a2.626,2.626,0,0,0-2.623,2.623Zm0,5.538H34.038A3.961,3.961,0,0,1,37.273,15.8Zm39.1-3.866A4.054,4.054,0,0,1,79.6,19.68H76.368ZM69.511,2.8l4.061,4.061H70.5a.986.986,0,0,1-.985-.985ZM43.825,2.623a.986.986,0,0,1,.985-.985H67.873V5.872A2.626,2.626,0,0,0,70.5,8.5H74.73V19.68H71.454V12.6a.823.823,0,0,0-.24-.579L64.357,5.159a.829.829,0,0,0-.579-.24H43.825Zm24.832,9.153H65.582a.986.986,0,0,1-.985-.985V7.716ZM38.911,7.543a.986.986,0,0,1,.985-.985H62.959v4.234a2.626,2.626,0,0,0,2.623,2.623h4.234V19.68h-30.9Z" transform="translate(-32.4 0)"/>
        <path id="Trazado_995410" data-name="Trazado 995410" d="M295.977,425.126H284.4a.819.819,0,1,0,0,1.638h11.577a.819.819,0,1,0,0-1.638Z" transform="translate(-256.148 -378.696)"/>
        <path id="Trazado_995411" data-name="Trazado 995411" d="M295.977,397.5H284.4a.819.819,0,1,0,0,1.638h11.577a.819.819,0,1,0,0-1.638Z" transform="translate(-256.148 -354.086)"/>
        <path id="Trazado_995412" data-name="Trazado 995412" d="M295.977,369.873H284.4a.819.819,0,1,0,0,1.638h11.577a.819.819,0,1,0,0-1.638Z" transform="translate(-256.148 -329.477)"/>
        <path id="Trazado_995413" data-name="Trazado 995413" d="M295.977,342.246H284.4a.819.819,0,1,0,0,1.638h11.577a.819.819,0,1,0,0-1.638Z" transform="translate(-256.148 -304.867)"/>
        <path id="Trazado_995414" data-name="Trazado 995414" d="M141.942,149.617H119.409a.819.819,0,1,0,0,1.638h22.533a.819.819,0,0,0,0-1.638Z" transform="translate(-109.177 -133.276)"/>
        <path id="Trazado_995415" data-name="Trazado 995415" d="M119.408,123.629h18.966a.819.819,0,1,0,0-1.638H119.408a.819.819,0,0,0,0,1.638Z" transform="translate(-109.176 -108.668)"/>
        <path id="Trazado_995416" data-name="Trazado 995416" d="M257.028,312.545h-6.78a1.75,1.75,0,0,0-1.747,1.747v13.683a1.75,1.75,0,0,0,1.747,1.747H267.63a1.75,1.75,0,0,0,1.747-1.747V314.292a1.75,1.75,0,0,0-1.747-1.747h-6.78a.819.819,0,1,0,0,1.638h6.78a.109.109,0,0,1,.109.109v13.683a.109.109,0,0,1-.109.109H250.247a.109.109,0,0,1-.109-.109V314.292a.109.109,0,0,1,.109-.109h6.78a.819.819,0,0,0,0-1.638Z" transform="translate(-224.899 -278.41)"/>
      </g>
    </g>
  </g>
</svg>
