<svg xmlns="http://www.w3.org/2000/svg" xmlns:xlink="http://www.w3.org/1999/xlink" width="98" height="98" viewBox="0 0 98 98">
  <defs>
    <filter id="Trazado_982548" x="0" y="0" width="98" height="98" filterUnits="userSpaceOnUse">
      <feOffset dy="3" input="SourceAlpha"/>
      <feGaussianBlur stdDeviation="3" result="blur"/>
      <feFlood flood-opacity="0.161"/>
      <feComposite operator="in" in2="blur"/>
      <feComposite in="SourceGraphic"/>
    </filter>
  </defs>
  <g id="Grupo_1160971" data-name="Grupo 1160971" transform="translate(-604 -2251)">
    <g id="Grupo_1160768" data-name="Grupo 1160768" transform="translate(105 1402)">
      <g id="Grupo_1154394" data-name="Grupo 1154394" transform="translate(-113 -1247)">
        <g id="Grupo_1149898" data-name="Grupo 1149898" transform="translate(0 -2463)">
          <g id="Grupo_1149695" data-name="Grupo 1149695" transform="translate(411 4104)">
            <g id="Grupo_1149263" data-name="Grupo 1149263" transform="translate(210 461)">
              <g transform="matrix(1, 0, 0, 1, -9, -6)" filter="url(#Trazado_982548)">
                <g id="Trazado_982548-2" data-name="Trazado 982548" transform="translate(9 6)" fill="#f6edfd">
                  <path d="M 40 78.5 C 34.80187606811523 78.5 29.76003265380859 77.48227691650391 25.01452255249023 75.47509765625 C 20.43014526367188 73.53606414794922 16.31264495849609 70.75986480712891 12.77638912200928 67.22360992431641 C 9.240133285522461 63.68735504150391 6.46393346786499 59.56985473632812 4.524899959564209 54.98547744750977 C 2.517722129821777 50.23996734619141 1.5 45.19812393188477 1.5 40 C 1.5 34.80187606811523 2.517722129821777 29.76003265380859 4.524899959564209 25.01452255249023 C 6.46393346786499 20.43014526367188 9.240133285522461 16.31264495849609 12.77638912200928 12.77638912200928 C 16.31264495849609 9.240133285522461 20.43014526367188 6.46393346786499 25.01452255249023 4.524899959564209 C 29.76003265380859 2.517722129821777 34.80187606811523 1.5 40 1.5 C 45.19812393188477 1.5 50.23996734619141 2.517722129821777 54.98547744750977 4.524899959564209 C 59.56985473632812 6.46393346786499 63.68735504150391 9.240133285522461 67.22360992431641 12.77638912200928 C 70.75986480712891 16.31264495849609 73.53606414794922 20.43014526367188 75.47509765625 25.01452255249023 C 77.48227691650391 29.76003265380859 78.5 34.80187606811523 78.5 40 C 78.5 45.19812393188477 77.48227691650391 50.23996734619141 75.47509765625 54.98547744750977 C 73.53606414794922 59.56985473632812 70.75986480712891 63.68735504150391 67.22360992431641 67.22360992431641 C 63.68735504150391 70.75986480712891 59.56985473632812 73.53606414794922 54.98547744750977 75.47509765625 C 50.23996734619141 77.48227691650391 45.19812393188477 78.5 40 78.5 Z" stroke="none"/>
                  <path d="M 40 3 C 35.00370788574219 3 30.15846633911133 3.977851867675781 25.59885406494141 5.906410217285156 C 21.19326782226562 7.769813537597656 17.23602676391602 10.43806457519531 13.83704376220703 13.83705139160156 C 10.43806457519531 17.23603820800781 7.769813537597656 21.19327926635742 5.906410217285156 25.59885406494141 C 3.977851867675781 30.15846633911133 3 35.00370788574219 3 40 C 3 44.99629211425781 3.977851867675781 49.84153366088867 5.906410217285156 54.40114593505859 C 7.769813537597656 58.80672073364258 10.43806457519531 62.76396179199219 13.83704376220703 66.16294860839844 C 17.23602676391602 69.56193542480469 21.19326782226562 72.23018646240234 25.59885406494141 74.09358978271484 C 30.15846633911133 76.02214813232422 35.00370788574219 77 40 77 C 44.99629211425781 77 49.84153366088867 76.02214813232422 54.40114593505859 74.09358978271484 C 58.80672073364258 72.23018646240234 62.76396179199219 69.56193542480469 66.16294860839844 66.16294860839844 C 69.56193542480469 62.76396179199219 72.23018646240234 58.80672073364258 74.09358978271484 54.40114593505859 C 76.02214813232422 49.84153366088867 77 44.99629211425781 77 40 C 77 35.00370788574219 76.02214813232422 30.15846633911133 74.09358978271484 25.59885406494141 C 72.23018646240234 21.19327926635742 69.56193542480469 17.23603820800781 66.16294860839844 13.83705139160156 C 62.76396179199219 10.43806457519531 58.80672073364258 7.769813537597656 54.40114593505859 5.906410217285156 C 49.84153366088867 3.977851867675781 44.99629211425781 3 40 3 M 40 0 C 62.09138488769531 0 80 17.90861511230469 80 40 C 80 62.09138488769531 62.09138488769531 80 40 80 C 17.90859985351562 80 0 62.09138488769531 0 40 C 0 17.90861511230469 17.90859985351562 0 40 0 Z" stroke="none" fill="#ac59f1"/>
                </g>
              </g>
            </g>
          </g>
        </g>
      </g>
    </g>
    <g id="visual" transform="translate(631 2275.001)">
      <path id="Trazado_995481" data-name="Trazado 995481" d="M129.836,123.532l-6.19,6.189L97.6,103.67a.921.921,0,0,1,0-1.3l4.886-4.887a.922.922,0,0,1,1.3,0Zm0,0" transform="translate(-88.999 -88.896)" fill="#c4946c"/>
      <path id="Trazado_995482" data-name="Trazado 995482" d="M411.939,411.825a4.377,4.377,0,0,1-6.19,0l-.749-.749,6.19-6.189.749.749A4.377,4.377,0,0,1,411.939,411.825Zm0,0" transform="translate(-370.352 -370.25)" fill="#a8704a"/>
      <path id="Trazado_995483" data-name="Trazado 995483" d="M139.863,97.482l26.052,26.052-1.815,1.815L138.047,99.3a.922.922,0,0,0-1.269-.033l1.782-1.782a.921.921,0,0,1,1.3,0Zm0,0" transform="translate(-125.077 -88.896)" fill="#a8704a"/>
      <path id="Trazado_995484" data-name="Trazado 995484" d="M16.654,21.606,21.54,16.72l-.612-3.28a.855.855,0,0,0-.667-.681l-8.274-1.717a.856.856,0,0,0-1.012,1.012l1.717,8.274a.855.855,0,0,0,.681.667Zm0,0" transform="translate(-10.02 -10.082)" fill="#747a89"/>
      <path id="Trazado_995485" data-name="Trazado 995485" d="M20.932,13.447l.612,3.28-1.815,1.815h0l-.612-3.279a.855.855,0,0,0-.667-.681l-7.261-1.507-.21-1.013a.855.855,0,0,1,1.012-1.011l8.274,1.717a.855.855,0,0,1,.667.681Zm0,0" transform="translate(-10.023 -10.088)" fill="#525663"/>
      <path id="Trazado_995486" data-name="Trazado 995486" d="M77.539,82.5l4.886-4.886,1.955,1.955-4.886,4.886Zm0,0" transform="translate(-70.906 -70.972)" fill="#d8d8d8"/>
      <path id="Trazado_995487" data-name="Trazado 995487" d="M115.264,77.613l1.955,1.955-1.774,1.773-.034.033-.008.008-1.954-1.954Zm0,0" transform="translate(-103.744 -70.975)" fill="#afafaf"/>
      <path id="Trazado_995488" data-name="Trazado 995488" d="M457.955,404.891l.749.749a4.379,4.379,0,0,1-1.043,6.961,4.378,4.378,0,0,0-.772-5.147l-.749-.749Zm0,0" transform="translate(-417.117 -370.254)" fill="#845036"/>
      <path id="Trazado_995489" data-name="Trazado 995489" d="M88.649,37.434l6.19,6.19L65.5,72.96l-6.19-6.19Zm0,0" transform="translate(-54.238 -34.232)" fill="#f2d67c"/>
      <path id="Trazado_995490" data-name="Trazado 995490" d="M97,39.252,68.268,67.985,66.453,66.17,95.18,37.438Zm0,0" transform="translate(-60.768 -34.236)" fill="#e2b061"/>
      <path id="Trazado_995491" data-name="Trazado 995491" d="M148.066,104.877l-28.732,28.732-1.815-1.815L144.9,104.418a4.585,4.585,0,0,0,1.44.338Zm0,0" transform="translate(-107.465 -95.486)" fill="#e2b061"/>
      <path id="Trazado_995492" data-name="Trazado 995492" d="M11.649,398.4l-3.583-3.583a1.842,1.842,0,0,1,0-2.606l3.146-3.146,6.19,6.19L14.255,398.4a1.842,1.842,0,0,1-2.606,0Zm0,0" transform="translate(-6.882 -355.784)" fill="#ea9292"/>
      <path id="Trazado_995493" data-name="Trazado 995493" d="M42.075,442.014l-3.146,3.146a1.843,1.843,0,0,1-2.606,0l-1.815-1.815a1.843,1.843,0,0,0,2.606,0L40.26,440.2Zm0,0" transform="translate(-31.556 -402.541)" fill="#e56363"/>
      <path id="Trazado_995494" data-name="Trazado 995494" d="M410.939,8.716l-2.512,7.536-1.731-.121A4.607,4.607,0,0,1,402.434,12l-.2-1.936,7.536-2.512a.921.921,0,0,1,1.165,1.165Zm0,0" transform="translate(-367.827 -6.862)" fill="#f7e1aa"/>
      <path id="Trazado_995495" data-name="Trazado 995495" d="M440.7,44.191l-1.73-.121a4.585,4.585,0,0,1-1.44-.338l.713-.713a3.851,3.851,0,0,0,.93-1.5l1.154-3.46a3.176,3.176,0,0,0,2.046,1.121Zm0,0" transform="translate(-400.097 -34.8)" fill="#eabf68"/>
      <path id="Trazado_995496" data-name="Trazado 995496" d="M464.581,8.717l-.84,2.52A3.44,3.44,0,0,1,460.9,8.391l2.518-.839A.921.921,0,0,1,464.581,8.717Zm0,0" transform="translate(-421.468 -6.862)" fill="#747a89"/>
      <path id="Trazado_995497" data-name="Trazado 995497" d="M43.864,375.573l-7.1-7.1a.461.461,0,0,1,0-.652l1.3-1.3a.46.46,0,0,1,.652,0l7.1,7.1a.461.461,0,0,1,0,.652l-1.3,1.3A.461.461,0,0,1,43.864,375.573Zm0,0" transform="translate(-33.494 -335.039)" fill="#d8d8d8"/>
      <path id="Trazado_995498" data-name="Trazado 995498" d="M103.777,432.221l-1.3,1.3a.461.461,0,0,1-.652,0l-1.815-1.815a.461.461,0,0,0,.651,0l1.3-1.3a.461.461,0,0,0,0-.652l1.815,1.815A.461.461,0,0,1,103.777,432.221Zm0,0" transform="translate(-91.452 -392.99)" fill="#afafaf"/>
      <path id="Trazado_995499" data-name="Trazado 995499" d="M472.261,11.235a3.173,3.173,0,0,1-2.046-1.121l.231-.694.516-1.546.973-.325h0a.937.937,0,0,1,.2-.043l.066,0a.6.6,0,0,1,.065,0c.021,0,.043,0,.063,0h0a1.013,1.013,0,0,1,.123.023.935.935,0,0,1,.666.666.894.894,0,0,1,.019.093c0,.031.007.063.009.1a.932.932,0,0,1-.048.331Zm0,0" transform="translate(-429.988 -6.86)" fill="#525663"/>
      <path id="Trazado_995500" data-name="Trazado 995500" d="M98.121,136.664c0,5.221-7.3,11.164-16.3,11.164s-16.3-5.943-16.3-11.164,7.3-11.164,16.3-11.164S98.121,131.443,98.121,136.664Zm0,0" transform="translate(-59.921 -114.765)" fill="#e8e8e8"/>
      <path id="Trazado_995501" data-name="Trazado 995501" d="M258.6,136.665c0,5.221-7.3,11.164-16.3,11.164q-.648,0-1.283-.04c8.4-.529,15.014-6.153,15.014-11.124s-6.613-10.6-15.014-11.124q.636-.04,1.283-.04c9,0,16.3,5.943,16.3,11.164Zm0,0" transform="translate(-220.403 -114.765)" fill="#c4c4c4"/>
      <path id="Trazado_995502" data-name="Trazado 995502" d="M190.958,184.216a6.715,6.715,0,1,1-6.716-6.716A6.716,6.716,0,0,1,190.958,184.216Zm0,0" transform="translate(-162.339 -162.316)" fill="#aac9e2"/>
      <path id="Trazado_995503" data-name="Trazado 995503" d="M230.742,228.109a2.609,2.609,0,1,1-2.609-2.609A2.609,2.609,0,0,1,230.742,228.109Zm0,0" transform="translate(-206.229 -206.21)" fill="#525663"/>
      <path id="Trazado_995504" data-name="Trazado 995504" d="M177.361,170a7.357,7.357,0,1,0,7.357,7.357A7.365,7.365,0,0,0,177.361,170Zm0,13.432a6.074,6.074,0,1,1,6.074-6.074A6.081,6.081,0,0,1,177.361,183.428Zm0,0" transform="translate(-155.46 -155.454)"/>
      <path id="Trazado_995505" data-name="Trazado 995505" d="M221.255,218a3.251,3.251,0,1,0,3.251,3.251A3.255,3.255,0,0,0,221.255,218Zm0,5.219a1.968,1.968,0,1,1,1.968-1.968A1.97,1.97,0,0,1,221.255,223.215Zm0,0" transform="translate(-199.354 -199.348)"/>
      <path id="Trazado_995506" data-name="Trazado 995506" d="M41.039,9.857a.644.644,0,0,0,.17-.264L43.72,2.057A1.563,1.563,0,0,0,41.743.08L34.207,2.592a.653.653,0,0,0-.251.155l-7.781,7.781a21.208,21.208,0,0,0-8.541,0l-2.4-2.4a1.565,1.565,0,0,0-1.67-.351L12.112,6.324,11.537,3.24A1.492,1.492,0,0,0,10.37,2.049L2.1.331A1.5,1.5,0,0,0,.325,2.1l1.717,8.274a1.492,1.492,0,0,0,1.192,1.168l3.084.575,1.462,1.463a1.564,1.564,0,0,0,.359,1.647l.095.095A9.6,9.6,0,0,0,4.962,21.9a9.592,9.592,0,0,0,3.269,6.573L5.677,31.026l0,0a1.1,1.1,0,0,0-1.559,0l-1.3,1.3a1.1,1.1,0,0,0,0,1.559l0,0L.728,35.975a2.484,2.484,0,0,0,0,3.514l3.583,3.584a2.484,2.484,0,0,0,3.514,0l2.087-2.087,0,0a1.1,1.1,0,0,0,1.559,0l1.3-1.3a1.1,1.1,0,0,0,0-1.559l0,0,4.853-4.853a21.2,21.2,0,0,0,8.554,0l3.4,3.4a.642.642,0,1,0,.907-.907L27.64,32.913A19.547,19.547,0,0,0,33.8,29.959q.424-.307.816-.632l5.31,5.31-5.282,5.282-2.04-2.041a.642.642,0,0,0-.907.907l3.244,3.244a5.018,5.018,0,1,0,7.1-7.1l-6.463-6.464A9.59,9.59,0,0,0,38.84,21.9a9.593,9.593,0,0,0-3.269-6.573l5.451-5.451.016-.018c.076-.071-.005.006,0,0Zm.093,31.265a3.739,3.739,0,0,1-5.282,0l-.3-.3,5.282-5.282.3.3A3.739,3.739,0,0,1,41.132,41.122ZM42.149,1.3a.28.28,0,0,1,.354.354l-.655,1.965A2.672,2.672,0,0,1,40.2,1.946ZM38.985,2.352a3.991,3.991,0,0,0,2.458,2.481L40.148,8.716,38.914,8.63a3.956,3.956,0,0,1-3.669-3.557L35.1,3.647Zm-8.708,9.477L34.7,7.4a5.239,5.239,0,0,0,1.606,1.661l-3.875,3.875A19.325,19.325,0,0,0,30.277,11.829ZM33.908,4.61l.06.591a5.3,5.3,0,0,0,.182.94l-5.17,5.17q-.662-.237-1.344-.428ZM3.3,10.115,1.582,1.841a.215.215,0,0,1,.207-.258c.015,0,8.321,1.722,8.321,1.722a.213.213,0,0,1,.167.17l.55,2.948L6.417,10.831l-2.947-.55a.213.213,0,0,1-.17-.167Zm6.229-.58,1.99-1.99,1.047,1.047L8.586,12.571,7.539,11.524ZM9.048,14.32a.28.28,0,0,1,0-.4l4.887-4.887a.28.28,0,0,1,.4,0l1.844,1.844A19.557,19.557,0,0,0,10,13.84q-.42.3-.808.625Zm.14,15.01q.391.322.812.629l.194.138L7.471,32.82l-.886-.887Zm-.81,4.4,2.913-2.913a19.259,19.259,0,0,0,2.148,1.118l-3.428,3.429Zm2.316,6.225-3.3-3.3a.642.642,0,0,0-.907.907L9,40.078,6.917,42.165a1.2,1.2,0,0,1-1.7,0L1.635,38.582a1.2,1.2,0,0,1,0-1.7L3.723,34.8l.647.647a.642.642,0,0,0,.908-.907L3.848,33.106,4.9,32.059l.327.327h0l6.188,6.188h0l.327.327Zm1.173-2.736-.948-.948,3.815-3.815q.706.257,1.434.462ZM37.557,21.9c0,2.349-1.685,4.974-4.508,7.021a19.089,19.089,0,0,1-11.147,3.5,19.09,19.09,0,0,1-11.148-3.5C7.931,26.873,6.245,24.248,6.245,21.9s1.686-4.974,4.508-7.02a19.09,19.09,0,0,1,11.148-3.5,19.089,19.089,0,0,1,11.147,3.5C35.872,16.926,37.557,19.55,37.557,21.9ZM33.8,13.84c-.088-.064-.176-.126-.266-.188l3.911-3.911a.646.646,0,0,0,.074-.09,5.285,5.285,0,0,0,1.3.259l.326.023-4.536,4.536q-.391-.322-.813-.629Zm0,0" transform="translate(0 0)"/>
      <path id="Trazado_995507" data-name="Trazado 995507" d="M59,57.271a1.283,1.283,0,1,0,0,1.815,1.285,1.285,0,0,0,0-1.815Zm0,0" transform="translate(-51.953 -52.029)"/>
    </g>
  </g>
</svg>
