<svg xmlns="http://www.w3.org/2000/svg" xmlns:xlink="http://www.w3.org/1999/xlink" width="108" height="108" viewBox="0 0 108 108">
  <defs>
    <filter id="Trazado_982547" x="0" y="0" width="108" height="108" filterUnits="userSpaceOnUse">
      <feOffset dy="3" input="SourceAlpha"/>
      <feGaussianBlur stdDeviation="3" result="blur"/>
      <feFlood flood-opacity="0.161"/>
      <feComposite operator="in" in2="blur"/>
      <feComposite in="SourceGraphic"/>
    </filter>
  </defs>
  <g id="Grupo_1160909" data-name="Grupo 1160909" transform="translate(-588 -3438)">
    <g id="Grupo_1160642" data-name="Grupo 1160642" transform="translate(0 2554)">
      <g id="Grupo_1149836" data-name="Grupo 1149836" transform="translate(0 -3975)">
        <g id="Grupo_1149674" data-name="Grupo 1149674" transform="translate(-158 -2821)">
          <g id="Grupo_1148534" data-name="Grupo 1148534" transform="translate(156 4253)">
            <g id="Grupo_1147066" data-name="Grupo 1147066" transform="translate(-26 -556)">
              <g transform="matrix(1, 0, 0, 1, 616, 3983)" filter="url(#Trazado_982547)">
                <g id="Trazado_982547-2" data-name="Trazado 982547" transform="translate(9 6)" fill="#f6edfd">
                  <path d="M 45 88.5 C 39.12687683105469 88.5 33.43022537231445 87.35007476806641 28.06830024719238 85.08217620849609 C 22.88852500915527 82.89131164550781 18.23629951477051 79.75458526611328 14.2408504486084 75.75914764404297 C 10.24541282653809 71.76370239257812 7.108687400817871 67.11147308349609 4.917825222015381 61.93170166015625 C 2.649924993515015 56.56977462768555 1.5 50.87312316894531 1.5 45 C 1.5 39.12687683105469 2.649924993515015 33.43022537231445 4.917825222015381 28.06830024719238 C 7.108687400817871 22.88852500915527 10.24541282653809 18.23629951477051 14.2408504486084 14.2408504486084 C 18.23629951477051 10.24541282653809 22.88852500915527 7.108687400817871 28.06830024719238 4.917825222015381 C 33.43022537231445 2.649924993515015 39.12687683105469 1.5 45 1.5 C 50.87312316894531 1.5 56.56977462768555 2.649924993515015 61.93170166015625 4.917825222015381 C 67.11147308349609 7.108687400817871 71.76370239257812 10.24541282653809 75.75914764404297 14.2408504486084 C 79.75458526611328 18.23629951477051 82.89131164550781 22.88852500915527 85.08217620849609 28.06830024719238 C 87.35007476806641 33.43022537231445 88.5 39.12687683105469 88.5 45 C 88.5 50.87312316894531 87.35007476806641 56.56977462768555 85.08217620849609 61.93170166015625 C 82.89131164550781 67.11147308349609 79.75458526611328 71.76370239257812 75.75914764404297 75.75914764404297 C 71.76370239257812 79.75458526611328 67.11147308349609 82.89131164550781 61.93170166015625 85.08217620849609 C 56.56977462768555 87.35007476806641 50.87312316894531 88.5 45 88.5 Z" stroke="none"/>
                  <path d="M 45 3 C 39.32871246337891 3 33.82865524291992 4.110054016113281 28.65262985229492 6.299339294433594 C 23.65165710449219 8.414573669433594 19.15968322753906 11.44334411621094 15.301513671875 15.301513671875 C 11.44334411621094 19.15968322753906 8.414573669433594 23.65165710449219 6.299339294433594 28.65262985229492 C 4.110054016113281 33.82865524291992 3 39.32871246337891 3 45 C 3 50.67128753662109 4.110054016113281 56.17134475708008 6.299339294433594 61.34737396240234 C 8.414573669433594 66.34834289550781 11.44334411621094 70.84031677246094 15.301513671875 74.698486328125 C 19.15968322753906 78.55665588378906 23.65165710449219 81.58542633056641 28.65262985229492 83.70066070556641 C 33.82865524291992 85.88994598388672 39.32871246337891 87 45 87 C 50.67128753662109 87 56.17134475708008 85.88994598388672 61.34737396240234 83.70066070556641 C 66.34834289550781 81.58542633056641 70.84031677246094 78.55665588378906 74.698486328125 74.698486328125 C 78.55665588378906 70.84031677246094 81.58542633056641 66.34834289550781 83.70066070556641 61.34737396240234 C 85.88994598388672 56.17134475708008 87 50.67128753662109 87 45 C 87 39.32871246337891 85.88994598388672 33.82865524291992 83.70066070556641 28.65262985229492 C 81.58542633056641 23.65165710449219 78.55665588378906 19.15968322753906 74.698486328125 15.301513671875 C 70.84031677246094 11.44334411621094 66.34834289550781 8.414573669433594 61.34737396240234 6.299339294433594 C 56.17134475708008 4.110054016113281 50.67128753662109 3 45 3 M 45 0 C 69.85281372070312 0 90 20.14718627929688 90 45 C 90 69.85281372070312 69.85281372070312 90 45 90 C 20.14718627929688 90 0 69.85281372070312 0 45 C 0 20.14718627929688 20.14718627929688 0 45 0 Z" stroke="none" fill="#ac59f1"/>
                </g>
              </g>
            </g>
          </g>
        </g>
      </g>
    </g>
    <g id="proceso_1_" data-name="proceso (1)" transform="translate(610.78 3459)">
      <g id="Grupo_1160907" data-name="Grupo 1160907" transform="translate(2.105 0.885)">
        <path id="Trazado_995263" data-name="Trazado 995263" d="M377.014,7.5a7.9,7.9,0,0,0-6.16,12.686l5.559,7.141a.931.931,0,0,0,1.469,0l5.559-7.141A7.9,7.9,0,0,0,377.014,7.5Z" transform="translate(-326.723 -7.501)" fill="#ff6470"/>
        <path id="Trazado_995264" data-name="Trazado 995264" d="M432.974,16.8a7.869,7.869,0,0,1-1.611,4.783l-5.559,7.14a.931.931,0,0,1-1.47,0l-.762-.979,5.5-7.064a7.905,7.905,0,0,0-2.287-11.6,7.907,7.907,0,0,1,6.19,7.717Z" transform="translate(-374.645 -8.898)" fill="#ff4555"/>
        <circle id="Elipse_12146" data-name="Elipse 12146" cx="3.954" cy="3.954" r="3.954" transform="translate(46.47 3.95)" fill="#fff6ec"/>
        <path id="Trazado_995265" data-name="Trazado 995265" d="M420.8,45.011a3.954,3.954,0,0,1-6.551,2.983c.091.006.182.009.274.009a3.954,3.954,0,0,0,2.6-6.938A3.955,3.955,0,0,1,420.8,45.011Z" transform="translate(-366.423 -37.107)" fill="#fff1da"/>
        <path id="Trazado_995266" data-name="Trazado 995266" d="M241.008,469.195a4.489,4.489,0,0,1-4.489-4.489v-.231H245.5v.231A4.489,4.489,0,0,1,241.008,469.195Z" transform="translate(-209.653 -410.578)" fill="#9baebc"/>
        <path id="Trazado_995267" data-name="Trazado 995267" d="M263.67,464.469v.232a4.491,4.491,0,0,1-6.548,3.99,4.489,4.489,0,0,0,3.966-4.222Z" transform="translate(-227.826 -410.574)" fill="#889daa"/>
        <path id="Trazado_995268" data-name="Trazado 995268" d="M172.707,123.394a13.745,13.745,0,0,0-13.784,13.628,13.6,13.6,0,0,0,3.813,9.472l1.032,1.138a17.425,17.425,0,0,1,4.517,11.7v.075h8.845v-.075a17.425,17.425,0,0,1,4.517-11.7l1.032-1.138a13.6,13.6,0,0,0,3.813-9.472A13.745,13.745,0,0,0,172.707,123.394Z" transform="translate(-141.208 -109.725)" fill="#ffe54c"/>
        <path id="Trazado_995269" data-name="Trazado 995269" d="M302.056,137.68a13.6,13.6,0,0,1-3.813,9.472l-1.032,1.137a17.429,17.429,0,0,0-4.516,11.7v.075h-2.359V159.5a17.427,17.427,0,0,1,4.516-11.7l1.032-1.138a13.6,13.6,0,0,0,3.813-9.471,13.771,13.771,0,0,0-9.756-13.052A13.763,13.763,0,0,1,302.056,137.68Z" transform="translate(-256.774 -110.383)" fill="#ffd500"/>
        <path id="Trazado_995270" data-name="Trazado 995270" d="M226.286,433H213.732a1.02,1.02,0,0,1-1.02-1.02v-2.169a1.02,1.02,0,0,1,1.02-1.02h12.555a1.02,1.02,0,0,1,1.02,1.02v2.169A1.02,1.02,0,0,1,226.286,433Z" transform="translate(-188.653 -379.101)" fill="#889daa"/>
        <path id="Trazado_995271" data-name="Trazado 995271" d="M311.182,429.808v2.169a1.02,1.02,0,0,1-1.02,1.019H307.8a1.02,1.02,0,0,0,1.02-1.019v-2.169a1.02,1.02,0,0,0-1.02-1.02h2.359A1.02,1.02,0,0,1,311.182,429.808Z" transform="translate(-272.529 -379.101)" fill="#728d9a"/>
        <path id="Trazado_995272" data-name="Trazado 995272" d="M241.294,165.172l-4.513,8.208a.537.537,0,0,0,.47.8h2.587a.537.537,0,0,1,.528.632l-.881,4.9a.537.537,0,0,0,.974.394l5.372-8.013a.537.537,0,0,0-.446-.836h-3.361a.537.537,0,0,1-.53-.62l.8-5.121A.537.537,0,0,0,241.294,165.172Z" transform="translate(-209.825 -146.329)" fill="#00d6a0"/>
        <path id="Trazado_995273" data-name="Trazado 995273" d="M259.965,172.092l-5.372,8.013a.537.537,0,0,1-.974-.394l.25-1.388,3.213-4.793a.537.537,0,0,0-.446-.836h-3.361a.536.536,0,0,1-.531-.619l.441-2.822,2.242-4.077a.537.537,0,0,1,1,.341l-.8,5.121a.538.538,0,0,0,.531.62h3.361a.536.536,0,0,1,.446.835Z" transform="translate(-223.957 -146.331)" fill="#00c376"/>
        <g id="Grupo_1160906" data-name="Grupo 1160906" transform="translate(0 34.624)">
          <g id="Grupo_1160903" data-name="Grupo 1160903">
            <path id="Trazado_995274" data-name="Trazado 995274" d="M27.912,314.511l-2.07-1.195a.726.726,0,0,1-.354-.742,7.182,7.182,0,0,0,0-2.207.724.724,0,0,1,.354-.741l2.07-1.2a.726.726,0,0,0,.266-.993l-1.346-2.332a.727.727,0,0,0-.993-.266l-2.071,1.2a.725.725,0,0,1-.82-.065,7.073,7.073,0,0,0-1.909-1.1.725.725,0,0,1-.465-.677V301.8a.727.727,0,0,0-.727-.727H17.154a.727.727,0,0,0-.727.727v2.39a.725.725,0,0,1-.465.677,7.074,7.074,0,0,0-1.911,1.1.725.725,0,0,1-.82.065l-2.071-1.2a.727.727,0,0,0-.993.266l-1.346,2.332a.727.727,0,0,0,.266.993l2.071,1.2a.725.725,0,0,1,.353.741,7.182,7.182,0,0,0,0,2.207.727.727,0,0,1-.353.742l-2.071,1.195a.727.727,0,0,0-.266.993l1.346,2.332a.727.727,0,0,0,.993.266l2.071-1.2a.727.727,0,0,1,.82.065,7.077,7.077,0,0,0,1.911,1.1.725.725,0,0,1,.465.677v2.39a.727.727,0,0,0,.727.727h2.692a.727.727,0,0,0,.727-.727v-2.39a.725.725,0,0,1,.465-.677,7.063,7.063,0,0,0,1.909-1.1.727.727,0,0,1,.82-.065l2.071,1.2a.727.727,0,0,0,.993-.266l1.346-2.332A.726.726,0,0,0,27.912,314.511Zm-9.412.908a3.948,3.948,0,1,1,3.947-3.948A3.948,3.948,0,0,1,18.5,315.418Z" transform="translate(-8.724 -301.072)" fill="#00b8ff"/>
          </g>
          <g id="Grupo_1160905" data-name="Grupo 1160905" transform="translate(7.699 3.669)">
            <g id="Grupo_1160904" data-name="Grupo 1160904">
              <path id="Trazado_995275" data-name="Trazado 995275" d="M85.494,341.954l-2.07-1.195a.729.729,0,0,1-.355-.743,7.113,7.113,0,0,0,0-2.207.726.726,0,0,1,.355-.741l2.07-1.2a.726.726,0,0,0,.265-.993l-1.346-2.332a.727.727,0,0,0-.993-.267l-1.992,1.15a14.438,14.438,0,0,1,.212,4.5c-.6,4.8-3.175,6.989-7.635,8.189q0,.035,0,.071v2.389a.727.727,0,0,0,.728.727h2.691a.728.728,0,0,0,.728-.727V346.2a.723.723,0,0,1,.465-.677,7.1,7.1,0,0,0,1.909-1.105.727.727,0,0,1,.82-.065l2.071,1.2a.728.728,0,0,0,.993-.265l1.346-2.333a.725.725,0,0,0-.265-.992Z" transform="translate(-74.005 -332.185)" fill="#00a8ff"/>
            </g>
          </g>
        </g>
      </g>
      <g id="Grupo_1160908" data-name="Grupo 1160908" transform="translate(1.22)">
        <path id="Trazado_995276" data-name="Trazado 995276" d="M55.473,348.263A4.833,4.833,0,1,0,60.3,353.1a4.838,4.838,0,0,0-4.831-4.833Zm0,7.9a3.063,3.063,0,1,1,3.062-3.063,3.067,3.067,0,0,1-3.062,3.063Z" transform="translate(-44.811 -307.188)"/>
        <path id="Trazado_995277" data-name="Trazado 995277" d="M22.486,301.6a1.6,1.6,0,0,0-.162-1.221l-1.347-2.333a1.614,1.614,0,0,0-2.2-.589L16.8,298.6a7.941,7.941,0,0,0-1.962-1.135v-2.281a1.613,1.613,0,0,0-1.611-1.611H10.535a1.613,1.613,0,0,0-1.611,1.611v2.281A7.948,7.948,0,0,0,6.961,298.6l-1.976-1.141a1.613,1.613,0,0,0-2.2.589l-1.346,2.331a1.612,1.612,0,0,0,.589,2.2L4,303.722a8.061,8.061,0,0,0,0,2.267L2.025,307.13a1.613,1.613,0,0,0-.589,2.2l1.347,2.333a1.613,1.613,0,0,0,2.2.589l1.977-1.142a7.938,7.938,0,0,0,1.963,1.135v2.281a1.613,1.613,0,0,0,1.611,1.611h2.692a1.613,1.613,0,0,0,1.611-1.611v-2.281A7.939,7.939,0,0,0,16.8,311.11l1.977,1.142a1.614,1.614,0,0,0,2.2-.59l1.345-2.331a1.611,1.611,0,0,0-.589-2.2l-1.977-1.141a8.054,8.054,0,0,0,0-2.266l1.976-1.142a1.6,1.6,0,0,0,.751-.979Zm-3.705.643a1.619,1.619,0,0,0-.787,1.644,6.286,6.286,0,0,1,0,1.933,1.62,1.62,0,0,0,.786,1.646l1.933,1.116-1.188,2.059-1.935-1.117a1.621,1.621,0,0,0-1.818.144,6.173,6.173,0,0,1-1.67.966,1.62,1.62,0,0,0-1.032,1.5v2.232H10.693v-2.232a1.62,1.62,0,0,0-1.032-1.5,6.181,6.181,0,0,1-1.672-.967,1.622,1.622,0,0,0-1.819-.143l-1.934,1.117-1.188-2.058,1.935-1.116a1.62,1.62,0,0,0,.785-1.644,6.3,6.3,0,0,1,0-1.934,1.619,1.619,0,0,0-.785-1.645l-1.934-1.117,1.188-2.059,1.935,1.118a1.619,1.619,0,0,0,1.818-.144,6.18,6.18,0,0,1,1.671-.966,1.619,1.619,0,0,0,1.032-1.5v-2.232h2.377v2.232a1.619,1.619,0,0,0,1.032,1.5,6.176,6.176,0,0,1,1.669.965,1.621,1.621,0,0,0,1.821.145l1.934-1.117,1.188,2.059Z" transform="translate(-1.22 -258.948)"/>
        <path id="Trazado_995278" data-name="Trazado 995278" d="M120.648,187.386a.885.885,0,0,0,.423,1.177c.292.138.594.263.9.371a.885.885,0,0,0,.595-1.666c-.249-.089-.5-.192-.737-.3A.885.885,0,0,0,120.648,187.386Z" transform="translate(-106.488 -164.838)"/>
        <path id="Trazado_995279" data-name="Trazado 995279" d="M235.5,41.989h1.706a.885.885,0,1,0,0-1.769H235.5a.885.885,0,0,0,0,1.769Z" transform="translate(-207.088 -35.476)"/>
        <path id="Trazado_995280" data-name="Trazado 995280" d="M278.889,41.989h1.706a.885.885,0,0,0,0-1.769h-1.706a.885.885,0,0,0,0,1.769Z" transform="translate(-245.36 -35.476)"/>
        <path id="Trazado_995281" data-name="Trazado 995281" d="M192.109,41.989h1.706a.885.885,0,0,0,0-1.769h-1.706a.885.885,0,1,0,0,1.769Z" transform="translate(-168.815 -35.476)"/>
        <path id="Trazado_995282" data-name="Trazado 995282" d="M82.2,79.552a.884.884,0,0,0,1.146-.5,8.176,8.176,0,0,1,.691-1.372.885.885,0,1,0-1.5-.942,9.941,9.941,0,0,0-.841,1.67A.884.884,0,0,0,82.2,79.552Z" transform="translate(-72.153 -67.321)"/>
        <path id="Trazado_995283" data-name="Trazado 995283" d="M88.839,158.708a.885.885,0,0,0-.27,1.222,10.027,10.027,0,0,0,1.148,1.475.885.885,0,0,0,1.288-1.213,8.252,8.252,0,0,1-.945-1.214A.885.885,0,0,0,88.839,158.708Z" transform="translate(-78.144 -139.868)"/>
        <path id="Trazado_995284" data-name="Trazado 995284" d="M77.439,120.953a.885.885,0,0,0,.869-1.052,8.288,8.288,0,0,1-.148-1.531.885.885,0,0,0-.884-.881h0a.885.885,0,0,0-.882.888,10.05,10.05,0,0,0,.18,1.859A.885.885,0,0,0,77.439,120.953Z" transform="translate(-67.525 -103.631)"/>
        <path id="Trazado_995285" data-name="Trazado 995285" d="M148.723,42.011l.063,0c.2-.014.395-.021.592-.021h1.051a.885.885,0,1,0,0-1.769h-1.052c-.239,0-.48.009-.716.025a.885.885,0,0,0,.062,1.767Z" transform="translate(-130.546 -35.476)"/>
        <path id="Trazado_995286" data-name="Trazado 995286" d="M108.574,50.434a.882.882,0,0,0,.525-.173,8.211,8.211,0,0,1,1.316-.793.885.885,0,0,0-.767-1.594,9.977,9.977,0,0,0-1.6.965.885.885,0,0,0,.526,1.6Z" transform="translate(-95.131 -42.149)"/>
        <path id="Trazado_995287" data-name="Trazado 995287" d="M322.34,41.989h.885a.885.885,0,0,0,0-1.769h-.885a.885.885,0,0,0,0,1.769Z" transform="translate(-283.686 -35.476)"/>
        <path id="Trazado_995288" data-name="Trazado 995288" d="M362.226,348.191h-.885a.885.885,0,1,0,0,1.769h.885a.885.885,0,1,0,0-1.769Z" transform="translate(-318.088 -307.125)"/>
        <path id="Trazado_995289" data-name="Trazado 995289" d="M402.378,341.276a8.147,8.147,0,0,1-1.622.547.884.884,0,1,0,.386,1.726,9.932,9.932,0,0,0,1.975-.666.885.885,0,0,0-.739-1.608Z" transform="translate(-353.024 -300.954)"/>
        <path id="Trazado_995290" data-name="Trazado 995290" d="M443.4,309.088a.885.885,0,0,0-1.205.336,8.232,8.232,0,0,1-.993,1.4.885.885,0,1,0,1.327,1.17,10.018,10.018,0,0,0,1.206-1.7.885.885,0,0,0-.336-1.205Z" transform="translate(-389.12 -272.533)"/>
        <path id="Trazado_995291" data-name="Trazado 995291" d="M441.151,221.963a.885.885,0,0,0,1.522-.9,10.017,10.017,0,0,0-1.242-1.671.885.885,0,1,0-1.3,1.2A8.217,8.217,0,0,1,441.151,221.963Z" transform="translate(-388.157 -193.263)"/>
        <path id="Trazado_995292" data-name="Trazado 995292" d="M460.476,262.354a.885.885,0,0,0-.778.98,8.313,8.313,0,0,1,.054.943c0,.258-.012.517-.036.771a.885.885,0,0,0,.8.963c.028,0,.056,0,.083,0a.885.885,0,0,0,.88-.8c.029-.309.043-.624.043-.936a10.076,10.076,0,0,0-.065-1.144A.885.885,0,0,0,460.476,262.354Z" transform="translate(-405.619 -231.407)"/>
        <path id="Trazado_995293" data-name="Trazado 995293" d="M408.112,199.881a.885.885,0,1,0,.7-1.623c-.3-.128-.6-.243-.909-.342a.885.885,0,0,0-.54,1.685C407.617,199.681,407.869,199.776,408.112,199.881Z" transform="translate(-358.922 -174.536)"/>
        <path id="Trazado_995294" data-name="Trazado 995294" d="M376.7,2.523A8.724,8.724,0,0,0,370.534,0h-.15A8.714,8.714,0,0,0,365.4,1.664.885.885,0,1,0,366.438,3.1a7.013,7.013,0,0,1,11.114,5.691,6.948,6.948,0,0,1-1.424,4.239l-5.559,7.141a.046.046,0,0,1-.073,0l-5.553-7.133a7.006,7.006,0,0,1-.77-7.212.885.885,0,1,0-1.6-.753,8.655,8.655,0,0,0-.822,3.376,8.819,8.819,0,0,0,1.791,5.668l5.559,7.141a1.815,1.815,0,0,0,2.865,0l5.565-7.148A8.79,8.79,0,0,0,376.7,2.523Z" transform="translate(-319.223 0)"/>
        <path id="Trazado_995295" data-name="Trazado 995295" d="M404.912,38.33a4.839,4.839,0,1,0-4.839,4.839A4.844,4.844,0,0,0,404.912,38.33Zm-7.909,0a3.07,3.07,0,1,1,3.07,3.07A3.073,3.073,0,0,1,397,38.33Z" transform="translate(-348.764 -29.541)"/>
        <path id="Trazado_995296" data-name="Trazado 995296" d="M176.707,140.5a14.452,14.452,0,0,0-.289-20.359,14.888,14.888,0,0,0-15.8-3.2,14.739,14.739,0,0,0-4.854,3.2,14.452,14.452,0,0,0-.289,20.359,20.452,20.452,0,0,1,3.326,4.383.885.885,0,1,0,1.557-.84,18.33,18.33,0,0,0-2.55-3.6c-2.645-2.917-4.619-5.918-4.616-10.015a12.644,12.644,0,0,1,3.815-9.026,12.96,12.96,0,0,1,18.168,0,12.645,12.645,0,0,1,3.815,9.026c0,4.1-1.969,7.1-4.616,10.015a18.271,18.271,0,0,0-4.728,11.489h-2.814v-9.009h1.262v1.307a.885.885,0,1,0,1.769,0v-1.613a1.465,1.465,0,0,0-1.463-1.463h-4.618a1.465,1.465,0,0,0-1.463,1.463v1.613a.885.885,0,1,0,1.769,0v-1.307h.976v9.009h-2.529a18.319,18.319,0,0,0-.62-3.982.885.885,0,0,0-1.707.463,16.542,16.542,0,0,1,.556,3.519h-1.093a1.906,1.906,0,0,0-1.9,1.9V156a1.906,1.906,0,0,0,1.9,1.9h.943a5.374,5.374,0,0,0,10.668,0h.943a1.906,1.906,0,0,0,1.9-1.9v-2.169a1.906,1.906,0,0,0-1.9-1.9h-.808a16.5,16.5,0,0,1,4.267-10.3Zm-10.76,20.359a3.611,3.611,0,0,1-3.545-2.952h7.091A3.611,3.611,0,0,1,165.948,160.857Zm6.413-7.025V156a.135.135,0,0,1-.135.135H159.67a.135.135,0,0,1-.135-.135v-2.169a.135.135,0,0,1,.135-.135h12.555A.135.135,0,0,1,172.36,153.832Z" transform="translate(-133.707 -102.24)"/>
        <path id="Trazado_995297" data-name="Trazado 995297" d="M235.6,157.459a1.4,1.4,0,0,0-1.7.66l-4.513,8.208a1.421,1.421,0,0,0,1.246,2.106H232.8l-.808,4.493a1.41,1.41,0,0,0,.866,1.569,1.437,1.437,0,0,0,.54.106,1.41,1.41,0,0,0,1.174-.632l5.372-8.013a1.421,1.421,0,0,0-1.181-2.213h-2.955l.737-4.72A1.4,1.4,0,0,0,235.6,157.459Zm2.511,8.053-4.084,6.092.587-3.267a1.421,1.421,0,0,0-1.4-1.673h-2l3.275-5.958L234,163.872a1.421,1.421,0,0,0,1.4,1.641Z" transform="translate(-202.316 -138.818)"/>
      </g>
    </g>
  </g>
</svg>
