<svg xmlns="http://www.w3.org/2000/svg" xmlns:xlink="http://www.w3.org/1999/xlink" width="98" height="98" viewBox="0 0 98 98">
  <defs>
    <filter id="Trazado_982548" x="0" y="0" width="98" height="98" filterUnits="userSpaceOnUse">
      <feOffset dy="3" input="SourceAlpha"/>
      <feGaussianBlur stdDeviation="3" result="blur"/>
      <feFlood flood-opacity="0.161"/>
      <feComposite operator="in" in2="blur"/>
      <feComposite in="SourceGraphic"/>
    </filter>
  </defs>
  <g id="Grupo_1160970" data-name="Grupo 1160970" transform="translate(-183 -2251)">
    <g id="Grupo_1160767" data-name="Grupo 1160767" transform="translate(0 1402)">
      <g id="Grupo_1154380" data-name="Grupo 1154380" transform="translate(-9 -1247)">
        <g id="Grupo_1149886" data-name="Grupo 1149886" transform="translate(0 -2463)">
          <g id="Grupo_1149694" data-name="Grupo 1149694" transform="translate(-9 4104)">
            <g id="Grupo_1149263" data-name="Grupo 1149263" transform="translate(210 461)">
              <g transform="matrix(1, 0, 0, 1, -9, -6)" filter="url(#Trazado_982548)">
                <g id="Trazado_982548-2" data-name="Trazado 982548" transform="translate(9 6)" fill="#f6edfd">
                  <path d="M 40 78.5 C 34.80187606811523 78.5 29.76003265380859 77.48227691650391 25.01452255249023 75.47509765625 C 20.43014526367188 73.53606414794922 16.31264495849609 70.75986480712891 12.77638912200928 67.22360992431641 C 9.240133285522461 63.68735504150391 6.46393346786499 59.56985473632812 4.524899959564209 54.98547744750977 C 2.517722129821777 50.23996734619141 1.5 45.19812393188477 1.5 40 C 1.5 34.80187606811523 2.517722129821777 29.76003265380859 4.524899959564209 25.01452255249023 C 6.46393346786499 20.43014526367188 9.240133285522461 16.31264495849609 12.77638912200928 12.77638912200928 C 16.31264495849609 9.240133285522461 20.43014526367188 6.46393346786499 25.01452255249023 4.524899959564209 C 29.76003265380859 2.517722129821777 34.80187606811523 1.5 40 1.5 C 45.19812393188477 1.5 50.23996734619141 2.517722129821777 54.98547744750977 4.524899959564209 C 59.56985473632812 6.46393346786499 63.68735504150391 9.240133285522461 67.22360992431641 12.77638912200928 C 70.75986480712891 16.31264495849609 73.53606414794922 20.43014526367188 75.47509765625 25.01452255249023 C 77.48227691650391 29.76003265380859 78.5 34.80187606811523 78.5 40 C 78.5 45.19812393188477 77.48227691650391 50.23996734619141 75.47509765625 54.98547744750977 C 73.53606414794922 59.56985473632812 70.75986480712891 63.68735504150391 67.22360992431641 67.22360992431641 C 63.68735504150391 70.75986480712891 59.56985473632812 73.53606414794922 54.98547744750977 75.47509765625 C 50.23996734619141 77.48227691650391 45.19812393188477 78.5 40 78.5 Z" stroke="none"/>
                  <path d="M 40 3 C 35.00370788574219 3 30.15846633911133 3.977851867675781 25.59885406494141 5.906410217285156 C 21.19326782226562 7.769813537597656 17.23602676391602 10.43806457519531 13.83704376220703 13.83705139160156 C 10.43806457519531 17.23603820800781 7.769813537597656 21.19327926635742 5.906410217285156 25.59885406494141 C 3.977851867675781 30.15846633911133 3 35.00370788574219 3 40 C 3 44.99629211425781 3.977851867675781 49.84153366088867 5.906410217285156 54.40114593505859 C 7.769813537597656 58.80672073364258 10.43806457519531 62.76396179199219 13.83704376220703 66.16294860839844 C 17.23602676391602 69.56193542480469 21.19326782226562 72.23018646240234 25.59885406494141 74.09358978271484 C 30.15846633911133 76.02214813232422 35.00370788574219 77 40 77 C 44.99629211425781 77 49.84153366088867 76.02214813232422 54.40114593505859 74.09358978271484 C 58.80672073364258 72.23018646240234 62.76396179199219 69.56193542480469 66.16294860839844 66.16294860839844 C 69.56193542480469 62.76396179199219 72.23018646240234 58.80672073364258 74.09358978271484 54.40114593505859 C 76.02214813232422 49.84153366088867 77 44.99629211425781 77 40 C 77 35.00370788574219 76.02214813232422 30.15846633911133 74.09358978271484 25.59885406494141 C 72.23018646240234 21.19327926635742 69.56193542480469 17.23603820800781 66.16294860839844 13.83705139160156 C 62.76396179199219 10.43806457519531 58.80672073364258 7.769813537597656 54.40114593505859 5.906410217285156 C 49.84153366088867 3.977851867675781 44.99629211425781 3 40 3 M 40 0 C 62.09138488769531 0 80 17.90861511230469 80 40 C 80 62.09138488769531 62.09138488769531 80 40 80 C 17.90859985351562 80 0 62.09138488769531 0 40 C 0 17.90861511230469 17.90859985351562 0 40 0 Z" stroke="none" fill="#ac59f1"/>
                </g>
              </g>
            </g>
          </g>
        </g>
      </g>
    </g>
    <g id="redaccion" transform="translate(192.25 2273)">
      <g id="Grupo_1160968" data-name="Grupo 1160968" transform="translate(17.46 0.71)">
        <path id="Trazado_995459" data-name="Trazado 995459" d="M102.7,7.5a.947.947,0,0,0-.947.947V9.2l1.242,2.044L101.75,46.32a.947.947,0,0,0,.947.947l25.01-.877,1.691.877h.757a.947.947,0,0,0,.947-.947V8.447a.947.947,0,0,0-.947-.947Z" transform="translate(-94.412 -7.5)" fill="#dfeef4"/>
        <path id="Trazado_995460" data-name="Trazado 995460" d="M129.4,28.34V63.563H102.7a.947.947,0,0,1-.947-.947V25.5h24.807A2.844,2.844,0,0,1,129.4,28.34Z" transform="translate(-94.412 -23.796)" fill="#cfe2e8"/>
        <path id="Trazado_995461" data-name="Trazado 995461" d="M92.655,49.628H65.2a.947.947,0,0,0-.947.947v.189l.854,1.089-.854,36.6a.947.947,0,0,0,.947.947l26.088-.547.85.547h.521a.947.947,0,0,0,.947-.947V50.575A.947.947,0,0,0,92.655,49.628Z" transform="translate(-60.463 -45.639)" fill="#dfeef4"/>
        <path id="Trazado_995462" data-name="Trazado 995462" d="M92.134,70.257v30H65.2a.947.947,0,0,1-.947-.947V61.628H83.5a2.553,2.553,0,0,1,1.807.748l6.074,6.074a2.556,2.556,0,0,1,.749,1.808Z" transform="translate(-60.463 -56.503)" fill="#cfe2e8"/>
        <path id="Trazado_995463" data-name="Trazado 995463" d="M57.979,91.52v31.8a.947.947,0,0,1-.947.947H30.8l-.773-.468a.947.947,0,0,1-.947-.947L29.1,85.8a.947.947,0,0,1,.947-.947L30.8,84.5H50.959a.942.942,0,0,1,.392.085l6.543,6.543A.942.942,0,0,1,57.979,91.52Z" transform="translate(-28.627 -77.209)" fill="#f2fbff"/>
        <path id="Trazado_995464" data-name="Trazado 995464" d="M26.428,84.5v39.767H25.2a.947.947,0,0,1-.947-.947V85.447A.947.947,0,0,1,25.2,84.5Z" transform="translate(-24.25 -77.209)" fill="#dfeef4"/>
        <path id="Trazado_995465" data-name="Trazado 995465" d="M270.793,91.943h-5.6A.947.947,0,0,1,264.25,91V85.4a.941.941,0,0,1,.277.192l6.073,6.073A.941.941,0,0,1,270.793,91.943Z" transform="translate(-241.526 -78.024)" fill="#dfeef4"/>
        <g id="Grupo_1160967" data-name="Grupo 1160967" transform="translate(19.305 8.347)">
          <path id="Trazado_995466" data-name="Trazado 995466" d="M237.05,291.959l-.7,2.986a1.9,1.9,0,0,1-.218.135l-2.661,1.409-1.836.8c-.247.131-.312-.128-.181-.375l2.3-4.388c.047-.088-.029-.258-.029-.258l2.944-.689A.378.378,0,0,1,237.05,291.959Z" transform="translate(-231.081 -273.026)" fill="#87807f"/>
          <path id="Trazado_995467" data-name="Trazado 995467" d="M275.971,119.684,258.954,136.7a1.827,1.827,0,0,1-.236.2l.029-2.3a.378.378,0,0,0-.379-.383H256.1l9.487-8.042,7.7-9.177,2.036.875Z" transform="translate(-253.45 -114.98)" fill="#ffe177"/>
          <path id="Trazado_995468" data-name="Trazado 995468" d="M440.647,101.8l.751.093.693.693a.948.948,0,0,1,0,1.341l-1.743,1.743-2.682-2.682,1.64-1.188A.948.948,0,0,1,440.647,101.8Z" transform="translate(-417.827 -100.97)" fill="#fe99a0"/>
          <path id="Trazado_995469" data-name="Trazado 995469" d="M233.31,292.356l-1.046,1.046a1.964,1.964,0,0,0-.175.2,1.985,1.985,0,0,0-.16.252l-1.394,2.633-1.971,1.043a.285.285,0,0,1-.384-.384l2.452-4.632a1.987,1.987,0,0,1,.16-.252l2.326-.689C233.211,291.575,233.31,292.356,233.31,292.356Z" transform="translate(-228.145 -273.025)" fill="#766e6e"/>
          <path id="Trazado_995470" data-name="Trazado 995470" d="M274.607,118.32l-15.991,15.991a.373.373,0,0,0-.246-.092H256.1a1.965,1.965,0,0,1,.175-.2L273.288,117l1.319.135Z" transform="translate(-253.45 -114.98)" fill="#ffd15b"/>
          <path id="Trazado_995471" data-name="Trazado 995471" d="M441.393,96.585,438.979,99l-1.319-1.319,1.744-1.743a.948.948,0,0,1,1.341,0Z" transform="translate(-417.822 -95.659)" fill="#fd8087"/>
        </g>
      </g>
      <g id="Grupo_1160969" data-name="Grupo 1160969" transform="translate(16.75)">
        <path id="Trazado_995472" data-name="Trazado 995472" d="M141.656,122.42a.71.71,0,0,0,0-1.42h-7.2a.71.71,0,1,0,0,1.42Z" transform="translate(-122.672 -109.543)"/>
        <path id="Trazado_995473" data-name="Trazado 995473" d="M56.75,183.71a.71.71,0,0,0,.71.71H79.237a.71.71,0,1,0,0-1.42H57.46A.71.71,0,0,0,56.75,183.71Z" transform="translate(-52.963 -165.673)"/>
        <path id="Trazado_995474" data-name="Trazado 995474" d="M57.46,218.17H79.237a.71.71,0,1,0,0-1.42H57.46a.71.71,0,1,0,0,1.42Z" transform="translate(-52.963 -196.227)"/>
        <path id="Trazado_995475" data-name="Trazado 995475" d="M57.46,319.42H67.932a.71.71,0,1,0,0-1.42H57.46a.71.71,0,1,0,0,1.42Z" transform="translate(-52.963 -287.891)"/>
        <path id="Trazado_995476" data-name="Trazado 995476" d="M183.122,386.92a.71.71,0,1,0,0-1.42H172.21a.71.71,0,1,0,0,1.42Z" transform="translate(-156.848 -349)"/>
        <path id="Trazado_995477" data-name="Trazado 995477" d="M57.46,386.92h7.551a.71.71,0,1,0,0-1.42H57.46a.71.71,0,1,0,0,1.42Z" transform="translate(-52.963 -349)"/>
        <path id="Trazado_995478" data-name="Trazado 995478" d="M57.46,420.67H79.237a.71.71,0,0,0,0-1.42H57.46a.71.71,0,0,0,0,1.42Z" transform="translate(-52.963 -379.554)"/>
        <path id="Trazado_995479" data-name="Trazado 995479" d="M57.46,454.42h15.1a.71.71,0,1,0,0-1.42H57.46a.71.71,0,1,0,0,1.42Z" transform="translate(-52.963 -410.109)"/>
        <path id="Trazado_995480" data-name="Trazado 995480" d="M61.57,10.135,60.229,8.794a1.661,1.661,0,0,0-2.345,0L54.86,11.818V1.657A1.659,1.659,0,0,0,53.2,0H25.745a1.659,1.659,0,0,0-1.657,1.657V3.6H22.147A1.659,1.659,0,0,0,20.49,5.255V7.291H18.407A1.659,1.659,0,0,0,16.75,8.948V19.374a.71.71,0,0,0,1.42,0V8.948a.237.237,0,0,1,.237-.237H39.474v4.971a1.659,1.659,0,0,0,1.657,1.657H46.1v5.237l-3.142,3.142H21.247a.71.71,0,1,0,0,1.42H41.539l-1.775,1.775H21.247a.71.71,0,1,0,0,1.42H38.554L35.922,33.3H21.247a.71.71,0,1,0,0,1.42H43.025a.71.71,0,1,0,0-1.42H39.209l2.921-1.547a2.6,2.6,0,0,0,.624-.461L46.1,27.949V46.821a.237.237,0,0,1-.237.237H18.407a.237.237,0,0,1-.237-.237V22.688a.71.71,0,1,0-1.42,0V46.821a1.659,1.659,0,0,0,1.657,1.657H45.865a1.659,1.659,0,0,0,1.657-1.657V44.785h2.083a1.659,1.659,0,0,0,1.657-1.657V41.187H53.2A1.659,1.659,0,0,0,54.86,39.53V29.092a.71.71,0,1,0-1.42,0V39.53a.237.237,0,0,1-.237.237H51.262V22.789l2.178-2.178v5.167a.71.71,0,1,0,1.42,0V19.191l6.71-6.71a1.658,1.658,0,0,0,0-2.345ZM40.894,13.682V9.715l4.2,4.2H41.131A.237.237,0,0,1,40.894,13.682Zm6.143.167L40.964,7.776a1.646,1.646,0,0,0-1.172-.485H21.91V5.255a.237.237,0,0,1,.237-.237H31.8a.71.71,0,1,0,0-1.42h-6.3V1.657a.237.237,0,0,1,.237-.237H53.2a.237.237,0,0,1,.237.237V13.238l-2.178,2.178V5.255A1.659,1.659,0,0,0,49.605,3.6H35.119a.71.71,0,0,0,0,1.42H49.605a.237.237,0,0,1,.237.237V16.836l-2.32,2.32V15.021A1.646,1.646,0,0,0,47.037,13.849Zm-7.257,15.2,1.551-.02-.02,1.551-3.254,1.723ZM49.842,43.128a.237.237,0,0,1-.237.237H47.522V26.529l2.32-2.32ZM42.747,29.3l.012-.971a.711.711,0,0,0-.208-.511.69.69,0,0,0-.511-.208l-.971.012L56.642,12.044l1.678,1.678ZM60.566,11.477l-1.241,1.241L57.647,11.04,58.888,9.8a.238.238,0,0,1,.337,0l1.341,1.341a.238.238,0,0,1,0,.337Z" transform="translate(-16.75)"/>
      </g>
    </g>
  </g>
</svg>
